<?xml version="1.0" encoding="utf-8"?>
<!-- Generator: Adobe Illustrator 19.2.0, SVG Export Plug-In . SVG Version: 6.00 Build 0)  -->
<svg version="1.1" id="Layer_1" xmlns="http://www.w3.org/2000/svg" xmlns:xlink="http://www.w3.org/1999/xlink" x="0px" y="0px"
	 viewBox="0 0 50 50" style="enable-background:new 0 0 50 50;" xml:space="preserve">
<style type="text/css">
	.st0{fill:#FAFAFA;}
	.st1{display:none;fill:#979797;}
	.st2{display:none;}
	.st3{display:inline;fill:#979797;}
</style>
<path class="st0" d="M25,0.25C11.33,0.25,0.25,11.33,0.25,25S11.33,49.75,25,49.75S49.75,38.67,49.75,25S38.67,0.25,25,0.25z
	 M25,47.83C12.39,47.83,2.17,37.61,2.17,25S12.39,2.17,25,2.17S47.83,12.39,47.83,25S37.61,47.83,25,47.83z"/>
<g>
	<path class="st0" d="M37.969,35.781V26.25c0-5.156-2.812-7.5-6.406-7.5c-2.969,0-4.219,1.562-5,2.812v-2.344h-5.625
		c0,1.562,0,16.719,0,16.719h5.625v-9.375c0-0.469,0-0.938,0.156-1.406c0.469-0.938,1.25-2.031,2.812-2.031
		c2.031,0,2.812,1.562,2.812,3.75v8.906H37.969L37.969,35.781z M15.156,16.875c1.875,0,3.125-1.25,3.125-2.969
		s-1.25-2.812-3.125-2.812s-3.125,1.25-3.125,2.812C12.031,15.625,13.281,16.875,15.156,16.875L15.156,16.875z M17.969,35.781
		V19.062h-5.625v16.719H17.969z"/>
</g>
<path class="st1" d="M25,0.25C11.33,0.25,0.25,11.33,0.25,25S11.33,49.75,25,49.75S49.75,38.67,49.75,25S38.67,0.25,25,0.25z
	 M25,47.83C12.39,47.83,2.17,37.61,2.17,25S12.39,2.17,25,2.17S47.83,12.39,47.83,25S37.61,47.83,25,47.83z"/>
<g class="st2">
	<path class="st3" d="M37.969,35.781V26.25c0-5.156-2.812-7.5-6.406-7.5c-2.969,0-4.219,1.562-5,2.812v-2.344h-5.625
		c0,1.562,0,16.719,0,16.719h5.625v-9.375c0-0.469,0-0.938,0.156-1.406c0.469-0.938,1.25-2.031,2.812-2.031
		c2.031,0,2.812,1.562,2.812,3.75v8.906H37.969L37.969,35.781z M15.156,16.875c1.875,0,3.125-1.25,3.125-2.969
		s-1.25-2.812-3.125-2.812s-3.125,1.25-3.125,2.812C12.031,15.625,13.281,16.875,15.156,16.875L15.156,16.875z M17.969,35.781
		V19.062h-5.625v16.719H17.969z"/>
</g>
</svg>
