<?xml version="1.0" encoding="utf-8"?>
<!-- Generator: Adobe Illustrator 19.2.0, SVG Export Plug-In . SVG Version: 6.00 Build 0)  -->
<svg version="1.1" id="Layer_1" xmlns="http://www.w3.org/2000/svg" xmlns:xlink="http://www.w3.org/1999/xlink" x="0px" y="0px"
	 viewBox="0 0 283 116" style="enable-background:new 0 0 283 116;" xml:space="preserve">
<style type="text/css">
	.st0{fill:#FFFFFF;stroke:#000000;stroke-width:0.3582;stroke-miterlimit:10;}
	.st1{fill:#FFFFFF;stroke:#000000;stroke-width:0.4025;stroke-miterlimit:10;}
	.st2{fill:#FFFFFF;stroke:#000000;stroke-width:0.3709;stroke-miterlimit:10;}
	.st3{fill:#FFFFFF;stroke:#000000;stroke-miterlimit:10;}
	.st4{fill:#FFFFFF;stroke:#000000;stroke-width:0.5861;stroke-miterlimit:10;}
	.st5{fill:#FFFFFF;stroke:#000000;stroke-width:0.5962;stroke-miterlimit:10;}
	.st6{fill:#FFFFFF;stroke:#000000;stroke-linecap:round;stroke-linejoin:round;stroke-miterlimit:10;}
	.st7{fill:none;stroke:#000000;stroke-miterlimit:10;}
	.st8{fill:none;stroke:#000000;stroke-linecap:square;stroke-miterlimit:10;}
	.st9{fill:none;stroke:#000000;stroke-linecap:round;stroke-miterlimit:10;}
	.st10{fill:none;stroke:#000000;stroke-width:1.5;stroke-linecap:round;stroke-miterlimit:10;}
	.st11{fill:#FFFFFF;}
	.st12{fill:none;stroke:#000000;stroke-width:2;stroke-linecap:round;stroke-linejoin:round;stroke-miterlimit:10;}
	.st13{fill:none;stroke:#000000;stroke-width:1.2445;stroke-linecap:round;stroke-miterlimit:10;}
	.st14{fill:#231F20;}
	.st15{fill:none;stroke:#231F20;stroke-width:0.8425;stroke-miterlimit:10;}
	.st16{fill:none;stroke:#231F20;stroke-width:0.7623;stroke-miterlimit:10;}
	.st17{fill:none;stroke:#000000;stroke-width:2;stroke-linecap:round;stroke-miterlimit:10;}
	.st18{fill:none;stroke:#000000;stroke-width:0.65;stroke-miterlimit:10;}
	.st19{fill:none;stroke:#000000;stroke-width:0.65;stroke-linecap:round;stroke-miterlimit:10;}
	.st20{display:none;fill:none;stroke:#000000;stroke-width:2;stroke-linecap:round;stroke-miterlimit:10;}
	.st21{display:none;fill:none;stroke:#000000;stroke-width:0.65;stroke-miterlimit:10;}
	.st22{display:none;fill:none;stroke:#000000;stroke-width:0.679;stroke-miterlimit:10;}
	.st23{fill:none;stroke:#000000;stroke-width:0.8241;stroke-miterlimit:10;}
	.st24{fill:none;stroke:#000000;stroke-width:3;stroke-miterlimit:10;}
	.st25{fill:none;stroke:#000000;stroke-width:3;stroke-linecap:round;stroke-linejoin:round;stroke-miterlimit:10;}
	.st26{fill:#989797;}
	.st27{fill:#108896;}
	.st28{fill:#075F66;}
	.st29{fill:#EF512F;}
	.st30{fill:#F6F4EF;}
	.st31{fill:#F19F22;}
	.st32{fill:#FFF0D6;}
	.st33{fill:#333333;}
	.st34{fill:none;stroke:#000000;stroke-width:7;stroke-miterlimit:10;}
	.st35{fill:none;stroke:#000000;stroke-width:7;stroke-linecap:round;stroke-linejoin:round;stroke-miterlimit:10;}
	.st36{fill:#FFFFFF;stroke:#000000;stroke-width:7;stroke-linecap:round;stroke-linejoin:round;stroke-miterlimit:10;}
	.st37{fill:#FFFFFF;stroke:#000000;stroke-width:7;stroke-miterlimit:10;}
	.st38{fill:#034E57;}
	.st39{fill:#FFFFFF;stroke:#000000;stroke-width:0.4601;stroke-miterlimit:10;}
	.st40{fill:#FFFFFF;stroke:#000000;stroke-width:1.143;stroke-miterlimit:10;}
	.st41{fill:none;stroke:#000000;stroke-width:2.2861;stroke-miterlimit:10;}
	.st42{fill:none;stroke:#000000;stroke-width:2.2861;stroke-linecap:round;stroke-miterlimit:10;}
	.st43{fill:none;stroke:#000000;stroke-width:1.143;stroke-linecap:round;stroke-miterlimit:10;}
	.st44{fill:none;stroke:#000000;stroke-width:0.743;stroke-miterlimit:10;}
	.st45{fill:none;stroke:#000000;stroke-width:3.4291;stroke-linecap:round;stroke-miterlimit:10;}
	.st46{fill:none;stroke:#000000;stroke-width:0.743;stroke-linecap:round;stroke-miterlimit:10;}
	.st47{fill:none;stroke:#000000;stroke-width:1.143;stroke-miterlimit:10;}
	.st48{fill:none;stroke:#000000;stroke-width:3.4291;stroke-linecap:round;stroke-linejoin:round;stroke-miterlimit:10;}
	.st49{fill:none;stroke:#000000;stroke-width:2.2861;stroke-linecap:square;stroke-miterlimit:10;}
	.st50{fill:none;stroke:#000000;stroke-width:1.4302;stroke-miterlimit:10;}
	.st51{fill:none;}
	.st52{font-family:'ProximaNova-Regular';}
	.st53{font-size:20px;}
</style>
<g>
	<path class="st28" d="M52.4,49.8C52.3,50,52,50,52,49.8c-0.4-2.8-4.4-2.3-6.4-3.6c-3-1.9-1.2-5.6,3.1-7.5c6-2.6,12.7-0.5,8.2,5.7
		C54.8,47.2,53.9,46.3,52.4,49.8z"/>
	<ellipse transform="matrix(0.3017 -0.9534 0.9534 0.3017 9.756 69.6027)" class="st28" cx="52.4" cy="28.1" rx="3.4" ry="3.4"/>
	<ellipse transform="matrix(0.3017 -0.9534 0.9534 0.3017 -2.4083 59.496)" class="st28" cx="39.4" cy="31.4" rx="3.7" ry="3.7"/>
	<path class="st28" d="M32.6,23.9c-0.2,0-0.4-0.1-0.5-0.2c-0.5-0.3-0.6-0.9-0.3-1.4c1.2-1.8,3.9-2.6,5.8-1.7
		c0.5,0.2,0.7,0.8,0.5,1.3c-0.2,0.5-0.8,0.7-1.3,0.5c-1.1-0.5-2.7,0-3.3,1C33.3,23.8,32.9,23.9,32.6,23.9z"/>
	<path class="st28" d="M48.1,22.3c-0.2,0-0.4-0.1-0.5-0.2c-0.5-0.3-0.6-0.9-0.3-1.4c1.2-1.8,3.9-2.6,5.8-1.7
		c0.5,0.2,0.7,0.8,0.5,1.3s-0.8,0.7-1.3,0.5c-1.1-0.5-2.7,0-3.3,1C48.7,22.2,48.4,22.3,48.1,22.3z"/>
	<path class="st28" d="M47.4,60.2c-0.9,0-1.8-0.1-2.7-0.2c-0.8-0.1-1.4-0.9-1.3-1.7c0.1-0.8,0.9-1.4,1.7-1.3
		c6.3,1,13.4-2.3,17.3-7.9c3.9-5.7,3.8-12.8-0.3-19.9c-0.4-0.7-0.2-1.5,0.4-2c0.6-0.5,1.5-0.4,2,0.2c4,4.4,6.2,8.4,7.4,11.5
		c5.2-6,2.6-11.8,0.4-16.5c-0.4-0.9-0.8-1.8-1.1-2.6c-0.8-2.1-1.2-4.2-1.7-6.2c-1-4.4-1.7-7.2-4.1-8.1c-2.1-0.7-7.2,0.2-9.2,3.3
		c-1.5,2.5-3.4,1.5-4.4,1c-0.2-0.1-0.5-0.3-0.8-0.4c-12.7-5.1-25.3-1.8-30.8,8c-0.4,0.7-1.3,1-2,0.6c-0.7-0.4-1-1.3-0.6-2
		C24,5,38.2,1.1,52.3,6.8c0.4,0.2,0.7,0.3,1,0.5c0.1,0.1,0.3,0.1,0.4,0.2c0,0,0.1-0.1,0.1-0.1c2.8-4.5,9.5-5.7,12.7-4.6
		c4.2,1.5,5.2,6,6.1,10.3c0.4,1.9,0.8,3.9,1.5,5.8c0.3,0.7,0.6,1.5,1,2.4c2.3,5.1,6.2,13.6-2.8,21.7c-0.4,0.3-0.9,0.5-1.4,0.3
		c-0.5-0.1-0.9-0.5-1-1c-0.3-1.2-0.9-2.7-1.7-4.4c0.5,4.7-0.6,9.2-3.3,13.1C61,56.6,54.1,60.2,47.4,60.2z"/>
	<path class="st28" d="M41.2,79.5c-2.2,0-4.7-1-6.3-2C21.4,68.8,8.4,52.8,4.1,43c-5-11.2-2.1-26.1,6.6-34.7c1-1,2.4-1.2,3.5-0.5
		c1.6,1,2.3,3.3,1.6,5.5c-1.1,3.7-5.7,22.1,8.6,30.2c-0.7-1.9-2.1-3.6-3.4-5.3c-2.1-2.7-4.2-5.5-3.8-8.9c0.2-1.4,1.1-2.5,2.6-2.9
		c1.5-0.4,3,0.2,3.9,1.5c1.2,1.8,3.3,3.6,5.1,5.1c1.1,0.9,2.1,1.8,2.9,2.7c5.2,5.4,8.2,9.8,9.3,17v0c0.3,1.7,0.4,3.6,0.6,5.7
		c0.4,4.9,0.8,10.5,2.8,14.8c1.4,3,0.6,4.6-0.3,5.4C43.3,79.3,42.3,79.5,41.2,79.5z M12.7,10.4C5,18.2,2.4,31.9,6.8,41.8
		C11,51.2,23.5,66.6,36.5,75c2.1,1.4,5.1,1.9,5.6,1.4c0,0,0.2-0.6-0.4-1.9c-2.2-4.8-2.7-10.7-3.1-15.8c-0.2-2-0.3-3.9-0.5-5.4
		c-1-6.5-3.7-10.3-8.5-15.4c-0.7-0.7-1.7-1.6-2.7-2.5c-1.9-1.7-4.1-3.6-5.6-5.7c-0.3-0.4-0.6-0.3-0.7-0.3c-0.3,0.1-0.3,0.2-0.3,0.3
		c-0.2,2.2,1.4,4.3,3.2,6.7c1.6,2.1,3.4,4.4,4.2,7.2c0.1,0.3,0.1,0.5,0.2,0.8c0.3,1.1,0.6,2.1-0.3,2.9c-0.9,0.8-1.9,0.3-3.6-0.6
		c-13.6-6.9-14.6-22.2-11-34.2C13.2,11.4,12.9,10.7,12.7,10.4z"/>
	<g>
		<path class="st28" d="M100.5,102c0,0.8-0.3,1.4-0.8,2c-5.3,4.2-11.3,6.3-17.9,6.3c-7.9,0-14.6-2.8-20.1-8.3
			c-5.6-5.6-8.3-12.3-8.3-20.1s2.8-14.6,8.3-20.1c5.6-5.6,12.3-8.3,20.1-8.3c6.8,0,12.8,2.2,18.1,6.5c0.5,0.6,0.8,1.2,0.8,2
			s-0.3,1.5-0.8,2c-0.6,0.6-1.2,0.8-2,0.8c-0.8,0-1.5-0.3-2-0.9c-4-3.2-8.7-4.8-14.1-4.8c-6.3,0-11.7,2.2-16.1,6.7
			c-4.4,4.4-6.7,9.8-6.7,16.1s2.2,11.7,6.7,16.1c4.5,4.5,9.8,6.7,16.1,6.7c4.9,0,9.3-1.4,13-4.1v-13H83.5c-0.8,0-1.5-0.3-2-0.8
			c-0.6-0.6-0.8-1.2-0.8-2s0.3-1.5,0.8-2c0.6-0.6,1.2-0.8,2-0.8h14.1c0.8,0,1.4,0.3,2,0.8c0.5,0.6,0.8,1.2,0.8,2V102z"/>
		<path class="st28" d="M135.7,100.6c0.8,0,1.5,0.3,2,0.8s0.8,1.2,0.8,2s-0.3,1.5-0.8,2c-3.7,3.2-8,4.8-13,4.8
			c-5.5,0-10.2-1.9-14.1-5.8c-3.9-3.9-5.8-8.6-5.8-14.1c0-5.5,1.9-10.2,5.8-14.1c3.9-3.9,8.6-5.8,14.1-5.8c5.5,0,10.2,1.9,14.1,5.8
			s5.8,8.6,5.8,14.1c0,0.8-0.3,1.5-0.8,2c-0.6,0.6-1.2,0.8-2,0.8h-31.1c0.5,2.7,1.8,5.1,3.9,7.2c2.8,2.8,6.1,4.2,10.1,4.2
			c3.6,0,6.6-1.1,9.2-3.4C134.5,100.8,135.1,100.6,135.7,100.6z M138.8,87.5c-0.5-2.7-1.8-5.1-3.9-7.2c-2.8-2.8-6.1-4.2-10.1-4.2
			c-3.9,0-7.3,1.4-10.1,4.2c-2.1,2.1-3.4,4.5-3.9,7.2H138.8z"/>
		<path class="st28" d="M166,104.6c0.8,0,1.5,0.3,2,0.8c0.6,0.6,0.8,1.2,0.8,2s-0.3,1.5-0.8,2c-0.6,0.6-1.2,0.8-2,0.8
			c-9.5,0-14.2-4.7-14.2-14.2V76.1h-2.8c-0.8,0-1.5-0.3-2-0.8c-0.6-0.6-0.8-1.2-0.8-2s0.3-1.5,0.8-2c0.6-0.6,1.2-0.8,2-0.8h2.8V56.2
			c0-0.8,0.3-1.5,0.8-2c0.6-0.6,1.2-0.8,2-0.8s1.5,0.3,2,0.8c0.6,0.6,0.8,1.2,0.8,2v14.2h5.7c0.8,0,1.5,0.3,2,0.8
			c0.6,0.6,0.8,1.2,0.8,2s-0.3,1.5-0.8,2c-0.6,0.6-1.2,0.8-2,0.8h-5.7v19.9C157.4,101.8,160.3,104.6,166,104.6z"/>
		<path class="st28" d="M184.7,53.4H196c5.1,0,9.5,1.8,13.1,5.4c3.6,3.6,5.4,8,5.4,13.1s-1.8,9.5-5.4,13.1c-3.6,3.6-8,5.4-13.1,5.4
			h-8.5v17.1c0,0.8-0.3,1.5-0.8,2c-0.6,0.6-1.2,0.8-2,0.8s-1.5-0.3-2-0.8c-0.6-0.6-0.8-1.2-0.8-2V56.2c0-0.8,0.3-1.5,0.8-2
			C183.2,53.6,183.9,53.4,184.7,53.4z M187.5,59v25.6h8.5c3.5,0,6.6-1.3,9.1-3.8c2.5-2.5,3.8-5.5,3.8-9.1s-1.3-6.6-3.8-9.1
			c-2.5-2.5-5.5-3.8-9.1-3.8H187.5z"/>
		<path class="st28" d="M248.4,100.6c0.8,0,1.5,0.3,2,0.8s0.8,1.2,0.8,2s-0.3,1.5-0.8,2c-3.7,3.2-8,4.8-13,4.8
			c-5.5,0-10.2-1.9-14.1-5.8c-3.9-3.9-5.8-8.6-5.8-14.1c0-5.5,1.9-10.2,5.8-14.1c3.9-3.9,8.6-5.8,14.1-5.8c5.5,0,10.2,1.9,14.1,5.8
			s5.8,8.6,5.8,14.1c0,0.8-0.3,1.5-0.8,2c-0.6,0.6-1.2,0.8-2,0.8h-31.1c0.5,2.7,1.8,5.1,3.9,7.2c2.8,2.8,6.1,4.2,10.1,4.2
			c3.6,0,6.6-1.1,9.2-3.4C247.2,100.8,247.8,100.6,248.4,100.6z M251.5,87.5c-0.5-2.7-1.8-5.1-3.9-7.2c-2.8-2.8-6.1-4.2-10.1-4.2
			c-3.9,0-7.3,1.4-10.1,4.2c-2.1,2.1-3.4,4.5-3.9,7.2H251.5z"/>
		<path class="st28" d="M278.7,104.6c0.8,0,1.5,0.3,2,0.8c0.6,0.6,0.8,1.2,0.8,2s-0.3,1.5-0.8,2c-0.6,0.6-1.2,0.8-2,0.8
			c-9.5,0-14.2-4.7-14.2-14.2V76.1h-2.8c-0.8,0-1.5-0.3-2-0.8c-0.6-0.6-0.8-1.2-0.8-2s0.3-1.5,0.8-2c0.6-0.6,1.2-0.8,2-0.8h2.8V56.2
			c0-0.8,0.3-1.5,0.8-2c0.6-0.6,1.2-0.8,2-0.8s1.5,0.3,2,0.8c0.6,0.6,0.8,1.2,0.8,2v14.2h5.7c0.8,0,1.5,0.3,2,0.8
			c0.6,0.6,0.8,1.2,0.8,2s-0.3,1.5-0.8,2c-0.6,0.6-1.2,0.8-2,0.8h-5.7v19.9C270.1,101.8,273,104.6,278.7,104.6z"/>
	</g>
</g>
<rect x="-306.2" y="-68.5" class="st51" width="1003.4" height="79.5"/>
<text transform="matrix(1 0 0 1 -306.1504 -51.7973)"><tspan x="0" y="0" class="st52 st53">I chose a rounded typeface for the word mark to support the outline style of the logo. Also, I picked up a teal color </tspan><tspan x="0" y="24" class="st52 st53">because this mix of blue and green colors emotionally means trustworthiness, calmness, and health.</tspan></text>
</svg>
