<?xml version="1.0" encoding="utf-8"?>
<!-- Generator: Adobe Illustrator 19.2.0, SVG Export Plug-In . SVG Version: 6.00 Build 0)  -->
<svg version="1.2" baseProfile="tiny" id="Layer_1" xmlns="http://www.w3.org/2000/svg" xmlns:xlink="http://www.w3.org/1999/xlink"
	 x="0px" y="0px" viewBox="0 0 993 763.7" xml:space="preserve">
<line fill="none" stroke="#000000" stroke-width="0.5005" stroke-miterlimit="10" x1="481" y1="59.6" x2="481.9" y2="411.6"/>
<rect x="92" y="162.6" fill="#D5E3F5" stroke="#A7A9AC" stroke-width="0.5" stroke-miterlimit="10" width="76" height="36"/>
<rect x="69" y="425.5" fill="#D5E3F5" stroke="#A7A9AC" stroke-width="0.5" stroke-miterlimit="10" width="76" height="36"/>
<rect x="84" y="479.7" fill="#F1F2F2" stroke="#A7A9AC" stroke-width="0.4392" stroke-miterlimit="10" width="76" height="27.8"/>
<rect x="84" y="519.6" fill="#F1F2F2" stroke="#A7A9AC" stroke-width="0.4392" stroke-miterlimit="10" width="76" height="27.8"/>
<rect x="84" y="559.5" fill="#F1F2F2" stroke="#A7A9AC" stroke-width="0.4392" stroke-miterlimit="10" width="76" height="27.8"/>
<rect x="302.2" y="519.6" fill="#F1F2F2" stroke="#A7A9AC" stroke-width="0.4392" stroke-miterlimit="10" width="76" height="27.8"/>
<rect x="302.2" y="559.7" fill="#F1F2F2" stroke="#A7A9AC" stroke-width="0.4392" stroke-miterlimit="10" width="76" height="27.8"/>
<rect x="302.2" y="599.4" fill="#F1F2F2" stroke="#A7A9AC" stroke-width="0.4392" stroke-miterlimit="10" width="76" height="27.8"/>
<rect x="302.2" y="639.3" fill="#F1F2F2" stroke="#A7A9AC" stroke-width="0.4392" stroke-miterlimit="10" width="76" height="27.8"/>
<rect x="411.2" y="519.6" fill="#F1F2F2" stroke="#A7A9AC" stroke-width="0.4392" stroke-miterlimit="10" width="76" height="27.8"/>
<rect x="411.2" y="559.7" fill="#F1F2F2" stroke="#A7A9AC" stroke-width="0.4392" stroke-miterlimit="10" width="76" height="27.8"/>
<rect x="411.2" y="599.4" fill="#F1F2F2" stroke="#A7A9AC" stroke-width="0.4392" stroke-miterlimit="10" width="76" height="27.8"/>
<rect x="629.4" y="519.6" fill="#F1F2F2" stroke="#A7A9AC" stroke-width="0.4392" stroke-miterlimit="10" width="76" height="27.8"/>
<rect x="629.4" y="559.7" fill="#F1F2F2" stroke="#A7A9AC" stroke-width="0.4392" stroke-miterlimit="10" width="76" height="27.8"/>
<rect x="629.4" y="599.4" fill="#F1F2F2" stroke="#A7A9AC" stroke-width="0.4392" stroke-miterlimit="10" width="76" height="27.8"/>
<rect x="411.2" y="639.3" fill="#F1F2F2" stroke="#A7A9AC" stroke-width="0.4392" stroke-miterlimit="10" width="76" height="27.8"/>
<rect x="738.5" y="519.6" fill="#F1F2F2" stroke="#A7A9AC" stroke-width="0.4392" stroke-miterlimit="10" width="76" height="27.8"/>
<rect x="738.5" y="559.7" fill="#F1F2F2" stroke="#A7A9AC" stroke-width="0.4392" stroke-miterlimit="10" width="76" height="27.8"/>
<rect x="738.5" y="599.4" fill="#F1F2F2" stroke="#A7A9AC" stroke-width="0.4392" stroke-miterlimit="10" width="76" height="27.8"/>
<rect x="738.5" y="639.3" fill="#F1F2F2" stroke="#A7A9AC" stroke-width="0.4392" stroke-miterlimit="10" width="76" height="27.8"/>
<rect x="847.6" y="519.6" fill="#F1F2F2" stroke="#A7A9AC" stroke-width="0.4392" stroke-miterlimit="10" width="76" height="27.8"/>
<rect x="847.6" y="559.7" fill="#F1F2F2" stroke="#A7A9AC" stroke-width="0.4392" stroke-miterlimit="10" width="76" height="27.8"/>
<rect x="847.6" y="599.4" fill="#F1F2F2" stroke="#A7A9AC" stroke-width="0.4392" stroke-miterlimit="10" width="76" height="27.8"/>
<rect x="847.6" y="639.3" fill="#F1F2F2" stroke="#A7A9AC" stroke-width="0.4392" stroke-miterlimit="10" width="76" height="27.8"/>
<rect x="738.5" y="678.2" fill="#F1F2F2" stroke="#A7A9AC" stroke-width="0.4392" stroke-miterlimit="10" width="76" height="27.8"/>
<rect x="738.5" y="718.1" fill="#F1F2F2" stroke="#A7A9AC" stroke-width="0.4392" stroke-miterlimit="10" width="76" height="27.8"/>
<rect x="193.1" y="479.7" fill="#F1F2F2" stroke="#A7A9AC" stroke-width="0.4392" stroke-miterlimit="10" width="76" height="27.8"/>
<rect x="193.1" y="519.6" fill="#F1F2F2" stroke="#A7A9AC" stroke-width="0.4392" stroke-miterlimit="10" width="76" height="27.8"/>
<rect x="302.2" y="479.7" fill="#F1F2F2" stroke="#A7A9AC" stroke-width="0.4392" stroke-miterlimit="10" width="76" height="27.8"/>
<rect x="302.2" y="679.1" fill="#F1F2F2" stroke="#A7A9AC" stroke-width="0.4392" stroke-miterlimit="10" width="76" height="27.8"/>
<rect x="411.2" y="479.7" fill="#F1F2F2" stroke="#A7A9AC" stroke-width="0.4392" stroke-miterlimit="10" width="76" height="27.8"/>
<rect x="520.3" y="479.7" fill="#F1F2F2" stroke="#A7A9AC" stroke-width="0.4392" stroke-miterlimit="10" width="76" height="27.8"/>
<rect x="520.3" y="519.6" fill="#F1F2F2" stroke="#A7A9AC" stroke-width="0.4392" stroke-miterlimit="10" width="76" height="27.8"/>
<rect x="629.4" y="479.7" fill="#F1F2F2" stroke="#A7A9AC" stroke-width="0.4392" stroke-miterlimit="10" width="76" height="27.8"/>
<rect x="738.5" y="479.7" fill="#F1F2F2" stroke="#A7A9AC" stroke-width="0.4392" stroke-miterlimit="10" width="76" height="27.8"/>
<rect x="847.6" y="479.7" fill="#F1F2F2" stroke="#A7A9AC" stroke-width="0.4392" stroke-miterlimit="10" width="76" height="27.8"/>
<rect x="178.1" y="425.5" fill="#D5E3F5" stroke="#A7A9AC" stroke-width="0.5" stroke-miterlimit="10" width="76" height="36"/>
<rect x="287.2" y="425.5" fill="#D5E3F5" stroke="#A7A9AC" stroke-width="0.5" stroke-miterlimit="10" width="76" height="36"/>
<rect x="396.2" y="425.5" fill="#D5E3F5" stroke="#A7A9AC" stroke-width="0.5" stroke-miterlimit="10" width="76" height="36"/>
<rect x="505.3" y="425.5" fill="#D5E3F5" stroke="#A7A9AC" stroke-width="0.5" stroke-miterlimit="10" width="76" height="36"/>
<rect x="614.4" y="425.5" fill="#D5E3F5" stroke="#A7A9AC" stroke-width="0.5" stroke-miterlimit="10" width="76" height="36"/>
<rect x="723.5" y="425.5" fill="#D5E3F5" stroke="#A7A9AC" stroke-width="0.5" stroke-miterlimit="10" width="76" height="36"/>
<rect x="832.6" y="425.5" fill="#D5E3F5" stroke="#A7A9AC" stroke-width="0.5" stroke-miterlimit="10" width="76" height="36"/>
<rect x="215.8" y="162.6" fill="#D5E3F5" stroke="#A7A9AC" stroke-width="0.5" stroke-miterlimit="10" width="76" height="36"/>
<rect x="215.8" y="211.2" fill="#D5E3F5" stroke="#A7A9AC" stroke-width="0.5" stroke-miterlimit="10" width="76" height="36"/>
<rect x="215.8" y="259.7" fill="#D5E3F5" stroke="#A7A9AC" stroke-width="0.5" stroke-miterlimit="10" width="76" height="36"/>
<rect x="339.7" y="211.2" fill="#D5E3F5" stroke="#A7A9AC" stroke-width="0.5" stroke-miterlimit="10" width="76" height="36"/>
<rect x="339.7" y="259.7" fill="#D5E3F5" stroke="#A7A9AC" stroke-width="0.5" stroke-miterlimit="10" width="76" height="36"/>
<rect x="215.8" y="308.3" fill="#D5E3F5" stroke="#A7A9AC" stroke-width="0.5" stroke-miterlimit="10" width="76" height="36"/>
<rect x="215.8" y="357.6" fill="#D5E3F5" stroke="#A7A9AC" stroke-width="0.5" stroke-miterlimit="10" width="76" height="36"/>
<rect x="587.4" y="211.2" fill="#D5E3F5" stroke="#A7A9AC" stroke-width="0.5" stroke-miterlimit="10" width="76" height="36"/>
<rect x="587.4" y="259.7" fill="#D5E3F5" stroke="#A7A9AC" stroke-width="0.5" stroke-miterlimit="10" width="76" height="36"/>
<rect x="711.2" y="211.2" fill="#D5E3F5" stroke="#A7A9AC" stroke-width="0.5" stroke-miterlimit="10" width="76" height="36"/>
<rect x="711.2" y="259.7" fill="#D5E3F5" stroke="#A7A9AC" stroke-width="0.5" stroke-miterlimit="10" width="76" height="36"/>
<rect x="587.4" y="308.3" fill="#D5E3F5" stroke="#A7A9AC" stroke-width="0.5" stroke-miterlimit="10" width="76" height="36"/>
<rect x="838" y="211.2" fill="#D5E3F5" stroke="#A7A9AC" stroke-width="0.5" stroke-miterlimit="10" width="76" height="36"/>
<rect x="838" y="259.7" fill="#D5E3F5" stroke="#A7A9AC" stroke-width="0.5" stroke-miterlimit="10" width="76" height="36"/>
<rect x="838" y="308.3" fill="#D5E3F5" stroke="#A7A9AC" stroke-width="0.5" stroke-miterlimit="10" width="76" height="36"/>
<rect x="587.4" y="357.6" fill="#D5E3F5" stroke="#A7A9AC" stroke-width="0.5" stroke-miterlimit="10" width="76" height="36"/>
<rect x="339.7" y="162.6" fill="#D5E3F5" stroke="#A7A9AC" stroke-width="0.5" stroke-miterlimit="10" width="76" height="36"/>
<rect x="587.4" y="162.6" fill="#D5E3F5" stroke="#A7A9AC" stroke-width="0.5" stroke-miterlimit="10" width="76" height="36"/>
<rect x="711.2" y="162.6" fill="#D5E3F5" stroke="#A7A9AC" stroke-width="0.5" stroke-miterlimit="10" width="76" height="36"/>
<rect x="838" y="162.6" fill="#D5E3F5" stroke="#A7A9AC" stroke-width="0.5" stroke-miterlimit="10" width="76" height="36"/>
<rect x="440.6" y="26.7" fill="#C4E0A6" stroke="#A7A9AC" stroke-width="0.5722" stroke-miterlimit="10" width="82" height="41.9"/>
<rect x="192.8" y="97.8" fill="#F6E5BF" stroke="#A7A9AC" stroke-width="0.5" stroke-miterlimit="10" width="82" height="41.9"/>
<rect x="316.7" y="97.8" fill="#F6E5BF" stroke="#A7A9AC" stroke-width="0.5" stroke-miterlimit="10" width="82" height="41.9"/>
<rect x="812" y="97.8" fill="#F6E5BF" stroke="#A7A9AC" stroke-width="0.5" stroke-miterlimit="10" width="82" height="41.9"/>
<rect x="688.2" y="97.8" fill="#F6E5BF" stroke="#A7A9AC" stroke-width="0.5" stroke-miterlimit="10" width="82" height="41.9"/>
<rect x="564.4" y="97.8" fill="#F6E5BF" stroke="#A7A9AC" stroke-width="0.5" stroke-miterlimit="10" width="82" height="41.9"/>
<rect x="427.3" y="97.8" fill="#F6E5BF" stroke="#A7A9AC" stroke-width="0.5" stroke-miterlimit="10" width="108.5" height="41.9"/>
<rect x="69" y="97.8" fill="#F6E5BF" stroke="#A7A9AC" stroke-width="0.5" stroke-miterlimit="10" width="82" height="41.9"/>
<g>
	<rect x="454" y="41.5" fill="none" width="55.1" height="12.2"/>
	<path d="M465.1,53.5v-5.2h-6.2v5.2h-2.1v-12h2.1v4.9h6.2v-4.9h2.1v12H465.1z"/>
	<path d="M469.2,47.5c0-3.6,2.5-6.2,6.1-6.2c3.6,0,6.1,2.6,6.1,6.2s-2.5,6.2-6.1,6.2C471.8,53.8,469.2,51.1,469.2,47.5z M479.3,47.5
		c0-2.5-1.6-4.3-4-4.3c-2.4,0-4,1.9-4,4.3c0,2.5,1.5,4.3,4,4.3C477.8,51.9,479.3,50,479.3,47.5z"/>
	<path d="M493.9,53.5v-8.9l-3.7,8.9h-0.9l-3.7-8.9v8.9h-2.1v-12h3l3.3,7.9l3.3-7.9h3v12H493.9z"/>
	<path d="M498.6,53.5v-12h8.2v1.9h-6.1v3.1h6v1.9h-6v3.3h6.1v1.9H498.6z"/>
</g>
<g>
	<rect x="704.4" y="113" fill="none" width="49.6" height="11.3"/>
	<path d="M719.3,122.4v-3.9h-4.4v3.9h-2V113h2v3.7h4.4V113h2v9.3H719.3z"/>
	<path d="M723.1,122.4V113h6.6v1.8h-4.6v2h4.5v1.8h-4.5v2.1h4.6v1.8H723.1z"/>
	<path d="M731.3,122.4V113h2v7.6h4v1.8H731.3z"/>
	<path d="M738.6,122.4V113h4.4c2,0,3.1,1.4,3.1,3c0,1.6-1.1,3-3.1,3h-2.4v3.3H738.6z M744.1,116c0-0.8-0.6-1.3-1.4-1.3h-2.1v2.5h2.1
		C743.5,117.3,744.1,116.8,744.1,116z"/>
</g>
<g>
	<rect x="828.3" y="113.7" fill="none" width="49.6" height="10.1"/>
	<path d="M836.4,123l-0.6-1.6h-4l-0.6,1.6H829l3.6-9.3h2.5l3.6,9.3H836.4z M833.8,115.7l-1.5,4h2.9L833.8,115.7z"/>
	<path d="M839.6,123v-9.3h4.9c1.8,0,2.7,1.1,2.7,2.4c0,1.2-0.7,2-1.6,2.1c1,0.2,1.8,1.1,1.8,2.3c0,1.4-0.9,2.5-2.7,2.5H839.6z
		 M845.1,116.4c0-0.6-0.4-1-1.1-1h-2.5v2h2.5C844.7,117.4,845.1,117,845.1,116.4z M845.3,120.2c0-0.6-0.4-1.1-1.2-1.1h-2.6v2.2h2.6
		C844.9,121.3,845.3,120.9,845.3,120.2z"/>
	<path d="M848.4,118.3c0-2.8,2.1-4.8,4.9-4.8c2.8,0,4.9,2,4.9,4.8s-2.1,4.8-4.9,4.8C850.4,123.2,848.4,121.2,848.4,118.3z
		 M856.1,118.3c0-1.8-1.1-3.1-2.8-3.1s-2.8,1.3-2.8,3.1c0,1.7,1.1,3.1,2.8,3.1S856.1,120.1,856.1,118.3z"/>
	<path d="M859.5,119.3v-5.6h2v5.5c0,1.3,0.8,2.2,2.2,2.2s2.2-0.9,2.2-2.2v-5.5h2v5.6c0,2.3-1.4,3.9-4.2,3.9S859.5,121.6,859.5,119.3
		z"/>
	<path d="M872,123v-7.6h-2.7v-1.8h7.5v1.8H874v7.6H872z"/>
</g>
<g>
	<rect x="325.4" y="112.7" fill="none" width="64.5" height="12"/>
	<path d="M330.4,120.7l1.1-1.5c0.7,0.7,1.7,1.3,3,1.3c1.1,0,1.6-0.5,1.6-1c0-1.7-5.4-0.5-5.4-4c0-1.6,1.3-2.8,3.5-2.8
		c1.5,0,2.7,0.4,3.6,1.3l-1.1,1.5c-0.8-0.7-1.8-1-2.7-1c-0.9,0-1.3,0.4-1.3,0.9c0,1.5,5.4,0.5,5.4,4c0,1.7-1.2,3-3.7,3
		C332.6,122.2,331.3,121.6,330.4,120.7z"/>
	<path d="M339.4,122v-9.3h2v9.3H339.4z"/>
	<path d="M342.8,117.4c0-3,2.2-4.8,5-4.8c1.9,0,3.2,1,3.9,2.1l-1.7,0.9c-0.4-0.7-1.2-1.2-2.2-1.2c-1.7,0-2.9,1.3-2.9,3.1
		s1.2,3.1,2.9,3.1c0.8,0,1.6-0.4,2-0.7v-1.1h-2.5v-1.7h4.5v3.6c-1,1.1-2.3,1.8-4,1.8C345.1,122.2,342.8,120.3,342.8,117.4z"/>
	<path d="M359.8,122l-4.5-6.1v6.1h-2v-9.3h2l4.3,5.9v-5.9h2v9.3H359.8z"/>
	<path d="M367.1,118.3v-5.6h2v5.5c0,1.3,0.8,2.2,2.2,2.2c1.4,0,2.2-0.9,2.2-2.2v-5.5h2v5.6c0,2.3-1.4,3.9-4.2,3.9
		C368.5,122.2,367.1,120.6,367.1,118.3z"/>
	<path d="M377.4,122v-9.3h4.4c2,0,3.1,1.4,3.1,3c0,1.6-1.1,3-3.1,3h-2.4v3.3H377.4z M382.9,115.7c0-0.8-0.6-1.3-1.4-1.3h-2.1v2.5
		h2.1C382.3,117,382.9,116.5,382.9,115.7z"/>
</g>
<g>
	<rect x="196.1" y="112.7" fill="none" width="75.4" height="12"/>
	<path d="M207.4,122l-0.6-1.6h-4l-0.6,1.6h-2.3l3.6-9.3h2.5l3.6,9.3H207.4z M204.8,114.7l-1.5,4h2.9L204.8,114.7z"/>
	<path d="M209.6,117.4c0-2.9,2.2-4.8,5-4.8c2.1,0,3.2,1.1,3.9,2.3l-1.7,0.8c-0.4-0.8-1.2-1.4-2.2-1.4c-1.7,0-2.9,1.3-2.9,3.1
		s1.2,3.1,2.9,3.1c1,0,1.8-0.6,2.2-1.4l1.7,0.8c-0.7,1.2-1.8,2.3-3.9,2.3C211.7,122.2,209.6,120.3,209.6,117.4z"/>
	<path d="M219.2,117.4c0-2.9,2.2-4.8,5-4.8c2.1,0,3.2,1.1,3.9,2.3l-1.7,0.8c-0.4-0.8-1.2-1.4-2.2-1.4c-1.7,0-2.9,1.3-2.9,3.1
		s1.2,3.1,2.9,3.1c1,0,1.8-0.6,2.2-1.4l1.7,0.8c-0.7,1.2-1.8,2.3-3.9,2.3C221.4,122.2,219.2,120.3,219.2,117.4z"/>
	<path d="M228.8,117.4c0-2.8,2.1-4.8,4.9-4.8c2.8,0,4.9,2,4.9,4.8s-2.1,4.8-4.9,4.8C230.9,122.2,228.8,120.2,228.8,117.4z
		 M236.5,117.4c0-1.8-1.1-3.1-2.8-3.1c-1.7,0-2.8,1.3-2.8,3.1c0,1.7,1.1,3.1,2.8,3.1C235.4,120.5,236.5,119.1,236.5,117.4z"/>
	<path d="M240,118.3v-5.6h2v5.5c0,1.3,0.8,2.2,2.2,2.2c1.4,0,2.2-0.9,2.2-2.2v-5.5h2v5.6c0,2.3-1.4,3.9-4.2,3.9
		C241.3,122.2,240,120.6,240,118.3z"/>
	<path d="M256.7,122l-4.5-6.1v6.1h-2v-9.3h2l4.3,5.9v-5.9h2v9.3H256.7z"/>
	<path d="M262.6,122v-7.6h-2.7v-1.8h7.5v1.8h-2.7v7.6H262.6z"/>
</g>
<g>
	<rect x="580.6" y="113.8" fill="none" width="49.6" height="9.8"/>
	<path d="M587.8,118.5c0-2.9,2.2-4.8,5-4.8c2.1,0,3.2,1.1,3.9,2.3l-1.7,0.8c-0.4-0.8-1.2-1.4-2.2-1.4c-1.7,0-2.9,1.3-2.9,3.1
		s1.2,3.1,2.9,3.1c1,0,1.8-0.6,2.2-1.4l1.7,0.8c-0.7,1.2-1.8,2.3-3.9,2.3C589.9,123.3,587.8,121.4,587.8,118.5z"/>
	<path d="M604.2,123.2l-0.6-1.6h-4l-0.6,1.6h-2.3l3.6-9.3h2.5l3.6,9.3H604.2z M601.6,115.8l-1.5,4h2.9L601.6,115.8z"/>
	<path d="M612.6,123.2l-1.8-3.3h-1.5v3.3h-2v-9.3h4.4c1.9,0,3.1,1.3,3.1,3c0,1.7-1,2.5-2,2.8l2.1,3.6H612.6z M612.8,116.8
		c0-0.8-0.6-1.3-1.4-1.3h-2.1v2.5h2.1C612.2,118.1,612.8,117.6,612.8,116.8z"/>
	<path d="M618.3,123.2v-7.6h-2.7v-1.8h7.5v1.8h-2.7v7.6H618.3z"/>
</g>
<g>
	<rect x="436.7" y="105.1" fill="none" width="89.6" height="27.2"/>
	<path d="M462.8,113.1l1.1-1.5c0.7,0.7,1.7,1.3,3,1.3c1.1,0,1.6-0.5,1.6-1c0-1.7-5.4-0.5-5.4-4c0-1.6,1.3-2.8,3.5-2.8
		c1.5,0,2.7,0.4,3.6,1.3l-1.1,1.5c-0.8-0.7-1.8-1-2.7-1c-0.9,0-1.3,0.4-1.3,0.9c0,1.5,5.4,0.5,5.4,4c0,1.7-1.2,3-3.7,3
		C464.9,114.6,463.6,114,462.8,113.1z"/>
	<path d="M478.2,114.5v-3.9h-4.4v3.9h-2v-9.3h2v3.7h4.4v-3.7h2v9.3H478.2z"/>
	<path d="M481.6,109.8c0-2.8,2.1-4.8,4.9-4.8c2.8,0,4.9,2,4.9,4.8s-2.1,4.8-4.9,4.8C483.6,114.6,481.6,112.6,481.6,109.8z
		 M489.3,109.8c0-1.8-1.1-3.1-2.8-3.1s-2.8,1.3-2.8,3.1c0,1.7,1.1,3.1,2.8,3.1S489.3,111.5,489.3,109.8z"/>
	<path d="M492.7,114.5v-9.3h4.4c2,0,3.1,1.4,3.1,3c0,1.6-1.1,3-3.1,3h-2.4v3.3H492.7z M498.2,108.1c0-0.8-0.6-1.3-1.4-1.3h-2.1v2.5
		h2.1C497.6,109.4,498.2,108.9,498.2,108.1z"/>
	<path d="M439.6,126.6c0-2.9,2.2-4.8,5-4.8c2.1,0,3.2,1.1,3.9,2.3l-1.7,0.8c-0.4-0.8-1.2-1.4-2.2-1.4c-1.7,0-2.9,1.3-2.9,3.1
		c0,1.8,1.2,3.1,2.9,3.1c1,0,1.8-0.6,2.2-1.4l1.7,0.8c-0.7,1.2-1.8,2.3-3.9,2.3C441.8,131.4,439.6,129.5,439.6,126.6z"/>
	<path d="M456,131.3l-0.6-1.6h-4l-0.6,1.6h-2.3l3.6-9.3h2.5l3.6,9.3H456z M453.5,123.9l-1.5,4h2.9L453.5,123.9z"/>
	<path d="M460.4,131.3v-7.6h-2.7v-1.8h7.5v1.8h-2.7v7.6H460.4z"/>
	<path d="M466.4,131.3v-9.3h6.6v1.8h-4.6v2h4.5v1.8h-4.5v2.1h4.6v1.8H466.4z"/>
	<path d="M474.1,126.6c0-3,2.2-4.8,5-4.8c1.9,0,3.2,1,3.9,2.1l-1.7,0.9c-0.4-0.7-1.2-1.2-2.2-1.2c-1.7,0-2.9,1.3-2.9,3.1
		c0,1.8,1.2,3.1,2.9,3.1c0.8,0,1.6-0.4,2-0.7v-1.1h-2.5v-1.7h4.5v3.6c-1,1.1-2.3,1.8-4,1.8C476.4,131.4,474.1,129.5,474.1,126.6z"/>
	<path d="M484.2,126.6c0-2.8,2.1-4.8,4.9-4.8c2.8,0,4.9,2,4.9,4.8c0,2.8-2.1,4.8-4.9,4.8C486.3,131.4,484.2,129.4,484.2,126.6z
		 M491.9,126.6c0-1.8-1.1-3.1-2.8-3.1s-2.8,1.3-2.8,3.1c0,1.7,1.1,3.1,2.8,3.1S491.9,128.3,491.9,126.6z"/>
	<path d="M500.7,131.3l-1.8-3.3h-1.5v3.3h-2v-9.3h4.4c1.9,0,3.1,1.3,3.1,3c0,1.7-1,2.5-2,2.8l2.1,3.6H500.7z M500.9,124.9
		c0-0.8-0.6-1.3-1.4-1.3h-2.1v2.5h2.1C500.3,126.2,500.9,125.7,500.9,124.9z"/>
	<path d="M504.4,131.3v-9.3h2v9.3H504.4z"/>
	<path d="M508.2,131.3v-9.3h6.6v1.8h-4.6v2h4.5v1.8h-4.5v2.1h4.6v1.8H508.2z"/>
	<path d="M515.8,129.9l1.1-1.5c0.7,0.7,1.7,1.3,3,1.3c1.1,0,1.6-0.5,1.6-1c0-1.7-5.4-0.5-5.4-4c0-1.6,1.3-2.8,3.5-2.8
		c1.5,0,2.7,0.4,3.6,1.3l-1.1,1.5c-0.8-0.7-1.8-1-2.7-1c-0.9,0-1.3,0.4-1.3,0.9c0,1.5,5.4,0.5,5.4,4c0,1.7-1.2,3-3.7,3
		C517.9,131.4,516.6,130.8,515.8,129.9z"/>
</g>
<g>
	<rect x="75.9" y="113.1" fill="none" width="68.1" height="11.2"/>
	<path d="M82.8,121.1l1.1-1.5c0.7,0.7,1.7,1.3,3,1.3c1.1,0,1.6-0.5,1.6-1c0-1.7-5.4-0.5-5.4-4c0-1.6,1.3-2.8,3.5-2.8
		c1.5,0,2.7,0.4,3.6,1.3l-1.1,1.5c-0.8-0.7-1.8-1-2.7-1c-0.9,0-1.3,0.4-1.3,0.9c0,1.5,5.4,0.5,5.4,4c0,1.7-1.2,3-3.7,3
		C84.9,122.6,83.6,122,82.8,121.1z"/>
	<path d="M91.8,122.4v-9.3h6.6v1.8h-4.6v2h4.5v1.8h-4.5v2.1h4.6v1.8H91.8z"/>
	<path d="M106.4,122.4l-0.6-1.6h-4l-0.6,1.6H99l3.6-9.3h2.5l3.6,9.3H106.4z M103.8,115.1l-1.5,4h2.9L103.8,115.1z"/>
	<path d="M114.8,122.4l-1.8-3.3h-1.5v3.3h-2v-9.3h4.4c1.9,0,3.1,1.3,3.1,3c0,1.7-1,2.5-2,2.8l2.1,3.6H114.8z M115,116.1
		c0-0.8-0.6-1.3-1.4-1.3h-2.1v2.5h2.1C114.4,117.4,115,116.9,115,116.1z"/>
	<path d="M118.1,117.8c0-2.9,2.2-4.8,5-4.8c2.1,0,3.2,1.1,3.9,2.3l-1.7,0.8c-0.4-0.8-1.2-1.4-2.2-1.4c-1.7,0-2.9,1.3-2.9,3.1
		s1.2,3.1,2.9,3.1c1,0,1.8-0.6,2.2-1.4l1.7,0.8c-0.7,1.2-1.8,2.3-3.9,2.3C120.3,122.6,118.1,120.6,118.1,117.8z"/>
	<path d="M134.6,122.4v-3.9h-4.4v3.9h-2v-9.3h2v3.7h4.4v-3.7h2v9.3H134.6z"/>
</g>
<g>
	<rect x="724.4" y="175.8" fill="none" width="49.6" height="9.5"/>
	<path d="M738.7,183.8v-8h5.2v0.9h-4.2v2.6h4.2v0.9h-4.2v3.6H738.7z"/>
	<path d="M750.6,183.8l-0.7-1.8h-4l-0.7,1.8h-1.1l3.2-8h1.2l3.2,8H750.6z M747.9,176.9l-1.7,4.3h3.4L747.9,176.9z"/>
	<path d="M752,179.9c0-2.4,1.6-4.1,4-4.1c2.4,0,4,1.8,4,4.1c0,1.2-0.4,2.2-1.1,3l0.8,0.8l-0.7,0.6l-0.8-0.8
		c-0.6,0.4-1.3,0.6-2.2,0.6C753.6,184,752,182.2,752,179.9z M757.5,182.7l-1.1-1.2l0.7-0.6l1.1,1.2c0.5-0.6,0.7-1.4,0.7-2.2
		c0-1.9-1.2-3.3-2.9-3.3c-1.8,0-2.9,1.4-2.9,3.3c0,1.9,1.1,3.2,2.9,3.2C756.6,183.1,757.1,183,757.5,182.7z"/>
</g>
<g>
	<rect x="724.4" y="223.2" fill="none" width="49.6" height="12"/>
	<path d="M734.5,227.2c0-2.5,1.8-4.1,4.1-4.1c1.4,0,2.4,0.7,3,1.6l-0.8,0.5c-0.5-0.7-1.3-1.2-2.2-1.2c-1.8,0-3.1,1.3-3.1,3.3
		c0,1.9,1.3,3.2,3.1,3.2c0.9,0,1.7-0.5,2.2-1.2l0.9,0.5c-0.7,0.9-1.6,1.6-3,1.6C736.3,231.3,734.5,229.7,734.5,227.2z"/>
	<path d="M748.6,231.2v-3.7h-4.7v3.7h-1v-8h1v3.4h4.7v-3.4h1v8H748.6z"/>
	<path d="M757.2,231.2l-0.7-1.8h-4l-0.7,1.8h-1.1l3.2-8h1.2l3.2,8H757.2z M754.5,224.2l-1.7,4.3h3.4L754.5,224.2z"/>
	<path d="M760.6,231.2v-7.1H758v-0.9h6.1v0.9h-2.5v7.1H760.6z"/>
</g>
<g>
	<rect x="724.4" y="273.2" fill="none" width="49.6" height="9.1"/>
	<path d="M733.4,281.2v-8h5.2v0.9h-4.2v2.6h4.2v0.9h-4.2v2.8h4.2v0.9H733.4z"/>
	<path d="M747.1,281.2v-6.6l-2.7,6.6H744l-2.7-6.6v6.6h-1v-8h1.4l2.5,6l2.5-6h1.4v8H747.1z"/>
	<path d="M755.7,281.2l-0.7-1.8h-4l-0.7,1.8h-1.1l3.2-8h1.2l3.2,8H755.7z M753,274.2l-1.7,4.3h3.4L753,274.2z"/>
	<path d="M757.9,281.2v-8h1v8H757.9z"/>
	<path d="M760.7,281.2v-8h1v7.1h3.7v0.9H760.7z"/>
</g>
<g>
	<rect x="848.2" y="168.9" fill="none" width="55.7" height="23.5"/>
	<path d="M864.2,172.9c0-2.4,1.6-4.1,4-4.1c2.4,0,4,1.8,4,4.1s-1.6,4.1-4,4.1C865.8,177,864.2,175.2,864.2,172.9z M871.1,172.9
		c0-1.9-1.2-3.3-2.9-3.3c-1.8,0-2.9,1.4-2.9,3.3c0,1.9,1.1,3.2,2.9,3.2C870,176.1,871.1,174.7,871.1,172.9z"/>
	<path d="M873.7,173.8v-4.9h1v4.9c0,1.5,0.8,2.4,2.3,2.4c1.5,0,2.3-0.9,2.3-2.4v-4.9h1v4.9c0,2-1.1,3.3-3.3,3.3
		S873.7,175.7,873.7,173.8z"/>
	<path d="M886.7,176.9l-2-3.2h-1.6v3.2h-1v-8h3.2c1.5,0,2.5,0.9,2.5,2.4c0,1.4-1,2.2-2.1,2.3l2.2,3.3H886.7z M886.8,171.3
		c0-0.9-0.6-1.5-1.6-1.5h-2.1v3.1h2.1C886.2,172.8,886.8,172.2,886.8,171.3z"/>
	<path d="M857.9,190.1l0.6-0.8c0.5,0.6,1.4,1.1,2.5,1.1c1.4,0,1.9-0.8,1.9-1.4c0-2.1-4.7-0.9-4.7-3.8c0-1.3,1.2-2.2,2.7-2.2
		c1.2,0,2.2,0.4,2.8,1.1l-0.6,0.7c-0.6-0.7-1.4-1-2.3-1c-1,0-1.6,0.5-1.6,1.3c0,1.8,4.7,0.8,4.7,3.8c0,1.2-0.8,2.4-3,2.4
		C859.5,191.4,858.5,190.9,857.9,190.1z"/>
	<path d="M867.3,191.3v-7.1h-2.5v-0.9h6.1v0.9h-2.5v7.1H867.3z"/>
	<path d="M871.5,187.3c0-2.4,1.6-4.1,4-4.1c2.4,0,4,1.8,4,4.1c0,2.4-1.6,4.1-4,4.1C873.1,191.4,871.5,189.6,871.5,187.3z
		 M878.4,187.3c0-1.9-1.2-3.3-2.9-3.3c-1.8,0-2.9,1.4-2.9,3.3c0,1.9,1.1,3.2,2.9,3.2C877.3,190.5,878.4,189.1,878.4,187.3z"/>
	<path d="M885.6,191.3l-2-3.2H882v3.2h-1v-8h3.2c1.5,0,2.5,0.9,2.5,2.4c0,1.4-1,2.2-2.1,2.3l2.2,3.3H885.6z M885.7,185.7
		c0-0.9-0.6-1.5-1.6-1.5H882v3.1h2.1C885,187.2,885.7,186.6,885.7,185.7z"/>
	<path d="M890.4,191.3v-3.4l-3.2-4.6h1.2l2.5,3.7l2.5-3.7h1.2l-3.1,4.6v3.4H890.4z"/>
</g>
<g>
	<rect x="842.5" y="225" fill="none" width="67.1" height="8.4"/>
	<path d="M861.5,233v-8h3.6c1.4,0,2.2,0.8,2.2,2c0,1-0.7,1.7-1.4,1.8c0.9,0.1,1.6,1,1.6,2c0,1.3-0.9,2.2-2.3,2.2H861.5z
		 M866.3,227.1c0-0.7-0.5-1.3-1.4-1.3h-2.4v2.6h2.4C865.8,228.4,866.3,227.9,866.3,227.1z M866.4,230.7c0-0.7-0.5-1.4-1.5-1.4h-2.4
		v2.8h2.4C865.9,232.1,866.4,231.5,866.4,230.7z"/>
	<path d="M869,233v-8h1v7.1h3.7v0.9H869z"/>
	<path d="M874.4,229c0-2.4,1.6-4.1,4-4.1c2.4,0,4,1.8,4,4.1c0,2.4-1.6,4.1-4,4.1C876,233.1,874.4,231.3,874.4,229z M881.3,229
		c0-1.9-1.2-3.3-2.9-3.3c-1.8,0-2.9,1.4-2.9,3.3c0,1.9,1.1,3.2,2.9,3.2C880.2,232.2,881.3,230.8,881.3,229z"/>
	<path d="M883.6,229c0-2.5,1.8-4.1,4.1-4.1c1.4,0,2.4,0.6,3.1,1.5l-0.8,0.5c-0.5-0.6-1.4-1.1-2.3-1.1c-1.8,0-3.1,1.3-3.1,3.3
		c0,1.9,1.3,3.3,3.1,3.3c1,0,1.8-0.5,2.1-0.9v-1.6h-2.7v-0.9h3.7v2.9c-0.7,0.8-1.8,1.4-3.1,1.4C885.4,233.1,883.6,231.4,883.6,229z"
		/>
</g>
<g>
	<rect x="838.9" y="265.7" fill="none" width="74.3" height="24.1"/>
	<path d="M862.2,273.7V270h-4.7v3.7h-1v-8h1v3.4h4.7v-3.4h1v8H862.2z"/>
	<path d="M864.8,269.7c0-2.4,1.6-4.1,4-4.1c2.4,0,4,1.8,4,4.1c0,2.4-1.6,4.1-4,4.1C866.4,273.8,864.8,272.1,864.8,269.7z
		 M871.7,269.7c0-1.9-1.2-3.3-2.9-3.3c-1.8,0-2.9,1.4-2.9,3.3c0,1.9,1.1,3.2,2.9,3.2C870.5,273,871.7,271.6,871.7,269.7z"/>
	<path d="M880.1,273.7l-1.8-6.5l-1.8,6.5h-1.1l-2.3-8h1.1l1.8,6.7l1.8-6.7h0.8l1.8,6.7l1.8-6.7h1.1l-2.3,8H880.1z"/>
	<path d="M887.7,273.7v-8h1v8H887.7z"/>
	<path d="M892.6,273.7v-7.1H890v-0.9h6.1v0.9h-2.5v7.1H892.6z"/>
	<path d="M862.6,288.1l-1.8-6.5l-1.8,6.5H858l-2.3-8h1.1l1.8,6.7l1.8-6.7h0.8l1.8,6.7l1.8-6.7h1.1l-2.3,8H862.6z"/>
	<path d="M866.5,284.1c0-2.4,1.6-4.1,4-4.1c2.4,0,4,1.8,4,4.1s-1.6,4.1-4,4.1C868.1,288.2,866.5,286.5,866.5,284.1z M873.4,284.1
		c0-1.9-1.2-3.2-2.9-3.2c-1.8,0-2.9,1.4-2.9,3.2c0,1.9,1.1,3.2,2.9,3.2C872.2,287.4,873.4,286,873.4,284.1z"/>
	<path d="M880.6,288.1l-2-3.2H877v3.2h-1v-8h3.2c1.5,0,2.5,0.9,2.5,2.4c0,1.4-1,2.2-2.1,2.3l2.2,3.3H880.6z M880.7,282.5
		c0-0.9-0.6-1.5-1.6-1.5H877v3.1h2.1C880,284,880.7,283.4,880.7,282.5z"/>
	<path d="M888.1,288.1l-3-3.6l-0.8,0.9v2.7h-1v-8h1v4.1l3.5-4.1h1.2l-3.3,3.8l3.6,4.2H888.1z"/>
	<path d="M890,287l0.6-0.8c0.5,0.6,1.4,1.1,2.5,1.1c1.4,0,1.9-0.8,1.9-1.4c0-2.1-4.7-0.9-4.7-3.8c0-1.3,1.2-2.2,2.7-2.2
		c1.2,0,2.2,0.4,2.8,1.1l-0.6,0.7c-0.6-0.7-1.4-1-2.3-1c-1,0-1.6,0.5-1.6,1.3c0,1.8,4.7,0.8,4.7,3.8c0,1.2-0.8,2.4-3,2.4
		C891.7,288.2,890.7,287.7,890,287z"/>
</g>
<g>
	<rect x="844.9" y="314" fill="none" width="62.3" height="24.7"/>
	<path d="M849.5,318c0-2.5,1.8-4.1,4.1-4.1c1.4,0,2.4,0.7,3,1.6l-0.8,0.5c-0.5-0.7-1.3-1.2-2.2-1.2c-1.8,0-3.1,1.3-3.1,3.3
		c0,1.9,1.3,3.2,3.1,3.2c0.9,0,1.7-0.5,2.2-1.2l0.9,0.5c-0.7,0.9-1.6,1.6-3,1.6C851.4,322.1,849.5,320.4,849.5,318z"/>
	<path d="M857.7,318c0-2.4,1.6-4.1,4-4.1c2.4,0,4,1.8,4,4.1c0,2.4-1.6,4.1-4,4.1C859.2,322.1,857.7,320.3,857.7,318z M864.6,318
		c0-1.9-1.2-3.3-2.9-3.3c-1.8,0-2.9,1.4-2.9,3.3c0,1.9,1.1,3.2,2.9,3.2C863.4,321.2,864.6,319.8,864.6,318z"/>
	<path d="M872.8,322l-4.7-6.4v6.4h-1v-8h1l4.6,6.2V314h1v8H872.8z"/>
	<path d="M877.6,322v-7.1h-2.5V314h6.1v0.9h-2.5v7.1H877.6z"/>
	<path d="M887.4,322l-0.7-1.8h-4L882,322h-1.1l3.2-8h1.2l3.2,8H887.4z M884.7,315l-1.7,4.3h3.4L884.7,315z"/>
	<path d="M888.8,318c0-2.5,1.8-4.1,4.1-4.1c1.4,0,2.4,0.7,3,1.6l-0.8,0.5c-0.5-0.7-1.3-1.2-2.2-1.2c-1.8,0-3.1,1.3-3.1,3.3
		c0,1.9,1.3,3.2,3.1,3.2c0.9,0,1.7-0.5,2.2-1.2l0.9,0.5c-0.7,0.9-1.6,1.6-3,1.6C890.6,322.1,888.8,320.4,888.8,318z"/>
	<path d="M899.2,322v-7.1h-2.5V314h6.1v0.9h-2.5v7.1H899.2z"/>
	<path d="M869.3,333.3v-4.9h1v4.9c0,1.5,0.8,2.4,2.3,2.4c1.5,0,2.3-0.9,2.3-2.4v-4.9h1v4.9c0,2-1.1,3.3-3.3,3.3
		S869.3,335.2,869.3,333.3z"/>
	<path d="M877.2,335.2l0.6-0.8c0.5,0.6,1.4,1.1,2.5,1.1c1.4,0,1.9-0.8,1.9-1.4c0-2.1-4.7-0.9-4.7-3.8c0-1.3,1.2-2.2,2.7-2.2
		c1.2,0,2.2,0.4,2.8,1.1l-0.6,0.7c-0.6-0.7-1.4-1-2.3-1c-1,0-1.6,0.5-1.6,1.3c0,1.8,4.7,0.8,4.7,3.8c0,1.2-0.8,2.4-3,2.4
		C878.9,336.5,877.8,336,877.2,335.2z"/>
</g>
<g>
	<rect x="346.2" y="175.5" fill="none" width="63" height="10.2"/>
	<path d="M356.5,183.5l-2-3.2h-1.6v3.2h-1v-8h3.2c1.5,0,2.5,0.9,2.5,2.4c0,1.4-1,2.2-2.1,2.3l2.2,3.3H356.5z M356.6,177.9
		c0-0.9-0.6-1.5-1.6-1.5h-2.1v3.1h2.1C355.9,179.4,356.6,178.8,356.6,177.9z"/>
	<path d="M359.2,183.5v-8h5.2v0.9h-4.2v2.6h4.2v0.9h-4.2v2.8h4.2v0.9H359.2z"/>
	<path d="M365.7,179.5c0-2.5,1.8-4.1,4.1-4.1c1.4,0,2.4,0.6,3.1,1.5l-0.8,0.5c-0.5-0.6-1.4-1.1-2.3-1.1c-1.8,0-3.1,1.3-3.1,3.3
		c0,1.9,1.3,3.3,3.1,3.3c1,0,1.8-0.5,2.1-0.9v-1.6h-2.7v-0.9h3.7v2.9c-0.7,0.8-1.8,1.4-3.1,1.4C367.5,183.6,365.7,182,365.7,179.5z"
		/>
	<path d="M374.5,183.5v-8h1v8H374.5z"/>
	<path d="M376.9,182.4l0.6-0.8c0.5,0.6,1.4,1.1,2.5,1.1c1.4,0,1.9-0.8,1.9-1.4c0-2.1-4.7-0.9-4.7-3.8c0-1.3,1.2-2.2,2.7-2.2
		c1.2,0,2.2,0.4,2.8,1.1l-0.6,0.7c-0.6-0.7-1.4-1-2.3-1c-1,0-1.6,0.5-1.6,1.3c0,1.8,4.7,0.8,4.7,3.8c0,1.2-0.8,2.4-3,2.4
		C378.6,183.6,377.6,183.1,376.9,182.4z"/>
	<path d="M386.4,183.5v-7.1h-2.5v-0.9h6.1v0.9h-2.5v7.1H386.4z"/>
	<path d="M391.2,183.5v-8h5.2v0.9h-4.2v2.6h4.2v0.9h-4.2v2.8h4.2v0.9H391.2z"/>
	<path d="M402.7,183.5l-2-3.2H399v3.2h-1v-8h3.2c1.5,0,2.5,0.9,2.5,2.4c0,1.4-1,2.2-2.1,2.3l2.2,3.3H402.7z M402.7,177.9
		c0-0.9-0.6-1.5-1.6-1.5H399v3.1h2.1C402.1,179.4,402.7,178.8,402.7,177.9z"/>
</g>
<g>
	<rect x="349.4" y="216.9" fill="none" width="56.5" height="24.6"/>
	<path d="M355.5,224.9v-8h3.6c1.4,0,2.2,0.8,2.2,2c0,1-0.7,1.7-1.4,1.8c0.9,0.1,1.6,1,1.6,2c0,1.3-0.9,2.2-2.3,2.2H355.5z
		 M360.3,219.1c0-0.7-0.5-1.3-1.4-1.3h-2.4v2.6h2.4C359.8,220.4,360.3,219.8,360.3,219.1z M360.5,222.6c0-0.7-0.5-1.4-1.5-1.4h-2.4
		v2.8h2.4C359.9,224,360.5,223.5,360.5,222.6z"/>
	<path d="M363.1,224.9v-8h1v8H363.1z"/>
	<path d="M366,224.9v-8h1v7.1h3.7v0.9H366z"/>
	<path d="M372.1,224.9v-8h1v7.1h3.7v0.9H372.1z"/>
	<path d="M378.2,224.9v-8h1v8H378.2z"/>
	<path d="M386.7,224.9l-4.7-6.4v6.4h-1v-8h1l4.6,6.2v-6.2h1v8H386.7z"/>
	<path d="M389.2,220.9c0-2.5,1.8-4.1,4.1-4.1c1.4,0,2.4,0.6,3.1,1.5l-0.8,0.5c-0.5-0.6-1.4-1.1-2.3-1.1c-1.8,0-3.1,1.3-3.1,3.3
		c0,1.9,1.3,3.3,3.1,3.3c1,0,1.8-0.5,2.1-0.9v-1.6h-2.7v-0.9h3.7v2.9c-0.7,0.8-1.8,1.4-3.1,1.4C391.1,225,389.2,223.4,389.2,220.9z"
		/>
	<path d="M397.2,225.1l2.8-8.5h0.7l-2.8,8.5H397.2z"/>
	<path d="M351.9,238.2l0.6-0.8c0.5,0.6,1.4,1.1,2.5,1.1c1.4,0,1.9-0.8,1.9-1.4c0-2.1-4.7-0.9-4.7-3.8c0-1.3,1.2-2.2,2.7-2.2
		c1.2,0,2.2,0.4,2.8,1.1l-0.6,0.7c-0.6-0.7-1.4-1-2.3-1c-1,0-1.6,0.5-1.6,1.3c0,1.8,4.7,0.8,4.7,3.8c0,1.2-0.8,2.4-3,2.4
		C353.6,239.4,352.6,238.9,351.9,238.2z"/>
	<path d="M365.1,239.3v-3.7h-4.7v3.7h-1v-8h1v3.4h4.7v-3.4h1v8H365.1z"/>
	<path d="M367.9,239.3v-8h1v8H367.9z"/>
	<path d="M370.8,239.3v-8h3.2c1.6,0,2.5,1.1,2.5,2.4s-0.9,2.4-2.5,2.4h-2.2v3.2H370.8z M375.5,233.7c0-0.9-0.6-1.5-1.6-1.5h-2.1v3
		h2.1C374.9,235.2,375.5,234.6,375.5,233.7z"/>
	<path d="M377.9,239.3v-8h3.2c1.6,0,2.5,1.1,2.5,2.4s-0.9,2.4-2.5,2.4h-2.2v3.2H377.9z M382.6,233.7c0-0.9-0.6-1.5-1.6-1.5h-2.1v3
		h2.1C381.9,235.2,382.6,234.6,382.6,233.7z"/>
	<path d="M384.9,239.3v-8h1v8H384.9z"/>
	<path d="M393.4,239.3l-4.7-6.4v6.4h-1v-8h1l4.6,6.2v-6.2h1v8H393.4z"/>
	<path d="M395.9,235.3c0-2.5,1.8-4.1,4.1-4.1c1.4,0,2.4,0.6,3.1,1.5l-0.8,0.5c-0.5-0.6-1.4-1.1-2.3-1.1c-1.8,0-3.1,1.3-3.1,3.3
		c0,1.9,1.3,3.3,3.1,3.3c1,0,1.8-0.5,2.1-0.9v-1.6h-2.7v-0.9h3.7v2.9c-0.7,0.8-1.8,1.4-3.1,1.4C397.8,239.4,395.9,237.8,395.9,235.3
		z"/>
</g>
<g>
	<rect x="346.2" y="273" fill="none" width="63" height="9.4"/>
	<path d="M352.3,281v-8h3.2c1.6,0,2.5,1.1,2.5,2.4c0,1.3-0.9,2.4-2.5,2.4h-2.2v3.2H352.3z M357,275.5c0-0.9-0.6-1.5-1.6-1.5h-2.1v3
		h2.1C356.3,277,357,276.4,357,275.5z"/>
	<path d="M364.1,281l-0.7-1.8h-4l-0.7,1.8h-1.1l3.2-8h1.2l3.2,8H364.1z M361.4,274.1l-1.7,4.3h3.4L361.4,274.1z"/>
	<path d="M367.9,281v-3.4l-3.2-4.6h1.2l2.5,3.7l2.5-3.7h1.2l-3.1,4.6v3.4H367.9z"/>
	<path d="M379.9,281v-6.6l-2.7,6.6h-0.4l-2.7-6.6v6.6h-1v-8h1.4l2.5,6l2.5-6h1.4v8H379.9z"/>
	<path d="M382.8,281v-8h5.2v0.9h-4.2v2.6h4.2v0.9h-4.2v2.8h4.2v0.9H382.8z"/>
	<path d="M395.2,281l-4.7-6.4v6.4h-1v-8h1l4.6,6.2V273h1v8H395.2z"/>
	<path d="M400.1,281v-7.1h-2.5V273h6.1v0.9h-2.5v7.1H400.1z"/>
</g>
<g>
	<rect x="594" y="265.5" fill="none" width="62.7" height="24.6"/>
	<path d="M603.2,273.5v-8h3.6c1.4,0,2.2,0.8,2.2,2c0,1-0.7,1.7-1.4,1.8c0.9,0.1,1.6,1,1.6,2c0,1.3-0.9,2.2-2.3,2.2H603.2z
		 M608,267.6c0-0.7-0.5-1.3-1.4-1.3h-2.4v2.6h2.4C607.5,268.9,608,268.4,608,267.6z M608.2,271.2c0-0.7-0.5-1.4-1.5-1.4h-2.4v2.8
		h2.4C607.6,272.6,608.2,272.1,608.2,271.2z"/>
	<path d="M610.8,273.5v-8h1v8H610.8z"/>
	<path d="M613.6,273.5v-8h1v7.1h3.7v0.9H613.6z"/>
	<path d="M619.8,273.5v-8h1v7.1h3.7v0.9H619.8z"/>
	<path d="M625.9,273.5v-8h1v8H625.9z"/>
	<path d="M634.4,273.5l-4.7-6.4v6.4h-1v-8h1l4.6,6.2v-6.2h1v8H634.4z"/>
	<path d="M636.9,269.5c0-2.5,1.8-4.1,4.1-4.1c1.4,0,2.4,0.6,3.1,1.5l-0.8,0.5c-0.5-0.6-1.4-1.1-2.3-1.1c-1.8,0-3.1,1.3-3.1,3.2
		c0,1.9,1.3,3.3,3.1,3.3c1,0,1.8-0.5,2.1-0.9v-1.6h-2.7v-0.9h3.7v2.9c-0.7,0.8-1.8,1.4-3.1,1.4C638.8,273.6,636.9,272,636.9,269.5z"
		/>
	<path d="M644.9,273.7l2.8-8.5h0.7l-2.8,8.5H644.9z"/>
	<path d="M599.6,286.7l0.6-0.8c0.5,0.6,1.4,1.1,2.5,1.1c1.4,0,1.9-0.8,1.9-1.4c0-2.1-4.7-0.9-4.7-3.8c0-1.3,1.2-2.2,2.7-2.2
		c1.2,0,2.2,0.4,2.8,1.1l-0.6,0.7c-0.6-0.7-1.4-1-2.3-1c-1,0-1.6,0.5-1.6,1.3c0,1.8,4.7,0.8,4.7,3.8c0,1.2-0.8,2.4-3,2.4
		C601.3,288,600.2,287.5,599.6,286.7z"/>
	<path d="M612.8,287.9v-3.7h-4.7v3.7h-1v-8h1v3.4h4.7v-3.4h1v8H612.8z"/>
	<path d="M615.6,287.9v-8h1v8H615.6z"/>
	<path d="M618.5,287.9v-8h3.2c1.6,0,2.5,1.1,2.5,2.4c0,1.3-0.9,2.4-2.5,2.4h-2.2v3.2H618.5z M623.2,282.3c0-0.9-0.6-1.5-1.6-1.5
		h-2.1v3h2.1C622.5,283.8,623.2,283.2,623.2,282.3z"/>
	<path d="M625.6,287.9v-8h3.2c1.6,0,2.5,1.1,2.5,2.4c0,1.3-0.9,2.4-2.5,2.4h-2.2v3.2H625.6z M630.2,282.3c0-0.9-0.6-1.5-1.6-1.5
		h-2.1v3h2.1C629.6,283.8,630.2,283.2,630.2,282.3z"/>
	<path d="M632.6,287.9v-8h1v8H632.6z"/>
	<path d="M641.1,287.9l-4.7-6.4v6.4h-1v-8h1l4.6,6.2v-6.2h1v8H641.1z"/>
	<path d="M643.6,283.9c0-2.5,1.8-4.1,4.1-4.1c1.4,0,2.4,0.6,3.1,1.5l-0.8,0.5c-0.5-0.6-1.4-1.1-2.3-1.1c-1.8,0-3.1,1.3-3.1,3.3
		c0,1.9,1.3,3.3,3.1,3.3c1,0,1.8-0.5,2.1-0.9v-1.6h-2.7v-0.9h3.7v2.9c-0.7,0.8-1.8,1.4-3.1,1.4C645.5,288,643.6,286.4,643.6,283.9z"
		/>
</g>
<g>
	<rect x="594.8" y="320.9" fill="none" width="61" height="10.7"/>
	<path d="M600,328.9v-8h3.2c1.6,0,2.5,1.1,2.5,2.4c0,1.3-0.9,2.4-2.5,2.4H601v3.2H600z M604.7,323.4c0-0.9-0.6-1.5-1.6-1.5H601v3
		h2.1C604,324.9,604.7,324.3,604.7,323.4z"/>
	<path d="M611.8,328.9l-0.7-1.8h-4l-0.7,1.8h-1.1l3.2-8h1.2l3.2,8H611.8z M609.1,322l-1.7,4.3h3.4L609.1,322z"/>
	<path d="M615.6,328.9v-3.4l-3.2-4.6h1.2l2.5,3.7l2.5-3.7h1.2l-3.1,4.6v3.4H615.6z"/>
	<path d="M627.6,328.9v-6.6l-2.7,6.6h-0.4l-2.7-6.6v6.6h-1v-8h1.4l2.5,6l2.5-6h1.4v8H627.6z"/>
	<path d="M630.4,328.9v-8h5.2v0.9h-4.2v2.6h4.2v0.9h-4.2v2.8h4.2v0.9H630.4z"/>
	<path d="M642.9,328.9l-4.7-6.4v6.4h-1v-8h1l4.6,6.2v-6.2h1v8H642.9z"/>
	<path d="M647.7,328.9v-7.1h-2.5v-0.9h6.1v0.9h-2.5v7.1H647.7z"/>
</g>
<g>
	<rect x="599.3" y="370.9" fill="none" width="52.2" height="9.6"/>
	<path d="M609.8,378.9l-2-3.2h-1.6v3.2h-1v-8h3.2c1.5,0,2.5,0.9,2.5,2.4c0,1.4-1,2.2-2.1,2.3l2.2,3.3H609.8z M609.8,373.3
		c0-0.9-0.6-1.5-1.6-1.5h-2.1v3.1h2.1C609.2,374.8,609.8,374.2,609.8,373.3z"/>
	<path d="M612.4,378.9v-8h5.2v0.9h-4.2v2.6h4.2v0.9h-4.2v2.8h4.2v0.9H612.4z"/>
	<path d="M621.6,378.9l-3.2-8h1.1l2.7,6.9l2.7-6.9h1.1l-3.2,8H621.6z"/>
	<path d="M627.2,378.9v-8h1v8H627.2z"/>
	<path d="M630,378.9v-8h5.2v0.9H631v2.6h4.2v0.9H631v2.8h4.2v0.9H630z"/>
	<path d="M643,378.9l-1.8-6.5l-1.8,6.5h-1.1l-2.3-8h1.1l1.8,6.7l1.8-6.7h0.8l1.8,6.7l1.8-6.7h1.1l-2.3,8H643z"/>
</g>
<g>
	<rect x="228" y="169" fill="none" width="51.7" height="23.2"/>
	<path d="M236.5,173c0-2.4,1.6-4.1,4-4.1c2.4,0,4,1.8,4,4.1c0,1.2-0.4,2.2-1.1,3l0.8,0.8l-0.7,0.6l-0.8-0.8
		c-0.6,0.4-1.3,0.6-2.2,0.6C238.1,177.1,236.5,175.3,236.5,173z M242,175.8l-1.1-1.2l0.7-0.6l1.1,1.2c0.5-0.6,0.7-1.4,0.7-2.2
		c0-1.9-1.2-3.3-2.9-3.3c-1.8,0-2.9,1.4-2.9,3.3c0,1.9,1.1,3.2,2.9,3.2C241.1,176.2,241.6,176.1,242,175.8z"/>
	<path d="M246,173.9V169h1v4.9c0,1.5,0.8,2.4,2.3,2.4s2.3-0.9,2.3-2.4V169h1v4.9c0,2-1.1,3.3-3.3,3.3S246,175.8,246,173.9z"/>
	<path d="M254.4,177v-8h1v8H254.4z"/>
	<path d="M257,173c0-2.5,1.8-4.1,4.1-4.1c1.4,0,2.4,0.7,3,1.6l-0.8,0.5c-0.5-0.7-1.3-1.2-2.2-1.2c-1.8,0-3.1,1.3-3.1,3.3
		c0,1.9,1.3,3.2,3.1,3.2c0.9,0,1.7-0.5,2.2-1.2l0.9,0.5c-0.7,0.9-1.6,1.6-3,1.6C258.8,177.1,257,175.4,257,173z"/>
	<path d="M270.3,177l-3-3.6l-0.8,0.9v2.7h-1v-8h1v4.1l3.5-4.1h1.2l-3.3,3.8l3.6,4.2H270.3z"/>
	<path d="M234.9,187.4c0-2.4,1.6-4.1,4-4.1c2.4,0,4,1.8,4,4.1c0,2.4-1.6,4.1-4,4.1C236.5,191.5,234.9,189.7,234.9,187.4z
		 M241.8,187.4c0-1.9-1.2-3.3-2.9-3.3c-1.8,0-2.9,1.4-2.9,3.3c0,1.9,1.1,3.2,2.9,3.2C240.7,190.6,241.8,189.2,241.8,187.4z"/>
	<path d="M249.1,191.4l-2-3.2h-1.6v3.2h-1v-8h3.2c1.5,0,2.5,0.9,2.5,2.4c0,1.4-1,2.2-2.1,2.3l2.2,3.3H249.1z M249.1,185.8
		c0-0.9-0.6-1.5-1.6-1.5h-2.1v3.1h2.1C248.5,187.3,249.1,186.7,249.1,185.8z"/>
	<path d="M251.7,191.4v-8h2.7c2.5,0,4.1,1.7,4.1,4c0,2.3-1.6,4-4.1,4H251.7z M257.5,187.4c0-1.7-1.1-3.1-3.1-3.1h-1.7v6.2h1.7
		C256.4,190.5,257.5,189.1,257.5,187.4z"/>
	<path d="M260.1,191.4v-8h5.2v0.9h-4.2v2.6h4.2v0.9h-4.2v2.8h4.2v0.9H260.1z"/>
	<path d="M271.6,191.4l-2-3.2H268v3.2h-1v-8h3.2c1.5,0,2.5,0.9,2.5,2.4c0,1.4-1,2.2-2.1,2.3l2.2,3.3H271.6z M271.6,185.8
		c0-0.9-0.6-1.5-1.6-1.5H268v3.1h2.1C271,187.3,271.6,186.7,271.6,185.8z"/>
</g>
<g>
	<rect x="228" y="216.9" fill="none" width="51.6" height="24.6"/>
	<path d="M246.4,224.9l-1.8-6.5l-1.8,6.5h-1.1l-2.3-8h1.1l1.8,6.7l1.8-6.7h0.8l1.8,6.7l1.8-6.7h1.1l-2.3,8H246.4z"/>
	<path d="M250.8,224.9v-8h1v8H250.8z"/>
	<path d="M253.2,223.8l0.6-0.8c0.5,0.6,1.4,1.1,2.5,1.1c1.4,0,1.9-0.8,1.9-1.4c0-2.1-4.7-0.9-4.7-3.8c0-1.3,1.2-2.2,2.7-2.2
		c1.2,0,2.2,0.4,2.8,1.1l-0.6,0.7c-0.6-0.7-1.4-1-2.3-1c-1,0-1.6,0.5-1.6,1.3c0,1.8,4.7,0.8,4.7,3.8c0,1.2-0.8,2.4-3,2.4
		C254.9,225,253.9,224.5,253.2,223.8z"/>
	<path d="M266.4,224.9v-3.7h-4.7v3.7h-1v-8h1v3.4h4.7v-3.4h1v8H266.4z"/>
	<path d="M243.4,239.3v-8h1v7.1h3.7v0.9H243.4z"/>
	<path d="M249.5,239.3v-8h1v8H249.5z"/>
	<path d="M251.9,238.2l0.6-0.8c0.5,0.6,1.4,1.1,2.5,1.1c1.4,0,1.9-0.8,1.9-1.4c0-2.1-4.7-0.9-4.7-3.8c0-1.3,1.2-2.2,2.7-2.2
		c1.2,0,2.2,0.4,2.8,1.1l-0.6,0.7c-0.6-0.7-1.4-1-2.3-1c-1,0-1.6,0.5-1.6,1.3c0,1.8,4.7,0.8,4.7,3.8c0,1.2-0.8,2.4-3,2.4
		C253.5,239.4,252.5,238.9,251.9,238.2z"/>
	<path d="M261.3,239.3v-7.1h-2.5v-0.9h6.1v0.9h-2.5v7.1H261.3z"/>
</g>
<g>
	<rect x="223.5" y="265.3" fill="none" width="60.7" height="24.9"/>
	<path d="M234.9,269.3c0-2.4,1.6-4.1,4-4.1c2.4,0,4,1.8,4,4.1s-1.6,4.1-4,4.1C236.5,273.4,234.9,271.6,234.9,269.3z M241.8,269.3
		c0-1.9-1.2-3.2-2.9-3.2c-1.8,0-2.9,1.4-2.9,3.2c0,1.9,1.1,3.2,2.9,3.2C240.7,272.5,241.8,271.1,241.8,269.3z"/>
	<path d="M249.1,273.3l-2-3.2h-1.6v3.2h-1v-8h3.2c1.5,0,2.5,0.9,2.5,2.4c0,1.4-1,2.2-2.1,2.3l2.2,3.3H249.1z M249.1,267.7
		c0-0.9-0.6-1.5-1.6-1.5h-2.1v3.1h2.1C248.5,269.2,249.1,268.6,249.1,267.7z"/>
	<path d="M251.7,273.3v-8h2.7c2.5,0,4.1,1.7,4.1,4c0,2.3-1.6,4-4.1,4H251.7z M257.5,269.3c0-1.7-1.1-3.1-3.1-3.1h-1.7v6.2h1.7
		C256.4,272.4,257.5,271,257.5,269.3z"/>
	<path d="M260.1,273.3v-8h5.2v0.9h-4.2v2.6h4.2v0.9h-4.2v2.8h4.2v0.9H260.1z"/>
	<path d="M271.6,273.3l-2-3.2H268v3.2h-1v-8h3.2c1.5,0,2.5,0.9,2.5,2.4c0,1.4-1,2.2-2.1,2.3l2.2,3.3H271.6z M271.6,267.7
		c0-0.9-0.6-1.5-1.6-1.5H268v3.1h2.1C271,269.2,271.6,268.6,271.6,267.7z"/>
	<path d="M236.1,287.7V284h-4.7v3.7h-1v-8h1v3.4h4.7v-3.4h1v8H236.1z"/>
	<path d="M239,287.7v-8h1v8H239z"/>
	<path d="M241.3,286.6l0.6-0.8c0.5,0.6,1.4,1.1,2.5,1.1c1.4,0,1.9-0.8,1.9-1.4c0-2.1-4.7-0.9-4.7-3.8c0-1.3,1.2-2.2,2.7-2.2
		c1.2,0,2.2,0.4,2.8,1.1l-0.6,0.7c-0.6-0.7-1.4-1-2.3-1c-1,0-1.6,0.5-1.6,1.3c0,1.8,4.7,0.8,4.7,3.8c0,1.2-0.8,2.3-3,2.3
		C243,287.8,242,287.3,241.3,286.6z"/>
	<path d="M250.8,287.7v-7.1h-2.5v-0.9h6.1v0.9h-2.5v7.1H250.8z"/>
	<path d="M255,283.7c0-2.4,1.6-4.1,4-4.1c2.4,0,4,1.8,4,4.1c0,2.4-1.6,4.1-4,4.1C256.6,287.8,255,286,255,283.7z M261.9,283.7
		c0-1.9-1.2-3.3-2.9-3.3c-1.8,0-2.9,1.4-2.9,3.3c0,1.9,1.1,3.2,2.9,3.2C260.7,286.9,261.9,285.5,261.9,283.7z"/>
	<path d="M269.1,287.7l-2-3.2h-1.6v3.2h-1v-8h3.2c1.5,0,2.5,0.9,2.5,2.4c0,1.4-1,2.2-2.1,2.3l2.2,3.3H269.1z M269.2,282.1
		c0-0.9-0.6-1.5-1.6-1.5h-2.1v3.1h2.1C268.5,283.6,269.2,283,269.2,282.1z"/>
	<path d="M273.9,287.7v-3.4l-3.2-4.6h1.2l2.5,3.7l2.5-3.7h1.2l-3.1,4.6v3.4H273.9z"/>
</g>
<g>
	<rect x="223.5" y="321.2" fill="none" width="60.7" height="10.2"/>
	<path d="M227,328.1l0.6-0.8c0.5,0.6,1.4,1.1,2.5,1.1c1.4,0,1.9-0.8,1.9-1.4c0-2.1-4.7-0.9-4.7-3.8c0-1.3,1.2-2.2,2.7-2.2
		c1.2,0,2.2,0.4,2.8,1.1l-0.6,0.7c-0.6-0.7-1.4-1-2.3-1c-1,0-1.6,0.5-1.6,1.3c0,1.8,4.7,0.8,4.7,3.8c0,1.2-0.8,2.4-3,2.4
		C228.7,329.4,227.7,328.9,227,328.1z"/>
	<path d="M234.5,329.2v-8h5.2v0.9h-4.2v2.6h4.2v0.9h-4.2v2.8h4.2v0.9H234.5z"/>
	<path d="M243.3,329.2v-7.1h-2.5v-0.9h6.1v0.9h-2.5v7.1H243.3z"/>
	<path d="M250.2,329.2v-7.1h-2.5v-0.9h6.1v0.9h-2.5v7.1H250.2z"/>
	<path d="M255,329.2v-8h1v8H255z"/>
	<path d="M263.6,329.2l-4.7-6.4v6.4h-1v-8h1l4.6,6.2v-6.2h1v8H263.6z"/>
	<path d="M266.1,325.2c0-2.5,1.8-4.1,4.1-4.1c1.4,0,2.4,0.6,3.1,1.5l-0.8,0.5c-0.5-0.6-1.4-1.1-2.3-1.1c-1.8,0-3.1,1.3-3.1,3.3
		c0,1.9,1.3,3.3,3.1,3.3c1,0,1.8-0.5,2.1-0.9V326h-2.7v-0.9h3.7v2.9c-0.7,0.8-1.8,1.4-3.1,1.4C267.9,329.4,266.1,327.7,266.1,325.2z
		"/>
	<path d="M274.5,328.1l0.6-0.8c0.5,0.6,1.4,1.1,2.5,1.1c1.4,0,1.9-0.8,1.9-1.4c0-2.1-4.7-0.9-4.7-3.8c0-1.3,1.2-2.2,2.7-2.2
		c1.2,0,2.2,0.4,2.8,1.1l-0.6,0.7c-0.6-0.7-1.4-1-2.3-1c-1,0-1.6,0.5-1.6,1.3c0,1.8,4.7,0.8,4.7,3.8c0,1.2-0.8,2.4-3,2.4
		C276.2,329.4,275.1,328.9,274.5,328.1z"/>
</g>
<g>
	<rect x="223.5" y="370.8" fill="none" width="60.5" height="9.7"/>
	<path d="M229.3,378.8v-8h1v7.1h3.7v0.9H229.3z"/>
	<path d="M234.7,374.8c0-2.4,1.6-4.1,4-4.1c2.4,0,4,1.8,4,4.1c0,2.4-1.6,4.1-4,4.1C236.3,378.9,234.7,377.2,234.7,374.8z
		 M241.6,374.8c0-1.9-1.2-3.3-2.9-3.3c-1.8,0-2.9,1.4-2.9,3.3c0,1.9,1.1,3.2,2.9,3.2C240.4,378,241.6,376.6,241.6,374.8z"/>
	<path d="M243.8,374.8c0-2.5,1.8-4.1,4.1-4.1c1.4,0,2.4,0.6,3.1,1.5l-0.8,0.5c-0.5-0.6-1.4-1.1-2.3-1.1c-1.8,0-3.1,1.3-3.1,3.3
		c0,1.9,1.3,3.3,3.1,3.3c1,0,1.8-0.5,2.1-0.9v-1.6h-2.7v-0.9h3.7v2.9c-0.7,0.8-1.8,1.4-3.1,1.4C245.7,378.9,243.8,377.3,243.8,374.8
		z"/>
	<path d="M255.5,374.8c0-2.4,1.6-4.1,4-4.1c2.4,0,4,1.8,4,4.1c0,2.4-1.6,4.1-4,4.1C257.1,378.9,255.5,377.2,255.5,374.8z
		 M262.4,374.8c0-1.9-1.2-3.3-2.9-3.3c-1.8,0-2.9,1.4-2.9,3.3c0,1.9,1.1,3.2,2.9,3.2C261.2,378,262.4,376.6,262.4,374.8z"/>
	<path d="M265,375.7v-4.9h1v4.9c0,1.5,0.8,2.4,2.3,2.4s2.3-0.9,2.3-2.4v-4.9h1v4.9c0,2-1.1,3.3-3.3,3.3S265,377.6,265,375.7z"/>
	<path d="M275.4,378.8v-7.1h-2.5v-0.9h6.1v0.9h-2.5v7.1H275.4z"/>
</g>
<g>
	<rect x="592.2" y="174.6" fill="none" width="66.4" height="12.1"/>
	<path d="M596.5,178.6c0-2.4,1.6-4.1,4-4.1c2.4,0,4,1.8,4,4.1c0,2.4-1.6,4.1-4,4.1C598,182.7,596.5,180.9,596.5,178.6z M603.4,178.6
		c0-1.9-1.2-3.3-2.9-3.3c-1.8,0-2.9,1.4-2.9,3.3c0,1.9,1.1,3.2,2.9,3.2C602.2,181.8,603.4,180.4,603.4,178.6z"/>
	<path d="M608.1,182.6l-3.2-8h1.1l2.7,6.9l2.7-6.9h1.1l-3.2,8H608.1z"/>
	<path d="M613.6,182.6v-8h5.2v0.9h-4.2v2.6h4.2v0.9h-4.2v2.8h4.2v0.9H613.6z"/>
	<path d="M625.1,182.6l-2-3.2h-1.6v3.2h-1v-8h3.2c1.5,0,2.5,0.9,2.5,2.4c0,1.4-1,2.2-2.1,2.3l2.2,3.3H625.1z M625.1,177
		c0-0.9-0.6-1.5-1.6-1.5h-2.1v3.1h2.1C624.5,178.5,625.1,177.9,625.1,177z"/>
	<path d="M630,182.6l-3.2-8h1.1l2.7,6.9l2.7-6.9h1.1l-3.2,8H630z"/>
	<path d="M635.5,182.6v-8h1v8H635.5z"/>
	<path d="M638.4,182.6v-8h5.2v0.9h-4.2v2.6h4.2v0.9h-4.2v2.8h4.2v0.9H638.4z"/>
	<path d="M651.3,182.6l-1.8-6.5l-1.8,6.5h-1.1l-2.3-8h1.1l1.8,6.7l1.8-6.7h0.8l1.8,6.7l1.8-6.7h1.1l-2.3,8H651.3z"/>
</g>
<g>
	<rect x="594.8" y="217.3" fill="none" width="61" height="23.7"/>
	<path d="M599.5,225.3v-8h2.7c2.5,0,4.1,1.7,4.1,4c0,2.3-1.6,4-4.1,4H599.5z M605.3,221.3c0-1.7-1.1-3.1-3.1-3.1h-1.7v6.2h1.7
		C604.2,224.4,605.3,223,605.3,221.3z"/>
	<path d="M607.9,225.3v-8h5.2v0.9h-4.2v2.6h4.2v0.9h-4.2v2.8h4.2v0.9H607.9z"/>
	<path d="M614.7,225.3v-8h1v7.1h3.7v0.9H614.7z"/>
	<path d="M620.9,225.3v-8h1v8H620.9z"/>
	<path d="M626.1,225.3l-3.2-8h1.1l2.7,6.9l2.7-6.9h1.1l-3.2,8H626.1z"/>
	<path d="M631.6,225.3v-8h5.2v0.9h-4.2v2.6h4.2v0.9h-4.2v2.8h4.2v0.9H631.6z"/>
	<path d="M643.1,225.3l-2-3.2h-1.6v3.2h-1v-8h3.2c1.5,0,2.5,0.9,2.5,2.4c0,1.4-1,2.2-2.1,2.3l2.2,3.3H643.1z M643.1,219.7
		c0-0.9-0.6-1.5-1.6-1.5h-2.1v3.1h2.1C642.5,221.2,643.1,220.6,643.1,219.7z"/>
	<path d="M647.9,225.3v-3.4l-3.2-4.6h1.2l2.5,3.7l2.5-3.7h1.2l-3.1,4.6v3.4H647.9z"/>
	<path d="M603.7,239.7v-8h2.7c2.5,0,4.1,1.7,4.1,4c0,2.3-1.6,4-4.1,4H603.7z M609.5,235.7c0-1.7-1.1-3.1-3.1-3.1h-1.7v6.2h1.7
		C608.4,238.8,609.5,237.4,609.5,235.7z"/>
	<path d="M612.1,239.7v-8h5.2v0.9h-4.2v2.6h4.2v0.9h-4.2v2.8h4.2v0.9H612.1z"/>
	<path d="M620.9,239.7v-7.1h-2.5v-0.9h6.1v0.9h-2.5v7.1H620.9z"/>
	<path d="M630.7,239.7l-0.7-1.8h-4l-0.7,1.8h-1.1l3.2-8h1.2l3.2,8H630.7z M628,232.7l-1.7,4.3h3.4L628,232.7z"/>
	<path d="M632.9,239.7v-8h1v8H632.9z"/>
	<path d="M635.7,239.7v-8h1v7.1h3.7v0.9H635.7z"/>
	<path d="M641.4,238.6l0.6-0.8c0.5,0.6,1.4,1.1,2.5,1.1c1.4,0,1.9-0.8,1.9-1.4c0-2.1-4.7-0.9-4.7-3.8c0-1.3,1.2-2.2,2.7-2.2
		c1.2,0,2.2,0.4,2.8,1.1l-0.6,0.7c-0.6-0.7-1.4-1-2.3-1c-1,0-1.6,0.5-1.6,1.3c0,1.8,4.7,0.8,4.7,3.8c0,1.2-0.8,2.4-3,2.4
		C643,239.8,642,239.3,641.4,238.6z"/>
</g>
<g>
	<rect x="99" y="168.5" fill="none" width="62" height="24.2"/>
	<path d="M109.3,176.5l-0.7-1.8h-4l-0.7,1.8h-1.1l3.2-8h1.2l3.2,8H109.3z M106.6,169.5l-1.7,4.3h3.4L106.6,169.5z"/>
	<path d="M111.5,176.5v-8h2.7c2.5,0,4.1,1.7,4.1,4c0,2.3-1.6,4-4.1,4H111.5z M117.3,172.5c0-1.7-1.1-3.1-3.1-3.1h-1.7v6.2h1.7
		C116.2,175.6,117.3,174.2,117.3,172.5z"/>
	<path d="M122,176.5l-3.2-8h1.1l2.7,6.9l2.7-6.9h1.1l-3.2,8H122z"/>
	<path d="M132.6,176.5l-0.7-1.8h-4l-0.7,1.8h-1.1l3.2-8h1.2l3.2,8H132.6z M129.9,169.5l-1.7,4.3h3.4L129.9,169.5z"/>
	<path d="M140.5,176.5l-4.7-6.4v6.4h-1v-8h1l4.6,6.2v-6.2h1v8H140.5z"/>
	<path d="M143,172.5c0-2.5,1.8-4.1,4.1-4.1c1.4,0,2.4,0.7,3,1.6l-0.8,0.5c-0.5-0.7-1.3-1.2-2.2-1.2c-1.8,0-3.1,1.3-3.1,3.3
		c0,1.9,1.3,3.2,3.1,3.2c0.9,0,1.7-0.5,2.2-1.2l0.9,0.5c-0.7,0.9-1.6,1.6-3,1.6C144.8,176.7,143,175,143,172.5z"/>
	<path d="M151.4,176.5v-8h5.2v0.9h-4.2v2.6h4.2v0.9h-4.2v2.8h4.2v0.9H151.4z"/>
	<path d="M107.6,189.8l0.6-0.8c0.5,0.6,1.4,1.1,2.5,1.1c1.4,0,1.9-0.8,1.9-1.4c0-2.1-4.7-0.9-4.7-3.8c0-1.3,1.2-2.2,2.7-2.2
		c1.2,0,2.2,0.4,2.8,1.1l-0.6,0.7c-0.6-0.7-1.4-1-2.3-1c-1,0-1.6,0.5-1.6,1.3c0,1.8,4.7,0.8,4.7,3.8c0,1.2-0.8,2.4-3,2.4
		C109.3,191.1,108.2,190.5,107.6,189.8z"/>
	<path d="M115.1,190.9v-8h5.2v0.9h-4.2v2.6h4.2v0.9h-4.2v2.8h4.2v0.9H115.1z"/>
	<path d="M127.6,190.9l-0.7-1.8h-4l-0.7,1.8h-1.1l3.2-8h1.2l3.2,8H127.6z M124.9,183.9l-1.7,4.3h3.4L124.9,183.9z"/>
	<path d="M134.4,190.9l-2-3.2h-1.6v3.2h-1v-8h3.2c1.5,0,2.5,0.9,2.5,2.4c0,1.4-1,2.2-2.1,2.3l2.2,3.3H134.4z M134.5,185.3
		c0-0.9-0.6-1.5-1.6-1.5h-2.1v3.1h2.1C133.9,186.9,134.5,186.2,134.5,185.3z"/>
	<path d="M136.8,186.9c0-2.5,1.8-4.1,4.1-4.1c1.4,0,2.4,0.7,3,1.6l-0.8,0.5c-0.5-0.7-1.3-1.2-2.2-1.2c-1.8,0-3.1,1.3-3.1,3.3
		c0,1.9,1.3,3.2,3.1,3.2c0.9,0,1.7-0.5,2.2-1.2l0.9,0.5c-0.7,0.9-1.6,1.6-3,1.6C138.6,191.1,136.8,189.4,136.8,186.9z"/>
	<path d="M150.9,190.9v-3.7h-4.7v3.7h-1v-8h1v3.4h4.7v-3.4h1v8H150.9z"/>
</g>
<g>
	<rect x="627.6" y="438.9" fill="none" width="49.6" height="9.1"/>
	<path d="M631.3,446.9v-8h3.6c1.4,0,2.2,0.8,2.2,2c0,1-0.7,1.7-1.4,1.8c0.9,0.1,1.6,1,1.6,2c0,1.3-0.9,2.2-2.3,2.2H631.3z
		 M636.1,441.1c0-0.7-0.5-1.3-1.4-1.3h-2.4v2.6h2.4C635.6,442.4,636.1,441.9,636.1,441.1z M636.2,444.7c0-0.7-0.5-1.4-1.5-1.4h-2.4
		v2.8h2.4C635.7,446.1,636.2,445.5,636.2,444.7z"/>
	<path d="M644.6,446.9l-0.7-1.8h-4l-0.7,1.8H638l3.2-8h1.2l3.2,8H644.6z M641.9,440l-1.7,4.3h3.4L641.9,440z"/>
	<path d="M651.6,446.9l-3-3.6l-0.8,0.9v2.7h-1v-8h1v4.1l3.5-4.1h1.2l-3.3,3.8l3.6,4.2H651.6z"/>
	<path d="M654,446.9v-8h5.2v0.9H655v2.6h4.2v0.9H655v2.8h4.2v0.9H654z"/>
	<path d="M665.4,446.9l-2-3.2h-1.6v3.2h-1v-8h3.2c1.5,0,2.5,0.9,2.5,2.4c0,1.4-1,2.2-2.1,2.3l2.2,3.3H665.4z M665.5,441.3
		c0-0.9-0.6-1.5-1.6-1.5h-2.1v3.1h2.1C664.8,442.9,665.5,442.2,665.5,441.3z"/>
	<path d="M670.2,446.9v-3.4l-3.2-4.6h1.2l2.5,3.7l2.5-3.7h1.2l-3.1,4.6v3.4H670.2z"/>
</g>
<g>
	<rect x="736.7" y="439.2" fill="none" width="49.6" height="8.6"/>
	<path d="M740.5,447.2v-8h3.2c1.6,0,2.5,1.1,2.5,2.4c0,1.3-0.9,2.4-2.5,2.4h-2.2v3.2H740.5z M745.1,441.6c0-0.9-0.6-1.5-1.6-1.5
		h-2.1v3h2.1C744.5,443.1,745.1,442.5,745.1,441.6z"/>
	<path d="M752.3,447.2l-0.7-1.8h-4l-0.7,1.8h-1.1l3.2-8h1.2l3.2,8H752.3z M749.6,440.2l-1.7,4.3h3.4L749.6,440.2z"/>
	<path d="M760.1,447.2l-4.7-6.4v6.4h-1v-8h1l4.6,6.2v-6.2h1v8H760.1z"/>
	<path d="M764.9,447.2v-7.1h-2.5v-0.9h6.1v0.9h-2.5v7.1H764.9z"/>
	<path d="M774.4,447.2l-2-3.2h-1.6v3.2h-1v-8h3.2c1.5,0,2.5,0.9,2.5,2.4c0,1.4-1,2.2-2.1,2.3l2.2,3.3H774.4z M774.5,441.6
		c0-0.9-0.6-1.5-1.6-1.5h-2.1v3.1h2.1C773.8,443.1,774.5,442.5,774.5,441.6z"/>
	<path d="M779.2,447.2v-3.4l-3.2-4.6h1.2l2.5,3.7l2.5-3.7h1.2l-3.1,4.6v3.4H779.2z"/>
</g>
<g>
	<rect x="845.8" y="438.9" fill="none" width="49.6" height="9.1"/>
	<path d="M848.4,445.8l0.6-0.8c0.5,0.6,1.4,1.1,2.5,1.1c1.4,0,1.9-0.8,1.9-1.4c0-2.1-4.7-0.9-4.7-3.8c0-1.3,1.2-2.2,2.7-2.2
		c1.2,0,2.2,0.4,2.8,1.1l-0.6,0.7c-0.6-0.7-1.4-1-2.3-1c-1,0-1.6,0.5-1.6,1.3c0,1.8,4.7,0.8,4.7,3.8c0,1.2-0.8,2.4-3,2.4
		C850.1,447.1,849,446.6,848.4,445.8z"/>
	<path d="M861.6,446.9l-4.7-6.4v6.4h-1v-8h1l4.6,6.2v-6.2h1v8H861.6z"/>
	<path d="M870.1,446.9l-0.7-1.8h-4l-0.7,1.8h-1.1l3.2-8h1.2l3.2,8H870.1z M867.4,440l-1.7,4.3h3.4L867.4,440z"/>
	<path d="M871.5,442.9c0-2.5,1.8-4.1,4.1-4.1c1.4,0,2.4,0.7,3,1.6l-0.8,0.5c-0.5-0.7-1.3-1.2-2.2-1.2c-1.8,0-3.1,1.3-3.1,3.2
		c0,1.9,1.3,3.2,3.1,3.2c0.9,0,1.7-0.5,2.2-1.2l0.9,0.5c-0.7,0.9-1.6,1.6-3,1.6C873.3,447.1,871.5,445.4,871.5,442.9z"/>
	<path d="M884.8,446.9l-3-3.6l-0.8,0.9v2.7h-1v-8h1v4.1l3.5-4.1h1.2l-3.3,3.8l3.6,4.2H884.8z"/>
	<path d="M886.7,445.8l0.6-0.8c0.5,0.6,1.4,1.1,2.5,1.1c1.4,0,1.9-0.8,1.9-1.4c0-2.1-4.7-0.9-4.7-3.8c0-1.3,1.2-2.2,2.7-2.2
		c1.2,0,2.2,0.4,2.8,1.1l-0.6,0.7c-0.6-0.7-1.4-1-2.3-1c-1,0-1.6,0.5-1.6,1.3c0,1.8,4.7,0.8,4.7,3.8c0,1.2-0.8,2.4-3,2.4
		C888.4,447.1,887.3,446.6,886.7,445.8z"/>
</g>
<g>
	<rect x="510.5" y="437.9" fill="none" width="65.6" height="11.2"/>
	<path d="M516.6,445.9v-8h3.2c1.6,0,2.5,1.1,2.5,2.4s-0.9,2.4-2.5,2.4h-2.2v3.2H516.6z M521.3,440.3c0-0.9-0.6-1.5-1.6-1.5h-2.1v3
		h2.1C520.7,441.8,521.3,441.2,521.3,440.3z"/>
	<path d="M528.3,445.9l-2-3.2h-1.6v3.2h-1v-8h3.2c1.5,0,2.5,0.9,2.5,2.4c0,1.4-1,2.2-2.1,2.3l2.2,3.3H528.3z M528.4,440.3
		c0-0.9-0.6-1.5-1.6-1.5h-2.1v3.1h2.1C527.7,441.8,528.4,441.2,528.4,440.3z"/>
	<path d="M530.6,441.9c0-2.4,1.6-4.1,4-4.1c2.4,0,4,1.8,4,4.1c0,2.4-1.6,4.1-4,4.1C532.2,446,530.6,444.3,530.6,441.9z M537.6,441.9
		c0-1.9-1.2-3.2-2.9-3.2c-1.8,0-2.9,1.4-2.9,3.2c0,1.9,1.1,3.2,2.9,3.2C536.4,445.1,537.6,443.7,537.6,441.9z"/>
	<path d="M540.2,445.9v-8h2.7c2.5,0,4.1,1.7,4.1,4c0,2.3-1.6,4-4.1,4H540.2z M546,441.9c0-1.7-1.1-3.1-3.1-3.1h-1.7v6.2h1.7
		C544.8,445,546,443.6,546,441.9z"/>
	<path d="M548.6,442.8v-4.9h1v4.9c0,1.5,0.8,2.4,2.3,2.4c1.5,0,2.3-0.9,2.3-2.4v-4.9h1v4.9c0,2-1.1,3.3-3.3,3.3
		S548.6,444.7,548.6,442.8z"/>
	<path d="M556.6,441.9c0-2.5,1.8-4.1,4.1-4.1c1.4,0,2.4,0.7,3,1.6l-0.8,0.5c-0.5-0.7-1.3-1.2-2.2-1.2c-1.8,0-3.1,1.3-3.1,3.2
		c0,1.9,1.3,3.2,3.1,3.2c0.9,0,1.7-0.5,2.2-1.2l0.9,0.5c-0.7,0.9-1.6,1.6-3,1.6C558.4,446,556.6,444.3,556.6,441.9z"/>
	<path d="M565.1,445.9v-8h5.2v0.9h-4.2v2.6h4.2v0.9h-4.2v2.8h4.2v0.9H565.1z"/>
</g>
<g>
	<rect x="398.8" y="431.7" fill="none" width="70.9" height="23.7"/>
	<path d="M426.8,439.7v-6.6l-2.7,6.6h-0.4l-2.7-6.6v6.6h-1v-8h1.4l2.5,6l2.5-6h1.4v8H426.8z"/>
	<path d="M429.6,439.7v-8h5.2v0.9h-4.2v2.6h4.2v0.9h-4.2v2.8h4.2v0.9H429.6z"/>
	<path d="M442.2,439.7l-0.7-1.8h-4l-0.7,1.8h-1.1l3.2-8h1.2l3.2,8H442.2z M439.5,432.7l-1.7,4.3h3.4L439.5,432.7z"/>
	<path d="M445.5,439.7v-7.1H443v-0.9h6.1v0.9h-2.5v7.1H445.5z"/>
	<path d="M407.1,452.9l0.6-0.8c0.5,0.6,1.4,1.1,2.5,1.1c1.4,0,1.9-0.8,1.9-1.4c0-2.1-4.7-0.9-4.7-3.8c0-1.3,1.2-2.2,2.7-2.2
		c1.2,0,2.2,0.4,2.8,1.1l-0.6,0.7c-0.6-0.7-1.4-1-2.3-1c-1,0-1.6,0.5-1.6,1.3c0,1.8,4.7,0.8,4.7,3.8c0,1.2-0.8,2.4-3,2.4
		C408.8,454.2,407.8,453.7,407.1,452.9z"/>
	<path d="M414.6,454.1v-8h5.2v0.9h-4.2v2.6h4.2v0.9h-4.2v2.8h4.2v0.9H414.6z"/>
	<path d="M427.2,454.1l-0.7-1.8h-4l-0.7,1.8h-1.1l3.2-8h1.2l3.2,8H427.2z M424.5,447.1l-1.7,4.3h3.4L424.5,447.1z"/>
	<path d="M429.4,454.1v-8h5.2v0.9h-4.2v2.6h4.2v0.9h-4.2v3.6H429.4z"/>
	<path d="M435.6,450.1c0-2.4,1.6-4.1,4-4.1c2.4,0,4,1.8,4,4.1c0,2.4-1.6,4.1-4,4.1C437.2,454.2,435.6,452.4,435.6,450.1z
		 M442.6,450.1c0-1.9-1.2-3.2-2.9-3.2c-1.8,0-2.9,1.4-2.9,3.2c0,1.9,1.1,3.2,2.9,3.2C441.4,453.3,442.6,451.9,442.6,450.1z"/>
	<path d="M444.8,450.1c0-2.4,1.6-4.1,4-4.1c2.4,0,4,1.8,4,4.1c0,2.4-1.6,4.1-4,4.1C446.4,454.2,444.8,452.4,444.8,450.1z
		 M451.7,450.1c0-1.9-1.2-3.2-2.9-3.2c-1.8,0-2.9,1.4-2.9,3.2c0,1.9,1.1,3.2,2.9,3.2C450.6,453.3,451.7,451.9,451.7,450.1z"/>
	<path d="M454.3,454.1v-8h2.7c2.5,0,4.1,1.7,4.1,4c0,2.3-1.6,4-4.1,4H454.3z M460.1,450.1c0-1.7-1.1-3.1-3.1-3.1h-1.7v6.2h1.7
		C459,453.2,460.1,451.8,460.1,450.1z"/>
</g>
<g>
	<rect x="300.4" y="439.4" fill="none" width="49.6" height="8.1"/>
	<path d="M309.4,447.4v-8h2.7c2.5,0,4.1,1.7,4.1,4c0,2.3-1.6,4-4.1,4H309.4z M315.2,443.4c0-1.7-1.1-3.1-3.1-3.1h-1.7v6.2h1.7
		C314.1,446.5,315.2,445.2,315.2,443.4z"/>
	<path d="M323.1,447.4l-0.7-1.8h-4l-0.7,1.8h-1.1l3.2-8h1.2l3.2,8H323.1z M320.4,440.5l-1.7,4.3h3.4L320.4,440.5z"/>
	<path d="M325.3,447.4v-8h1v8H325.3z"/>
	<path d="M332.8,447.4l-2-3.2h-1.6v3.2h-1v-8h3.2c1.5,0,2.5,0.9,2.5,2.4c0,1.4-1,2.2-2.1,2.3l2.2,3.3H332.8z M332.8,441.8
		c0-0.9-0.6-1.5-1.6-1.5h-2.1v3.1h2.1C332.2,443.4,332.8,442.7,332.8,441.8z"/>
	<path d="M337.6,447.4V444l-3.2-4.6h1.2l2.5,3.7l2.5-3.7h1.2l-3.1,4.6v3.4H337.6z"/>
</g>
<g>
	<rect x="315.4" y="489" fill="none" width="49.6" height="9"/>
	<path d="M335.4,496.4v-6l-2.5,6h-0.4l-2.5-6v6h-0.9V489h1.3l2.3,5.5l2.3-5.5h1.3v7.3H335.4z"/>
	<path d="M338,496.4V489h0.9v7.3H338z"/>
	<path d="M340.7,496.4V489h0.9v6.5h3.4v0.8H340.7z"/>
	<path d="M350.7,496.4l-2.8-3.3l-0.7,0.8v2.5h-0.9V489h0.9v3.8l3.2-3.8h1.1l-3.1,3.5l3.3,3.9H350.7z"/>
</g>
<g>
	<rect x="315.4" y="528.9" fill="none" width="49.6" height="9.2"/>
	<path d="M321.5,536.2v-3.1l-2.9-4.2h1.1l2.3,3.4l2.3-3.4h1.1l-2.9,4.2v3.1H321.5z"/>
	<path d="M325.5,532.5c0-2.2,1.5-3.8,3.6-3.8c2.2,0,3.6,1.6,3.6,3.8c0,2.2-1.5,3.8-3.6,3.8C327,536.3,325.5,534.7,325.5,532.5z
		 M331.9,532.5c0-1.7-1.1-3-2.7-3c-1.7,0-2.7,1.3-2.7,3c0,1.7,1,3,2.7,3C330.8,535.5,331.9,534.2,331.9,532.5z"/>
	<path d="M333.9,532.5c0-2.3,1.7-3.8,3.8-3.8c1.3,0,2.2,0.6,2.8,1.4l-0.7,0.5c-0.5-0.6-1.2-1-2.1-1c-1.6,0-2.8,1.2-2.8,3
		c0,1.7,1.2,3,2.8,3c0.9,0,1.6-0.4,2-0.8v-1.5h-2.5v-0.8h3.4v2.7c-0.7,0.8-1.7,1.3-2.9,1.3C335.6,536.3,333.9,534.8,333.9,532.5z"/>
	<path d="M342.1,533.3v-4.5h0.9v4.5c0,1.3,0.7,2.2,2.1,2.2s2.1-0.8,2.1-2.2v-4.5h0.9v4.5c0,1.8-1,3-3,3S342.1,535.2,342.1,533.3z"/>
	<path d="M354,536.2l-1.9-2.9h-1.5v2.9h-0.9v-7.3h2.9c1.3,0,2.3,0.9,2.3,2.2c0,1.3-0.9,2-1.9,2.1l2,3H354z M354.1,531.1
		c0-0.8-0.6-1.4-1.5-1.4h-1.9v2.8h1.9C353.5,532.5,354.1,531.9,354.1,531.1z"/>
	<path d="M358.2,536.2v-6.5h-2.3v-0.8h5.6v0.8h-2.3v6.5H358.2z"/>
</g>
<g>
	<rect x="315.4" y="569" fill="none" width="49.6" height="9"/>
	<path d="M327,576.4V569h4.8v0.8h-3.9v2.4h3.8v0.8h-3.8v2.5h3.9v0.8H327z"/>
	<path d="M333.2,576.4V569h2.5c2.3,0,3.8,1.6,3.8,3.7c0,2.1-1.5,3.7-3.8,3.7H333.2z M338.5,572.7c0-1.6-1-2.9-2.8-2.9h-1.6v5.7h1.6
		C337.5,575.6,338.5,574.3,338.5,572.7z"/>
	<path d="M340.9,576.4V569h2.5c2.3,0,3.8,1.6,3.8,3.7c0,2.1-1.5,3.7-3.8,3.7H340.9z M346.2,572.7c0-1.6-1-2.9-2.8-2.9h-1.6v5.7h1.6
		C345.2,575.6,346.2,574.3,346.2,572.7z"/>
	<path d="M348.2,575.3l0.5-0.7c0.5,0.5,1.3,1,2.3,1c1.3,0,1.7-0.7,1.7-1.3c0-1.9-4.3-0.8-4.3-3.5c0-1.2,1.1-2,2.5-2
		c1.1,0,2,0.4,2.6,1l-0.6,0.7c-0.5-0.6-1.3-0.9-2.1-0.9c-0.9,0-1.5,0.5-1.5,1.2c0,1.7,4.3,0.7,4.3,3.4c0,1.1-0.7,2.2-2.7,2.2
		C349.7,576.5,348.8,576,348.2,575.3z"/>
</g>
<g>
	<rect x="315.4" y="609.4" fill="none" width="49.6" height="7.7"/>
	<path d="M320.5,613.1c0-2.3,1.7-3.8,3.8-3.8c1.3,0,2.2,0.6,2.8,1.5l-0.8,0.4c-0.4-0.6-1.2-1.1-2-1.1c-1.6,0-2.8,1.2-2.8,3
		c0,1.7,1.2,3,2.8,3c0.8,0,1.6-0.4,2-1.1l0.8,0.4c-0.6,0.8-1.5,1.5-2.8,1.5C322.1,616.9,320.5,615.3,320.5,613.1z"/>
	<path d="M333.4,616.7v-3.4h-4.3v3.4h-0.9v-7.3h0.9v3.2h4.3v-3.2h0.9v7.3H333.4z"/>
	<path d="M336,616.7v-7.3h4.8v0.8h-3.9v2.4h3.8v0.8h-3.8v2.5h3.9v0.8H336z"/>
	<path d="M342.3,616.7v-7.3h4.8v0.8h-3.9v2.4h3.8v0.8h-3.8v2.5h3.9v0.8H342.3z"/>
	<path d="M348.1,615.7l0.5-0.7c0.5,0.5,1.3,1,2.3,1c1.3,0,1.7-0.7,1.7-1.3c0-1.9-4.3-0.8-4.3-3.5c0-1.2,1.1-2,2.5-2
		c1.1,0,2,0.4,2.6,1l-0.6,0.7c-0.5-0.6-1.3-0.9-2.1-0.9c-0.9,0-1.5,0.5-1.5,1.2c0,1.7,4.3,0.7,4.3,3.4c0,1.1-0.7,2.2-2.7,2.2
		C349.6,616.9,348.7,616.4,348.1,615.7z"/>
	<path d="M355,616.7v-7.3h4.8v0.8h-3.9v2.4h3.8v0.8h-3.8v2.5h3.9v0.8H355z"/>
</g>
<g>
	<rect x="315.4" y="683.3" fill="none" width="49.6" height="19.5"/>
	<path d="M325.9,689.6l0.5-0.7c0.5,0.5,1.3,1,2.3,1c1.3,0,1.7-0.7,1.7-1.3c0-1.9-4.3-0.8-4.3-3.5c0-1.2,1.1-2,2.5-2
		c1.1,0,2,0.4,2.6,1l-0.6,0.7c-0.5-0.6-1.3-0.9-2.1-0.9c-0.9,0-1.5,0.5-1.5,1.2c0,1.7,4.3,0.7,4.3,3.4c0,1.1-0.7,2.2-2.7,2.2
		C327.5,690.8,326.5,690.3,325.9,689.6z"/>
	<path d="M332.5,687c0-2.2,1.5-3.8,3.6-3.8c2.2,0,3.6,1.6,3.6,3.8c0,2.2-1.5,3.8-3.6,3.8C334,690.8,332.5,689.1,332.5,687z
		 M338.9,687c0-1.7-1.1-3-2.7-3c-1.7,0-2.7,1.3-2.7,3c0,1.7,1,3,2.7,3C337.8,690,338.9,688.7,338.9,687z"/>
	<path d="M341.2,687.8v-4.5h0.9v4.5c0,1.3,0.7,2.2,2.1,2.2s2.1-0.8,2.1-2.2v-4.5h0.9v4.5c0,1.8-1,3-3,3S341.2,689.6,341.2,687.8z"/>
	<path d="M353.2,690.6l-1.9-2.9h-1.5v2.9h-0.9v-7.3h2.9c1.3,0,2.3,0.9,2.3,2.2c0,1.3-0.9,2-1.9,2.1l2,3H353.2z M353.2,685.5
		c0-0.8-0.6-1.4-1.5-1.4h-1.9v2.8h1.9C352.7,686.9,353.2,686.3,353.2,685.5z"/>
	<path d="M322.5,698c0-2.3,1.7-3.8,3.8-3.8c1.3,0,2.2,0.6,2.8,1.5l-0.8,0.4c-0.4-0.6-1.2-1.1-2-1.1c-1.6,0-2.8,1.2-2.8,3
		c0,1.7,1.2,3,2.8,3c0.8,0,1.6-0.4,2-1.1l0.8,0.4c-0.6,0.8-1.5,1.5-2.8,1.5C324.1,701.8,322.5,700.2,322.5,698z"/>
	<path d="M334.4,701.6l-1.9-2.9h-1.5v2.9h-0.9v-7.3h2.9c1.3,0,2.3,0.9,2.3,2.2c0,1.3-0.9,2-1.9,2.1l2,3H334.4z M334.5,696.5
		c0-0.8-0.6-1.4-1.5-1.4h-1.9v2.8h1.9C333.9,697.9,334.5,697.3,334.5,696.5z"/>
	<path d="M336.9,701.6v-7.3h4.8v0.8h-3.9v2.4h3.8v0.8h-3.8v2.5h3.9v0.8H336.9z"/>
	<path d="M348.4,701.6l-0.6-1.6h-3.7l-0.6,1.6h-1l2.9-7.3h1.1l3,7.3H348.4z M345.9,695.2l-1.6,3.9h3.1L345.9,695.2z"/>
	<path d="M356.6,701.6v-6l-2.5,6h-0.4l-2.5-6v6h-0.9v-7.3h1.3l2.3,5.5l2.3-5.5h1.3v7.3H356.6z"/>
</g>
<g>
	<rect x="315.4" y="649" fill="none" width="49.6" height="8.4"/>
	<path d="M321,656.3V649h3.3c1.3,0,2.1,0.8,2.1,1.9c0,0.9-0.6,1.5-1.3,1.7c0.8,0.1,1.4,0.9,1.4,1.8c0,1.2-0.8,2-2.1,2H321z
		 M325.3,651c0-0.7-0.4-1.2-1.3-1.2h-2.2v2.4h2.2C324.9,652.1,325.3,651.6,325.3,651z M325.5,654.2c0-0.7-0.5-1.3-1.4-1.3h-2.2v2.5
		h2.2C325,655.5,325.5,655,325.5,654.2z"/>
	<path d="M327.9,653.4V649h0.9v4.5c0,1.3,0.7,2.2,2.1,2.2s2.1-0.8,2.1-2.2V649h0.9v4.5c0,1.8-1,3-3,3S327.9,655.2,327.9,653.4z"/>
	<path d="M337.4,656.3v-6.5h-2.3V649h5.6v0.8h-2.3v6.5H337.4z"/>
	<path d="M343.7,656.3v-6.5h-2.3V649h5.6v0.8h-2.3v6.5H343.7z"/>
	<path d="M348.1,656.3V649h4.8v0.8H349v2.4h3.8v0.8H349v2.5h3.9v0.8H348.1z"/>
	<path d="M358.6,656.3l-1.9-2.9h-1.5v2.9h-0.9V649h2.9c1.3,0,2.3,0.9,2.3,2.2c0,1.3-0.9,2-1.9,2.1l2,3H358.6z M358.7,651.2
		c0-0.8-0.6-1.4-1.5-1.4h-1.9v2.8h1.9C358.1,652.6,358.7,652,358.7,651.2z"/>
</g>
<g>
	<rect x="424.5" y="488.7" fill="none" width="49.6" height="9.6"/>
	<path d="M436,496.1v-7.3h2.9c1.5,0,2.3,1,2.3,2.2s-0.8,2.2-2.3,2.2h-2v2.9H436z M440.3,490.9c0-0.8-0.6-1.4-1.5-1.4h-1.9v2.8h1.9
		C439.7,492.3,440.3,491.8,440.3,490.9z"/>
	<path d="M442.2,492.4c0-2.2,1.5-3.8,3.6-3.8c2.2,0,3.6,1.6,3.6,3.8c0,2.2-1.5,3.8-3.6,3.8C443.6,496.2,442.2,494.6,442.2,492.4z
		 M448.5,492.4c0-1.7-1.1-3-2.7-3c-1.7,0-2.7,1.3-2.7,3c0,1.7,1,3,2.7,3C447.5,495.4,448.5,494.1,448.5,492.4z"/>
	<path d="M455.1,496.1l-1.9-2.9h-1.5v2.9h-0.9v-7.3h2.9c1.3,0,2.3,0.9,2.3,2.2c0,1.3-0.9,2-1.9,2.1l2,3H455.1z M455.2,490.9
		c0-0.8-0.6-1.4-1.5-1.4h-1.9v2.8h1.9C454.6,492.4,455.2,491.8,455.2,490.9z"/>
	<path d="M462,496.1l-2.8-3.3l-0.7,0.8v2.5h-0.9v-7.3h0.9v3.8l3.2-3.8h1.1l-3.1,3.5l3.3,3.9H462z"/>
</g>
<g>
	<rect x="423.9" y="529.7" fill="none" width="49.6" height="7.4"/>
	<path d="M436.8,537.1v-7.3h3.3c1.3,0,2.1,0.8,2.1,1.9c0,0.9-0.6,1.5-1.3,1.7c0.8,0.1,1.4,0.9,1.4,1.8c0,1.2-0.8,2-2.1,2H436.8z
		 M441.2,531.7c0-0.7-0.4-1.2-1.3-1.2h-2.2v2.4h2.2C440.7,532.9,441.2,532.4,441.2,531.7z M441.3,535c0-0.7-0.5-1.3-1.4-1.3h-2.2
		v2.5h2.2C440.8,536.3,441.3,535.8,441.3,535z"/>
	<path d="M443.7,537.1v-7.3h4.8v0.8h-3.9v2.4h3.8v0.8h-3.8v2.5h3.9v0.8H443.7z"/>
	<path d="M450,537.1v-7.3h4.8v0.8h-3.9v2.4h3.8v0.8h-3.8v2.5h3.9v0.8H450z"/>
	<path d="M456.2,537.1v-7.3h4.8v0.8h-3.9v2.4h3.8v0.8h-3.8v3.3H456.2z"/>
</g>
<g>
	<rect x="533.5" y="489.4" fill="none" width="49.6" height="8.3"/>
	<path d="M541.3,496.7v-7.3h4.8v0.8h-3.9v2.4h3.8v0.8h-3.8v3.3H541.3z"/>
	<path d="M551.6,496.7l-1.9-2.9h-1.5v2.9h-0.9v-7.3h2.9c1.3,0,2.3,0.9,2.3,2.2c0,1.3-0.9,2-1.9,2.1l2,3H551.6z M551.7,491.6
		c0-0.8-0.6-1.4-1.5-1.4h-1.9v2.8h1.9C551.1,493,551.7,492.4,551.7,491.6z"/>
	<path d="M554,493.9v-4.5h0.9v4.5c0,1.3,0.7,2.2,2.1,2.2c1.4,0,2.1-0.8,2.1-2.2v-4.5h0.9v4.5c0,1.8-1,3-3,3S554,495.7,554,493.9z"/>
	<path d="M561.7,496.7v-7.3h0.9v7.3H561.7z"/>
	<path d="M566.2,496.7v-6.5h-2.3v-0.8h5.6v0.8h-2.3v6.5H566.2z"/>
	<path d="M570.2,495.7l0.5-0.7c0.5,0.5,1.3,1,2.3,1c1.3,0,1.7-0.7,1.7-1.3c0-1.9-4.3-0.8-4.3-3.5c0-1.2,1.1-2,2.5-2
		c1.1,0,2,0.4,2.6,1L575,491c-0.5-0.6-1.3-0.9-2.1-0.9c-0.9,0-1.5,0.5-1.5,1.2c0,1.7,4.3,0.7,4.3,3.4c0,1.1-0.7,2.2-2.7,2.2
		C571.7,496.9,570.8,496.4,570.2,495.7z"/>
</g>
<g>
	<rect x="522.1" y="528.8" fill="none" width="72.5" height="9.2"/>
	<path d="M528.6,536.2l-2.9-7.3h1l2.5,6.3l2.5-6.3h1l-3,7.3H528.6z"/>
	<path d="M533.6,536.2v-7.3h4.8v0.8h-3.9v2.4h3.8v0.8h-3.8v2.5h3.9v0.8H533.6z"/>
	<path d="M539.6,532.5c0-2.3,1.7-3.8,3.8-3.8c1.3,0,2.2,0.6,2.8,1.4l-0.7,0.5c-0.5-0.6-1.2-1-2.1-1c-1.6,0-2.8,1.2-2.8,3
		c0,1.7,1.2,3,2.8,3c0.9,0,1.6-0.4,2-0.8v-1.5h-2.5v-0.8h3.4v2.7c-0.7,0.8-1.7,1.3-2.9,1.3C541.3,536.3,539.6,534.8,539.6,532.5z"/>
	<path d="M547.7,536.2v-7.3h4.8v0.8h-3.9v2.4h3.8v0.8h-3.8v2.5h3.9v0.8H547.7z"/>
	<path d="M555.8,536.2v-6.5h-2.3v-0.8h5.6v0.8h-2.3v6.5H555.8z"/>
	<path d="M564.8,536.2l-0.6-1.6h-3.7l-0.6,1.6h-1l2.9-7.3h1.1l3,7.3H564.8z M562.3,529.8l-1.6,3.9h3.1L562.3,529.8z"/>
	<path d="M566.8,536.2v-7.3h3.3c1.3,0,2.1,0.8,2.1,1.9c0,0.9-0.6,1.5-1.3,1.7c0.8,0.1,1.4,0.9,1.4,1.8c0,1.2-0.8,2-2.1,2H566.8z
		 M571.1,530.8c0-0.7-0.4-1.2-1.3-1.2h-2.2v2.4h2.2C570.7,532,571.1,531.5,571.1,530.8z M571.3,534.1c0-0.7-0.5-1.3-1.4-1.3h-2.2
		v2.5h2.2C570.8,535.4,571.3,534.9,571.3,534.1z"/>
	<path d="M573.7,536.2v-7.3h0.9v6.5h3.4v0.8H573.7z"/>
	<path d="M579.3,536.2v-7.3h4.8v0.8h-3.9v2.4h3.8v0.8h-3.8v2.5h3.9v0.8H579.3z"/>
	<path d="M585.1,535.1l0.5-0.7c0.5,0.5,1.3,1,2.3,1c1.3,0,1.7-0.7,1.7-1.3c0-1.9-4.3-0.8-4.3-3.5c0-1.2,1.1-2,2.5-2
		c1.1,0,2,0.4,2.6,1l-0.6,0.7c-0.5-0.6-1.3-0.9-2.1-0.9c-0.9,0-1.5,0.5-1.5,1.2c0,1.7,4.3,0.7,4.3,3.4c0,1.1-0.7,2.2-2.7,2.2
		C586.6,536.3,585.7,535.8,585.1,535.1z"/>
</g>
<g>
	<rect x="419.8" y="568.4" fill="none" width="58.9" height="10.3"/>
	<path d="M426.7,575.7v-7.3h2.9c1.5,0,2.3,1,2.3,2.2c0,1.2-0.8,2.2-2.3,2.2h-2v2.9H426.7z M431,570.6c0-0.8-0.6-1.4-1.5-1.4h-1.9
		v2.8h1.9C430.4,572,431,571.4,431,570.6z"/>
	<path d="M432.9,572.1c0-2.2,1.5-3.8,3.6-3.8c2.2,0,3.6,1.6,3.6,3.8c0,2.2-1.5,3.8-3.6,3.8C434.3,575.9,432.9,574.2,432.9,572.1z
		 M439.2,572.1c0-1.7-1.1-3-2.7-3c-1.7,0-2.7,1.3-2.7,3c0,1.7,1,3,2.7,3C438.2,575,439.2,573.8,439.2,572.1z"/>
	<path d="M441.6,572.9v-4.5h0.9v4.5c0,1.3,0.7,2.2,2.1,2.2s2.1-0.8,2.1-2.2v-4.5h0.9v4.5c0,1.8-1,3-3,3S441.6,574.7,441.6,572.9z"/>
	<path d="M449.3,575.7v-7.3h0.9v6.5h3.4v0.8H449.3z"/>
	<path d="M455.6,575.7v-6.5h-2.3v-0.8h5.6v0.8h-2.3v6.5H455.6z"/>
	<path d="M464.3,575.7l-1.9-2.9H461v2.9h-0.9v-7.3h2.9c1.3,0,2.3,0.9,2.3,2.2c0,1.3-0.9,2-1.9,2.1l2,3H464.3z M464.4,570.6
		c0-0.8-0.6-1.4-1.5-1.4H461v2.8h1.9C463.8,572,464.4,571.4,464.4,570.6z"/>
	<path d="M468.7,575.7v-3.1l-2.9-4.2h1.1l2.3,3.4l2.3-3.4h1.1l-2.9,4.2v3.1H468.7z"/>
</g>
<g>
	<rect x="418" y="649.1" fill="none" width="62.6" height="8"/>
	<path d="M424.4,655.4l0.5-0.7c0.5,0.5,1.3,1,2.3,1c1.3,0,1.7-0.7,1.7-1.3c0-1.9-4.3-0.8-4.3-3.5c0-1.2,1.1-2,2.5-2
		c1.1,0,2,0.4,2.6,1l-0.6,0.7c-0.5-0.6-1.3-0.9-2.1-0.9c-0.9,0-1.5,0.5-1.5,1.2c0,1.7,4.3,0.7,4.3,3.4c0,1.1-0.7,2.2-2.7,2.2
		C425.9,656.6,425,656.1,424.4,655.4z"/>
	<path d="M431.3,656.5v-7.3h4.8v0.8h-3.9v2.4h3.8v0.8h-3.8v2.5h3.9v0.8H431.3z"/>
	<path d="M442.8,656.5l-0.6-1.6h-3.7l-0.6,1.6h-1l2.9-7.3h1.1l3,7.3H442.8z M440.3,650.1l-1.6,4h3.1L440.3,650.1z"/>
	<path d="M444.8,656.5v-7.3h4.8v0.8h-3.9v2.4h3.8v0.8h-3.8v3.3H444.8z"/>
	<path d="M450.5,652.8c0-2.2,1.5-3.8,3.6-3.8c2.2,0,3.6,1.6,3.6,3.8c0,2.2-1.5,3.8-3.6,3.8C452,656.6,450.5,655,450.5,652.8z
		 M456.9,652.8c0-1.7-1.1-3-2.7-3c-1.7,0-2.7,1.3-2.7,3c0,1.7,1,3,2.7,3C455.8,655.8,456.9,654.5,456.9,652.8z"/>
	<path d="M458.9,652.8c0-2.2,1.5-3.8,3.6-3.8c2.2,0,3.6,1.6,3.6,3.8c0,2.2-1.5,3.8-3.6,3.8C460.4,656.6,458.9,655,458.9,652.8z
		 M465.3,652.8c0-1.7-1.1-3-2.7-3c-1.7,0-2.7,1.3-2.7,3c0,1.7,1,3,2.7,3C464.2,655.8,465.3,654.5,465.3,652.8z"/>
	<path d="M467.7,656.5v-7.3h2.5c2.3,0,3.8,1.6,3.8,3.7c0,2.1-1.5,3.7-3.8,3.7H467.7z M473,652.8c0-1.6-1-2.9-2.8-2.9h-1.6v5.7h1.6
		C471.9,655.6,473,654.4,473,652.8z"/>
</g>
<g>
	<rect x="424.5" y="609" fill="none" width="49.6" height="8.4"/>
	<path d="M438.6,616.4V609h4.8v0.8h-3.9v2.4h3.8v0.8h-3.8v3.3H438.6z"/>
	<path d="M444.7,616.4V609h0.9v7.3H444.7z"/>
	<path d="M446.9,615.3l0.5-0.7c0.5,0.5,1.3,1,2.3,1c1.3,0,1.7-0.7,1.7-1.3c0-1.9-4.3-0.8-4.3-3.5c0-1.2,1.1-2,2.5-2
		c1.1,0,2,0.4,2.6,1l-0.6,0.7c-0.5-0.6-1.3-0.9-2.1-0.9c-0.9,0-1.5,0.5-1.5,1.2c0,1.7,4.3,0.7,4.3,3.4c0,1.1-0.7,2.2-2.7,2.2
		C448.4,616.5,447.5,616,446.9,615.3z"/>
	<path d="M458.9,616.4V613h-4.3v3.4h-0.9V609h0.9v3.2h4.3V609h0.9v7.3H458.9z"/>
</g>
<g>
	<rect x="642.6" y="489.6" fill="none" width="49.6" height="8"/>
	<path d="M650.9,496.9v-7.3h3.3c1.3,0,2.1,0.8,2.1,1.9c0,0.9-0.6,1.5-1.3,1.7c0.8,0.1,1.4,0.9,1.4,1.8c0,1.2-0.8,2-2.1,2H650.9z
		 M655.3,491.6c0-0.7-0.4-1.2-1.3-1.2h-2.2v2.4h2.2C654.8,492.7,655.3,492.2,655.3,491.6z M655.4,494.8c0-0.7-0.5-1.3-1.4-1.3h-2.2
		v2.5h2.2C654.9,496.1,655.4,495.6,655.4,494.8z"/>
	<path d="M662,496.9l-1.9-2.9h-1.5v2.9h-0.9v-7.3h2.9c1.3,0,2.3,0.9,2.3,2.2c0,1.3-0.9,2-1.9,2.1l2,3H662z M662.1,491.8
		c0-0.8-0.6-1.4-1.5-1.4h-1.9v2.8h1.9C661.5,493.2,662.1,492.6,662.1,491.8z"/>
	<path d="M664.5,496.9v-7.3h4.8v0.8h-3.9v2.4h3.8v0.8h-3.8v2.5h3.9v0.8H664.5z"/>
	<path d="M676,496.9l-0.6-1.6h-3.7l-0.6,1.6h-1l2.9-7.3h1.1l3,7.3H676z M673.5,490.5l-1.6,4h3.1L673.5,490.5z"/>
	<path d="M678,496.9v-7.3h2.5c2.3,0,3.8,1.6,3.8,3.7c0,2.1-1.5,3.7-3.8,3.7H678z M683.3,493.2c0-1.6-1-2.9-2.8-2.9h-1.6v5.7h1.6
		C682.3,496.1,683.3,494.8,683.3,493.2z"/>
</g>
<g>
	<rect x="642.6" y="529.8" fill="none" width="49.6" height="7.4"/>
	<path d="M648.3,537.1v-7.3h3.3c1.3,0,2.1,0.8,2.1,1.9c0,0.9-0.6,1.5-1.3,1.7c0.8,0.1,1.4,0.9,1.4,1.8c0,1.2-0.8,2-2.1,2H648.3z
		 M652.7,531.8c0-0.7-0.4-1.2-1.3-1.2h-2.2v2.4h2.2C652.3,532.9,652.7,532.4,652.7,531.8z M652.8,535c0-0.7-0.5-1.3-1.4-1.3h-2.2
		v2.5h2.2C652.3,536.3,652.8,535.8,652.8,535z"/>
	<path d="M660.5,537.1l-0.6-1.6h-3.7l-0.6,1.6h-1l2.9-7.3h1.1l3,7.3H660.5z M658,530.7l-1.6,4h3.1L658,530.7z"/>
	<path d="M661.8,533.4c0-2.3,1.7-3.8,3.8-3.8c1.3,0,2.2,0.6,2.8,1.4l-0.7,0.5c-0.5-0.6-1.2-1-2.1-1c-1.6,0-2.8,1.2-2.8,3
		c0,1.7,1.2,3,2.8,3c0.9,0,1.6-0.4,2-0.8v-1.5H665v-0.8h3.4v2.7c-0.7,0.8-1.7,1.3-2.9,1.3C663.5,537.2,661.8,535.7,661.8,533.4z"/>
	<path d="M669.9,537.1v-7.3h4.8v0.8h-3.9v2.4h3.8v0.8h-3.8v2.5h3.9v0.8H669.9z"/>
	<path d="M676.2,537.1v-7.3h0.9v6.5h3.4v0.8H676.2z"/>
	<path d="M681.3,536.1l0.5-0.7c0.5,0.5,1.3,1,2.3,1c1.3,0,1.7-0.7,1.7-1.3c0-1.9-4.3-0.8-4.3-3.5c0-1.2,1.1-2,2.5-2
		c1.1,0,2,0.4,2.6,1l-0.6,0.7c-0.5-0.6-1.3-0.9-2.1-0.9c-0.9,0-1.5,0.5-1.5,1.2c0,1.7,4.3,0.7,4.3,3.4c0,1.1-0.7,2.2-2.7,2.2
		C682.9,537.2,681.9,536.8,681.3,536.1z"/>
</g>
<g>
	<rect x="638" y="569.2" fill="none" width="58.9" height="8.8"/>
	<path d="M651,572.8c0-2.3,1.7-3.8,3.8-3.8c1.3,0,2.2,0.6,2.8,1.5l-0.8,0.4c-0.4-0.6-1.2-1.1-2-1.1c-1.6,0-2.8,1.2-2.8,3
		c0,1.7,1.2,3,2.8,3c0.8,0,1.6-0.4,2-1.1l0.8,0.4c-0.6,0.8-1.5,1.5-2.8,1.5C652.7,576.6,651,575.1,651,572.8z"/>
	<path d="M663.9,576.5l-0.6-1.6h-3.7l-0.6,1.6h-1l2.9-7.3h1.1l3,7.3H663.9z M661.5,570.1l-1.6,3.9h3.1L661.5,570.1z"/>
	<path d="M670.4,576.5l-2.8-3.3l-0.7,0.8v2.5h-0.9v-7.3h0.9v3.8l3.2-3.8h1.1l-3.1,3.5l3.3,3.9H670.4z"/>
	<path d="M672.5,576.5v-7.3h4.8v0.8h-3.9v2.4h3.8v0.8h-3.8v2.5h3.9v0.8H672.5z"/>
	<path d="M678.4,575.5l0.5-0.7c0.5,0.5,1.3,1,2.3,1c1.3,0,1.7-0.7,1.7-1.3c0-1.9-4.3-0.8-4.3-3.5c0-1.2,1.1-2,2.5-2
		c1.1,0,2,0.4,2.6,1l-0.5,0.7c-0.5-0.6-1.3-0.9-2.1-0.9c-0.9,0-1.5,0.5-1.5,1.2c0,1.7,4.3,0.7,4.3,3.4c0,1.1-0.7,2.2-2.7,2.2
		C679.9,576.6,679,576.1,678.4,575.5z"/>
</g>
<g>
	<rect x="642.6" y="609.3" fill="none" width="49.6" height="7.9"/>
	<path d="M648.5,616.6v-7.3h2.5c2.3,0,3.8,1.6,3.8,3.7c0,2.1-1.5,3.7-3.8,3.7H648.5z M653.9,613c0-1.6-1-2.9-2.8-2.9h-1.6v5.7h1.6
		C652.8,615.8,653.9,614.6,653.9,613z"/>
	<path d="M655.9,613c0-2.2,1.5-3.8,3.6-3.8c2.2,0,3.6,1.6,3.6,3.8c0,2.2-1.5,3.8-3.6,3.8C657.4,616.8,655.9,615.1,655.9,613z
		 M662.3,613c0-1.7-1.1-3-2.7-3c-1.7,0-2.7,1.3-2.7,3c0,1.7,1,3,2.7,3C661.2,616,662.3,614.7,662.3,613z"/>
	<path d="M664.6,613.8v-4.5h0.9v4.5c0,1.3,0.7,2.2,2.1,2.2c1.4,0,2.1-0.8,2.1-2.2v-4.5h0.9v4.5c0,1.8-1,3-3,3
		S664.6,615.6,664.6,613.8z"/>
	<path d="M672,613c0-2.3,1.7-3.8,3.8-3.8c1.3,0,2.2,0.6,2.8,1.4l-0.7,0.5c-0.5-0.6-1.2-1-2.1-1c-1.6,0-2.8,1.2-2.8,3
		c0,1.7,1.2,3,2.8,3c0.9,0,1.6-0.4,2-0.8v-1.5h-2.5v-0.8h3.4v2.7c-0.7,0.8-1.7,1.3-2.9,1.3C673.7,616.8,672,615.3,672,613z"/>
	<path d="M685.4,616.6v-3.4h-4.3v3.4h-0.9v-7.3h0.9v3.2h4.3v-3.2h0.9v7.3H685.4z"/>
</g>
<g>
	<rect x="751.7" y="489.6" fill="none" width="49.6" height="8"/>
	<path d="M755,493.2c0-2.3,1.7-3.8,3.8-3.8c1.3,0,2.2,0.6,2.8,1.5l-0.8,0.4c-0.4-0.6-1.2-1.1-2-1.1c-1.6,0-2.8,1.2-2.8,3
		c0,1.7,1.2,3,2.8,3c0.8,0,1.6-0.4,2-1.1l0.8,0.4c-0.6,0.8-1.5,1.5-2.8,1.5C756.6,497,755,495.5,755,493.2z"/>
	<path d="M767.9,496.9l-0.6-1.6h-3.7l-0.6,1.6h-1l2.9-7.3h1.1l3,7.3H767.9z M765.4,490.5l-1.6,4h3.1L765.4,490.5z"/>
	<path d="M775.1,496.9l-4.3-5.9v5.9h-0.9v-7.3h0.9l4.2,5.7v-5.7h0.9v7.3H775.1z"/>
	<path d="M782.9,496.9l-4.3-5.9v5.9h-0.9v-7.3h0.9l4.2,5.7v-5.7h0.9v7.3H782.9z"/>
	<path d="M785.5,496.9v-7.3h4.8v0.8h-3.9v2.4h3.8v0.8h-3.8v2.5h3.9v0.8H785.5z"/>
	<path d="M791.8,496.9v-7.3h2.5c2.3,0,3.8,1.6,3.8,3.7c0,2.1-1.5,3.7-3.8,3.7H791.8z M797.1,493.2c0-1.6-1-2.9-2.8-2.9h-1.6v5.7h1.6
		C796,496.1,797.1,494.8,797.1,493.2z"/>
</g>
<g>
	<rect x="751.7" y="529.8" fill="none" width="49.6" height="7.4"/>
	<path d="M765.5,533.4c0-2.2,1.5-3.8,3.6-3.8c2.2,0,3.6,1.6,3.6,3.8c0,2.2-1.5,3.8-3.6,3.8C767,537.2,765.5,535.6,765.5,533.4z
		 M771.9,533.4c0-1.7-1.1-3-2.7-3c-1.7,0-2.7,1.3-2.7,3c0,1.7,1,3,2.7,3C770.8,536.4,771.9,535.1,771.9,533.4z"/>
	<path d="M774.2,537.1v-7.3h0.9v7.3H774.2z"/>
	<path d="M776.9,537.1v-7.3h0.9v6.5h3.4v0.8H776.9z"/>
	<path d="M782,536.1l0.5-0.7c0.5,0.5,1.3,1,2.3,1c1.3,0,1.7-0.7,1.7-1.3c0-1.9-4.3-0.8-4.3-3.5c0-1.2,1.1-2,2.5-2c1.1,0,2,0.4,2.6,1
		l-0.6,0.7c-0.5-0.6-1.3-0.9-2.1-0.9c-0.9,0-1.5,0.5-1.5,1.2c0,1.7,4.3,0.7,4.3,3.4c0,1.1-0.7,2.2-2.7,2.2
		C783.6,537.2,782.6,536.7,782,536.1z"/>
</g>
<g>
	<rect x="747.1" y="569.4" fill="none" width="58.9" height="8.3"/>
	<path d="M757.3,573.1c0-2.3,1.7-3.8,3.8-3.8c1.3,0,2.2,0.6,2.8,1.5l-0.8,0.4c-0.4-0.6-1.2-1.1-2-1.1c-1.6,0-2.8,1.2-2.8,3
		c0,1.7,1.2,3,2.8,3c0.8,0,1.6-0.4,2-1.1l0.8,0.4c-0.6,0.8-1.5,1.5-2.8,1.5C759,576.9,757.3,575.3,757.3,573.1z"/>
	<path d="M765.1,576.7v-7.3h4.8v0.8H766v2.4h3.8v0.8H766v2.5h3.9v0.8H765.1z"/>
	<path d="M775.6,576.7l-1.9-2.9h-1.5v2.9h-0.9v-7.3h2.9c1.3,0,2.3,0.9,2.3,2.2c0,1.3-0.9,2-1.9,2.1l2,3H775.6z M775.6,571.6
		c0-0.8-0.6-1.4-1.5-1.4h-1.9v2.8h1.9C775,573,775.6,572.4,775.6,571.6z"/>
	<path d="M778,576.7v-7.3h4.8v0.8h-3.9v2.4h3.8v0.8h-3.8v2.5h3.9v0.8H778z"/>
	<path d="M789.5,576.7l-0.6-1.6h-3.7l-0.6,1.6h-1l2.9-7.3h1.1l3,7.3H789.5z M787,570.4l-1.6,3.9h3.1L787,570.4z"/>
	<path d="M791.5,576.7v-7.3h0.9v6.5h3.4v0.8H791.5z"/>
</g>
<g>
	<rect x="751.7" y="609.2" fill="none" width="49.6" height="8.1"/>
	<path d="M761.4,616.5v-7.3h2.9c1.5,0,2.3,1,2.3,2.2c0,1.2-0.8,2.2-2.3,2.2h-2v2.9H761.4z M765.7,611.4c0-0.8-0.6-1.4-1.5-1.4h-1.9
		v2.8h1.9C765.1,612.8,765.7,612.2,765.7,611.4z"/>
	<path d="M772.3,616.5l-0.6-1.6H768l-0.6,1.6h-1l2.9-7.3h1.1l3,7.3H772.3z M769.8,610.1l-1.6,3.9h3.1L769.8,610.1z"/>
	<path d="M773.7,615.5l0.5-0.7c0.5,0.5,1.3,1,2.3,1c1.3,0,1.7-0.7,1.7-1.3c0-1.9-4.3-0.8-4.3-3.5c0-1.2,1.1-2,2.5-2
		c1.1,0,2,0.4,2.6,1l-0.5,0.7c-0.6-0.6-1.3-0.9-2.1-0.9c-0.9,0-1.5,0.5-1.5,1.2c0,1.7,4.3,0.7,4.3,3.4c0,1.1-0.7,2.2-2.7,2.2
		C775.2,616.7,774.3,616.2,773.7,615.5z"/>
	<path d="M782.3,616.5V610H780v-0.8h5.6v0.8h-2.3v6.5H782.3z"/>
	<path d="M791.3,616.5l-0.6-1.6H787l-0.6,1.6h-1l2.9-7.3h1.1l3,7.3H791.3z M788.8,610.1l-1.6,3.9h3.1L788.8,610.1z"/>
</g>
<g>
	<rect x="742" y="649.2" fill="none" width="69" height="7.8"/>
	<path d="M757.7,652.9c0-2.3,1.7-3.8,3.8-3.8c1.3,0,2.2,0.6,2.8,1.4l-0.7,0.5c-0.5-0.6-1.2-1-2.1-1c-1.6,0-2.8,1.2-2.8,3
		c0,1.7,1.2,3,2.8,3c0.9,0,1.6-0.4,2-0.8v-1.5H761v-0.8h3.4v2.7c-0.7,0.8-1.7,1.3-2.9,1.3C759.4,656.7,757.7,655.2,757.7,652.9z"/>
	<path d="M770.1,656.6l-1.9-2.9h-1.5v2.9h-0.9v-7.3h2.9c1.3,0,2.3,0.9,2.3,2.2c0,1.3-0.9,2-1.9,2.1l2,3H770.1z M770.2,651.4
		c0-0.8-0.6-1.4-1.5-1.4h-1.9v2.8h1.9C769.6,652.8,770.2,652.3,770.2,651.4z"/>
	<path d="M777.8,656.6l-0.6-1.6h-3.7l-0.6,1.6h-1l2.9-7.3h1.1l3,7.3H777.8z M775.3,650.2l-1.6,3.9h3.1L775.3,650.2z"/>
	<path d="M779.8,656.6v-7.3h0.9v7.3H779.8z"/>
	<path d="M787.6,656.6l-4.3-5.9v5.9h-0.9v-7.3h0.9l4.2,5.7v-5.7h0.9v7.3H787.6z"/>
	<path d="M789.8,655.5l0.5-0.7c0.5,0.5,1.3,1,2.3,1c1.3,0,1.7-0.7,1.7-1.3c0-1.9-4.3-0.8-4.3-3.5c0-1.2,1.1-2,2.5-2
		c1.1,0,2,0.4,2.6,1l-0.5,0.7c-0.5-0.6-1.3-0.9-2.1-0.9c-0.9,0-1.5,0.5-1.5,1.2c0,1.7,4.3,0.7,4.3,3.4c0,1.1-0.7,2.2-2.7,2.2
		C791.3,656.7,790.4,656.2,789.8,655.5z"/>
</g>
<g>
	<rect x="754" y="728.1" fill="none" width="45.1" height="7.8"/>
	<path d="M757.8,734.4l0.5-0.7c0.5,0.5,1.3,1,2.3,1c1.3,0,1.7-0.7,1.7-1.3c0-1.9-4.3-0.8-4.3-3.5c0-1.2,1.1-2,2.5-2
		c1.1,0,2,0.4,2.6,1l-0.5,0.7c-0.5-0.6-1.3-0.9-2.1-0.9c-0.9,0-1.5,0.5-1.5,1.2c0,1.7,4.3,0.7,4.3,3.4c0,1.1-0.7,2.2-2.7,2.2
		C759.3,735.5,758.4,735,757.8,734.4z"/>
	<path d="M764.7,735.4v-7.3h2.9c1.5,0,2.3,1,2.3,2.2c0,1.2-0.8,2.2-2.3,2.2h-2v2.9H764.7z M769,730.3c0-0.8-0.6-1.4-1.5-1.4h-1.9
		v2.8h1.9C768.4,731.7,769,731.1,769,730.3z"/>
	<path d="M771.1,735.4v-7.3h0.9v7.3H771.1z"/>
	<path d="M773.4,731.7c0-2.3,1.7-3.8,3.8-3.8c1.3,0,2.2,0.6,2.8,1.5l-0.8,0.4c-0.4-0.6-1.2-1.1-2-1.1c-1.6,0-2.8,1.2-2.8,3
		c0,1.7,1.2,3,2.8,3c0.8,0,1.6-0.4,2-1.1l0.8,0.4c-0.6,0.8-1.5,1.5-2.8,1.5C775.1,735.5,773.4,734,773.4,731.7z"/>
	<path d="M781.2,735.4v-7.3h0.9v7.3H781.2z"/>
	<path d="M783.8,735.4v-7.3h4.8v0.8h-3.9v2.4h3.8v0.8h-3.8v2.5h3.9v0.8H783.8z"/>
	<path d="M789.6,734.4l0.5-0.7c0.5,0.5,1.3,1,2.3,1c1.3,0,1.7-0.7,1.7-1.3c0-1.9-4.3-0.8-4.3-3.5c0-1.2,1.1-2,2.5-2
		c1.1,0,2,0.4,2.6,1l-0.5,0.7c-0.5-0.6-1.3-0.9-2.1-0.9c-0.9,0-1.5,0.5-1.5,1.2c0,1.7,4.3,0.7,4.3,3.4c0,1.1-0.7,2.2-2.7,2.2
		C791.2,735.5,790.2,735,789.6,734.4z"/>
</g>
<g>
	<rect x="754" y="688.2" fill="none" width="45.1" height="7.8"/>
	<path d="M756.4,694.5l0.5-0.7c0.5,0.5,1.3,1,2.3,1c1.3,0,1.7-0.7,1.7-1.3c0-1.9-4.3-0.8-4.3-3.5c0-1.2,1.1-2,2.5-2
		c1.1,0,2,0.4,2.6,1l-0.6,0.7c-0.5-0.6-1.3-0.9-2.1-0.9c-0.9,0-1.5,0.5-1.5,1.2c0,1.7,4.3,0.7,4.3,3.4c0,1.1-0.7,2.2-2.7,2.2
		C757.9,695.6,757,695.1,756.4,694.5z"/>
	<path d="M768.4,695.5l-0.6-1.6h-3.7l-0.6,1.6h-1l2.9-7.3h1.1l3,7.3H768.4z M765.9,689.1l-1.6,3.9h3.1L765.9,689.1z"/>
	<path d="M770.1,692.6v-4.5h0.9v4.5c0,1.3,0.7,2.2,2.1,2.2c1.4,0,2.1-0.8,2.1-2.2v-4.5h0.9v4.5c0,1.8-1,3-3,3
		S770.1,694.4,770.1,692.6z"/>
	<path d="M777.5,691.8c0-2.3,1.7-3.8,3.8-3.8c1.3,0,2.2,0.6,2.8,1.5l-0.8,0.4c-0.4-0.6-1.2-1.1-2-1.1c-1.6,0-2.8,1.2-2.8,3
		c0,1.7,1.2,3,2.8,3c0.8,0,1.6-0.4,2-1.1l0.8,0.4c-0.6,0.8-1.5,1.5-2.8,1.5C779.1,695.6,777.5,694.1,777.5,691.8z"/>
	<path d="M785.2,695.5v-7.3h4.8v0.8h-3.9v2.4h3.8v0.8h-3.8v2.5h3.9v0.8H785.2z"/>
	<path d="M791,694.5l0.5-0.7c0.5,0.5,1.3,1,2.3,1c1.3,0,1.7-0.7,1.7-1.3c0-1.9-4.3-0.8-4.3-3.5c0-1.2,1.1-2,2.5-2c1.1,0,2,0.4,2.6,1
		l-0.6,0.7c-0.5-0.6-1.3-0.9-2.1-0.9c-0.9,0-1.5,0.5-1.5,1.2c0,1.7,4.3,0.7,4.3,3.4c0,1.1-0.7,2.2-2.7,2.2
		C792.6,695.6,791.6,695.1,791,694.5z"/>
</g>
<g>
	<rect x="849.5" y="488.6" fill="none" width="72.3" height="10"/>
	<path d="M854.1,492.2c0-2.3,1.7-3.8,3.8-3.8c1.3,0,2.2,0.6,2.8,1.5l-0.8,0.4c-0.4-0.6-1.2-1.1-2-1.1c-1.6,0-2.8,1.2-2.8,3
		c0,1.7,1.2,3,2.8,3c0.8,0,1.6-0.4,2-1.1l0.8,0.4c-0.6,0.8-1.5,1.5-2.8,1.5C855.7,496,854.1,494.5,854.1,492.2z"/>
	<path d="M867,495.9v-3.4h-4.3v3.4h-0.9v-7.3h0.9v3.2h4.3v-3.2h0.9v7.3H867z"/>
	<path d="M869.3,492.2c0-2.2,1.5-3.8,3.6-3.8c2.2,0,3.6,1.6,3.6,3.8c0,2.2-1.5,3.8-3.6,3.8C870.8,496,869.3,494.4,869.3,492.2z
		 M875.7,492.2c0-1.7-1.1-3-2.7-3c-1.7,0-2.7,1.3-2.7,3c0,1.7,1,3,2.7,3C874.6,495.2,875.7,493.9,875.7,492.2z"/>
	<path d="M877.8,492.2c0-2.3,1.7-3.8,3.8-3.8c1.3,0,2.2,0.6,2.8,1.5l-0.8,0.4c-0.4-0.6-1.2-1.1-2-1.1c-1.6,0-2.8,1.2-2.8,3
		c0,1.7,1.2,3,2.8,3c0.8,0,1.6-0.4,2-1.1l0.8,0.4c-0.6,0.8-1.5,1.5-2.8,1.5C879.4,496,877.8,494.5,877.8,492.2z"/>
	<path d="M885.2,492.2c0-2.2,1.5-3.8,3.6-3.8c2.2,0,3.6,1.6,3.6,3.8c0,2.2-1.5,3.8-3.6,3.8C886.6,496,885.2,494.4,885.2,492.2z
		 M891.5,492.2c0-1.7-1.1-3-2.7-3c-1.7,0-2.7,1.3-2.7,3c0,1.7,1,3,2.7,3C890.5,495.2,891.5,493.9,891.5,492.2z"/>
	<path d="M893.9,495.9v-7.3h0.9v6.5h3.4v0.8H893.9z"/>
	<path d="M904.7,495.9l-0.6-1.6h-3.7l-0.6,1.6h-1l2.9-7.3h1.1l3,7.3H904.7z M902.3,489.5l-1.6,3.9h3.1L902.3,489.5z"/>
	<path d="M907.8,495.9v-6.5h-2.3v-0.8h5.6v0.8h-2.3v6.5H907.8z"/>
	<path d="M912.3,495.9v-7.3h4.8v0.8h-3.9v2.4h3.8v0.8h-3.8v2.5h3.9v0.8H912.3z"/>
</g>
<g>
	<rect x="860.8" y="529.8" fill="none" width="49.6" height="7.4"/>
	<path d="M870.8,533.4c0-2.3,1.7-3.8,3.8-3.8c1.3,0,2.2,0.6,2.8,1.5l-0.8,0.4c-0.4-0.6-1.2-1.1-2-1.1c-1.6,0-2.8,1.2-2.8,3
		c0,1.7,1.2,3,2.8,3c0.8,0,1.6-0.4,2-1.1l0.8,0.4c-0.6,0.8-1.5,1.5-2.8,1.5C872.4,537.2,870.8,535.7,870.8,533.4z"/>
	<path d="M883.7,537.1v-3.4h-4.3v3.4h-0.9v-7.3h0.9v3.2h4.3v-3.2h0.9v7.3H883.7z"/>
	<path d="M886.3,537.1v-7.3h0.9v7.3H886.3z"/>
	<path d="M888.9,537.1v-7.3h2.9c1.5,0,2.3,1,2.3,2.2c0,1.2-0.8,2.2-2.3,2.2h-2v2.9H888.9z M893.2,532c0-0.8-0.6-1.4-1.5-1.4h-1.9
		v2.8h1.9C892.7,533.4,893.2,532.8,893.2,532z"/>
	<path d="M895,536.1l0.5-0.7c0.5,0.5,1.3,1,2.3,1c1.3,0,1.7-0.7,1.7-1.3c0-1.9-4.3-0.8-4.3-3.5c0-1.2,1.1-2,2.5-2c1.1,0,2,0.4,2.6,1
		l-0.6,0.7c-0.5-0.6-1.3-0.9-2.1-0.9c-0.9,0-1.5,0.5-1.5,1.2c0,1.7,4.3,0.7,4.3,3.4c0,1.1-0.7,2.2-2.7,2.2
		C896.5,537.2,895.6,536.7,895,536.1z"/>
</g>
<g>
	<rect x="856.1" y="569.4" fill="none" width="58.9" height="8.3"/>
	<path d="M863,573.1c0-2.3,1.7-3.8,3.8-3.8c1.3,0,2.2,0.6,2.8,1.5l-0.8,0.4c-0.4-0.6-1.2-1.1-2-1.1c-1.6,0-2.8,1.2-2.8,3
		c0,1.7,1.2,3,2.8,3c0.8,0,1.6-0.4,2-1.1l0.8,0.4c-0.6,0.8-1.5,1.5-2.8,1.5C864.7,576.9,863,575.3,863,573.1z"/>
	<path d="M870.5,573.1c0-2.2,1.5-3.8,3.6-3.8c2.2,0,3.6,1.6,3.6,3.8c0,2.2-1.5,3.8-3.6,3.8C871.9,576.9,870.5,575.3,870.5,573.1z
		 M876.8,573.1c0-1.7-1.1-3-2.7-3c-1.7,0-2.7,1.3-2.7,3c0,1.7,1,3,2.7,3C875.8,576.1,876.8,574.8,876.8,573.1z"/>
	<path d="M878.9,573.1c0-2.2,1.5-3.8,3.6-3.8c2.2,0,3.6,1.6,3.6,3.8c0,2.2-1.5,3.8-3.6,3.8C880.4,576.9,878.9,575.3,878.9,573.1z
		 M885.2,573.1c0-1.7-1.1-3-2.7-3c-1.7,0-2.7,1.3-2.7,3c0,1.7,1,3,2.7,3C884.2,576.1,885.2,574.8,885.2,573.1z"/>
	<path d="M892,576.7l-2.8-3.3l-0.7,0.8v2.5h-0.9v-7.3h0.9v3.8l3.2-3.8h1.1l-3.1,3.5l3.3,3.9H892z"/>
	<path d="M894.2,576.7v-7.3h0.9v7.3H894.2z"/>
	<path d="M896.9,576.7v-7.3h4.8v0.8h-3.9v2.4h3.8v0.8h-3.8v2.5h3.9v0.8H896.9z"/>
	<path d="M902.7,575.7l0.5-0.7c0.5,0.5,1.3,1,2.3,1c1.3,0,1.7-0.7,1.7-1.3c0-1.9-4.3-0.8-4.3-3.5c0-1.2,1.1-2,2.5-2
		c1.1,0,2,0.4,2.6,1l-0.5,0.7c-0.5-0.6-1.3-0.9-2.1-0.9c-0.9,0-1.5,0.5-1.5,1.2c0,1.7,4.3,0.7,4.3,3.4c0,1.1-0.7,2.2-2.7,2.2
		C904.2,576.9,903.3,576.4,902.7,575.7z"/>
</g>
<g>
	<rect x="860.8" y="609.3" fill="none" width="49.6" height="7.9"/>
	<path d="M877.6,616.6l-4.3-5.9v5.9h-0.9v-7.3h0.9l4.2,5.7v-5.7h0.9v7.3H877.6z"/>
	<path d="M880.2,613.8v-4.5h0.9v4.5c0,1.3,0.7,2.2,2.1,2.2c1.4,0,2.1-0.8,2.1-2.2v-4.5h0.9v4.5c0,1.8-1,3-3,3
		S880.2,615.6,880.2,613.8z"/>
	<path d="M889.7,616.6v-6.5h-2.3v-0.8h5.6v0.8h-2.3v6.5H889.7z"/>
	<path d="M893.7,615.6l0.5-0.7c0.5,0.5,1.3,1,2.3,1c1.3,0,1.7-0.7,1.7-1.3c0-1.9-4.3-0.8-4.3-3.5c0-1.2,1.1-2,2.5-2
		c1.1,0,2,0.4,2.6,1l-0.5,0.7c-0.5-0.6-1.3-0.9-2.1-0.9c-0.9,0-1.5,0.5-1.5,1.2c0,1.7,4.3,0.7,4.3,3.4c0,1.1-0.7,2.2-2.7,2.2
		C895.2,616.8,894.3,616.3,893.7,615.6z"/>
</g>
<g>
	<rect x="860.8" y="643.2" fill="none" width="49.6" height="19.9"/>
	<path d="M871,650.5v-7.3h2.5c2.3,0,3.8,1.6,3.8,3.7c0,2.1-1.5,3.7-3.8,3.7H871z M876.3,646.8c0-1.6-1-2.9-2.8-2.9h-1.6v5.7h1.6
		C875.3,649.7,876.3,648.4,876.3,646.8z"/>
	<path d="M882.9,650.5l-1.9-2.9h-1.5v2.9h-0.9v-7.3h2.9c1.3,0,2.3,0.9,2.3,2.2c0,1.3-0.9,2-1.9,2.1l2,3H882.9z M883,645.4
		c0-0.8-0.6-1.4-1.5-1.4h-1.9v2.8h1.9C882.4,646.8,883,646.2,883,645.4z"/>
	<path d="M885.4,650.5v-7.3h0.9v7.3H885.4z"/>
	<path d="M888,650.5v-7.3h4.8v0.8h-3.9v2.4h3.8v0.8h-3.8v2.5h3.9v0.8H888z"/>
	<path d="M894.2,650.5v-7.3h2.5c2.3,0,3.8,1.6,3.8,3.7c0,2.1-1.5,3.7-3.8,3.7H894.2z M899.6,646.8c0-1.6-1-2.9-2.8-2.9h-1.6v5.7h1.6
		C898.5,649.7,899.6,648.4,899.6,646.8z"/>
	<path d="M871.8,661.5v-7.3h4.8v0.8h-3.9v2.4h3.8v0.8h-3.8v3.3H871.8z"/>
	<path d="M882.1,661.5l-1.9-2.9h-1.5v2.9h-0.9v-7.3h2.9c1.3,0,2.3,0.9,2.3,2.2c0,1.3-0.9,2-1.9,2.1l2,3H882.1z M882.1,656.4
		c0-0.8-0.6-1.4-1.5-1.4h-1.9v2.8h1.9C881.5,657.8,882.1,657.2,882.1,656.4z"/>
	<path d="M884.5,658.7v-4.5h0.9v4.5c0,1.3,0.7,2.2,2.1,2.2c1.4,0,2.1-0.8,2.1-2.2v-4.5h0.9v4.5c0,1.8-1,3-3,3
		S884.5,660.5,884.5,658.7z"/>
	<path d="M892.2,661.5v-7.3h0.9v7.3H892.2z"/>
	<path d="M896.7,661.5V655h-2.3v-0.8h5.6v0.8h-2.3v6.5H896.7z"/>
</g>
<g>
	<rect x="191.3" y="431.8" fill="none" width="49.6" height="23.4"/>
	<path d="M194.6,435.8c0-2.5,1.8-4.1,4.1-4.1c1.4,0,2.4,0.7,3,1.6l-0.8,0.5c-0.5-0.7-1.3-1.2-2.2-1.2c-1.8,0-3.1,1.3-3.1,3.3
		c0,1.9,1.3,3.2,3.1,3.2c0.9,0,1.7-0.5,2.2-1.2l0.9,0.5c-0.7,0.9-1.6,1.6-3,1.6C196.4,440,194.6,438.3,194.6,435.8z"/>
	<path d="M202.7,435.8c0-2.4,1.6-4.1,4-4.1c2.4,0,4,1.8,4,4.1c0,2.4-1.6,4.1-4,4.1C204.3,440,202.7,438.2,202.7,435.8z M209.6,435.8
		c0-1.9-1.2-3.3-2.9-3.3c-1.8,0-2.9,1.4-2.9,3.3c0,1.9,1.1,3.2,2.9,3.2C208.5,439.1,209.6,437.7,209.6,435.8z"/>
	<path d="M212.2,439.8v-8h5.2v0.9h-4.2v2.6h4.2v0.9h-4.2v3.6H212.2z"/>
	<path d="M218.8,439.8v-8h5.2v0.9h-4.2v2.6h4.2v0.9h-4.2v3.6H218.8z"/>
	<path d="M225.4,439.8v-8h5.2v0.9h-4.2v2.6h4.2v0.9h-4.2v2.8h4.2v0.9H225.4z"/>
	<path d="M232.2,439.8v-8h5.2v0.9h-4.2v2.6h4.2v0.9h-4.2v2.8h4.2v0.9H232.2z"/>
	<path d="M208.2,454.2v-7.1h-2.5v-0.9h6.1v0.9h-2.5v7.1H208.2z"/>
	<path d="M213.1,454.2v-8h5.2v0.9h-4.2v2.6h4.2v0.9h-4.2v2.8h4.2v0.9H213.1z"/>
	<path d="M225.6,454.2l-0.7-1.8h-4l-0.7,1.8h-1.1l3.2-8h1.2l3.2,8H225.6z M222.9,447.3l-1.7,4.3h3.4L222.9,447.3z"/>
</g>
<g>
	<rect x="206.3" y="489.4" fill="none" width="49.6" height="8.3"/>
	<path d="M211.4,493.1c0-2.3,1.7-3.8,3.8-3.8c1.3,0,2.2,0.6,2.8,1.5l-0.8,0.4c-0.4-0.6-1.2-1.1-2-1.1c-1.6,0-2.8,1.2-2.8,3
		c0,1.7,1.2,3,2.8,3c0.8,0,1.6-0.4,2-1.1l0.8,0.4c-0.6,0.8-1.5,1.5-2.8,1.5C213,496.9,211.4,495.3,211.4,493.1z"/>
	<path d="M218.8,493.1c0-2.2,1.5-3.8,3.6-3.8c2.2,0,3.6,1.6,3.6,3.8s-1.5,3.8-3.6,3.8C220.3,496.9,218.8,495.2,218.8,493.1z
		 M225.2,493.1c0-1.7-1.1-3-2.7-3c-1.7,0-2.7,1.3-2.7,3c0,1.7,1,3,2.7,3C224.1,496,225.2,494.8,225.2,493.1z"/>
	<path d="M227.5,496.7v-7.3h4.8v0.8h-3.9v2.4h3.8v0.8h-3.8v3.3H227.5z"/>
	<path d="M233.6,496.7v-7.3h4.8v0.8h-3.9v2.4h3.8v0.8h-3.8v3.3H233.6z"/>
	<path d="M239.6,496.7v-7.3h4.8v0.8h-3.9v2.4h3.8v0.8h-3.8v2.5h3.9v0.8H239.6z"/>
	<path d="M245.9,496.7v-7.3h4.8v0.8h-3.9v2.4h3.8v0.8h-3.8v2.5h3.9v0.8H245.9z"/>
</g>
<g>
	<rect x="206.3" y="531.1" fill="none" width="49.6" height="8.9"/>
	<path d="M223.9,538.4v-6.5h-2.3v-0.8h5.6v0.8h-2.3v6.5H223.9z"/>
	<path d="M228.3,538.4v-7.3h4.8v0.8h-3.9v2.4h3.8v0.8h-3.8v2.5h3.9v0.8H228.3z"/>
	<path d="M239.8,538.4l-0.6-1.6h-3.7l-0.6,1.6h-1l2.9-7.3h1.1l3,7.3H239.8z M237.3,532l-1.6,4h3.1L237.3,532z"/>
</g>
<g>
	<rect x="67.5" y="438.7" fill="none" width="79" height="9.6"/>
	<path d="M74.8,446.7v-8h3.6c1.4,0,2.2,0.8,2.2,2c0,1-0.7,1.7-1.4,1.8c0.9,0.1,1.6,1,1.6,2c0,1.3-0.9,2.2-2.3,2.2H74.8z M79.6,440.9
		c0-0.7-0.5-1.3-1.4-1.3h-2.4v2.6h2.4C79.1,442.2,79.6,441.6,79.6,440.9z M79.7,444.4c0-0.7-0.5-1.4-1.5-1.4h-2.4v2.8h2.4
		C79.2,445.8,79.7,445.3,79.7,444.4z"/>
	<path d="M82.3,446.7v-8h5.2v0.9h-4.2v2.6h4.2v0.9h-4.2v2.8h4.2v0.9H82.3z"/>
	<path d="M91.5,446.7l-3.2-8h1.1l2.7,6.9l2.7-6.9H96l-3.2,8H91.5z"/>
	<path d="M97,446.7v-8h5.2v0.9H98v2.6h4.2v0.9H98v2.8h4.2v0.9H97z"/>
	<path d="M108.5,446.7l-2-3.2h-1.6v3.2h-1v-8h3.2c1.5,0,2.5,0.9,2.5,2.4c0,1.4-1,2.2-2.1,2.3l2.2,3.3H108.5z M108.6,441.1
		c0-0.9-0.6-1.5-1.6-1.5h-2.1v3.1h2.1C107.9,442.7,108.6,442,108.6,441.1z"/>
	<path d="M116.9,446.7l-0.7-1.8h-4l-0.7,1.8h-1.1l3.2-8h1.2l3.2,8H116.9z M114.2,439.7l-1.7,4.3h3.4L114.2,439.7z"/>
	<path d="M118.3,442.7c0-2.5,1.8-4.1,4.1-4.1c1.4,0,2.4,0.6,3.1,1.5l-0.8,0.5c-0.5-0.6-1.4-1.1-2.3-1.1c-1.8,0-3.1,1.3-3.1,3.3
		c0,1.9,1.3,3.3,3.1,3.3c1,0,1.8-0.5,2.1-0.9v-1.6h-2.7v-0.9h3.7v2.9c-0.7,0.8-1.8,1.4-3.1,1.4C120.1,446.9,118.3,445.2,118.3,442.7
		z"/>
	<path d="M127.2,446.7v-8h5.2v0.9h-4.2v2.6h4.2v0.9h-4.2v2.8h4.2v0.9H127.2z"/>
	<path d="M133.5,445.6l0.6-0.8c0.5,0.6,1.4,1.1,2.5,1.1c1.4,0,1.9-0.8,1.9-1.4c0-2.1-4.7-0.9-4.7-3.8c0-1.3,1.2-2.2,2.7-2.2
		c1.2,0,2.2,0.4,2.8,1.1l-0.6,0.7c-0.6-0.7-1.4-1-2.3-1c-1,0-1.6,0.5-1.6,1.3c0,1.8,4.7,0.8,4.7,3.8c0,1.2-0.8,2.4-3,2.4
		C135.2,446.8,134.2,446.3,133.5,445.6z"/>
</g>
<g>
	<rect x="88.5" y="489.7" fill="none" width="66.9" height="7.7"/>
	<path d="M107.5,496.3l0.5-0.7c0.3,0.4,0.7,0.7,1.4,0.7c0.9,0,1.5-0.6,1.5-1.5v-5.1h0.9v5.1c0,1.6-1,2.3-2.3,2.3
		C108.6,497.2,108,496.9,107.5,496.3z"/>
	<path d="M113.4,494.2v-4.5h0.9v4.5c0,1.3,0.7,2.2,2.1,2.2s2.1-0.8,2.1-2.2v-4.5h0.9v4.5c0,1.8-1,3-3,3S113.4,496,113.4,494.2z"/>
	<path d="M121.1,497.1v-7.3h0.9v7.3H121.1z"/>
	<path d="M123.5,493.4c0-2.3,1.7-3.8,3.8-3.8c1.3,0,2.2,0.6,2.8,1.5l-0.8,0.4c-0.4-0.6-1.2-1.1-2-1.1c-1.6,0-2.8,1.2-2.8,3
		c0,1.7,1.2,3,2.8,3c0.8,0,1.6-0.4,2-1.1l0.8,0.4c-0.6,0.8-1.5,1.5-2.8,1.5C125.1,497.2,123.5,495.6,123.5,493.4z"/>
	<path d="M131.2,497.1v-7.3h4.8v0.8h-3.9v2.4h3.8v0.8h-3.8v2.5h3.9v0.8H131.2z"/>
</g>
<g>
	<rect x="88.5" y="529.7" fill="none" width="66.9" height="7.5"/>
	<path d="M111,537l-1.6-5.9l-1.6,5.9h-1l-2.1-7.3h1l1.6,6.1l1.7-6.1h0.8l1.7,6.1l1.6-6.1h1L112,537H111z"/>
	<path d="M119.8,537l-0.6-1.6h-3.7l-0.6,1.6h-1l2.9-7.3h1.1l3,7.3H119.8z M117.3,530.6l-1.6,4h3.1L117.3,530.6z"/>
	<path d="M122.9,537v-6.5h-2.3v-0.8h5.6v0.8h-2.3v6.5H122.9z"/>
	<path d="M127.3,537v-7.3h4.8v0.8h-3.9v2.4h3.8v0.8h-3.8v2.5h3.9v0.8H127.3z"/>
	<path d="M137.8,537l-1.9-2.9h-1.5v2.9h-0.9v-7.3h2.9c1.3,0,2.3,0.9,2.3,2.2c0,1.3-0.9,2-1.9,2.1l2,3H137.8z M137.9,531.9
		c0-0.8-0.6-1.4-1.5-1.4h-1.9v2.8h1.9C137.3,533.3,137.9,532.7,137.9,531.9z"/>
</g>
<g>
	<rect x="88.5" y="568.1" fill="none" width="66.9" height="10.5"/>
	<path d="M107.7,574.4l0.5-0.7c0.5,0.5,1.3,1,2.3,1c1.3,0,1.7-0.7,1.7-1.3c0-1.9-4.3-0.8-4.3-3.5c0-1.2,1.1-2,2.5-2
		c1.1,0,2,0.4,2.6,1l-0.6,0.7c-0.5-0.6-1.3-0.9-2.1-0.9c-0.9,0-1.5,0.5-1.5,1.2c0,1.7,4.3,0.7,4.3,3.4c0,1.1-0.7,2.2-2.7,2.2
		C109.2,575.6,108.3,575.1,107.7,574.4z"/>
	<path d="M114.3,571.8c0-2.2,1.5-3.8,3.6-3.8c2.2,0,3.6,1.6,3.6,3.8c0,2.2-1.5,3.8-3.6,3.8C115.7,575.6,114.3,574,114.3,571.8z
		 M120.6,571.8c0-1.7-1.1-3-2.7-3c-1.7,0-2.7,1.3-2.7,3c0,1.7,1,3,2.7,3C119.6,574.8,120.6,573.5,120.6,571.8z"/>
	<path d="M123,575.5v-7.3h2.5c2.3,0,3.8,1.6,3.8,3.7c0,2.1-1.5,3.7-3.8,3.7H123z M128.3,571.8c0-1.6-1-2.9-2.8-2.9h-1.6v5.7h1.6
		C127.3,574.6,128.3,573.4,128.3,571.8z"/>
	<path d="M135.5,575.5l-0.6-1.6h-3.7l-0.6,1.6h-1l2.9-7.3h1.1l3,7.3H135.5z M133.1,569.1l-1.6,3.9h3.1L133.1,569.1z"/>
</g>
<g>
	<rect x="322.6" y="-35.1" fill="none" width="317.9" height="19.6"/>
	<path d="M335.2-26.4c0-5.4,4-9,8.9-9c3.1,0,5.2,1.4,6.7,3.2l-1.7,1.1c-1.1-1.4-2.9-2.4-5-2.4c-3.8,0-6.7,2.9-6.7,7
		c0,4.1,2.9,7.1,6.7,7.1c2.1,0,3.8-1,4.7-1.9v-3.5h-6v-1.9h8.1v6.3c-1.6,1.8-4,3-6.8,3C339.2-17.4,335.2-21,335.2-26.4z"/>
	<path d="M353.7-24.1c0-3.6,2.4-6.6,6.2-6.6c3.8,0,6.2,2.9,6.2,6.6c0,3.6-2.4,6.6-6.2,6.6C356.1-17.5,353.7-20.4,353.7-24.1z
		 M364-24.1c0-2.5-1.5-4.8-4.2-4.8c-2.7,0-4.2,2.3-4.2,4.8c0,2.6,1.5,4.9,4.2,4.9C362.6-19.2,364-21.5,364-24.1z"/>
	<path d="M368.5-24.1c0-3.6,2.4-6.6,6.2-6.6c3.8,0,6.2,2.9,6.2,6.6c0,3.6-2.4,6.6-6.2,6.6C370.9-17.5,368.5-20.4,368.5-24.1z
		 M378.9-24.1c0-2.5-1.5-4.8-4.2-4.8c-2.7,0-4.2,2.3-4.2,4.8c0,2.6,1.5,4.9,4.2,4.9C377.4-19.2,378.9-21.5,378.9-24.1z"/>
	<path d="M393.2-17.8v-1.9c-0.9,1.3-2.5,2.2-4.2,2.2c-3.3,0-5.6-2.5-5.6-6.6c0-4,2.3-6.6,5.6-6.6c1.7,0,3.2,0.8,4.2,2.2v-6.7h2v17.3
		H393.2z M393.2-21.2v-5.7c-0.7-1.1-2.2-2-3.8-2c-2.5,0-4,2.1-4,4.9s1.5,4.8,4,4.8C391-19.2,392.5-20.1,393.2-21.2z"/>
	<path d="M414-17.8V-32l-5.9,14.3h-0.9L401.3-32v14.3h-2.2v-17.3h3.1l5.4,13.1l5.4-13.1h3.1v17.3H414z"/>
	<path d="M428-17.8v-1.4c-1,1.1-2.5,1.7-4.2,1.7c-2.1,0-4.4-1.4-4.4-4.2c0-2.8,2.3-4.1,4.4-4.1c1.7,0,3.1,0.5,4.2,1.7v-2.3
		c0-1.7-1.4-2.7-3.2-2.7c-1.5,0-2.7,0.5-3.8,1.7l-0.9-1.4c1.4-1.4,3-2.1,5-2.1c2.7,0,4.9,1.2,4.9,4.2v8.6H428z M428-20.4v-2.4
		c-0.8-1-2.1-1.6-3.5-1.6c-1.8,0-3.1,1.1-3.1,2.8c0,1.6,1.3,2.7,3.1,2.7C425.9-18.9,427.2-19.4,428-20.4z"/>
	<path d="M433.8-17.8v-12.6h2v2c1-1.3,2.5-2.3,4.2-2.3v2c-0.2-0.1-0.5-0.1-0.8-0.1c-1.2,0-2.8,1-3.4,2v8.9H433.8z"/>
	<path d="M451-17.8l-4.5-5.6l-2.1,2.1v3.6h-2v-17.3h2v11.5l6.6-6.7h2.5l-5.6,5.7l5.6,6.9H451z"/>
	<path d="M455-24.1c0-3.6,2.6-6.6,6.2-6.6c3.8,0,6,3,6,6.7v0.5H457c0.2,2.4,1.8,4.3,4.5,4.3c1.4,0,2.9-0.6,3.9-1.6l0.9,1.3
		c-1.2,1.2-2.9,1.9-5,1.9C457.6-17.5,455-20.1,455-24.1z M461.1-29c-2.7,0-4,2.3-4.1,4.2h8.2C465.2-26.7,464-29,461.1-29z"/>
	<path d="M470.7-20.4v-8.2h-2.1v-1.7h2.1v-3.4h2v3.4h2.5v1.7h-2.5v7.8c0,0.9,0.4,1.6,1.3,1.6c0.5,0,1.1-0.2,1.3-0.5l0.6,1.5
		c-0.5,0.5-1.2,0.8-2.3,0.8C471.6-17.5,470.7-18.5,470.7-20.4z"/>
	<path d="M497.1-17.8l-1.5-3.8H487l-1.5,3.8H483l7-17.3h2.7l7,17.3H497.1z M491.3-32.9l-3.7,9.3h7.4L491.3-32.9z"/>
	<path d="M503.7-19.7v6.7h-2v-17.3h2v1.9c0.9-1.3,2.5-2.2,4.2-2.2c3.3,0,5.6,2.5,5.6,6.6c0,4.1-2.3,6.6-5.6,6.6
		C506.2-17.5,504.7-18.3,503.7-19.7z M511.5-24.1c0-2.8-1.5-4.8-4-4.8c-1.5,0-3.1,0.9-3.7,2v5.7c0.7,1.1,2.2,2,3.7,2
		C510-19.2,511.5-21.3,511.5-24.1z"/>
	<path d="M518.6-19.7v6.7h-2v-17.3h2v1.9c0.9-1.3,2.5-2.2,4.2-2.2c3.3,0,5.6,2.5,5.6,6.6c0,4.1-2.3,6.6-5.6,6.6
		C521.1-17.5,519.6-18.3,518.6-19.7z M526.4-24.1c0-2.8-1.5-4.8-4-4.8c-1.5,0-3.1,0.9-3.7,2v5.7c0.7,1.1,2.2,2,3.7,2
		C524.9-19.2,526.4-21.3,526.4-24.1z"/>
	<path d="M537.3-20.2l1.3-1.6c1.1,1.3,3,2.5,5.5,2.5c3.1,0,4.1-1.7,4.1-3c0-4.5-10.3-2-10.3-8.2c0-2.9,2.5-4.8,6-4.8
		c2.7,0,4.7,0.9,6.2,2.4l-1.3,1.6c-1.3-1.4-3.1-2.1-5-2.1c-2.1,0-3.6,1.1-3.6,2.8c0,3.9,10.3,1.7,10.3,8.1c0,2.5-1.7,5.1-6.4,5.1
		C540.9-17.5,538.7-18.6,537.3-20.2z"/>
	<path d="M553.1-33.4c0-0.7,0.6-1.3,1.3-1.3c0.7,0,1.3,0.6,1.3,1.3c0,0.7-0.6,1.3-1.3,1.3C553.7-32.1,553.1-32.7,553.1-33.4z
		 M553.5-17.8v-12.6h2v12.6H553.5z"/>
	<path d="M559.7-20.4v-8.2h-2.1v-1.7h2.1v-3.4h2v3.4h2.5v1.7h-2.5v7.8c0,0.9,0.4,1.6,1.3,1.6c0.5,0,1.1-0.2,1.3-0.5l0.6,1.5
		c-0.5,0.5-1.2,0.8-2.3,0.8C560.6-17.5,559.7-18.5,559.7-20.4z"/>
	<path d="M566.2-24.1c0-3.6,2.6-6.6,6.2-6.6c3.8,0,6,3,6,6.7v0.5h-10.2c0.2,2.4,1.8,4.3,4.5,4.3c1.4,0,2.9-0.6,3.9-1.6l0.9,1.3
		c-1.2,1.2-2.9,1.9-5,1.9C568.9-17.5,566.2-20.1,566.2-24.1z M572.4-29c-2.7,0-4,2.3-4.1,4.2h8.2C576.5-26.7,575.3-29,572.4-29z"/>
	<path d="M596.8-17.8v-8.5c0-1.6-0.7-2.6-2.3-2.6c-1.3,0-2.7,0.9-3.3,1.9v9.2h-2v-8.5c0-1.6-0.7-2.6-2.3-2.6c-1.3,0-2.6,0.9-3.3,2
		v9.2h-2v-12.6h2v1.8c0.5-0.8,2.2-2.1,4.1-2.1c1.9,0,3,1,3.4,2.3c0.7-1.1,2.4-2.3,4.2-2.3c2.3,0,3.5,1.3,3.5,3.8v9.1H596.8z"/>
	<path d="M610.5-17.8v-1.4c-1,1.1-2.5,1.7-4.2,1.7c-2.1,0-4.4-1.4-4.4-4.2c0-2.8,2.3-4.1,4.4-4.1c1.7,0,3.1,0.5,4.2,1.7v-2.3
		c0-1.7-1.4-2.7-3.2-2.7c-1.5,0-2.7,0.5-3.8,1.7l-0.9-1.4c1.4-1.4,3-2.1,5-2.1c2.7,0,4.9,1.2,4.9,4.2v8.6H610.5z M610.5-20.4v-2.4
		c-0.8-1-2.1-1.6-3.5-1.6c-1.8,0-3.1,1.1-3.1,2.8c0,1.6,1.3,2.7,3.1,2.7C608.4-18.9,609.7-19.4,610.5-20.4z"/>
	<path d="M618.3-19.7v6.7h-2v-17.3h2v1.9c0.9-1.3,2.5-2.2,4.2-2.2c3.3,0,5.6,2.5,5.6,6.6c0,4.1-2.3,6.6-5.6,6.6
		C620.8-17.5,619.3-18.3,618.3-19.7z M626-24.1c0-2.8-1.5-4.8-4-4.8c-1.5,0-3.1,0.9-3.7,2v5.7c0.7,1.1,2.2,2,3.7,2
		C624.5-19.2,626-21.3,626-24.1z"/>
</g>
<g>
</g>
<g>
</g>
<g>
</g>
<line fill="none" stroke="#000000" stroke-width="0.75" stroke-miterlimit="10" x1="294.6" y1="-8.3" x2="668.6" y2="-8.3"/>
<line fill="none" stroke="#000000" stroke-width="0.5" stroke-miterlimit="10" x1="292.5" y1="461.5" x2="293.1" y2="693"/>
<line fill="none" stroke="#000000" stroke-width="0.5" stroke-miterlimit="10" x1="293.1" y1="493.6" x2="302.2" y2="493.6"/>
<line fill="none" stroke="#000000" stroke-width="0.5" stroke-miterlimit="10" x1="293.1" y1="533.4" x2="302.2" y2="533.4"/>
<line fill="none" stroke="#000000" stroke-width="0.5" stroke-miterlimit="10" x1="293.1" y1="573.3" x2="302.2" y2="573.3"/>
<line fill="none" stroke="#000000" stroke-width="0.5" stroke-miterlimit="10" x1="293.1" y1="613.2" x2="302.2" y2="613.2"/>
<line fill="none" stroke="#000000" stroke-width="0.5" stroke-miterlimit="10" x1="293.1" y1="653.1" x2="302.2" y2="653.1"/>
<line fill="none" stroke="#000000" stroke-width="0.5" stroke-miterlimit="10" x1="293.1" y1="693" x2="302.2" y2="693"/>
<line fill="none" stroke="#000000" stroke-width="0.5" stroke-miterlimit="10" x1="201.5" y1="140.4" x2="202" y2="375.6"/>
<line fill="none" stroke="#000000" stroke-width="0.5" stroke-miterlimit="10" x1="202" y1="180.6" x2="215.8" y2="180.6"/>
<line fill="none" stroke="#000000" stroke-width="0.5" stroke-miterlimit="10" x1="202" y1="229.2" x2="215.8" y2="229.2"/>
<line fill="none" stroke="#000000" stroke-width="0.5" stroke-miterlimit="10" x1="202" y1="277.7" x2="215.8" y2="277.7"/>
<line fill="none" stroke="#000000" stroke-width="0.5" stroke-miterlimit="10" x1="202" y1="326.3" x2="215.8" y2="326.3"/>
<line fill="none" stroke="#000000" stroke-width="0.5" stroke-miterlimit="10" x1="202" y1="375.6" x2="215.8" y2="375.6"/>
<line fill="none" stroke="#000000" stroke-width="0.5" stroke-miterlimit="10" x1="76.8" y1="140.4" x2="77.4" y2="180.6"/>
<line fill="none" stroke="#000000" stroke-width="0.5" stroke-miterlimit="10" x1="77.4" y1="180.6" x2="91.2" y2="180.6"/>
<line fill="none" stroke="#000000" stroke-width="0.5" stroke-miterlimit="10" x1="325.2" y1="140.4" x2="325.7" y2="277.7"/>
<line fill="none" stroke="#000000" stroke-width="0.5" stroke-miterlimit="10" x1="325.7" y1="180.6" x2="339.5" y2="180.6"/>
<line fill="none" stroke="#000000" stroke-width="0.5" stroke-miterlimit="10" x1="325.7" y1="229.2" x2="339.5" y2="229.2"/>
<line fill="none" stroke="#000000" stroke-width="0.5" stroke-miterlimit="10" x1="325.7" y1="277.7" x2="339.5" y2="277.7"/>
<line fill="none" stroke="#000000" stroke-width="0.5" stroke-miterlimit="10" x1="574.1" y1="180.6" x2="587.9" y2="180.6"/>
<line fill="none" stroke="#000000" stroke-width="0.5" stroke-miterlimit="10" x1="574.1" y1="229.2" x2="587.9" y2="229.2"/>
<line fill="none" stroke="#000000" stroke-width="0.5" stroke-miterlimit="10" x1="574.1" y1="277.7" x2="587.9" y2="277.7"/>
<line fill="none" stroke="#000000" stroke-width="0.5" stroke-miterlimit="10" x1="574.1" y1="326.3" x2="587.9" y2="326.3"/>
<line fill="none" stroke="#000000" stroke-width="0.5" stroke-miterlimit="10" x1="574.1" y1="375.6" x2="587.9" y2="375.6"/>
<line fill="none" stroke="#000000" stroke-width="0.5" stroke-miterlimit="10" x1="697.2" y1="140.4" x2="697.8" y2="277.7"/>
<line fill="none" stroke="#000000" stroke-width="0.5" stroke-miterlimit="10" x1="573.8" y1="140.4" x2="574.1" y2="375.6"/>
<line fill="none" stroke="#000000" stroke-width="0.5" stroke-miterlimit="10" x1="697.8" y1="180.6" x2="711.6" y2="180.6"/>
<line fill="none" stroke="#000000" stroke-width="0.5" stroke-miterlimit="10" x1="697.8" y1="229.2" x2="711.6" y2="229.2"/>
<line fill="none" stroke="#000000" stroke-width="0.5" stroke-miterlimit="10" x1="697.8" y1="277.7" x2="711.6" y2="277.7"/>
<line fill="none" stroke="#000000" stroke-width="0.5" stroke-miterlimit="10" x1="823.5" y1="140.4" x2="824.1" y2="326.3"/>
<line fill="none" stroke="#000000" stroke-width="0.5" stroke-miterlimit="10" x1="824.1" y1="180.6" x2="837.8" y2="180.6"/>
<line fill="none" stroke="#000000" stroke-width="0.5" stroke-miterlimit="10" x1="824.1" y1="229.2" x2="837.8" y2="229.2"/>
<line fill="none" stroke="#000000" stroke-width="0.5" stroke-miterlimit="10" x1="824.1" y1="277.7" x2="837.8" y2="277.7"/>
<line fill="none" stroke="#000000" stroke-width="0.5" stroke-miterlimit="10" x1="824.1" y1="326.3" x2="837.8" y2="326.3"/>
<line fill="none" stroke="#000000" stroke-width="0.5" stroke-miterlimit="10" x1="183.4" y1="461.5" x2="184" y2="533.4"/>
<line fill="none" stroke="#000000" stroke-width="0.5" stroke-miterlimit="10" x1="184" y1="493.6" x2="193.1" y2="493.6"/>
<line fill="none" stroke="#000000" stroke-width="0.5" stroke-miterlimit="10" x1="184" y1="533.4" x2="193.1" y2="533.4"/>
<line fill="none" stroke="#000000" stroke-width="0.5" stroke-miterlimit="10" x1="74.3" y1="461.5" x2="74.9" y2="573.3"/>
<line fill="none" stroke="#000000" stroke-width="0.5" stroke-miterlimit="10" x1="74.9" y1="493.6" x2="84" y2="493.6"/>
<line fill="none" stroke="#000000" stroke-width="0.5" stroke-miterlimit="10" x1="74.9" y1="533.4" x2="84" y2="533.4"/>
<line fill="none" stroke="#000000" stroke-width="0.5" stroke-miterlimit="10" x1="74.9" y1="573.3" x2="84" y2="573.3"/>
<line fill="none" stroke="#000000" stroke-width="0.5" stroke-miterlimit="10" x1="401.6" y1="461.5" x2="402.2" y2="653.1"/>
<line fill="none" stroke="#000000" stroke-width="0.5" stroke-miterlimit="10" x1="402.2" y1="493.6" x2="411.2" y2="493.6"/>
<line fill="none" stroke="#000000" stroke-width="0.5" stroke-miterlimit="10" x1="402.2" y1="533.4" x2="411.2" y2="533.4"/>
<line fill="none" stroke="#000000" stroke-width="0.5" stroke-miterlimit="10" x1="402.2" y1="573.3" x2="411.2" y2="573.3"/>
<line fill="none" stroke="#000000" stroke-width="0.5" stroke-miterlimit="10" x1="402.2" y1="613.2" x2="411.2" y2="613.2"/>
<line fill="none" stroke="#000000" stroke-width="0.5" stroke-miterlimit="10" x1="402.2" y1="653.1" x2="411.2" y2="653.1"/>
<line fill="none" stroke="#000000" stroke-width="0.5" stroke-miterlimit="10" x1="510.7" y1="461.5" x2="511.3" y2="533.4"/>
<line fill="none" stroke="#000000" stroke-width="0.5" stroke-miterlimit="10" x1="511.3" y1="493.6" x2="520.3" y2="493.6"/>
<line fill="none" stroke="#000000" stroke-width="0.5" stroke-miterlimit="10" x1="511.3" y1="533.4" x2="520.3" y2="533.4"/>
<line fill="none" stroke="#000000" stroke-width="0.5" stroke-miterlimit="10" x1="619.8" y1="461.5" x2="620.4" y2="613.2"/>
<line fill="none" stroke="#000000" stroke-width="0.5" stroke-miterlimit="10" x1="620.4" y1="493.6" x2="629.4" y2="493.6"/>
<line fill="none" stroke="#000000" stroke-width="0.5" stroke-miterlimit="10" x1="620.4" y1="533.4" x2="629.4" y2="533.4"/>
<line fill="none" stroke="#000000" stroke-width="0.5" stroke-miterlimit="10" x1="620.4" y1="573.3" x2="629.4" y2="573.3"/>
<line fill="none" stroke="#000000" stroke-width="0.5" stroke-miterlimit="10" x1="620.4" y1="613.2" x2="629.4" y2="613.2"/>
<line fill="none" stroke="#000000" stroke-width="0.5" stroke-miterlimit="10" x1="728.7" y1="461.5" x2="729.3" y2="731.9"/>
<line fill="none" stroke="#000000" stroke-width="0.5" stroke-miterlimit="10" x1="729.3" y1="493.6" x2="738.4" y2="493.6"/>
<line fill="none" stroke="#000000" stroke-width="0.5" stroke-miterlimit="10" x1="729.3" y1="533.4" x2="738.4" y2="533.4"/>
<line fill="none" stroke="#000000" stroke-width="0.5" stroke-miterlimit="10" x1="729.3" y1="573.3" x2="738.4" y2="573.3"/>
<line fill="none" stroke="#000000" stroke-width="0.5" stroke-miterlimit="10" x1="729.3" y1="613.2" x2="738.4" y2="613.2"/>
<line fill="none" stroke="#000000" stroke-width="0.5" stroke-miterlimit="10" x1="729.3" y1="653.1" x2="738.4" y2="653.1"/>
<line fill="none" stroke="#000000" stroke-width="0.5" stroke-miterlimit="10" x1="729.3" y1="693" x2="738.4" y2="693"/>
<line fill="none" stroke="#000000" stroke-width="0.5" stroke-miterlimit="10" x1="729.3" y1="731.9" x2="738.4" y2="731.9"/>
<line fill="none" stroke="#000000" stroke-width="0.5" stroke-miterlimit="10" x1="837.7" y1="461.5" x2="838.3" y2="653.1"/>
<line fill="none" stroke="#000000" stroke-width="0.5" stroke-miterlimit="10" x1="838.3" y1="493.6" x2="847.3" y2="493.6"/>
<line fill="none" stroke="#000000" stroke-width="0.5" stroke-miterlimit="10" x1="838.3" y1="533.4" x2="847.3" y2="533.4"/>
<line fill="none" stroke="#000000" stroke-width="0.5" stroke-miterlimit="10" x1="838.3" y1="573.3" x2="847.3" y2="573.3"/>
<line fill="none" stroke="#000000" stroke-width="0.5" stroke-miterlimit="10" x1="838.3" y1="613.2" x2="847.3" y2="613.2"/>
<line fill="none" stroke="#000000" stroke-width="0.5" stroke-miterlimit="10" x1="838.3" y1="653.1" x2="847.3" y2="653.1"/>
<line fill="none" stroke="#000000" stroke-width="0.5" stroke-miterlimit="10" x1="107" y1="411.7" x2="870.6" y2="411.5"/>
<line fill="none" stroke="#000000" stroke-width="0.5" stroke-miterlimit="10" x1="107" y1="425.3" x2="107" y2="411.5"/>
<line fill="none" stroke="#000000" stroke-width="0.5" stroke-miterlimit="10" x1="216.1" y1="425.3" x2="216.1" y2="411.5"/>
<line fill="none" stroke="#000000" stroke-width="0.5" stroke-miterlimit="10" x1="325.2" y1="425.3" x2="325.2" y2="411.5"/>
<line fill="none" stroke="#000000" stroke-width="0.5" stroke-miterlimit="10" x1="434.2" y1="425.3" x2="434.2" y2="411.5"/>
<line fill="none" stroke="#000000" stroke-width="0.5" stroke-miterlimit="10" x1="543.3" y1="425.3" x2="543.3" y2="411.5"/>
<line fill="none" stroke="#000000" stroke-width="0.5" stroke-miterlimit="10" x1="652.4" y1="425.3" x2="652.4" y2="411.5"/>
<line fill="none" stroke="#000000" stroke-width="0.5" stroke-miterlimit="10" x1="761.5" y1="425.3" x2="761.5" y2="411.5"/>
<line fill="none" stroke="#000000" stroke-width="0.5" stroke-miterlimit="10" x1="870.6" y1="425.3" x2="870.6" y2="411.5"/>
<line fill="none" stroke="#000000" stroke-width="0.5" stroke-miterlimit="10" x1="110" y1="84" x2="853" y2="84"/>
<line fill="none" stroke="#000000" stroke-width="0.5" stroke-miterlimit="10" x1="110" y1="97.8" x2="110" y2="84"/>
<line fill="none" stroke="#000000" stroke-width="0.5" stroke-miterlimit="10" x1="233.8" y1="97.8" x2="233.8" y2="84"/>
<line fill="none" stroke="#000000" stroke-width="0.5" stroke-miterlimit="10" x1="357.7" y1="97.8" x2="357.7" y2="84"/>
<line fill="none" stroke="#000000" stroke-width="0.5" stroke-miterlimit="10" x1="605.4" y1="97.8" x2="605.4" y2="84"/>
<line fill="none" stroke="#000000" stroke-width="0.5" stroke-miterlimit="10" x1="729.2" y1="97.8" x2="729.2" y2="84"/>
<line fill="none" stroke="#000000" stroke-width="0.5" stroke-miterlimit="10" x1="853" y1="97.8" x2="853" y2="84"/>
<g>
</g>
<g>
</g>
<g>
</g>
<g>
</g>
<g>
</g>
<g>
</g>
</svg>
