<?xml version="1.0" encoding="utf-8"?>
<!-- Generator: Adobe Illustrator 19.2.0, SVG Export Plug-In . SVG Version: 6.00 Build 0)  -->
<svg version="1.2" baseProfile="tiny" id="Layer_1" xmlns="http://www.w3.org/2000/svg" xmlns:xlink="http://www.w3.org/1999/xlink"
	 x="0px" y="0px" viewBox="0 0 390 283.636" xml:space="preserve">
<rect fill="#B04644" width="390" height="283.636"/>
<g>
	<path fill="#FFFFFF" d="M48.937,198.94v-48.881c0-0.973,0.409-1.818,1.229-2.536c0.819-0.717,1.895-1.076,3.228-1.076h15.909
		c5.482,0,9.876,1.422,13.18,4.265c3.305,2.844,4.957,7.314,4.957,13.411v0.384c0,6.097-1.729,10.594-5.188,13.488
		c-3.458,2.895-8.032,4.342-13.718,4.342h-7.609v16.601c0,1.179-0.59,2.088-1.768,2.728c-1.179,0.641-2.588,0.961-4.227,0.961
		c-1.641,0-3.049-0.32-4.227-0.961C49.525,201.028,48.937,200.119,48.937,198.94z M60.926,173.116h7.609
		c4.611,0,6.917-2.561,6.917-7.686v-0.845c0-5.123-2.306-7.686-6.917-7.686h-7.609V173.116z"/>
	<path fill="#FFFFFF" d="M89.055,192.75c0-4.096,1.549-6.983,4.65-8.662c3.1-1.677,7.544-2.517,13.335-2.517h2.767v-0.805
		c0-1.61-0.461-3.005-1.383-4.187c-0.922-1.181-2.382-1.771-4.381-1.771c-2.46,0-4.484,0.474-6.071,1.422
		c-1.589,0.949-2.563,1.422-2.921,1.422c-1.229,0-2.204-0.602-2.92-1.806c-0.718-1.204-1.076-2.575-1.076-4.112
		c0-1.691,1.422-3.138,4.265-4.342c2.844-1.204,5.802-1.807,8.877-1.807c5.892,0,10.285,1.435,13.181,4.304
		c2.894,2.87,4.342,6.455,4.342,10.76v18.291c0,1.025-0.551,1.896-1.652,2.613c-1.103,0.718-2.498,1.076-4.189,1.076
		c-1.487,0-2.742-0.383-3.766-1.149c-1.025-0.766-1.537-1.695-1.537-2.79v-1.806c-3.535,4.342-7.43,6.513-11.682,6.513
		c-2.818,0-5.162-0.907-7.032-2.722C89.989,198.861,89.055,196.219,89.055,192.75z M101.045,191.182
		c0,1.996,0.999,2.992,2.997,2.992c1.28,0,2.562-0.664,3.843-1.995c1.28-1.33,1.921-2.851,1.921-4.56v-0.285h-0.307
		c-1.691,0-3.088,0.072-4.189,0.214c-1.103,0.143-2.089,0.512-2.959,1.105C101.479,189.247,101.045,190.09,101.045,191.182z"/>
	<path fill="#FFFFFF" d="M124.485,214c0-3.431,0.973-5.146,2.921-5.146c7.274,0,10.912-3.245,10.912-9.734l-13.449-26.463
		c-0.257-0.507-0.384-1.015-0.384-1.522c0-1.419,0.922-2.711,2.767-3.877c1.844-1.166,3.612-1.75,5.302-1.75
		c1.692,0,2.792,0.634,3.305,1.901l8.685,20.609l6.378-20.609c0.512-1.267,1.537-1.901,3.074-1.901c1.588,0,3.355,0.595,5.303,1.787
		c1.947,1.191,2.921,2.548,2.921,4.068c0,0.514-0.104,0.95-0.308,1.308l-10.914,27.242c-0.257,0.718-0.718,1.924-1.383,3.618
		l-1.384,3.54c-0.257,0.769-0.73,1.834-1.422,3.194c-0.692,1.359-1.333,2.372-1.921,3.04c-0.59,0.666-1.396,1.461-2.421,2.386
		c-1.025,0.922-2.102,1.589-3.227,2.001c-1.127,0.409-2.486,0.781-4.074,1.115c-1.588,0.332-3.331,0.5-5.225,0.5
		c-1.795,0-3.152-0.35-4.073-1.045C124.947,217.564,124.485,216.143,124.485,214z"/>
	<path fill="#FFFFFF" d="M164.679,187.104v-5.226c0-4.867,1.447-8.8,4.343-11.797c2.894-2.998,7.211-4.497,12.95-4.497
		c3.69,0,6.776,0.628,9.262,1.883c2.484,1.256,3.727,2.755,3.727,4.496c0,1.282-0.449,2.575-1.345,3.882
		c-0.896,1.306-1.986,1.96-3.266,1.96c-0.41,0-1.345-0.294-2.806-0.884c-1.459-0.588-2.984-0.883-4.572-0.883
		c-4.254,0-6.38,1.954-6.38,5.865v5.178c0,3.91,2.153,5.865,6.456,5.865c1.537,0,3.01-0.333,4.419-1
		c1.41-0.665,2.37-0.999,2.882-0.999c1.486,0,2.702,0.615,3.651,1.845c0.947,1.229,1.422,2.511,1.422,3.843
		c0,1.794-1.306,3.369-3.919,4.726s-5.739,2.037-9.376,2.037c-5.841,0-10.21-1.485-13.104-4.457
		C166.126,195.969,164.679,192.023,164.679,187.104z"/>
	<path fill="#FFFFFF" d="M199.954,198.94v-29.282c0-1.076,0.551-1.946,1.653-2.613c1.102-0.666,2.498-0.999,4.188-0.999
		c1.486,0,2.741,0.336,3.766,1.007s1.537,1.549,1.537,2.634v2.866c0.82-1.858,2.088-3.484,3.805-4.878
		c1.716-1.393,3.496-2.091,5.341-2.091h2.229c1.126,0,2.114,0.516,2.959,1.549c0.845,1.033,1.268,2.246,1.268,3.639
		c0,1.446-0.423,2.684-1.268,3.717c-0.845,1.033-1.833,1.548-2.959,1.548h-2.229c-2.204,0-4.15,1.06-5.841,3.181
		c-1.692,2.121-2.537,4.866-2.537,8.238v11.495c0,0.92-0.602,1.763-1.806,2.529c-1.204,0.766-2.627,1.149-4.266,1.149
		c-1.639,0-3.023-0.371-4.149-1.115C200.517,200.772,199.954,199.914,199.954,198.94z"/>
	<path fill="#FFFFFF" d="M228.161,192.75c0-4.096,1.549-6.983,4.649-8.662c3.1-1.677,7.544-2.517,13.336-2.517h2.766v-0.805
		c0-1.61-0.461-3.005-1.384-4.187c-0.922-1.181-2.382-1.771-4.38-1.771c-2.46,0-4.484,0.474-6.072,1.422
		c-1.588,0.949-2.562,1.422-2.921,1.422c-1.229,0-2.204-0.602-2.92-1.806c-0.719-1.204-1.076-2.575-1.076-4.112
		c0-1.691,1.422-3.138,4.266-4.342c2.843-1.204,5.802-1.807,8.876-1.807c5.892,0,10.285,1.435,13.181,4.304
		c2.894,2.87,4.343,6.455,4.343,10.76v18.291c0,1.025-0.551,1.896-1.653,2.613c-1.102,0.718-2.498,1.076-4.188,1.076
		c-1.488,0-2.742-0.383-3.766-1.149c-1.025-0.766-1.537-1.695-1.537-2.79v-1.806c-3.535,4.342-7.43,6.513-11.683,6.513
		c-2.818,0-5.162-0.907-7.031-2.722C229.095,198.861,228.161,196.219,228.161,192.75z M240.15,191.182c0,1.996,1,2.992,2.998,2.992
		c1.28,0,2.561-0.664,3.843-1.995c1.28-1.33,1.921-2.851,1.921-4.56v-0.285h-0.308c-1.69,0-3.088,0.072-4.188,0.214
		c-1.103,0.143-2.09,0.512-2.96,1.105C240.586,189.247,240.15,190.09,240.15,191.182z"/>
	<path fill="#FFFFFF" d="M263.515,170.504c0-1.28,0.923-2.433,2.767-3.458c1.845-1.024,3.613-1.537,5.303-1.537
		c1.692,0,2.792,0.641,3.305,1.921l7.915,20.059l7.917-20.059c0.512-1.28,1.588-1.921,3.227-1.921c1.435,0,3.139,0.526,5.111,1.575
		c1.972,1.051,2.959,2.217,2.959,3.497c0,0.462-0.102,0.922-0.306,1.383l-13.528,29.589c-0.614,1.384-2.408,2.075-5.38,2.075
		s-4.764-0.691-5.38-2.075l-13.526-29.589C263.642,171.554,263.515,171.068,263.515,170.504z"/>
	<path fill="#FFFFFF" d="M303.862,187.104v-5.61c0-4.355,1.729-8.095,5.188-11.221c3.458-3.125,7.621-4.689,12.489-4.689
		c4.56,0,8.454,1.375,11.683,4.125c3.227,2.75,4.841,6.257,4.841,10.522c0,1.63-0.204,2.953-0.614,3.972
		c-0.411,1.018-1.025,1.732-1.845,2.138c-0.82,0.408-1.576,0.675-2.267,0.802c-0.692,0.128-1.603,0.191-2.729,0.191h-14.834v0.466
		c0,1.918,0.718,3.46,2.153,4.626c1.434,1.166,3.329,1.749,5.688,1.749c1.792,0,3.676-0.486,5.649-1.461
		c1.972-0.973,3.292-1.46,3.958-1.46c1.28,0,2.331,0.603,3.151,1.806c0.82,1.205,1.229,2.344,1.229,3.42
		c0,1.589-1.37,3.139-4.111,4.65c-2.741,1.511-6.136,2.267-10.183,2.267c-5.739,0-10.415-1.499-14.026-4.496
		C305.67,195.904,303.862,191.973,303.862,187.104z M315.775,180.649h9.53c1.076,0,1.614-0.556,1.614-1.669
		c0-1.297-0.551-2.317-1.651-3.059c-1.103-0.742-2.421-1.113-3.958-1.113c-1.488,0-2.78,0.372-3.882,1.113
		c-1.102,0.742-1.653,1.762-1.653,3.059V180.649z"/>
</g>
<g>
	<path fill="#FFFFFF" d="M138.591,93.143c0.722,2.282,3.219,6.289,7.498,5.114c0.6-0.163,1.156-0.363,1.662-0.598
		c1.508,1.11,3.197,1.773,4.49,2.164c0.545,3.599,1.691,7.102,3.425,10.332v16.895c0,2.977,2.423,5.398,5.398,5.398h8.206
		c2.977,0,5.398-2.421,5.398-5.398v-1.004c7.083,2.397,14.978,2.417,22.074,0.048v0.956c0,2.977,2.423,5.398,5.4,5.398h8.206
		c2.977,0,5.398-2.421,5.398-5.398v-9.491c1.43,0.267,2.882,0.402,4.342,0.402c7.072,0,13.744-3.127,18.151-8.432h7.246
		c1.652,0,2.993-1.343,2.993-2.995V91.129c0-1.649-1.341-2.995-2.993-2.995h-3.36c-2.712-7.692-9.601-13.429-17.851-14.891V66.74
		c0-1.406-1.115-2.652-2.49-2.951c0,0-0.276-0.059-0.8-0.059c-1.856,0-6.372,0.841-11.509,7.898
		c-6.311-5.983-14.748-9.349-23.697-9.349c-18.699,0-33.914,14.712-33.914,32.792c0,0.487,0.024,0.971,0.046,1.46
		c-0.526-0.215-1.078-0.469-1.613-0.793c0.369-0.454,0.665-0.961,0.889-1.508c1.482-3.645-0.972-7.895-1.076-8.076
		c-0.115-0.193-0.274-0.36-0.461-0.487c-0.18-0.122-1.808-1.153-3.436-0.254c-1.441,0.798-2.097,2.68-2.008,5.759
		c0.048,1.658,0.537,3.025,1.276,4.149c-0.061,0.015-0.12,0.03-0.182,0.048c-2.61,0.717-3.842-3.09-3.856-3.127
		c-0.252-0.787-1.089-1.226-1.878-0.978C138.78,91.511,138.341,92.354,138.591,93.143z M157.852,95.071
		c0-14.779,12.527-26.804,27.926-26.804c8.524,0,16.473,3.678,21.815,10.096c0.621,0.745,1.573,1.151,2.534,1.067
		c0.971-0.076,1.843-0.617,2.338-1.453c2.299-3.872,4.325-5.927,5.822-7.021v4.949c0,1.586,1.241,2.899,2.823,2.988
		c7.676,0.43,14.196,5.74,15.858,12.909c0.315,1.358,1.524,2.321,2.917,2.321h2.606v9.417h-5.72c-0.963,0-1.869,0.463-2.43,1.248
		c-3.238,4.499-8.563,7.187-14.252,7.187c-2.139,0-4.251-0.387-6.285-1.15c-0.922-0.341-1.949-0.215-2.756,0.343
		c-0.808,0.561-1.291,1.48-1.291,2.46v12.833h-7.028v-4.824c0-1.03-0.533-1.993-1.408-2.543c-0.878-0.541-1.973-0.6-2.899-0.148
		c-3.977,1.945-8.228,2.93-12.644,2.93c-4.466,0-8.765-1.006-12.774-2.991c-0.926-0.461-2.026-0.409-2.904,0.139
		c-0.882,0.546-1.417,1.508-1.417,2.545v4.892h-7.031v-17.08c0-0.517-0.137-1.028-0.389-1.482
		C159.033,103.986,157.852,99.552,157.852,95.071z M147.673,88.026c0.006,0.002,0.028,0.01,0.054,0.018
		c0.55,1.115,1.365,3.401,0.685,5.066c-0.093,0.219-0.209,0.428-0.35,0.622c-0.504-0.733-0.835-1.609-0.861-2.647
		C147.125,88.525,147.668,88.031,147.673,88.026z"/>
	<ellipse fill="#FFFFFF" cx="228.235" cy="89.037" rx="1.995" ry="3.126"/>
	<path fill="#FFFFFF" d="M176.938,74.836c10.123-3.76,15.96-0.009,16.204,0.156c0.683,0.452,0.869,1.37,0.419,2.06
		c-0.448,0.687-1.376,0.882-2.067,0.441c-0.198-0.128-4.92-3.045-13.513,0.149c-0.174,0.062-0.348,0.095-0.524,0.095
		c-0.606,0-1.18-0.376-1.402-0.976C175.767,75.984,176.162,75.123,176.938,74.836z"/>
</g>
</svg>
