<?xml version="1.0" encoding="utf-8"?>
<!-- Generator: Adobe Illustrator 19.2.0, SVG Export Plug-In . SVG Version: 6.00 Build 0)  -->
<svg version="1.2" baseProfile="tiny" id="Layer_1" xmlns="http://www.w3.org/2000/svg" xmlns:xlink="http://www.w3.org/1999/xlink"
	 x="0px" y="0px" viewBox="0 0 390 283.636" xml:space="preserve">
<rect fill="#386A9C" width="390" height="283.636"/>
<polygon fill="#386A9C" points="185.545,107.841 231.045,98.091 239.318,130 178.159,109.614 "/>
<path fill="#B5CFE4" d="M262.402,169.554l-110.192-30.99c-2.033-0.572-3.218-2.684-2.646-4.717l26.57-94.477
	c0.572-2.033,2.684-3.218,4.717-2.646l110.192,30.99c2.033,0.572,3.218,2.684,2.646,4.717l-26.57,94.477
	C266.547,168.941,264.436,170.126,262.402,169.554z"/>
<path fill="#386A9C" d="M262.712,141.246l-91.493-25.731c-2.033-0.572-3.218-2.684-2.646-4.717l16.049-57.066
	c0.572-2.033,2.684-3.218,4.717-2.646l91.493,25.731c2.033,0.572,3.218,2.684,2.646,4.717l-16.049,57.066
	C266.857,140.633,264.745,141.817,262.712,141.246z"/>
<g>
	<path fill="#E6E7E8" d="M200.485,71.479c-0.526,0.051-0.946,0.3-1.262,0.748c-0.316,0.446-0.627,1.214-0.933,2.306l-6.039,21.597
		c-0.306,1.091-0.438,1.909-0.399,2.455c0.038,0.546,0.269,0.977,0.691,1.293c0.424,0.317,1.154,0.644,2.19,0.98l-0.243,0.871
		c-1.309-0.458-3.14-1.015-5.491-1.673c-2.494-0.698-4.362-1.174-5.604-1.43l0.243-0.871c1.061,0.25,1.854,0.35,2.381,0.298
		c0.525-0.051,0.946-0.299,1.262-0.747c0.316-0.446,0.627-1.215,0.933-2.306l6.039-21.597c0.306-1.091,0.438-1.909,0.399-2.455
		c-0.038-0.546-0.27-0.978-0.691-1.294c-0.424-0.317-1.154-0.644-2.189-0.979l0.243-0.871c1.181,0.421,3.024,0.983,5.534,1.685
		c2.352,0.658,4.206,1.13,5.562,1.418l-0.243,0.871C201.806,71.528,201.013,71.428,200.485,71.479z"/>
	<path fill="#E6E7E8" d="M238.407,82.084c-0.527,0.051-0.947,0.3-1.264,0.747c-0.315,0.447-0.626,1.215-0.932,2.306l-6.039,21.597
		c-0.306,1.091-0.438,1.909-0.4,2.455c0.039,0.546,0.27,0.977,0.693,1.293c0.423,0.317,1.153,0.644,2.19,0.98l-0.244,0.871
		c-1.338-0.465-3.168-1.023-5.492-1.673c-2.494-0.697-4.362-1.174-5.604-1.43l0.244-0.871c1.061,0.25,1.85,0.349,2.368,0.295
		c0.52-0.053,0.937-0.303,1.253-0.749c0.315-0.447,0.626-1.215,0.932-2.307l6.515-23.297l-18.344,25.191l-0.701-0.196l-3.068-31.316
		l-6.426,22.979c-0.313,1.119-0.45,1.99-0.41,2.612c0.041,0.622,0.298,1.134,0.774,1.534c0.476,0.4,1.283,0.783,2.418,1.146
		l-0.243,0.871c-1.012-0.374-2.48-0.831-4.408-1.37c-1.729-0.483-3.086-0.817-4.073-1.002l0.244-0.871
		c1.018,0.239,1.806,0.303,2.364,0.191c0.558-0.111,1.008-0.425,1.351-0.94c0.344-0.515,0.671-1.333,0.984-2.452l5.914-21.15
		c0.306-1.092,0.439-1.909,0.4-2.455c-0.038-0.545-0.27-0.977-0.692-1.294c-0.423-0.316-1.153-0.644-2.19-0.979l0.244-0.871
		c0.926,0.35,2.26,0.77,4.002,1.257c1.531,0.429,2.783,0.732,3.757,0.913l2.503,27.927l16.379-22.509l2.062,0.576
		c2.324,0.65,4.178,1.123,5.562,1.418l-0.244,0.871C239.727,82.132,238.934,82.033,238.407,82.084z"/>
	<path fill="#E6E7E8" d="M260.972,120.274c-0.79,0.253-1.729,0.228-2.82-0.078c-1.19-0.333-2.07-0.954-2.642-1.861
		c-0.572-0.909-0.811-2.297-0.715-4.165l0.256-4.604c0.084-1.611,0.087-2.866,0.011-3.767c-0.077-0.9-0.355-1.681-0.835-2.342
		c-0.479-0.661-1.265-1.145-2.355-1.45l-4.146-1.159l-2.8,10.012c-0.306,1.091-0.439,1.909-0.4,2.456
		c0.038,0.545,0.27,0.977,0.692,1.293c0.423,0.317,1.153,0.644,2.19,0.979l-0.244,0.871c-1.308-0.457-3.139-1.015-5.491-1.673
		c-2.494-0.697-4.362-1.174-5.604-1.43l0.244-0.871c1.061,0.25,1.854,0.35,2.38,0.298c0.526-0.051,0.947-0.3,1.263-0.746
		c0.316-0.447,0.626-1.215,0.932-2.307l6.039-21.597c0.306-1.091,0.439-1.909,0.4-2.455c-0.038-0.545-0.27-0.977-0.692-1.293
		c-0.423-0.317-1.153-0.644-2.19-0.979l0.244-0.871c1.195,0.425,2.955,0.963,5.279,1.613c1.133,0.317,2.387,0.652,3.764,1.006
		c1.375,0.354,2.317,0.603,2.827,0.746c2.268,0.634,4.097,1.5,5.484,2.599c1.389,1.099,2.32,2.33,2.796,3.693
		c0.474,1.363,0.51,2.767,0.105,4.212c-0.317,1.134-0.904,2.204-1.758,3.21c-0.854,1.007-2.044,1.789-3.567,2.348
		c-1.524,0.56-3.35,0.71-5.478,0.451l0.507,0.233c1.244,0.577,2.196,1.191,2.854,1.841c0.658,0.65,1.113,1.415,1.363,2.295
		c0.251,0.881,0.344,1.983,0.279,3.31l-0.159,4.745c-0.065,0.945-0.073,1.695-0.022,2.252s0.173,0.992,0.369,1.306
		c0.193,0.314,0.49,0.527,0.887,0.638c0.481,0.135,0.914,0.122,1.295-0.04c0.38-0.16,0.897-0.478,1.55-0.952l0.522,0.673
		C262.632,119.501,261.761,120.021,260.972,120.274z M255.755,101.145c1.28-0.314,2.279-0.936,2.997-1.866
		c0.719-0.93,1.284-2.131,1.696-3.605c0.666-2.381,0.602-4.339-0.19-5.875c-0.794-1.536-2.465-2.66-5.016-3.374
		c-0.906-0.254-1.616-0.341-2.127-0.263c-0.511,0.079-0.925,0.356-1.241,0.833c-0.317,0.478-0.62,1.233-0.909,2.267l-2.996,10.713
		l2.934,0.82C252.858,101.343,254.477,101.459,255.755,101.145z"/>
</g>
<path fill="#386A9C" d="M249.632,194.136l-93.759,22.775c-1.973,0.479-3.961-0.732-4.44-2.705l-24.137-99.366
	c-0.479-1.973,0.732-3.961,2.705-4.44l93.759-22.775c1.973-0.479,3.961,0.732,4.44,2.705l24.137,99.366
	C252.816,191.669,251.605,193.657,249.632,194.136z"/>
<path fill="#B5CFE4" d="M241.668,199.333l-111.232,27.019c-2.052,0.499-4.12-0.761-4.619-2.813l-23.166-95.369
	c-0.499-2.052,0.761-4.12,2.813-4.619l111.232-27.019c2.052-0.499,4.12,0.761,4.619,2.813l23.166,95.369
	C244.98,196.766,243.721,198.834,241.668,199.333z"/>
<path fill="#386A9C" d="M228.058,174.509l-92.357,22.434c-2.052,0.499-4.12-0.761-4.619-2.813l-13.993-57.605
	c-0.499-2.052,0.761-4.12,2.813-4.619l92.357-22.434c2.052-0.499,4.12,0.761,4.619,2.813l13.993,57.605
	C231.37,171.942,230.111,174.01,228.058,174.509z"/>
<g>
	<path fill="#9B9C9F" d="M187.365,154.692c-0.645-7.1-4.686-13.624-6.438-18.944c-0.482-1.449-0.849-2.776-1.129-3.969
		c-0.155-0.664-0.285-1.285-0.39-1.859c-0.457-2.458-0.495-4.08-0.426-4.61c0.035-0.274-0.276-0.323-0.573-0.22
		c-0.341,0.515-3.213,4.849-3.378,5.018c-0.004,0.004-0.011,0.012-0.016,0.016c0.019,0.013,0.028,0.038,0.024,0.073
		c-0.001,0.03-0.008,0.066-0.026,0.105c-0.39,0.989-5.153,10.715-5.849,18.314c-0.697,7.598,0.235,10.693-0.565,16.005
		c-0.804,5.314-5.078,10.827-5.139,10.905c-0.974,1.25-5.069,5.237-7.801,6.255c0,0-0.046,0.847,0.73,1.722
		c0.77,0.879,3.148,1.318,3.148,1.318s7.439-7.791,7.777-8.294c0.057-0.082,0.093-0.14,0.105-0.165c0,0,1.6-0.525,3.89-1.584
		C177.378,171.971,188.332,165.379,187.365,154.692z"/>
	<path fill="#E6E7E8" d="M178.409,125.089c0,0-0.096,0.024-0.169,0.068c-3.297,1.932-17.074,10.243-22.141,17.133
		c-4.75,6.459-8.37,19.922,2.414,29.701c0.698,0.626,3.06,2.624,3.06,2.624s3.17-2.177,3.791-8.166
		c0.621-5.993-0.717-10.918,0.617-18.498c1.687-9.602,8.185-16.931,9.01-17.802c0.01-0.01,0.016-0.017,0.025-0.026
		c0.005-0.004,0.012-0.012,0.016-0.016C175.196,129.939,178.409,125.089,178.409,125.089z"/>
	<path fill="#E6E7E8" d="M189.336,138.884c-0.258-1.505-0.424-2.871-0.528-4.094c-0.303-3.581-0.037-7.398,0.142-8.037
		c0.091-0.316-0.363-0.391-0.718-0.247c-0.907,0.359-4.365,2.668-6.815,3.762c0.067,0.318,0.135,0.635,0.212,0.952
		c0.289,1.23,0.65,2.499,1.071,3.77c0.534,1.624,1.322,3.432,2.16,5.344c1.838,4.196,3.916,8.953,4.385,14.129
		c0.049,0.52,0.063,1.027,0.063,1.527c0.053,1.703-0.2,3.293-0.685,4.782c-1.96,6.516-7.717,11.138-12.844,14.09
		c-0.117,0.072-1.368,1.273,1.624-0.196c6.203-3.05,15.041-9.155,15.522-17.514C193.331,150.03,190.292,144.403,189.336,138.884z"/>
</g>
</svg>
