<?xml version="1.0" encoding="utf-8"?>
<!-- Generator: Adobe Illustrator 19.2.0, SVG Export Plug-In . SVG Version: 6.00 Build 0)  -->
<svg version="1.2" baseProfile="tiny" id="Layer_1" xmlns="http://www.w3.org/2000/svg" xmlns:xlink="http://www.w3.org/1999/xlink"
	 x="0px" y="0px" viewBox="0 0 390 283.636" xml:space="preserve">
<rect fill="#E5E5E5" width="390" height="283.636"/>
<path fill="#891729" d="M82.52,92.673c-7.031,2.717-7.797,8.458-8.852,10.777c-1.701,2.231-3.772,3.255-5.97,5.36
	s-4.21,5.603-4.21,5.603s3.576-1.805,9.122-3.42c1.387-0.404,10.627,1.734,18.668-3.04c3.127,5.895,0.558,12.478-2.862,18.539
	c10.025-6.353,6.439-19.793,6.868-21.045c2.531,2.442,2.835,14.924-3.133,19.756c-12.945,10.481-27.814,11.626-38.881,20.265
	c-13.083,10.212-12.193,35.152,6.536,36.584c-6.599-3.751-12.081-21.867-0.493-33.182c11.765-11.488,18.739-9.033,24.864-10.962
	c-5.857,2.069-12.393,2.731-17.518,8.662c-3.753,4.344-8.432,13.344,0.631,21.533c-2.824-7.539,2.245-17.956,9.399-21.744
	c-3.702,6.874-1.333,11.223,4.068,13.187c-5.574-5.136-0.343-7.22,12.064-22.726c4.762-5.951,8.515-13.695,8.703-23.404
	c0.241-12.505-10.039-20.05-15.632-21.201c0.25-10.041-8.152-18.546-8.152-18.546s1.276,1.9,1.902,6.346
	c-1.756-4.635-7.727-8.16-10.284-8.67C74.584,76.83,83.419,85.521,82.52,92.673z"/>
<path fill="#891729" d="M61.008,173.487c4.842,4.179,13.915,4.27,21.465,0.75c8.857-4.129,14.495-12.199,18.758-20.667
	c2.246-4.459,4.112-9.073,5.83-13.757c0.634-1.727,1.649-3.651,1.911-5.48c0.271-1.9-2.662-1.264-3.928-1.298
	c-1.09-0.029-3.094,0.109-3.569-1.208c-0.365-1.011,0.556-2.08,1.251-2.692c2.958-2.599,7.276-1.904,10.894-1.893
	c1.195,0.004,2.389,0.006,3.584,0.007c1.058,0.001,2.721-0.315,3.689,0.186c1.188,0.616,0.872,3.06,0.941,4.198
	c0.285,4.72,0.546,9.441,0.857,14.16c0.291,4.42,0.419,8.876,0.846,13.285c0.201,2.08,1.175,1.152,1.918,0.088
	c5.156-7.382,10.312-14.764,15.467-22.146c1.939-2.777,3.82-5.608,5.824-8.339c0.92-1.254,2.054-1.425,3.566-1.431
	c2.366-0.01,4.733,0,7.099,0c0.625,0,1.249,0,1.874,0c-3.09,10.126-5.886,20.342-8.755,30.532c-0.695,2.469-1.375,4.941-2.02,7.423
	c-0.293,1.126-1.649,4.092-0.203,4.829c0.821,0.418,5.115-0.109,3.744,2.158c-0.902,1.49-3.724,2.047-5.273,2.383
	c-2.075,0.451-4.716,1.013-6.822,0.702c-2.368-0.35-2.552-2.586-2.166-4.511c1.051-5.249,2.725-10.437,4.148-15.595
	c1.48-5.365,2.992-10.721,4.538-16.066c0.244-0.843,2.186-6.576,1.557-6.696c-0.801-0.153-2.406,3.01-2.823,3.602
	c-6.032,8.562-11.988,17.175-17.988,25.76c-2.456,3.515-4.876,7.069-7.389,10.543c-0.739,1.022-2.607,2.982-3.689,1.249
	c-0.734-1.176-0.533-3.459-0.645-4.734c-0.885-10.054-1.743-20.108-2.599-30.165c-0.082-0.963-0.171-1.926-0.247-2.889
	c-0.024-0.307,0.043-1.606-0.231-1.777c-0.8-0.499-2.049,4.492-2.231,5.064c-1.508,4.728-3.213,9.404-5.172,13.965
	c-3.981,9.268-9.161,18.847-17.602,24.79c-7.779,5.477-19.795,7.885-27.402,0.838c-1.633-1.512-2.933-3.365-3.822-5.399
	c-1.016-2.326-1.861-4.459-0.842-10.117C56.574,167.931,58.776,171.56,61.008,173.487z"/>
<g>
	<path fill="#891729" d="M161.044,176.594c-0.188-5.517-0.585-10.145-1.191-13.886c-0.608-3.74-1.217-6.791-1.824-9.152
		c-0.607-2.36-1.134-4.148-1.577-5.365c-0.445-1.215-0.608-2.08-0.491-2.595c0.116-0.514,0.619-0.782,1.508-0.807
		c0.888-0.023,2.36-0.035,4.418-0.035c0.701,0,1.32,0.129,1.858,0.386c0.537,0.258,0.993,0.701,1.368,1.333
		c0.373,0.631,0.688,1.484,0.946,2.56c0.257,1.076,0.432,2.432,0.526,4.067c0.14,2.011,0.245,3.997,0.315,5.961
		s0.116,3.8,0.141,5.506c0.022,1.707,0.022,3.215,0,4.523c-0.024,1.31-0.06,2.291-0.105,2.945l0.842,0.07
		c0.186-0.374,0.549-1.11,1.087-2.209c0.537-1.099,1.109-2.325,1.718-3.683c0.607-1.355,1.168-2.711,1.684-4.067
		c0.514-1.355,0.864-2.454,1.052-3.296c0.093-0.514,0.21-1.168,0.351-1.964c0.141-0.794,0.21-1.706,0.21-2.735
		c0-0.935-0.21-1.939-0.631-3.016c-0.421-1.075-0.631-2.08-0.631-3.016c0-0.794,0.304-1.554,0.911-2.279
		c0.607-0.725,1.566-1.087,2.876-1.087c1.636,0,2.746,0.491,3.331,1.473c0.584,0.982,0.877,2.292,0.877,3.928
		c0,0.655-0.141,1.508-0.421,2.56s-0.666,2.222-1.157,3.507c-0.491,1.286-1.041,2.619-1.648,3.997
		c-0.608,1.38-1.239,2.678-1.894,3.893c-0.936,1.777-2.093,3.799-3.472,6.066c-1.379,2.269-2.852,4.559-4.418,6.873
		c-1.567,2.314-3.18,4.546-4.839,6.697c-1.66,2.15-3.238,3.974-4.734,5.471c-0.468,0.467-1.063,1.062-1.788,1.788
		c-0.726,0.725-1.543,1.413-2.454,2.068c-0.912,0.654-1.906,1.228-2.981,1.719c-1.074,0.491-2.196,0.736-3.366,0.736
		c-1.636,0-2.84-0.362-3.611-1.087c-0.771-0.726-1.157-1.603-1.157-2.63c0-1.263,0.375-2.292,1.122-3.086
		c0.748-0.796,1.543-1.192,2.385-1.192c0.607,0,1.087,0.116,1.438,0.351c0.351,0.233,0.69,0.537,1.017,0.912
		c0.328,0.326,0.69,0.596,1.087,0.807c0.396,0.21,0.782,0.315,1.157,0.315c0.374,0,0.771-0.06,1.192-0.176
		c0.421-0.117,0.958-0.386,1.613-0.807c0.747-0.468,1.483-1.028,2.209-1.683c0.725-0.655,1.367-1.31,1.929-1.964
		c0.561-0.655,1.052-1.274,1.473-1.858c0.421-0.585,0.725-1.017,0.912-1.298c0.514-0.701,0.817-1.496,0.911-2.384
		C161.208,178.861,161.185,177.808,161.044,176.594z"/>
	<path fill="#891729" d="M209.435,144.403c0.514,0,0.701,0.28,0.561,0.842c-0.28,0.748-0.666,1.823-1.157,3.226
		c-0.49,1.403-0.993,2.853-1.508,4.349c-0.515,1.497-0.993,2.899-1.438,4.208c-0.444,1.31-0.736,2.244-0.876,2.805
		c-0.095,0.281-0.281,0.924-0.562,1.929c-0.28,1.006-0.585,2.069-0.912,3.191s-0.62,2.163-0.876,3.12
		c-0.258,0.959-0.386,1.578-0.386,1.859c0,0.561,0.28,0.841,0.842,0.841c0.28,0,0.596,0.176,0.946,0.526s0.444,0.771,0.28,1.263
		c-0.164,0.49-0.748,1.006-1.753,1.543c-1.006,0.538-2.725,0.97-5.154,1.297c-1.076,0.141-1.824-0.059-2.245-0.596
		c-0.42-0.537-0.631-1.087-0.631-1.648c0-0.233,0.035-0.514,0.105-0.842c0.07-0.326,0.198-0.817,0.386-1.473
		c0.187-0.654,0.456-1.519,0.807-2.595c0.351-1.075,0.829-2.478,1.438-4.208l-0.631-0.351c-0.702,1.076-1.508,2.279-2.42,3.612
		c-0.912,1.332-1.953,2.606-3.121,3.821c-1.169,1.217-2.454,2.233-3.857,3.051c-1.402,0.817-2.922,1.228-4.559,1.228
		c-0.468,0-0.981-0.152-1.542-0.456c-0.562-0.303-1.088-0.712-1.578-1.227c-0.491-0.515-0.901-1.099-1.228-1.754
		c-0.328-0.654-0.491-1.332-0.491-2.033c0-1.449,0.233-3.086,0.701-4.909c0.467-1.824,1.11-3.67,1.929-5.541
		c0.817-1.869,1.812-3.692,2.98-5.47c1.169-1.776,2.443-3.343,3.822-4.699c1.379-1.355,2.852-2.454,4.419-3.296
		c1.565-0.842,3.19-1.263,4.874-1.263c1.589,0,2.781,0.27,3.576,0.807c0.795,0.538,1.426,1.087,1.894,1.648l1.122-2.034
		c0.327-0.514,0.748-0.771,1.263-0.771H209.435z M186.221,167.617c0,0.795,0.141,1.345,0.421,1.647
		c0.28,0.305,0.701,0.456,1.263,0.456c0.467,0,1.18-0.491,2.139-1.473c0.958-0.981,1.939-2.139,2.945-3.472
		c1.005-1.332,1.952-2.676,2.841-4.032c0.888-1.355,1.495-2.385,1.823-3.086c0.421-0.935,0.795-1.986,1.122-3.156
		c0.326-1.168,0.491-2.36,0.491-3.576c0-0.795-0.34-1.519-1.018-2.174c-0.678-0.654-1.367-0.982-2.068-0.982
		c-1.73,0-3.483,1.59-5.26,4.77c-1.777,3.133-3.005,5.996-3.682,8.591C186.56,163.724,186.221,165.888,186.221,167.617z"/>
	<path fill="#891729" d="M208.031,174.7c-0.608,0-0.818-0.257-0.631-0.771l4.839-13.465c0.421-1.122,0.817-2.221,1.192-3.297
		c0.373-1.074,0.701-2.068,0.981-2.98c0.281-0.911,0.515-1.683,0.701-2.314c0.187-0.631,0.281-1.062,0.281-1.297
		c0-0.748-0.305-1.122-0.912-1.122c-0.141,0-0.27-0.246-0.386-0.736c-0.117-0.491-0.024-1.028,0.28-1.613
		c0.304-0.584,0.958-1.122,1.964-1.613c1.005-0.491,2.583-0.736,4.734-0.736c1.074,0,1.812,0.315,2.209,0.947
		c0.396,0.631,0.596,1.227,0.596,1.788c0,0.515-0.327,1.613-0.981,3.296c-0.655,1.684-1.45,3.624-2.385,5.821l0.631,0.49
		c0.515-0.747,1.251-1.823,2.21-3.226c0.957-1.402,2.092-2.771,3.401-4.103c1.308-1.333,2.746-2.501,4.312-3.507
		c1.566-1.005,3.214-1.508,4.944-1.508c0.748,0,1.403,0.152,1.964,0.456c0.562,0.305,1.028,0.69,1.402,1.157
		c0.374,0.468,0.654,0.981,0.842,1.543c0.187,0.561,0.28,1.076,0.28,1.543c0,0.374-0.069,0.865-0.21,1.473
		c-0.141,0.608-0.362,1.414-0.666,2.419c-0.305,1.006-0.726,2.257-1.263,3.752c-0.538,1.497-1.182,3.32-1.929,5.471
		c-0.842,2.385-1.427,4.067-1.753,5.05c-0.328,0.981-0.491,1.683-0.491,2.104c0,0.796,0.304,1.192,0.912,1.192
		c0.14,0,0.361,0.152,0.666,0.456c0.304,0.305,0.351,0.678,0.141,1.122c-0.211,0.444-0.842,0.924-1.894,1.438
		c-1.053,0.515-2.865,1.005-5.436,1.473c-1.076,0.187-1.812-0.035-2.209-0.666c-0.398-0.631-0.597-1.298-0.597-1.999
		c0-0.654,0.339-1.986,1.018-3.997c0.677-2.01,1.554-4.559,2.63-7.645c0.28-0.795,0.584-1.659,0.911-2.595
		c0.327-0.935,0.632-1.847,0.912-2.735c0.28-0.888,0.514-1.671,0.701-2.35c0.187-0.677,0.28-1.18,0.28-1.508
		c0-1.027-0.468-1.543-1.402-1.543c-0.421,0-1.017,0.315-1.788,0.947c-0.771,0.631-1.625,1.438-2.561,2.419
		c-0.936,0.982-1.87,2.081-2.805,3.297c-0.936,1.216-1.754,2.384-2.455,3.506c-0.795,1.217-1.508,2.35-2.139,3.401
		c-0.631,1.053-1.064,1.883-1.298,2.49l-2.734,7.854c-0.095,0.141-0.2,0.245-0.316,0.315c-0.117,0.07-0.362,0.105-0.736,0.105
		H208.031z"/>
	<path fill="#891729" d="M240.433,174.7c-0.655,0-0.866-0.304-0.632-0.912l4.559-13.255c0.374-1.074,0.747-2.162,1.122-3.261
		c0.374-1.098,0.725-2.104,1.052-3.016s0.585-1.694,0.771-2.35c0.187-0.654,0.281-1.122,0.281-1.402
		c0-0.233-0.048-0.456-0.141-0.666c-0.094-0.211-0.327-0.316-0.701-0.316c-0.421,0-0.807-0.245-1.157-0.736
		c-0.351-0.49-0.433-1.039-0.245-1.647c0.186-0.607,0.782-1.157,1.788-1.648c1.005-0.491,2.63-0.736,4.874-0.736
		c1.496,0,2.524,0.245,3.086,0.736c0.561,0.491,0.842,1.157,0.842,1.999c0,0.515-0.2,1.332-0.597,2.454
		c-0.397,1.122-0.854,2.292-1.367,3.507c-0.516,1.217-1.006,2.35-1.473,3.401c-0.468,1.052-0.771,1.766-0.912,2.139l0.701,0.491
		c0.701-1.215,1.566-2.665,2.595-4.348c1.028-1.684,2.175-3.297,3.437-4.84c1.263-1.542,2.642-2.851,4.138-3.927
		c1.496-1.075,3.086-1.613,4.77-1.613c1.168,0,2.197,0.362,3.086,1.087c0.888,0.726,1.332,1.508,1.332,2.35
		c0,0.515-0.152,1.286-0.456,2.314c-0.305,1.029-0.643,2.104-1.017,3.226c-0.375,1.122-0.771,2.187-1.192,3.191
		c-0.421,1.006-0.726,1.788-0.911,2.35l0.631,0.49c0.935-1.402,1.951-2.98,3.051-4.733c1.098-1.753,2.29-3.39,3.576-4.909
		c1.286-1.519,2.665-2.793,4.139-3.822c1.473-1.028,3.073-1.543,4.804-1.543c0.747,0,1.391,0.141,1.929,0.421
		c0.537,0.28,0.981,0.631,1.332,1.052s0.607,0.854,0.771,1.298c0.163,0.444,0.246,0.83,0.246,1.157c0,0.561-0.105,1.31-0.316,2.244
		c-0.21,0.936-0.49,1.964-0.841,3.086s-0.749,2.314-1.192,3.576c-0.445,1.263-0.877,2.525-1.298,3.787
		c-0.701,2.011-1.321,3.729-1.858,5.155c-0.538,1.427-0.807,2.396-0.807,2.91c0.094,0.655,0.374,0.981,0.842,0.981
		c0.421,0,0.689,0.246,0.807,0.736c0.116,0.491-0.035,1.029-0.456,1.613c-0.421,0.585-1.146,1.146-2.174,1.684
		c-1.029,0.536-2.479,0.853-4.349,0.946c-1.169,0.094-1.987-0.164-2.454-0.771c-0.468-0.606-0.726-1.192-0.771-1.753
		c-0.047-1.263,1.215-5.283,3.787-12.062c0.561-1.449,1.017-2.665,1.367-3.647c0.351-0.981,0.632-1.823,0.842-2.524
		s0.361-1.263,0.456-1.684c0.093-0.42,0.14-0.794,0.14-1.122c0-0.888-0.42-1.332-1.262-1.332c-0.281,0-0.771,0.34-1.473,1.017
		c-0.702,0.679-1.532,1.603-2.49,2.771c-0.959,1.169-1.999,2.514-3.121,4.032c-1.122,1.521-2.244,3.121-3.366,4.805
		c-0.234,0.374-0.585,0.993-1.052,1.858c-0.468,0.865-0.911,1.905-1.332,3.12l-2.175,6.172c-0.094,0.28-0.421,0.421-0.981,0.421
		h-5.961c-0.655,0-0.889-0.304-0.701-0.912l4.207-11.642c0.888-2.431,1.648-4.604,2.279-6.522c0.632-1.916,0.947-3.155,0.947-3.717
		c0-0.373-0.07-0.701-0.211-0.981c-0.14-0.28-0.468-0.421-0.981-0.421c-0.28,0-0.783,0.327-1.508,0.981
		c-0.726,0.655-1.543,1.521-2.454,2.595c-0.912,1.076-1.906,2.314-2.981,3.718c-1.076,1.402-2.104,2.875-3.085,4.418
		c-0.469,0.655-0.947,1.473-1.438,2.454c-0.49,0.982-0.993,2.104-1.508,3.367l-2.314,6.171c-0.094,0.328-0.42,0.491-0.981,0.491
		H240.433z"/>
	<path fill="#891729" d="M321.925,144.403c0.514,0,0.701,0.28,0.561,0.842c-0.28,0.748-0.666,1.823-1.157,3.226
		c-0.49,1.403-0.993,2.853-1.508,4.349c-0.515,1.497-0.993,2.899-1.438,4.208c-0.444,1.31-0.736,2.244-0.876,2.805
		c-0.095,0.281-0.281,0.924-0.562,1.929c-0.28,1.006-0.585,2.069-0.912,3.191s-0.62,2.163-0.876,3.12
		c-0.258,0.959-0.386,1.578-0.386,1.859c0,0.561,0.28,0.841,0.842,0.841c0.28,0,0.596,0.176,0.946,0.526s0.444,0.771,0.28,1.263
		c-0.164,0.49-0.748,1.006-1.753,1.543c-1.006,0.538-2.725,0.97-5.154,1.297c-1.076,0.141-1.824-0.059-2.245-0.596
		c-0.42-0.537-0.631-1.087-0.631-1.648c0-0.233,0.035-0.514,0.105-0.842c0.07-0.326,0.198-0.817,0.386-1.473
		c0.187-0.654,0.456-1.519,0.807-2.595c0.351-1.075,0.829-2.478,1.438-4.208l-0.631-0.351c-0.702,1.076-1.508,2.279-2.42,3.612
		c-0.912,1.332-1.953,2.606-3.121,3.821c-1.169,1.217-2.454,2.233-3.857,3.051c-1.402,0.817-2.922,1.228-4.559,1.228
		c-0.468,0-0.981-0.152-1.542-0.456c-0.562-0.303-1.088-0.712-1.578-1.227c-0.491-0.515-0.901-1.099-1.228-1.754
		c-0.328-0.654-0.491-1.332-0.491-2.033c0-1.449,0.233-3.086,0.701-4.909c0.467-1.824,1.11-3.67,1.929-5.541
		c0.817-1.869,1.812-3.692,2.98-5.47c1.169-1.776,2.443-3.343,3.822-4.699c1.379-1.355,2.852-2.454,4.419-3.296
		c1.565-0.842,3.19-1.263,4.874-1.263c1.589,0,2.781,0.27,3.576,0.807c0.795,0.538,1.426,1.087,1.894,1.648l1.122-2.034
		c0.327-0.514,0.748-0.771,1.263-0.771H321.925z M298.711,167.617c0,0.795,0.141,1.345,0.421,1.647
		c0.28,0.305,0.701,0.456,1.263,0.456c0.467,0,1.18-0.491,2.139-1.473c0.958-0.981,1.939-2.139,2.945-3.472
		c1.005-1.332,1.952-2.676,2.841-4.032c0.888-1.355,1.495-2.385,1.823-3.086c0.421-0.935,0.795-1.986,1.122-3.156
		c0.326-1.168,0.491-2.36,0.491-3.576c0-0.795-0.34-1.519-1.018-2.174c-0.678-0.654-1.367-0.982-2.068-0.982
		c-1.73,0-3.483,1.59-5.26,4.77c-1.777,3.133-3.005,5.996-3.682,8.591C299.05,163.724,298.711,165.888,298.711,167.617z"/>
	<path fill="#891729" d="M322.625,174.7c-0.608,0-0.819-0.21-0.632-0.631l3.366-11.361c0.281-0.982,0.619-2.104,1.018-3.366
		c0.396-1.263,0.771-2.49,1.122-3.683s0.642-2.267,0.876-3.226c0.233-0.958,0.351-1.602,0.351-1.929
		c0-0.374-0.104-0.689-0.315-0.947c-0.21-0.256-0.503-0.386-0.876-0.386c-0.095,0-0.328-0.069-0.702-0.21s-0.525-0.374-0.455-0.701
		c0.069-0.327,0.525-0.782,1.367-1.368c0.842-0.584,2.455-1.297,4.839-2.139c0.654-0.233,1.216-0.28,1.684-0.141
		c0.467,0.141,0.842,0.375,1.122,0.702s0.491,0.701,0.631,1.122c0.141,0.421,0.211,0.795,0.211,1.122
		c0,0.655-0.293,1.788-0.877,3.401c-0.585,1.612-1.298,3.565-2.139,5.855l0.771,0.421c0.42-0.981,1.005-2.174,1.753-3.576
		c0.747-1.403,1.589-2.771,2.524-4.104c0.935-1.332,1.987-2.465,3.156-3.401c1.168-0.935,2.385-1.402,3.646-1.402
		c1.028,0,1.952,0.351,2.771,1.052c0.817,0.701,1.228,1.613,1.228,2.735c0,0.608-0.105,1.192-0.315,1.753
		c-0.211,0.562-0.48,1.053-0.807,1.474c-0.328,0.42-0.667,0.748-1.018,0.981c-0.351,0.234-0.69,0.351-1.017,0.351
		c-0.981,0-1.753-0.187-2.314-0.561c-0.28-0.187-0.561-0.374-0.842-0.562c-0.28-0.187-0.655-0.28-1.122-0.28
		c-0.561,0-1.191,0.305-1.894,0.911c-0.701,0.608-1.402,1.368-2.104,2.279c-0.701,0.912-1.367,1.906-1.999,2.98
		c-0.631,1.076-1.134,2.059-1.508,2.946c-0.375,0.841-0.748,1.777-1.122,2.805c-0.375,1.029-0.771,2.198-1.192,3.507l-2.244,7.083
		c-0.14,0.328-0.444,0.491-0.911,0.491H322.625z"/>
</g>
<g>
	<path fill="#891729" d="M179.187,129.762c0.494,0.603,0.741,1.431,0.741,2.483v7.091h-1.135v-7.091
		c0-0.813-0.131-1.438-0.394-1.873c-0.263-0.435-0.756-0.652-1.481-0.652c-1.08,0-2.33,0.631-3.75,1.894
		c0.016,0.141,0.023,0.351,0.023,0.631v7.091h-1.134v-7.091c0-0.813-0.132-1.438-0.394-1.873c-0.263-0.435-0.757-0.652-1.481-0.652
		c-0.587,0-1.215,0.186-1.887,0.558c-0.671,0.372-1.354,0.873-2.048,1.504v7.554h-1.135V129.13h0.88l0.231,1.599
		c0.478-0.505,1.096-0.943,1.852-1.315s1.427-0.558,2.014-0.558c1.513,0,2.477,0.617,2.894,1.852
		c0.478-0.505,1.092-0.939,1.84-1.305c0.748-0.365,1.416-0.547,2.002-0.547C177.905,128.857,178.692,129.159,179.187,129.762z"/>
	<path fill="#891729" d="M185.205,141.398l0.718-2.062l-4.236-9.953l1.064-0.379l3.704,9.154l3.564-9.027h1.157l-5.069,12.562
		c-0.231,0.575-0.617,1.059-1.157,1.452s-1.181,0.659-1.921,0.8l-0.116-0.8c0.617-0.183,1.107-0.407,1.47-0.673
		S185.02,141.846,185.205,141.398z"/>
	<path fill="#891729" d="M192.379,138.81l0.417-0.863c0.556,0.252,1.068,0.449,1.539,0.589c0.471,0.141,0.969,0.21,1.493,0.21
		c0.926,0,1.651-0.171,2.176-0.515s0.787-0.811,0.787-1.399c0-0.842-0.987-1.613-2.963-2.315c-2.176-0.771-3.264-1.718-3.264-2.841
		c0-0.827,0.339-1.504,1.019-2.03c0.679-0.526,1.628-0.789,2.847-0.789c0.494,0,1.054,0.081,1.679,0.242
		c0.625,0.162,1.122,0.361,1.493,0.6l-0.463,0.736c-0.541-0.238-1.004-0.417-1.39-0.537s-0.879-0.179-1.481-0.179
		c-0.771,0-1.4,0.186-1.886,0.558c-0.486,0.372-0.729,0.81-0.729,1.315c0,0.435,0.247,0.821,0.741,1.157
		c0.493,0.337,1.188,0.667,2.083,0.989c1.049,0.378,1.878,0.81,2.488,1.294c0.609,0.484,0.914,1.056,0.914,1.715
		c0,1.908-1.365,2.862-4.097,2.862c-0.525,0-1.123-0.074-1.794-0.221C193.316,139.241,192.78,139.048,192.379,138.81z"/>
	<path fill="#891729" d="M204.068,129.446h2.037l0.486,0.779h-2.523v6.523c0,0.562,0.131,1.035,0.394,1.42
		c0.262,0.386,0.655,0.579,1.181,0.579c0.309,0,0.625-0.063,0.949-0.189l0.277,0.8c-0.046,0-0.255,0.049-0.625,0.147
		c-0.309,0.07-0.609,0.105-0.902,0.105c-0.741,0-1.328-0.235-1.76-0.705c-0.432-0.47-0.647-1.14-0.647-2.01v-6.67h-1.667v-0.779
		h1.667v-2.756l1.134-0.463V129.446z"/>
	<path fill="#891729" d="M217.748,134.243h-8.078c0.015,1.319,0.351,2.399,1.007,3.241c0.655,0.841,1.64,1.262,2.951,1.262
		c0.74,0,1.357-0.063,1.852-0.189c0.494-0.126,0.979-0.301,1.458-0.526l0.463,0.779c-0.432,0.238-1.007,0.431-1.724,0.579
		c-0.718,0.147-1.339,0.221-1.863,0.221c-1.775,0-3.106-0.491-3.993-1.473c-0.888-0.982-1.331-2.301-1.331-3.956
		c0-1.599,0.42-2.886,1.262-3.861c0.841-0.975,2.056-1.462,3.646-1.462c0.849,0,1.604,0.231,2.269,0.694
		c0.663,0.463,1.176,1.104,1.539,1.925C217.566,132.297,217.748,133.22,217.748,134.243z M209.716,133.465h6.828
		c-0.123-1.108-0.447-2.01-0.972-2.704s-1.305-1.042-2.338-1.042c-1.05,0-1.871,0.354-2.465,1.062
		C210.175,131.491,209.824,132.385,209.716,133.465z"/>
	<path fill="#891729" d="M221.429,131.824v7.512h-1.135V129.13h0.648l0.416,1.62c0.524-0.393,1.139-0.761,1.841-1.104
		s1.315-0.516,1.84-0.516l0.394,0.8c-0.664,0-1.377,0.196-2.141,0.589C222.527,130.912,221.906,131.347,221.429,131.824z"/>
	<path fill="#891729" d="M227.84,126.71c-0.263,0-0.475-0.077-0.637-0.231c-0.162-0.154-0.243-0.344-0.243-0.568
		c0-0.225,0.081-0.414,0.243-0.568s0.374-0.231,0.637-0.231c0.247,0,0.459,0.077,0.637,0.231c0.177,0.154,0.266,0.344,0.266,0.568
		c0,0.224-0.085,0.414-0.254,0.568C228.318,126.634,228.103,126.71,227.84,126.71z M228.419,129.13v10.206h-1.135V129.13H228.419z"
		/>
	<path fill="#891729" d="M240.604,137.011c-0.409,0.807-1.007,1.441-1.794,1.904s-1.713,0.694-2.777,0.694
		c-1.62-0.014-2.87-0.516-3.75-1.504c-0.88-0.989-1.319-2.297-1.319-3.924c0-1.01,0.204-1.918,0.613-2.725s1.007-1.441,1.794-1.904
		s1.721-0.694,2.801-0.694c1.62,0.014,2.866,0.516,3.738,1.504c0.871,0.989,1.308,2.297,1.308,3.924
		C241.218,135.296,241.014,136.204,240.604,137.011z M238.151,138.147c0.609-0.4,1.076-0.939,1.4-1.62
		c0.323-0.68,0.485-1.42,0.485-2.22c0-0.855-0.15-1.631-0.451-2.325s-0.744-1.245-1.331-1.652c-0.586-0.407-1.288-0.61-2.106-0.61
		c-0.802,0-1.508,0.2-2.117,0.6c-0.61,0.4-1.077,0.94-1.4,1.62c-0.324,0.681-0.486,1.42-0.486,2.22c0,0.855,0.15,1.631,0.451,2.325
		s0.744,1.245,1.331,1.652c0.586,0.407,1.288,0.61,2.106,0.61C236.835,138.746,237.541,138.547,238.151,138.147z"/>
	<path fill="#891729" d="M250.963,136.684v-7.554h1.134v10.206h-0.88l-0.231-1.599c-0.494,0.519-1.11,0.961-1.852,1.326
		c-0.74,0.365-1.45,0.547-2.13,0.547c-1.142,0-1.982-0.305-2.522-0.915c-0.54-0.61-0.811-1.435-0.811-2.473v-7.091h1.135v7.091
		c0,0.786,0.154,1.403,0.463,1.852c0.309,0.449,0.856,0.673,1.644,0.673C248.131,138.746,249.481,138.059,250.963,136.684z"/>
	<path fill="#891729" d="M254.688,138.81l0.417-0.863c0.556,0.252,1.068,0.449,1.539,0.589c0.471,0.141,0.969,0.21,1.493,0.21
		c0.926,0,1.651-0.171,2.176-0.515s0.787-0.811,0.787-1.399c0-0.842-0.987-1.613-2.963-2.315c-2.176-0.771-3.264-1.718-3.264-2.841
		c0-0.827,0.339-1.504,1.019-2.03c0.679-0.526,1.628-0.789,2.847-0.789c0.494,0,1.054,0.081,1.679,0.242
		c0.625,0.162,1.122,0.361,1.493,0.6l-0.463,0.736c-0.541-0.238-1.004-0.417-1.39-0.537s-0.879-0.179-1.481-0.179
		c-0.771,0-1.4,0.186-1.886,0.558c-0.486,0.372-0.729,0.81-0.729,1.315c0,0.435,0.247,0.821,0.741,1.157
		c0.493,0.337,1.188,0.667,2.083,0.989c1.049,0.378,1.878,0.81,2.488,1.294c0.609,0.484,0.914,1.056,0.914,1.715
		c0,1.908-1.365,2.862-4.097,2.862c-0.525,0-1.123-0.074-1.794-0.221C255.626,139.241,255.09,139.048,254.688,138.81z"/>
</g>
</svg>
