<?xml version="1.0" encoding="utf-8"?>
<!-- Generator: Adobe Illustrator 19.2.0, SVG Export Plug-In . SVG Version: 6.00 Build 0)  -->
<svg version="1.2" baseProfile="tiny" id="Layer_1" xmlns="http://www.w3.org/2000/svg" xmlns:xlink="http://www.w3.org/1999/xlink"
	 x="0px" y="0px" viewBox="0 0 390 283.64" xml:space="preserve">
<rect fill="#E5E5E5" width="390" height="283.64"/>
<path fill="#891729" d="M82.52,92.67c-7.03,2.72-7.8,8.46-8.85,10.78c-1.7,2.23-3.77,3.25-5.97,5.36s-4.21,5.6-4.21,5.6
	s3.58-1.81,9.12-3.42c1.39-0.4,10.63,1.73,18.67-3.04c3.13,5.9,0.56,12.48-2.86,18.54c10.02-6.35,6.44-19.79,6.87-21.05
	c2.53,2.44,2.84,14.92-3.13,19.76c-12.94,10.48-27.81,11.63-38.88,20.26c-13.08,10.21-12.19,35.15,6.54,36.58
	c-6.6-3.75-12.08-21.87-0.49-33.18c11.76-11.49,18.74-9.03,24.86-10.96c-5.86,2.07-12.39,2.73-17.52,8.66
	c-3.75,4.34-8.43,13.34,0.63,21.53c-2.82-7.54,2.24-17.96,9.4-21.74c-3.7,6.87-1.33,11.22,4.07,13.19
	c-5.57-5.14-0.34-7.22,12.06-22.73c4.76-5.95,8.52-13.69,8.7-23.4c0.24-12.5-10.04-20.05-15.63-21.2
	c0.25-10.04-8.15-18.55-8.15-18.55s1.28,1.9,1.9,6.35c-1.76-4.64-7.73-8.16-10.28-8.67C74.58,76.83,83.42,85.52,82.52,92.67z"/>
<path fill="#891729" d="M61.01,173.49c4.84,4.18,13.91,4.27,21.46,0.75c8.86-4.13,14.49-12.2,18.76-20.67
	c2.25-4.46,4.11-9.07,5.83-13.76c0.63-1.73,1.65-3.65,1.91-5.48c0.27-1.9-2.66-1.26-3.93-1.3c-1.09-0.03-3.09,0.11-3.57-1.21
	c-0.37-1.01,0.56-2.08,1.25-2.69c2.96-2.6,7.28-1.9,10.89-1.89c1.19,0,2.39,0.01,3.58,0.01c1.06,0,2.72-0.32,3.69,0.19
	c1.19,0.62,0.87,3.06,0.94,4.2c0.29,4.72,0.55,9.44,0.86,14.16c0.29,4.42,0.42,8.88,0.85,13.29c0.2,2.08,1.17,1.15,1.92,0.09
	c5.16-7.38,10.31-14.76,15.47-22.15c1.94-2.78,3.82-5.61,5.82-8.34c0.92-1.25,2.05-1.42,3.57-1.43c2.37-0.01,4.73,0,7.1,0
	c0.62,0,1.25,0,1.87,0c-3.09,10.13-5.89,20.34-8.75,30.53c-0.69,2.47-1.38,4.94-2.02,7.42c-0.29,1.13-1.65,4.09-0.2,4.83
	c0.82,0.42,5.12-0.11,3.74,2.16c-0.9,1.49-3.72,2.05-5.27,2.38c-2.08,0.45-4.72,1.01-6.82,0.7c-2.37-0.35-2.55-2.59-2.17-4.51
	c1.05-5.25,2.73-10.44,4.15-15.6c1.48-5.36,2.99-10.72,4.54-16.07c0.24-0.84,2.19-6.58,1.56-6.7c-0.8-0.15-2.41,3.01-2.82,3.6
	c-6.03,8.56-11.99,17.18-17.99,25.76c-2.46,3.51-4.88,7.07-7.39,10.54c-0.74,1.02-2.61,2.98-3.69,1.25
	c-0.73-1.18-0.53-3.46-0.65-4.73c-0.88-10.05-1.74-20.11-2.6-30.16c-0.08-0.96-0.17-1.93-0.25-2.89c-0.02-0.31,0.04-1.61-0.23-1.78
	c-0.8-0.5-2.05,4.49-2.23,5.06c-1.51,4.73-3.21,9.4-5.17,13.96c-3.98,9.27-9.16,18.85-17.6,24.79c-7.78,5.48-19.79,7.89-27.4,0.84
	c-1.63-1.51-2.93-3.36-3.82-5.4c-1.02-2.33-1.86-4.46-0.84-10.12C56.57,167.93,58.78,171.56,61.01,173.49z"/>
<g>
	<path fill="#891729" d="M161.04,176.59c-0.19-5.52-0.58-10.14-1.19-13.89c-0.61-3.74-1.22-6.79-1.82-9.15
		c-0.61-2.36-1.13-4.15-1.58-5.37c-0.45-1.21-0.61-2.08-0.49-2.59c0.12-0.51,0.62-0.78,1.51-0.81c0.89-0.02,2.36-0.04,4.42-0.04
		c0.7,0,1.32,0.13,1.86,0.39c0.54,0.26,0.99,0.7,1.37,1.33c0.37,0.63,0.69,1.48,0.95,2.56c0.26,1.08,0.43,2.43,0.53,4.07
		c0.14,2.01,0.25,4,0.32,5.96s0.12,3.8,0.14,5.51c0.02,1.71,0.02,3.21,0,4.52c-0.02,1.31-0.06,2.29-0.11,2.95l0.84,0.07
		c0.19-0.37,0.55-1.11,1.09-2.21c0.54-1.1,1.11-2.33,1.72-3.68c0.61-1.36,1.17-2.71,1.68-4.07c0.51-1.36,0.86-2.45,1.05-3.3
		c0.09-0.51,0.21-1.17,0.35-1.96c0.14-0.79,0.21-1.71,0.21-2.74c0-0.93-0.21-1.94-0.63-3.02c-0.42-1.08-0.63-2.08-0.63-3.02
		c0-0.79,0.3-1.55,0.91-2.28c0.61-0.72,1.57-1.09,2.88-1.09c1.64,0,2.75,0.49,3.33,1.47c0.58,0.98,0.88,2.29,0.88,3.93
		c0,0.66-0.14,1.51-0.42,2.56s-0.67,2.22-1.16,3.51c-0.49,1.29-1.04,2.62-1.65,4c-0.61,1.38-1.24,2.68-1.89,3.89
		c-0.94,1.78-2.09,3.8-3.47,6.07c-1.38,2.27-2.85,4.56-4.42,6.87c-1.57,2.31-3.18,4.55-4.84,6.7c-1.66,2.15-3.24,3.97-4.73,5.47
		c-0.47,0.47-1.06,1.06-1.79,1.79c-0.73,0.72-1.54,1.41-2.45,2.07c-0.91,0.65-1.91,1.23-2.98,1.72c-1.07,0.49-2.2,0.74-3.37,0.74
		c-1.64,0-2.84-0.36-3.61-1.09c-0.77-0.73-1.16-1.6-1.16-2.63c0-1.26,0.38-2.29,1.12-3.09c0.75-0.8,1.54-1.19,2.38-1.19
		c0.61,0,1.09,0.12,1.44,0.35c0.35,0.23,0.69,0.54,1.02,0.91c0.33,0.33,0.69,0.6,1.09,0.81c0.4,0.21,0.78,0.32,1.16,0.32
		c0.37,0,0.77-0.06,1.19-0.18c0.42-0.12,0.96-0.39,1.61-0.81c0.75-0.47,1.48-1.03,2.21-1.68c0.72-0.66,1.37-1.31,1.93-1.96
		c0.56-0.66,1.05-1.27,1.47-1.86c0.42-0.58,0.72-1.02,0.91-1.3c0.51-0.7,0.82-1.5,0.91-2.38
		C161.21,178.86,161.18,177.81,161.04,176.59z"/>
	<path fill="#891729" d="M209.43,144.4c0.51,0,0.7,0.28,0.56,0.84c-0.28,0.75-0.67,1.82-1.16,3.23c-0.49,1.4-0.99,2.85-1.51,4.35
		c-0.51,1.5-0.99,2.9-1.44,4.21c-0.44,1.31-0.74,2.24-0.88,2.8c-0.09,0.28-0.28,0.92-0.56,1.93c-0.28,1.01-0.58,2.07-0.91,3.19
		s-0.62,2.16-0.88,3.12c-0.26,0.96-0.39,1.58-0.39,1.86c0,0.56,0.28,0.84,0.84,0.84c0.28,0,0.6,0.18,0.95,0.53s0.44,0.77,0.28,1.26
		c-0.16,0.49-0.75,1.01-1.75,1.54c-1.01,0.54-2.72,0.97-5.15,1.3c-1.08,0.14-1.82-0.06-2.25-0.6c-0.42-0.54-0.63-1.09-0.63-1.65
		c0-0.23,0.04-0.51,0.11-0.84c0.07-0.33,0.2-0.82,0.39-1.47c0.19-0.65,0.46-1.52,0.81-2.59c0.35-1.08,0.83-2.48,1.44-4.21
		l-0.63-0.35c-0.7,1.08-1.51,2.28-2.42,3.61c-0.91,1.33-1.95,2.61-3.12,3.82c-1.17,1.22-2.45,2.23-3.86,3.05
		c-1.4,0.82-2.92,1.23-4.56,1.23c-0.47,0-0.98-0.15-1.54-0.46c-0.56-0.3-1.09-0.71-1.58-1.23c-0.49-0.51-0.9-1.1-1.23-1.75
		c-0.33-0.65-0.49-1.33-0.49-2.03c0-1.45,0.23-3.09,0.7-4.91c0.47-1.82,1.11-3.67,1.93-5.54c0.82-1.87,1.81-3.69,2.98-5.47
		c1.17-1.78,2.44-3.34,3.82-4.7c1.38-1.36,2.85-2.45,4.42-3.3c1.57-0.84,3.19-1.26,4.87-1.26c1.59,0,2.78,0.27,3.58,0.81
		c0.79,0.54,1.43,1.09,1.89,1.65l1.12-2.03c0.33-0.51,0.75-0.77,1.26-0.77H209.43z M186.22,167.62c0,0.79,0.14,1.34,0.42,1.65
		c0.28,0.3,0.7,0.46,1.26,0.46c0.47,0,1.18-0.49,2.14-1.47c0.96-0.98,1.94-2.14,2.95-3.47c1-1.33,1.95-2.68,2.84-4.03
		c0.89-1.36,1.5-2.38,1.82-3.09c0.42-0.93,0.79-1.99,1.12-3.16c0.33-1.17,0.49-2.36,0.49-3.58c0-0.79-0.34-1.52-1.02-2.17
		c-0.68-0.65-1.37-0.98-2.07-0.98c-1.73,0-3.48,1.59-5.26,4.77c-1.78,3.13-3,6-3.68,8.59C186.56,163.72,186.22,165.89,186.22,167.62
		z"/>
	<path fill="#891729" d="M208.03,174.7c-0.61,0-0.82-0.26-0.63-0.77l4.84-13.46c0.42-1.12,0.82-2.22,1.19-3.3
		c0.37-1.07,0.7-2.07,0.98-2.98c0.28-0.91,0.51-1.68,0.7-2.31c0.19-0.63,0.28-1.06,0.28-1.3c0-0.75-0.3-1.12-0.91-1.12
		c-0.14,0-0.27-0.25-0.39-0.74c-0.12-0.49-0.02-1.03,0.28-1.61c0.3-0.58,0.96-1.12,1.96-1.61c1-0.49,2.58-0.74,4.73-0.74
		c1.07,0,1.81,0.32,2.21,0.95c0.4,0.63,0.6,1.23,0.6,1.79c0,0.51-0.33,1.61-0.98,3.3c-0.66,1.68-1.45,3.62-2.38,5.82l0.63,0.49
		c0.51-0.75,1.25-1.82,2.21-3.23c0.96-1.4,2.09-2.77,3.4-4.1c1.31-1.33,2.75-2.5,4.31-3.51c1.57-1,3.21-1.51,4.94-1.51
		c0.75,0,1.4,0.15,1.96,0.46c0.56,0.3,1.03,0.69,1.4,1.16c0.37,0.47,0.65,0.98,0.84,1.54c0.19,0.56,0.28,1.08,0.28,1.54
		c0,0.37-0.07,0.87-0.21,1.47c-0.14,0.61-0.36,1.41-0.67,2.42c-0.3,1.01-0.73,2.26-1.26,3.75c-0.54,1.5-1.18,3.32-1.93,5.47
		c-0.84,2.38-1.43,4.07-1.75,5.05c-0.33,0.98-0.49,1.68-0.49,2.1c0,0.8,0.3,1.19,0.91,1.19c0.14,0,0.36,0.15,0.67,0.46
		c0.3,0.3,0.35,0.68,0.14,1.12c-0.21,0.44-0.84,0.92-1.89,1.44c-1.05,0.51-2.87,1-5.44,1.47c-1.08,0.19-1.81-0.04-2.21-0.67
		c-0.4-0.63-0.6-1.3-0.6-2c0-0.65,0.34-1.99,1.02-4c0.68-2.01,1.55-4.56,2.63-7.64c0.28-0.79,0.58-1.66,0.91-2.59
		c0.33-0.93,0.63-1.85,0.91-2.74c0.28-0.89,0.51-1.67,0.7-2.35c0.19-0.68,0.28-1.18,0.28-1.51c0-1.03-0.47-1.54-1.4-1.54
		c-0.42,0-1.02,0.32-1.79,0.95c-0.77,0.63-1.62,1.44-2.56,2.42c-0.94,0.98-1.87,2.08-2.8,3.3c-0.94,1.22-1.75,2.38-2.46,3.51
		c-0.79,1.22-1.51,2.35-2.14,3.4c-0.63,1.05-1.06,1.88-1.3,2.49l-2.73,7.85c-0.09,0.14-0.2,0.25-0.32,0.32
		c-0.12,0.07-0.36,0.11-0.74,0.11H208.03z"/>
	<path fill="#891729" d="M240.43,174.7c-0.66,0-0.87-0.3-0.63-0.91l4.56-13.25c0.37-1.07,0.75-2.16,1.12-3.26
		c0.37-1.1,0.72-2.1,1.05-3.02s0.58-1.69,0.77-2.35c0.19-0.65,0.28-1.12,0.28-1.4c0-0.23-0.05-0.46-0.14-0.67
		c-0.09-0.21-0.33-0.32-0.7-0.32c-0.42,0-0.81-0.25-1.16-0.74c-0.35-0.49-0.43-1.04-0.25-1.65c0.19-0.61,0.78-1.16,1.79-1.65
		c1-0.49,2.63-0.74,4.87-0.74c1.5,0,2.52,0.25,3.09,0.74c0.56,0.49,0.84,1.16,0.84,2c0,0.51-0.2,1.33-0.6,2.45
		c-0.4,1.12-0.85,2.29-1.37,3.51c-0.52,1.22-1.01,2.35-1.47,3.4c-0.47,1.05-0.77,1.77-0.91,2.14l0.7,0.49
		c0.7-1.21,1.57-2.67,2.59-4.35c1.03-1.68,2.17-3.3,3.44-4.84c1.26-1.54,2.64-2.85,4.14-3.93c1.5-1.08,3.09-1.61,4.77-1.61
		c1.17,0,2.2,0.36,3.09,1.09c0.89,0.73,1.33,1.51,1.33,2.35c0,0.51-0.15,1.29-0.46,2.31c-0.3,1.03-0.64,2.1-1.02,3.23
		c-0.38,1.12-0.77,2.19-1.19,3.19c-0.42,1.01-0.73,1.79-0.91,2.35l0.63,0.49c0.93-1.4,1.95-2.98,3.05-4.73
		c1.1-1.75,2.29-3.39,3.58-4.91c1.29-1.52,2.67-2.79,4.14-3.82c1.47-1.03,3.07-1.54,4.8-1.54c0.75,0,1.39,0.14,1.93,0.42
		c0.54,0.28,0.98,0.63,1.33,1.05s0.61,0.85,0.77,1.3c0.16,0.44,0.25,0.83,0.25,1.16c0,0.56-0.11,1.31-0.32,2.24
		c-0.21,0.94-0.49,1.96-0.84,3.09s-0.75,2.31-1.19,3.58c-0.45,1.26-0.88,2.53-1.3,3.79c-0.7,2.01-1.32,3.73-1.86,5.16
		c-0.54,1.43-0.81,2.4-0.81,2.91c0.09,0.66,0.37,0.98,0.84,0.98c0.42,0,0.69,0.25,0.81,0.74c0.12,0.49-0.04,1.03-0.46,1.61
		c-0.42,0.58-1.15,1.15-2.17,1.68c-1.03,0.54-2.48,0.85-4.35,0.95c-1.17,0.09-1.99-0.16-2.45-0.77c-0.47-0.61-0.73-1.19-0.77-1.75
		c-0.05-1.26,1.21-5.28,3.79-12.06c0.56-1.45,1.02-2.67,1.37-3.65c0.35-0.98,0.63-1.82,0.84-2.52s0.36-1.26,0.46-1.68
		c0.09-0.42,0.14-0.79,0.14-1.12c0-0.89-0.42-1.33-1.26-1.33c-0.28,0-0.77,0.34-1.47,1.02c-0.7,0.68-1.53,1.6-2.49,2.77
		c-0.96,1.17-2,2.51-3.12,4.03c-1.12,1.52-2.24,3.12-3.37,4.8c-0.23,0.37-0.58,0.99-1.05,1.86c-0.47,0.87-0.91,1.91-1.33,3.12
		l-2.17,6.17c-0.09,0.28-0.42,0.42-0.98,0.42h-5.96c-0.66,0-0.89-0.3-0.7-0.91l4.21-11.64c0.89-2.43,1.65-4.6,2.28-6.52
		c0.63-1.92,0.95-3.16,0.95-3.72c0-0.37-0.07-0.7-0.21-0.98c-0.14-0.28-0.47-0.42-0.98-0.42c-0.28,0-0.78,0.33-1.51,0.98
		c-0.73,0.66-1.54,1.52-2.45,2.59c-0.91,1.08-1.91,2.31-2.98,3.72c-1.08,1.4-2.1,2.88-3.08,4.42c-0.47,0.66-0.95,1.47-1.44,2.45
		c-0.49,0.98-0.99,2.1-1.51,3.37l-2.31,6.17c-0.09,0.33-0.42,0.49-0.98,0.49H240.43z"/>
	<path fill="#891729" d="M321.92,144.4c0.51,0,0.7,0.28,0.56,0.84c-0.28,0.75-0.67,1.82-1.16,3.23c-0.49,1.4-0.99,2.85-1.51,4.35
		c-0.51,1.5-0.99,2.9-1.44,4.21c-0.44,1.31-0.74,2.24-0.88,2.8c-0.09,0.28-0.28,0.92-0.56,1.93c-0.28,1.01-0.58,2.07-0.91,3.19
		s-0.62,2.16-0.88,3.12c-0.26,0.96-0.39,1.58-0.39,1.86c0,0.56,0.28,0.84,0.84,0.84c0.28,0,0.6,0.18,0.95,0.53s0.44,0.77,0.28,1.26
		c-0.16,0.49-0.75,1.01-1.75,1.54c-1.01,0.54-2.72,0.97-5.15,1.3c-1.08,0.14-1.82-0.06-2.25-0.6c-0.42-0.54-0.63-1.09-0.63-1.65
		c0-0.23,0.04-0.51,0.11-0.84c0.07-0.33,0.2-0.82,0.39-1.47c0.19-0.65,0.46-1.52,0.81-2.59c0.35-1.08,0.83-2.48,1.44-4.21
		l-0.63-0.35c-0.7,1.08-1.51,2.28-2.42,3.61c-0.91,1.33-1.95,2.61-3.12,3.82c-1.17,1.22-2.45,2.23-3.86,3.05
		c-1.4,0.82-2.92,1.23-4.56,1.23c-0.47,0-0.98-0.15-1.54-0.46c-0.56-0.3-1.09-0.71-1.58-1.23c-0.49-0.51-0.9-1.1-1.23-1.75
		c-0.33-0.65-0.49-1.33-0.49-2.03c0-1.45,0.23-3.09,0.7-4.91c0.47-1.82,1.11-3.67,1.93-5.54c0.82-1.87,1.81-3.69,2.98-5.47
		c1.17-1.78,2.44-3.34,3.82-4.7c1.38-1.36,2.85-2.45,4.42-3.3c1.57-0.84,3.19-1.26,4.87-1.26c1.59,0,2.78,0.27,3.58,0.81
		c0.79,0.54,1.43,1.09,1.89,1.65l1.12-2.03c0.33-0.51,0.75-0.77,1.26-0.77H321.92z M298.71,167.62c0,0.79,0.14,1.34,0.42,1.65
		c0.28,0.3,0.7,0.46,1.26,0.46c0.47,0,1.18-0.49,2.14-1.47c0.96-0.98,1.94-2.14,2.95-3.47c1-1.33,1.95-2.68,2.84-4.03
		c0.89-1.36,1.5-2.38,1.82-3.09c0.42-0.93,0.79-1.99,1.12-3.16c0.33-1.17,0.49-2.36,0.49-3.58c0-0.79-0.34-1.52-1.02-2.17
		c-0.68-0.65-1.37-0.98-2.07-0.98c-1.73,0-3.48,1.59-5.26,4.77c-1.78,3.13-3,6-3.68,8.59C299.05,163.72,298.71,165.89,298.71,167.62
		z"/>
	<path fill="#891729" d="M322.62,174.7c-0.61,0-0.82-0.21-0.63-0.63l3.37-11.36c0.28-0.98,0.62-2.1,1.02-3.37
		c0.4-1.26,0.77-2.49,1.12-3.68s0.64-2.27,0.88-3.23c0.23-0.96,0.35-1.6,0.35-1.93c0-0.37-0.1-0.69-0.32-0.95
		c-0.21-0.26-0.5-0.39-0.88-0.39c-0.09,0-0.33-0.07-0.7-0.21s-0.53-0.37-0.46-0.7c0.07-0.33,0.53-0.78,1.37-1.37
		c0.84-0.58,2.46-1.3,4.84-2.14c0.65-0.23,1.22-0.28,1.68-0.14c0.47,0.14,0.84,0.38,1.12,0.7s0.49,0.7,0.63,1.12
		c0.14,0.42,0.21,0.79,0.21,1.12c0,0.66-0.29,1.79-0.88,3.4c-0.58,1.61-1.3,3.57-2.14,5.86l0.77,0.42c0.42-0.98,1-2.17,1.75-3.58
		c0.75-1.4,1.59-2.77,2.52-4.1c0.93-1.33,1.99-2.46,3.16-3.4c1.17-0.93,2.38-1.4,3.65-1.4c1.03,0,1.95,0.35,2.77,1.05
		c0.82,0.7,1.23,1.61,1.23,2.74c0,0.61-0.11,1.19-0.32,1.75c-0.21,0.56-0.48,1.05-0.81,1.47c-0.33,0.42-0.67,0.75-1.02,0.98
		c-0.35,0.23-0.69,0.35-1.02,0.35c-0.98,0-1.75-0.19-2.31-0.56c-0.28-0.19-0.56-0.37-0.84-0.56c-0.28-0.19-0.66-0.28-1.12-0.28
		c-0.56,0-1.19,0.3-1.89,0.91c-0.7,0.61-1.4,1.37-2.1,2.28c-0.7,0.91-1.37,1.91-2,2.98c-0.63,1.08-1.13,2.06-1.51,2.95
		c-0.38,0.84-0.75,1.78-1.12,2.8c-0.38,1.03-0.77,2.2-1.19,3.51l-2.24,7.08c-0.14,0.33-0.44,0.49-0.91,0.49H322.62z"/>
</g>
<g>
	<path fill="#891729" d="M179.19,129.76c0.49,0.6,0.74,1.43,0.74,2.48v7.09h-1.13v-7.09c0-0.81-0.13-1.44-0.39-1.87
		c-0.26-0.44-0.76-0.65-1.48-0.65c-1.08,0-2.33,0.63-3.75,1.89c0.02,0.14,0.02,0.35,0.02,0.63v7.09h-1.13v-7.09
		c0-0.81-0.13-1.44-0.39-1.87c-0.26-0.44-0.76-0.65-1.48-0.65c-0.59,0-1.21,0.19-1.89,0.56c-0.67,0.37-1.35,0.87-2.05,1.5v7.55
		h-1.13v-10.21h0.88l0.23,1.6c0.48-0.5,1.1-0.94,1.85-1.31s1.43-0.56,2.01-0.56c1.51,0,2.48,0.62,2.89,1.85
		c0.48-0.5,1.09-0.94,1.84-1.3c0.75-0.36,1.42-0.55,2-0.55C177.91,128.86,178.69,129.16,179.19,129.76z"/>
	<path fill="#891729" d="M185.21,141.4l0.72-2.06l-4.24-9.95l1.06-0.38l3.7,9.15l3.56-9.03h1.16l-5.07,12.56
		c-0.23,0.57-0.62,1.06-1.16,1.45s-1.18,0.66-1.92,0.8l-0.12-0.8c0.62-0.18,1.11-0.41,1.47-0.67S185.02,141.85,185.21,141.4z"/>
	<path fill="#891729" d="M192.38,138.81l0.42-0.86c0.56,0.25,1.07,0.45,1.54,0.59c0.47,0.14,0.97,0.21,1.49,0.21
		c0.93,0,1.65-0.17,2.18-0.52s0.79-0.81,0.79-1.4c0-0.84-0.99-1.61-2.96-2.31c-2.18-0.77-3.26-1.72-3.26-2.84
		c0-0.83,0.34-1.5,1.02-2.03c0.68-0.53,1.63-0.79,2.85-0.79c0.49,0,1.05,0.08,1.68,0.24c0.62,0.16,1.12,0.36,1.49,0.6l-0.46,0.74
		c-0.54-0.24-1-0.42-1.39-0.54s-0.88-0.18-1.48-0.18c-0.77,0-1.4,0.19-1.89,0.56c-0.49,0.37-0.73,0.81-0.73,1.31
		c0,0.44,0.25,0.82,0.74,1.16c0.49,0.34,1.19,0.67,2.08,0.99c1.05,0.38,1.88,0.81,2.49,1.29c0.61,0.48,0.91,1.06,0.91,1.71
		c0,1.91-1.37,2.86-4.1,2.86c-0.53,0-1.12-0.07-1.79-0.22C193.32,139.24,192.78,139.05,192.38,138.81z"/>
	<path fill="#891729" d="M204.07,129.45h2.04l0.49,0.78h-2.52v6.52c0,0.56,0.13,1.03,0.39,1.42c0.26,0.39,0.66,0.58,1.18,0.58
		c0.31,0,0.62-0.06,0.95-0.19l0.28,0.8c-0.05,0-0.25,0.05-0.62,0.15c-0.31,0.07-0.61,0.1-0.9,0.1c-0.74,0-1.33-0.23-1.76-0.7
		c-0.43-0.47-0.65-1.14-0.65-2.01v-6.67h-1.67v-0.78h1.67v-2.76l1.13-0.46V129.45z"/>
	<path fill="#891729" d="M217.75,134.24h-8.08c0.01,1.32,0.35,2.4,1.01,3.24c0.66,0.84,1.64,1.26,2.95,1.26
		c0.74,0,1.36-0.06,1.85-0.19c0.49-0.13,0.98-0.3,1.46-0.53l0.46,0.78c-0.43,0.24-1.01,0.43-1.72,0.58
		c-0.72,0.15-1.34,0.22-1.86,0.22c-1.78,0-3.11-0.49-3.99-1.47c-0.89-0.98-1.33-2.3-1.33-3.96c0-1.6,0.42-2.89,1.26-3.86
		c0.84-0.98,2.06-1.46,3.65-1.46c0.85,0,1.6,0.23,2.27,0.69c0.66,0.46,1.18,1.1,1.54,1.93C217.57,132.3,217.75,133.22,217.75,134.24
		z M209.72,133.47h6.83c-0.12-1.11-0.45-2.01-0.97-2.7s-1.3-1.04-2.34-1.04c-1.05,0-1.87,0.35-2.46,1.06
		C210.18,131.49,209.83,132.39,209.72,133.47z"/>
	<path fill="#891729" d="M221.43,131.82v7.51h-1.13v-10.21h0.65l0.42,1.62c0.52-0.39,1.14-0.76,1.84-1.1s1.32-0.52,1.84-0.52
		l0.39,0.8c-0.66,0-1.38,0.2-2.14,0.59C222.53,130.91,221.91,131.35,221.43,131.82z"/>
	<path fill="#891729" d="M227.84,126.71c-0.26,0-0.47-0.08-0.64-0.23c-0.16-0.15-0.24-0.34-0.24-0.57c0-0.22,0.08-0.41,0.24-0.57
		s0.37-0.23,0.64-0.23c0.25,0,0.46,0.08,0.64,0.23c0.18,0.15,0.27,0.34,0.27,0.57c0,0.22-0.08,0.41-0.25,0.57
		C228.32,126.63,228.1,126.71,227.84,126.71z M228.42,129.13v10.21h-1.13v-10.21H228.42z"/>
	<path fill="#891729" d="M240.61,137.01c-0.41,0.81-1.01,1.44-1.79,1.9s-1.71,0.69-2.78,0.69c-1.62-0.01-2.87-0.52-3.75-1.5
		c-0.88-0.99-1.32-2.3-1.32-3.92c0-1.01,0.2-1.92,0.61-2.73s1.01-1.44,1.79-1.9s1.72-0.69,2.8-0.69c1.62,0.01,2.87,0.52,3.74,1.5
		c0.87,0.99,1.31,2.3,1.31,3.92C241.22,135.3,241.02,136.2,240.61,137.01z M238.15,138.15c0.61-0.4,1.08-0.94,1.4-1.62
		c0.32-0.68,0.49-1.42,0.49-2.22c0-0.86-0.15-1.63-0.45-2.33s-0.74-1.24-1.33-1.65c-0.59-0.41-1.29-0.61-2.11-0.61
		c-0.8,0-1.51,0.2-2.12,0.6c-0.61,0.4-1.08,0.94-1.4,1.62c-0.32,0.68-0.49,1.42-0.49,2.22c0,0.86,0.15,1.63,0.45,2.33
		s0.74,1.25,1.33,1.65c0.59,0.41,1.29,0.61,2.11,0.61C236.84,138.75,237.54,138.55,238.15,138.15z"/>
	<path fill="#891729" d="M250.96,136.68v-7.55h1.13v10.21h-0.88l-0.23-1.6c-0.49,0.52-1.11,0.96-1.85,1.33
		c-0.74,0.36-1.45,0.55-2.13,0.55c-1.14,0-1.98-0.31-2.52-0.92c-0.54-0.61-0.81-1.43-0.81-2.47v-7.09h1.13v7.09
		c0,0.79,0.15,1.4,0.46,1.85c0.31,0.45,0.86,0.67,1.64,0.67C248.13,138.75,249.48,138.06,250.96,136.68z"/>
	<path fill="#891729" d="M254.69,138.81l0.42-0.86c0.56,0.25,1.07,0.45,1.54,0.59c0.47,0.14,0.97,0.21,1.49,0.21
		c0.93,0,1.65-0.17,2.18-0.52s0.79-0.81,0.79-1.4c0-0.84-0.99-1.61-2.96-2.31c-2.18-0.77-3.26-1.72-3.26-2.84
		c0-0.83,0.34-1.5,1.02-2.03c0.68-0.53,1.63-0.79,2.85-0.79c0.49,0,1.05,0.08,1.68,0.24c0.62,0.16,1.12,0.36,1.49,0.6l-0.46,0.74
		c-0.54-0.24-1-0.42-1.39-0.54s-0.88-0.18-1.48-0.18c-0.77,0-1.4,0.19-1.89,0.56c-0.49,0.37-0.73,0.81-0.73,1.31
		c0,0.44,0.25,0.82,0.74,1.16c0.49,0.34,1.19,0.67,2.08,0.99c1.05,0.38,1.88,0.81,2.49,1.29c0.61,0.48,0.91,1.06,0.91,1.71
		c0,1.91-1.37,2.86-4.1,2.86c-0.53,0-1.12-0.07-1.79-0.22C255.63,139.24,255.09,139.05,254.69,138.81z"/>
</g>
</svg>
