<?xml version="1.0" encoding="utf-8"?>
<!-- Generator: Adobe Illustrator 19.2.0, SVG Export Plug-In . SVG Version: 6.00 Build 0)  -->
<svg version="1.2" baseProfile="tiny" id="Layer_1" xmlns="http://www.w3.org/2000/svg" xmlns:xlink="http://www.w3.org/1999/xlink"
	 x="0px" y="0px" viewBox="0 0 390 283.636" xml:space="preserve">
<rect fill="#518C48" width="390" height="283.636"/>
<g>
	<g>
		<path fill="#F1F2F2" d="M90.371,159.243c-3.206-40.994,30.877-90.645,90.306-94.769C131.771,79,100.55,109.534,90.371,159.243z"/>
		<path fill="#F1F2F2" d="M298.868,108.844c7.083,44.517-24.923,101.313-88.081,110.318
			C261.77,199.596,292.42,163.892,298.868,108.844z"/>
		
			<ellipse transform="matrix(0.9141 -0.4054 0.4054 0.9141 -41.0103 89.8727)" fill="#F1F2F2" cx="191.649" cy="141.745" rx="94.542" ry="66.699"/>
	</g>
	<path fill="#518C48" d="M239.641,153.277c2-4.763,3.993-9.53,5.997-14.292c0.108-0.257,0.117-0.684,0.484-0.667
		c0.41,0.019,0.449,0.461,0.533,0.774c0.665,2.484,1.322,4.971,1.964,7.462c0.856,3.321,1.675,6.652,2.55,9.968
		c1.092,4.142,2.25,8.265,3.334,12.409c1.117,4.27,2.189,8.552,3.257,12.836c0.18,0.72,0.537,0.934,1.242,0.919
		c1.443-0.031,2.747-0.477,4.043-1.088c4.326-2.041,6.763-7.364,6.244-11.641c-0.256-2.114-0.939-4.176-1.479-6.247
		c-1.133-4.348-2.318-8.682-3.448-13.031c-1.109-4.268-2.16-8.553-3.268-12.822c-1.442-5.553-2.868-11.111-4.397-16.638
		c-0.672-2.428-1.095-4.938-2.103-7.262c-1.24-2.859-4.01-4.668-6.74-4.355c-3.25,0.372-5.451,2.127-6.711,5.314
		c-1.539,3.894-3.225,7.724-4.846,11.583c-2.1,5.002-4.199,10.005-6.298,15.008c-2.445,5.828-4.888,11.657-7.338,17.483
		c-0.106,0.253-0.122,0.69-0.508,0.603c-0.177-0.04-0.335-0.357-0.431-0.581c-1.225-2.864-2.451-5.726-3.649-8.602
		c-2.315-5.559-4.603-11.13-6.92-16.689c-2.414-5.794-4.841-11.582-7.278-17.365c-0.967-2.295-1.98-4.535-4.321-5.754
		c-3.646-1.898-8.149-0.921-10.041,2.769c-0.927,1.808-1.241,3.82-1.762,5.753c-1.648,6.117-3.196,12.263-4.773,18.401
		c-0.463,1.8-0.578,1.913-2.356,1.913c-11.384,0.001-22.767,0.001-34.151,0.001c-1.696,0-1.696,0.001-1.498,1.771
		c0.756,6.75,6.181,11.395,12.445,11.579c5.253,0.154,12.908,0.029,18.165,0.035c1.526,0.002,1.952-0.041,1.605,1.696
		c-0.651,3.622-1.55,7.182-2.394,11.381c-0.325,1.617-0.077,1.73-1.705,1.731c-7.948,0.005-28.035-0.126-30.103-0.683
		c-5.503-1.482-9.466-4.903-12.032-10.131c-1.898-3.867-2.425-8.007-2.169-12.292c0.282-4.714,1.872-8.904,4.889-12.415
		c3.846-4.476,8.819-6.375,14.498-6.397c7.41-0.029,14.819-0.004,22.229-0.011c1.236-0.001,2.44-0.146,3.671-0.424
		c5.862-1.321,10.52-6.801,11.225-13.245c0.127-1.159-0.154-1.584-1.267-1.568c-2.561,0.037-5.124,0.011-7.686,0.011
		c-8.9,0-17.8-0.042-26.7,0.02c-3.464,0.024-6.926,0.171-10.344,0.98c-4.63,1.097-8.881,3.056-12.632,6.039
		c-8.198,6.519-11.838,15.539-12.638,25.966c-0.31,4.041,0.227,8.044,1.094,12.011c1.263,5.779,3.646,10.949,7.41,15.386
		c6.429,7.578,14.434,11.726,24.241,11.766c7.989,0.033,29.155,0.298,31.77,0.023c3.98-0.418,8.071-3.861,9.133-7.837
		c0.541-2.027,1.074-4.055,1.596-6.087c1.34-5.224,2.784-10.419,4.163-15.633c1.237-4.676,2.441-9.361,3.663-14.041
		c0.081-0.311,0.036-0.772,0.492-0.768c0.362,0.003,0.364,0.422,0.473,0.681c2.179,5.149,4.371,10.292,6.52,15.455
		c3.347,8.041,6.643,16.105,10.007,24.139c1.264,3.018,3.451,4.975,6.673,5.245c3.028,0.254,5.432-1.141,6.946-3.843
		C230.481,175.92,238.352,156.345,239.641,153.277z"/>
</g>
</svg>
