<?xml version="1.0" encoding="utf-8"?>
<!-- Generator: Adobe Illustrator 22.0.1, SVG Export Plug-In . SVG Version: 6.00 Build 0)  -->
<svg version="1.1"
	 id="Layer_1" xmlns:cc="http://creativecommons.org/ns#" xmlns:dc="http://purl.org/dc/elements/1.1/" xmlns:inkscape="http://www.inkscape.org/namespaces/inkscape" xmlns:rdf="http://www.w3.org/1999/02/22-rdf-syntax-ns#" xmlns:sodipodi="http://sodipodi.sourceforge.net/DTD/sodipodi-0.dtd" xmlns:svg="http://www.w3.org/2000/svg"
	 xmlns="http://www.w3.org/2000/svg" xmlns:xlink="http://www.w3.org/1999/xlink" x="0px" y="0px" viewBox="0 0 72.5 86.2"
	 style="enable-background:new 0 0 72.5 86.2;" xml:space="preserve">
<style type="text/css">
	.st0{fill:#231F20;}
	.st1{fill:none;stroke:#231F20;stroke-width:3;stroke-linecap:round;stroke-miterlimit:10;}
	.st2{stroke:#1D1D1B;stroke-width:2;stroke-miterlimit:10;}
	.st3{fill:none;stroke:#000000;stroke-width:3;stroke-linecap:round;stroke-miterlimit:10;}
	.st4{fill:none;stroke:#231F20;stroke-width:2;stroke-linecap:round;stroke-miterlimit:10;}
	.st5{fill-rule:evenodd;clip-rule:evenodd;fill:none;stroke:#231F20;stroke-width:2;stroke-linecap:round;stroke-miterlimit:10;}
	.st6{fill:#FFFFFF;}
	.st7{fill:none;}
	.st8{fill:none;stroke:#000000;stroke-width:2;stroke-linecap:round;stroke-miterlimit:10;}
</style>
<g>
	<g>
		<path class="st0" d="M56.1,7.8c3.9,0,7,3.1,7,7v58c0,3.9-3.1,7-7,7h-39c-3.9,0-7-3.1-7-7v-58c0-3.9,3.1-7,7-7H56.1 M56.1,4.8h-39
			c-5.5,0-10,4.5-10,10v58c0,5.5,4.5,10,10,10h39c5.5,0,10-4.5,10-10v-58C66.1,9.3,61.6,4.8,56.1,4.8L56.1,4.8z"/>
	</g>
	<g>
		<path class="st0" d="M53.1,19.2c0.5,0,1,0.5,1,1v26.9c0,0.5-0.5,1-1,1h-33c-0.5,0-1-0.5-1-1V20.2c0-0.5,0.5-1,1-1H53.1 M53.1,17.2
			h-33c-1.6,0-3,1.4-3,3v26.9c0,1.6,1.4,3,3,3h33c1.7,0,3-1.4,3-3V20.2C56.1,18.5,54.7,17.2,53.1,17.2L53.1,17.2z"/>
	</g>
	<g>
		<line class="st4" x1="17.1" y1="60.2" x2="56.1" y2="60.2"/>
	</g>
	<g>
		<line class="st4" x1="21.2" y1="46" x2="51.9" y2="21.5"/>
	</g>
	<g>
		<line class="st4" x1="51.9" y1="46" x2="21.2" y2="21.5"/>
	</g>
	<g>
		<line class="st4" x1="17.1" y1="65.8" x2="56.1" y2="65.8"/>
	</g>
	<g>
		<line class="st4" x1="17.1" y1="71.3" x2="56.1" y2="71.3"/>
	</g>
</g>
</svg>
