<?xml version="1.0" encoding="utf-8"?>
<!-- Generator: Adobe Illustrator 22.0.1, SVG Export Plug-In . SVG Version: 6.00 Build 0)  -->
<svg version="1.1"
	 id="Layer_1" xmlns:cc="http://creativecommons.org/ns#" xmlns:dc="http://purl.org/dc/elements/1.1/" xmlns:inkscape="http://www.inkscape.org/namespaces/inkscape" xmlns:rdf="http://www.w3.org/1999/02/22-rdf-syntax-ns#" xmlns:sodipodi="http://sodipodi.sourceforge.net/DTD/sodipodi-0.dtd" xmlns:svg="http://www.w3.org/2000/svg"
	 xmlns="http://www.w3.org/2000/svg" xmlns:xlink="http://www.w3.org/1999/xlink" x="0px" y="0px" viewBox="0 0 72.5 86.2"
	 style="enable-background:new 0 0 72.5 86.2;" xml:space="preserve">
<style type="text/css">
	.st0{fill:#231F20;}
	.st1{fill:none;stroke:#231F20;stroke-width:3;stroke-linecap:round;stroke-miterlimit:10;}
	.st2{stroke:#1D1D1B;stroke-width:2;stroke-miterlimit:10;}
	.st3{fill:none;stroke:#000000;stroke-width:3;stroke-linecap:round;stroke-miterlimit:10;}
	.st4{fill:none;stroke:#231F20;stroke-width:2;stroke-linecap:round;stroke-miterlimit:10;}
	.st5{fill-rule:evenodd;clip-rule:evenodd;fill:none;stroke:#231F20;stroke-width:2;stroke-linecap:round;stroke-miterlimit:10;}
	.st6{fill:#FFFFFF;}
	.st7{fill:none;}
	.st8{fill:none;stroke:#000000;stroke-width:2;stroke-linecap:round;stroke-miterlimit:10;}
</style>
<g>
	<g>
		<g>
			<line class="st4" x1="22.2" y1="69.4" x2="26.8" y2="73.2"/>
		</g>
		<g>
			<line class="st4" x1="26.9" y1="63.6" x2="31.6" y2="67.5"/>
		</g>
		<g>
			<line class="st4" x1="59.2" y1="24.5" x2="63.8" y2="28.4"/>
		</g>
		<g>
			<line class="st4" x1="54.4" y1="30.3" x2="59.1" y2="34.2"/>
		</g>
		<g>
			<polygon class="st7" points="22,77.2 35.2,61.2 23.9,46.9 8.3,65.8 			"/>
			<polygon class="st7" points="66.8,22.9 53.1,11.6 39.9,27.6 51.2,41.8 			"/>
			<path class="st0" d="M69.3,21.4L54.1,8.8c-0.7-0.6-1.7-0.6-2.4,0c-0.1,0.1-0.2,0.2-0.3,0.3L38.8,24.4c-0.4,0.5-0.4,1.3,0,1.8l0,0
				c0.6,0.7,1.6,0.7,2.2,0l12.1-14.6l13.7,11.3L51.9,41c-0.4,0.5-0.4,1.3,0,1.8v0c0.6,0.7,1.6,0.7,2.2,0L69.6,24
				C70.2,23.2,70.1,22,69.3,21.4z"/>
			<path class="st0" d="M22,77.2L8.3,65.8l14.9-18c0.4-0.5,0.4-1.3,0-1.8l0,0c-0.6-0.7-1.6-0.7-2.2,0L5.5,64.8
				c-0.7,0.8-0.5,2,0.3,2.6L21,80c0.7,0.6,1.7,0.6,2.4,0c0.1-0.1,0.2-0.2,0.3-0.3l12.7-15.4c0.4-0.5,0.4-1.3,0-1.8v0
				c-0.6-0.7-1.6-0.7-2.2,0L22,77.2z"/>
		</g>
	</g>
	<g>
		<g>
			<path class="st6" d="M65.4,79.4c-2.7-0.5-11-5.2-16.4-8.8L11.4,23.4c-2.7-3.4-4.7-9.6-0.7-12.8c1.1-0.8,2.3-1.3,3.6-1.3
				c3.3,0,6.8,2.5,8.6,4.8l37.5,47.2C63.1,68.5,65.5,76.9,65.4,79.4z"/>
			<path d="M14.4,10.9L14.4,10.9c2.8,0,5.8,2.2,7.4,4.2l37.3,47c1.9,5.4,3.8,11.7,4.4,15.1c-3.2-1.4-8.9-4.6-13.7-7.7l-37.3-47
				c-1.8-2.3-4.4-7.9-0.9-10.6C12.5,11.2,13.4,10.9,14.4,10.9 M14.4,7.9c-1.6,0-3.2,0.5-4.6,1.6h0c-4.9,3.9-2.7,11,0.4,14.9
				l37.6,47.4c0,0,14.1,9.2,17.8,9.2c0.3,0,0.5-0.1,0.7-0.2l0,0c2.1-1.7-4.6-20.1-4.6-20.1L24.2,13.3C22,10.6,18.2,7.9,14.4,7.9
				L14.4,7.9z"/>
		</g>
		<g>
			<line class="st8" x1="52.1" y1="67.1" x2="59.8" y2="60.9"/>
		</g>
		<g>
			<line class="st8" x1="11.9" y1="23.5" x2="23" y2="14.7"/>
		</g>
	</g>
</g>
</svg>
