<?xml version="1.0" encoding="utf-8"?>
<!-- Generator: Adobe Illustrator 22.0.1, SVG Export Plug-In . SVG Version: 6.00 Build 0)  -->
<svg version="1.1"
	 id="Layer_1" xmlns:cc="http://creativecommons.org/ns#" xmlns:dc="http://purl.org/dc/elements/1.1/" xmlns:inkscape="http://www.inkscape.org/namespaces/inkscape" xmlns:rdf="http://www.w3.org/1999/02/22-rdf-syntax-ns#" xmlns:sodipodi="http://sodipodi.sourceforge.net/DTD/sodipodi-0.dtd" xmlns:svg="http://www.w3.org/2000/svg"
	 xmlns="http://www.w3.org/2000/svg" xmlns:xlink="http://www.w3.org/1999/xlink" x="0px" y="0px" viewBox="0 0 72.5 86.2"
	 style="enable-background:new 0 0 72.5 86.2;" xml:space="preserve">
<style type="text/css">
	.st0{fill:#231F20;}
	.st1{fill:none;stroke:#231F20;stroke-width:3;stroke-linecap:round;stroke-miterlimit:10;}
	.st2{stroke:#1D1D1B;stroke-width:2;stroke-miterlimit:10;}
	.st3{fill:none;stroke:#000000;stroke-width:3;stroke-linecap:round;stroke-miterlimit:10;}
	.st4{fill:none;stroke:#231F20;stroke-width:2;stroke-linecap:round;stroke-miterlimit:10;}
	.st5{fill-rule:evenodd;clip-rule:evenodd;fill:none;stroke:#231F20;stroke-width:3;stroke-linecap:round;stroke-miterlimit:10;}
	.st6{fill:#FFFFFF;}
	.st7{fill:none;}
	.st8{fill:none;stroke:#000000;stroke-width:2;stroke-linecap:round;stroke-miterlimit:10;}
</style>
<g>
	<g>
		<path class="st0" d="M21,15.9c2.7,0,4.8,2.2,4.8,4.8c0,2.7-2.2,4.8-4.8,4.8s-4.8-2.2-4.8-4.8C16.1,18,18.3,15.9,21,15.9 M21,13.9
			c-3.8,0-6.8,3-6.8,6.8c0,3.8,3,6.8,6.8,6.8c3.8,0,6.8-3,6.8-6.8C27.8,16.9,24.7,13.9,21,13.9L21,13.9z"/>
	</g>
	<g>
		<path class="st0" d="M52.4,59.6c2.7,0,4.8,2.2,4.8,4.8s-2.2,4.8-4.8,4.8c-2.7,0-4.8-2.2-4.8-4.8S49.7,59.6,52.4,59.6 M52.4,57.6
			c-3.8,0-6.8,3-6.8,6.8c0,3.8,3,6.8,6.8,6.8c3.8,0,6.8-3,6.8-6.8C59.2,60.6,56.2,57.6,52.4,57.6L52.4,57.6z"/>
	</g>
	<g>
		<g>
			<line class="st4" x1="25.6" y1="74.6" x2="19.1" y2="68.2"/>
		</g>
		<g>
			<line class="st4" x1="25.6" y1="68.2" x2="19.1" y2="74.6"/>
		</g>
	</g>
	<g>
		<g>
			<line class="st4" x1="55.6" y1="20.3" x2="49.2" y2="13.9"/>
		</g>
		<g>
			<line class="st4" x1="55.6" y1="13.9" x2="49.2" y2="20.3"/>
		</g>
	</g>
	<path class="st5" d="M43.2,64.4c-7.1-0.6-19.6-8.7-11.8-20.4c3-4.6,10-6.3,10.5-12.4c0.5-6-6-9.3-10.9-9.5"/>
	<g>
		<line class="st1" x1="30" y1="21.3" x2="32.8" y2="24.4"/>
		<line class="st1" x1="30" y1="21.3" x2="34.1" y2="20.5"/>
	</g>
	<g>
		<path class="st0" d="M55.8,7.9c3.9,0,7,3.1,7,7v58c0,3.9-3.1,7-7,7h-39c-3.9,0-7-3.1-7-7v-58c0-3.9,3.1-7,7-7H55.8 M55.8,4.9h-39
			c-5.5,0-10,4.5-10,10v58c0,5.5,4.5,10,10,10h39c5.5,0,10-4.5,10-10v-58C65.8,9.4,61.3,4.9,55.8,4.9L55.8,4.9z"/>
	</g>
	<g>
		<g>
			<line class="st4" x1="50.3" y1="49.9" x2="43.8" y2="43.5"/>
		</g>
		<g>
			<line class="st4" x1="50.3" y1="43.5" x2="43.8" y2="49.9"/>
		</g>
	</g>
</g>
</svg>
