<?xml version="1.0" encoding="utf-8"?>
<!-- Generator: Adobe Illustrator 19.2.0, SVG Export Plug-In . SVG Version: 6.00 Build 0)  -->
<svg version="1.1" id="Layer_1" xmlns="http://www.w3.org/2000/svg" xmlns:xlink="http://www.w3.org/1999/xlink" x="0px" y="0px"
	 viewBox="0 0 82.7 78" style="enable-background:new 0 0 82.7 78;" xml:space="preserve">
<style type="text/css">
	.st0{fill:#160B14;}
</style>
<g>
	<path class="st0" d="M16.3,51.2c-2.2,0.1-9.6-0.8-10.6-7c-0.4-2.6,1.1-5.1,4.2-6.9c4.6-2.7,12-3.4,16.5-0.1
		c0.6,0.4,0.7,1.2,0.3,1.8c-0.4,0.6-1.3,0.7-1.9,0.3c-3.5-2.5-9.8-1.9-13.5,0.3c-1.2,0.7-2.8,2.2-2.5,4.3c0.7,4.2,5.5,4.6,7.2,4.6
		c1.7,0.1,7.5-0.5,8.4-3c0.3-0.9-0.1-2-1.1-3.1c-0.1-0.2-1.5-1.6-3.3-0.7c-0.7,0.3-1.7,0.2-2-0.8c-0.2-0.8,0.2-1.6,1-1.7
		c2.4-0.5,4.5,0.4,5.8,1.9c1.2,1.2,2.8,3.1,2.2,5.1C26.1,49.6,21,51,16.3,51.2z"/>
	<path class="st0" d="M39,53.4c-0.1,0-0.3,0-0.4-0.1c-3.4-1-5.6-6.1-6.9-12c-1.2,0.9-2.1,0.6-2.4,0.2c-0.4-0.8-0.2-1.5,1.8-3.3
		c-3-12.7-0.1-28.7,0.8-31.4c0.3-1,1.1-1.7,2-2c1-0.3,2.1-0.1,2.9,0.5c2.1,1.6,10.5,15.9-0.3,30.4c-0.6,0.8-1.5,2-2.7,3.4
		c1.1,6.2,2.8,11.5,5.5,11.7c0.7,0,1.3,0.7,1,1.7C40.3,53.2,39.6,53.4,39,53.4z M35,7.3c-0.1,0-0.1,0-0.2,0c-0.1,0-0.2,0.1-0.3,0.3
		c-0.8,2.5-3.5,19-1.1,28c0.4-0.5,0.8-1,1-1.5c9.2-13.9,2.4-25.7,0.8-26.7C35.2,7.3,35.1,7.3,35,7.3z"/>
	<path class="st0" d="M75.4,50c-0.8-0.8-0.7-2.1-0.7-3.8c0-0.8,0-1.6-0.5-1.7c-0.8-0.1-2.1,0.4-3.5,1.1c-2,0.9-4.2,1.9-6.8,1.8
		c-2.4-0.2-3.9-2.1-4-3.9c-0.2-2.1,0.7-4.1,2.4-5.8c2.6-2.5,6.8-3.8,9.2-3.5c3,0.3,4.7,2.2,4.9,4c0.1,0.7-0.5,1.4-1.2,1.4
		c-0.7,0.1-1.4-0.5-1.4-1.2c0-0.7-1-1.7-2.6-1.9c-1.6-0.2-5,1-6.9,3.1c-2.2,2.4-1.2,4.8,0,4.8c3,0.1,7.8-2.9,10.5-2.5
		c1.7,0.3,2.7,2.1,2.7,4.3c0,0.7,0,1.8,0.1,2.1c0.5,0.6,0.5,1.4-0.2,1.9C77.1,50.4,76.2,50.8,75.4,50z"/>
	<path class="st0" d="M40.6,74.6c-1.7,0-7.7,0.3-7.5-5.8C33.5,60.6,46.4,55.6,48,55c3-1,7.3-1.7,11.6-1.8c-1.2-4-4.1-6.5-5.8-6.5
		c-1.3-0.1-3,1.5-4.2,2.3c-2.4,1.4-4.6,1.9-6.8,0.8c-1-0.5-1.8-1.4-2.2-2.6c-0.7-2.2-0.1-5.6,1.5-8.5c2.8-5.1,7.7-5.6,9.7-5.6
		c2.9,0,4.7,1.9,4.8,3.6c0.1,0.7-0.5,1.4-1.2,1.4c-0.7,0-1.4-0.5-1.4-1.2c0-0.6-0.8-0.9-2.2-1.2c-3-0.6-6.1,2.3-7.3,4.2
		c-1.4,2.2-1.9,4.9-1.1,6.3c1.1,1.9,4.2,1.2,6.2-0.4c1.5-1.1,3.1-1.9,4.4-1.8c2,0,7.2,3.5,8.5,8.8c5.5,0.2,10.8,1.5,13.2,3.9
		c1.7,1.7,1.8,4.2,1.3,5.4c-0.4,1.1-1.3,2.2-2.3,2.2c-1.3,0-1.5-0.9-1.5-1.6c0-0.6,0.5-1.5,1.2-1.6c0.1-0.1,0.2-0.4,0.2-0.7
		c0-0.4-0.1-1-0.8-1.7c-1.8-1.8-6.1-2.7-11-2.9c-0.2,3.2-2.3,10.6-11.9,15.9C47.8,73.5,43.9,74.6,40.6,74.6z M60,55.9
		c-4.1,0.1-8.2,0.6-11.2,1.7c-4.7,1.6-13.7,6.1-12.9,11.2c0.8,4.3,9.1,3.1,13.5,0.7C58,64.7,59.9,58.3,60,55.9z M74.5,62.3
		L74.5,62.3L74.5,62.3z"/>
</g>
</svg>
