<?xml version="1.0" encoding="utf-8"?>
<!-- Generator: Adobe Illustrator 19.2.0, SVG Export Plug-In . SVG Version: 6.00 Build 0)  -->
<svg version="1.1" id="Layer_1" xmlns="http://www.w3.org/2000/svg" xmlns:xlink="http://www.w3.org/1999/xlink" x="0px" y="0px"
	 viewBox="0 0 257 93" style="enable-background:new 0 0 257 93;" xml:space="preserve">
<style type="text/css">
	.st0{fill:#A51E22;}
	.st1{fill:#FFFFFF;stroke:#000000;stroke-width:0.25;stroke-miterlimit:10;}
	.st2{fill:#FFFFFF;stroke:#000000;stroke-width:0.5;stroke-miterlimit:10;}
	.st3{display:none;stroke:#000000;stroke-width:3;stroke-miterlimit:10;}
	.st4{fill:#FFFFFF;stroke:#000000;stroke-width:0.5659;stroke-miterlimit:10;}
	.st5{fill:#FFFFFF;stroke:#000000;stroke-width:0.5829;stroke-miterlimit:10;}
	.st6{fill:#93C7E0;}
	.st7{fill:#A7BADE;}
	.st8{fill:#B6C7E1;}
	.st9{fill:#DFE8F6;}
	.st10{fill:#67A4D9;}
	.st11{fill:#9AB4DD;}
	.st12{fill:#D3DAEF;}
	.st13{fill:#CADCED;}
	.st14{fill:#EEF4FA;}
	.st15{fill:#BAD1E6;}
	.st16{fill:#FAFCF7;}
	.st17{fill:#A5C9EB;}
	.st18{fill:#A1CEEB;}
	.st19{fill:#E2F0F9;}
	.st20{fill:#719AD0;}
	.st21{fill:#CEE4F5;}
	.st22{fill:#6C9CD3;}
	.st23{fill:#D1E3F4;}
	.st24{fill:#B3BDDD;}
	.st25{fill:#858DB7;}
	.st26{fill:#2F9071;}
	.st27{fill:#2E8792;}
	.st28{fill:#A2D0CC;}
	.st29{fill:#258F7B;}
	.st30{fill:#238576;}
	.st31{fill:#CFE6ED;}
	.st32{fill:#519AD4;}
	.st33{fill:#6189C7;}
	.st34{fill:#7BAFDE;}
	.st35{fill:#C8DCF2;}
	.st36{fill:#9AC5E3;}
	.st37{fill:#4389A7;}
	.st38{fill:#C6DEF3;}
	.st39{fill:#3784A9;}
	.st40{fill:#C4DBE0;}
	.st41{fill:#4697D3;}
	.st42{fill:#93B7D9;}
	.st43{fill:#C4DBF2;}
	.st44{fill:#6D9CCF;}
	.st45{fill:#6494B8;}
	.st46{fill:#39A1D9;}
	.st47{fill:#6DB0DB;}
	.st48{fill:#44A1D7;}
	.st49{fill:#F4F9FA;}
	.st50{fill:#58A0D7;}
	.st51{fill:#FFFFFD;}
	.st52{fill:#E4EFF9;}
	.st53{fill:#FDFDF8;}
	.st54{fill:#E5F3FA;}
	.st55{fill:#9CCEEF;}
	.st56{fill:#D0E8F7;}
	.st57{fill:#F3FAFC;}
	.st58{fill:#EAF4F9;}
	.st59{fill:#E9F5FB;}
	.st60{fill:#A2C9EB;}
	.st61{fill:#E8F2FA;}
	.st62{fill:#8698CB;}
	.st63{fill:#E0F1F9;}
	.st64{fill:#C5E0F5;}
	.st65{fill:#C9E9FA;}
	.st66{fill:#F0F9FD;}
	.st67{fill:#C5DDF3;}
	.st68{fill:#E8F4F6;}
	.st69{fill:#44A0D8;}
	.st70{fill:#4C92CE;}
	.st71{fill:#BCDFF5;}
	.st72{fill:#F0F6FA;}
	.st73{fill:#FFFFFB;}
	.st74{fill:#FFFDFE;}
	.st75{fill:#9FD1C9;}
	.st76{fill:#F2FAFC;}
	.st77{fill:#CDE9E3;}
	.st78{fill:#F4F9F4;}
	.st79{fill:#BEDBDD;}
	.st80{fill:#F0F8F9;}
	.st81{fill:#FEFEF6;}
	.st82{fill:#EEF6F8;}
	.st83{fill:#D1EAE9;}
	.st84{fill:#59A6AB;}
	.st85{fill:#C0E4E5;}
	.st86{fill:#C3E2DC;}
	.st87{fill:#E1F1F1;}
	.st88{fill:#DBEDF0;}
	.st89{fill:#80BBAD;}
	.st90{fill:#CDE6E5;}
	.st91{fill:#B2DADF;}
	.st92{fill:#ACD5DD;}
	.st93{fill:#97C9C6;}
	.st94{fill:#639ED0;}
	.st95{fill:#A1CEDD;}
	.st96{fill:#C8E4E9;}
	.st97{fill:#C6E3E4;}
	.st98{fill:#D9EDED;}
	.st99{fill:#B2D6DA;}
	.st100{fill:#8FC2BD;}
	.st101{fill:#99C8CA;}
	.st102{fill:#DFECF4;}
	.st103{fill:#B4D2D5;}
	.st104{fill:#B6DEE0;}
	.st105{fill:#5C90A5;}
	.st106{fill:#F7FCFB;}
	.st107{fill:#BCDFF4;}
	.st108{fill:#D9EEF9;}
	.st109{fill:#F8FCFA;}
	.st110{fill:#CDE6F6;}
	.st111{fill:#B6D9DA;}
	.st112{fill:#ABD5F2;}
	.st113{fill:#F6FAFA;}
	.st114{fill:#BEE1E7;}
	.st115{fill:#DBF0F9;}
	.st116{fill:#FAFCF6;}
	.st117{fill:#D4E7EF;}
	.st118{fill:#ECF7FB;}
	.st119{fill:#C7E3DF;}
	.st120{fill:#CFE3EB;}
	.st121{fill:#F5FBFC;}
	.st122{fill:#E5F4FA;}
	.st123{fill:#F5FBFB;}
	.st124{fill:#FDFDF6;}
	.st125{fill:#C3DEE8;}
	.st126{fill:#DDF0F1;}
	.st127{fill:#C5D7E5;}
	.st128{fill:#B6DCDC;}
	.st129{fill:#BDDEE0;}
	.st130{fill:#B1D6F1;}
	.st131{fill:#ACD5F2;}
	.st132{fill:#AED3F0;}
	.st133{fill:#ECF2F9;}
	.st134{fill:#AAD3F0;}
	.st135{fill:#EAF5FA;}
	.st136{fill:#AAD3E0;}
	.st137{fill:#B5DAF3;}
	.st138{fill:#CFE3F3;}
	.st139{fill:#DBF0F2;}
	.st140{fill:#BED0EB;}
	.st141{fill:#549DA9;}
	.st142{fill:#97C9CC;}
	.st143{fill:#8DA2D0;}
	.st144{fill:#C3E2F6;}
	.st145{fill:#C0E2ED;}
	.st146{fill:#B4D5DD;}
	.st147{fill:#EDF8FC;}
	.st148{fill:#BDDDF3;}
	.st149{fill:#F0F8FB;}
	.st150{fill:#B3BDDF;}
	.st151{fill:#A6CFCC;}
	.st152{fill:#D3EFFB;}
	.st153{fill:#ACD7DD;}
	.st154{fill:#A9D2D3;}
	.st155{fill:#CBE5F7;}
	.st156{fill:#D8EBF8;}
	.st157{fill:#BADCDB;}
	.st158{fill:#C2DFEB;}
	.st159{fill:#E5F4F7;}
	.st160{fill:#D3E2F4;}
	.st161{fill:#C1D9EB;}
	.st162{fill:#D1E9EC;}
	.st163{fill:#EBF7FB;}
	.st164{fill:#87C2BA;}
	.st165{fill:#CFEAEB;}
	.st166{fill:#B7D1E5;}
	.st167{fill:#BFDCE7;}
	.st168{fill:#D9EDF8;}
	.st169{fill:#EAF6F8;}
	.st170{fill:#D5EAF2;}
	.st171{fill:#88C3EA;}
	.st172{fill:#D0DAEF;}
	.st173{fill:#ECF7FA;}
	.st174{fill:#DBEDF1;}
	.st175{fill:#A1CBCA;}
	.st176{fill:#E0EFF9;}
	.st177{fill:#D9ECF1;}
	.st178{fill:#EDF6F5;}
	.st179{fill:#BFDDF4;}
	.st180{fill:#EFF8FB;}
	.st181{fill:#E4F0F2;}
	.st182{fill:#9FC6E9;}
	.st183{fill:#C9D0EA;}
	.st184{fill:#C7E5E6;}
	.st185{fill:#91C5C4;}
	.st186{fill:#D4E8EC;}
	.st187{fill:#E1F1FA;}
	.st188{fill:#E1F0F9;}
	.st189{fill:#E9F6FA;}
	.st190{fill:#7CBBA6;}
	.st191{fill:#D8ECF4;}
	.st192{fill:#BCDDF3;}
	.st193{fill:#DDE9F6;}
	.st194{fill:#C7E3F6;}
	.st195{fill:#78B4AE;}
	.st196{fill:#74B4B1;}
	.st197{fill:#80C0E9;}
	.st198{fill:#93C0C6;}
	.st199{fill:#E9F4F1;}
	.st200{fill:#9FC9D4;}
	.st201{fill:#C9E4F7;}
	.st202{fill:#AED6D8;}
	.st203{fill:#77BFE8;}
	.st204{fill:#C6DDE5;}
	.st205{fill:#E0EFEF;}
	.st206{fill:#86BDB4;}
	.st207{fill:#D0E6F7;}
	.st208{fill:#E5F4F4;}
	.st209{fill:#D0E7EA;}
	.st210{fill:#DCF0F3;}
	.st211{fill:#9FB5DD;}
	.st212{fill:#C8DEEB;}
	.st213{fill:#CDE6F3;}
	.st214{fill:#AFD8DC;}
	.st215{fill:#8ABBE5;}
	.st216{fill:#B5DAE3;}
	.st217{fill:#92C7EA;}
	.st218{fill:#BED9E3;}
	.st219{fill:#AED8D7;}
	.st220{fill:#009548;}
	.st221{fill:#1F9165;}
	.st222{fill:#2A9365;}
	.st223{fill:#049258;}
	.st224{fill:#2B888C;}
	.st225{fill:#25A6DF;}
	.st226{fill:#378E8E;}
	.st227{fill:#2B8D72;}
	.st228{fill:#78BCC4;}
	.st229{fill:#ACD7E2;}
	.st230{fill:#5A9CD2;}
	.st231{fill:#6791CB;}
	.st232{fill:#4D9A89;}
	.st233{fill:#51A187;}
	.st234{fill:#439B75;}
	.st235{fill:#3EA0D9;}
	.st236{fill:#348B9D;}
	.st237{fill:#47A0D7;}
	.st238{fill:#C5E5F8;}
	.st239{fill:#BEE1F6;}
	.st240{fill:#E0F1FA;}
	.st241{fill:#609ED5;}
	.st242{fill:#53AADC;}
	.st243{fill:#71B0E0;}
	.st244{fill:#65A8DA;}
	.st245{fill:#6BA9DC;}
	.st246{fill:#6193CD;}
	.st247{fill:#D2ECF9;}
	.st248{fill:#37A2D9;}
	.st249{fill:#3A9FD9;}
	.st250{fill:#81BBE6;}
	.st251{fill:#95C8EC;}
	.st252{fill:#83BFE7;}
	.st253{fill:#7EB4E1;}
	.st254{fill:#61A491;}
	.st255{fill:#A1CEEE;}
	.st256{fill:#CBE7F8;}
	.st257{fill:#62AEDF;}
	.st258{fill:#2FA3DC;}
	.st259{fill:#CFE8F6;}
	.st260{fill:#D3E7F7;}
	.st261{fill:#D4EBF8;}
	.st262{fill:#A6D1ED;}
	.st263{fill:#E3F3FB;}
	.st264{fill:#C5E3F5;}
	.st265{fill:#DCECF8;}
	.st266{fill:#DEEEF0;}
	.st267{fill:#3E997C;}
	.st268{fill:#63A79C;}
	.st269{fill:#B5DCE1;}
	.st270{fill:#A7C0DE;}
	.st271{fill:#98CECC;}
	.st272{fill:#52A288;}
	.st273{fill:#5FA88D;}
	.st274{fill:#5AA49D;}
	.st275{fill:#2A8E6D;}
	.st276{fill:#CCE8E9;}
	.st277{fill:#8DC6C4;}
	.st278{fill:#A9D7C9;}
	.st279{fill:#6CAFA7;}
	.st280{fill:#ADD2D9;}
	.st281{fill:#2F946C;}
	.st282{fill:#72B5A9;}
	.st283{fill:#248D9A;}
	.st284{fill:#359374;}
	.st285{fill:#7CB7AE;}
	.st286{fill:#9FD1D4;}
	.st287{fill:#62AAA2;}
	.st288{fill:#2B9471;}
	.st289{fill:#31916A;}
	.st290{fill:#61A399;}
	.st291{fill:#6AB6B6;}
	.st292{fill:#369279;}
	.st293{fill:#4E9395;}
	.st294{fill:#249069;}
	.st295{fill:#1D8E67;}
	.st296{fill:#3C927F;}
	.st297{fill:#C4DFE6;}
	.st298{fill:#39A0D9;}
	.st299{fill:#35A0D9;}
	.st300{fill:#4AA8D5;}
	.st301{fill:#63AEDE;}
	.st302{fill:#4CA8DB;}
	.st303{fill:#3B9ED3;}
	.st304{fill:#24A6DE;}
	.st305{fill:#4E9FD7;}
	.st306{fill:#42A0CE;}
	.st307{fill:#ADD5E6;}
	.st308{fill:#94C9D0;}
	.st309{fill:#3EA1D9;}
	.st310{fill:#8FC0E8;}
	.st311{fill:#459883;}
	.st312{fill:#308F7E;}
	.st313{fill:#4D8CBD;}
	.st314{fill:#7F97CC;}
	.st315{fill:#67AD9F;}
	.st316{fill:#39967F;}
	.st317{fill:#3C919C;}
	.st318{fill:#4485BE;}
	.st319{fill:#44A5D8;}
	.st320{fill:#94C9EC;}
	.st321{fill:#4C9689;}
	.st322{fill:#4D9C85;}
	.st323{fill:#529B94;}
	.st324{fill:#5E9FD6;}
	.st325{fill:#96C4E9;}
	.st326{fill:#8AC3C7;}
	.st327{fill:#65A998;}
	.st328{fill:#59A690;}
	.st329{fill:#4F9E81;}
	.st330{fill:#328C76;}
	.st331{fill:#3B947D;}
	.st332{fill:#3F967C;}
	.st333{fill:#43977D;}
	.st334{fill:#3F8E7A;}
	.st335{fill:#3D8E85;}
	.st336{fill:#3B9677;}
	.st337{fill:#5AA08F;}
	.st338{fill:#308F71;}
	.st339{fill:#3E89B5;}
	.st340{fill:#3FA2D9;}
	.st341{fill:#38A2DB;}
	.st342{fill:#4B9DD5;}
	.st343{fill:#6591CB;}
	.st344{fill:#479BD5;}
	.st345{fill:#479AD4;}
	.st346{fill:#419ED6;}
	.st347{fill:#489BD5;}
	.st348{fill:#83BDC8;}
	.st349{fill:#35A2DB;}
	.st350{fill:#429CD6;}
	.st351{fill:#469693;}
	.st352{fill:#3F937D;}
	.st353{fill:#489788;}
	.st354{fill:#589FAC;}
	.st355{fill:#4497D3;}
	.st356{fill:#82BDE6;}
	.st357{fill:#2A8B6A;}
	.st358{fill:#1B8F64;}
	.st359{fill:#81A4C5;}
	.st360{fill:#96B5DC;}
	.st361{fill:#3AA0D7;}
	.st362{fill:#5BABDB;}
	.st363{fill:#82C4E8;}
	.st364{fill:#499F98;}
	.st365{fill:#64A9A5;}
	.st366{fill:#6578B9;}
	.st367{fill:#379778;}
	.st368{fill:#358C6D;}
	.st369{fill:#5BA492;}
	.st370{fill:#3FA1D9;}
	.st371{fill:#84BCE6;}
	.st372{fill:#6CAFE0;}
	.st373{fill:#61AADD;}
	.st374{fill:#51A691;}
	.st375{fill:#2F926F;}
	.st376{fill:#249167;}
	.st377{fill:#1D8D66;}
	.st378{fill:#1C8E69;}
	.st379{fill:#398E7C;}
	.st380{fill:#67A79E;}
	.st381{fill:#54A290;}
	.st382{fill:#64ADDA;}
	.st383{fill:#7FB4E1;}
	.st384{fill:#90C6EC;}
	.st385{fill:#58ABDF;}
	.st386{fill:#2D9268;}
	.st387{fill:#3E9878;}
	.st388{fill:#549F8F;}
	.st389{fill:#6FB3A5;}
	.st390{fill:#568E9E;}
	.st391{fill:#619AAD;}
	.st392{fill:#4899D3;}
	.st393{fill:#9BD1D6;}
	.st394{fill:#56A391;}
	.st395{fill:#319468;}
	.st396{fill:#3D9A85;}
	.st397{fill:#4B9A84;}
	.st398{fill:#4F8BB2;}
	.st399{fill:#3D9092;}
	.st400{fill:#5BA69B;}
	.st401{fill:#99CED9;}
	.st402{fill:#93B9CD;}
	.st403{fill:#258D67;}
	.st404{fill:#3B907B;}
	.st405{fill:#579D90;}
	.st406{fill:#4C83C4;}
	.st407{fill:#308F7F;}
	.st408{fill:#438486;}
	.st409{fill:#53978E;}
	.st410{fill:#89CAEA;}
	.st411{fill:#2C925F;}
	.st412{fill:#77B6B0;}
	.st413{fill:#4BA5DB;}
	.st414{fill:#85AEC1;}
	.st415{fill:#78BDE5;}
	.st416{fill:#7AB7E2;}
	.st417{fill:#84B2B4;}
	.st418{fill:#3F9785;}
	.st419{fill:#309076;}
	.st420{fill:#09915D;}
	.st421{fill:#0D8F5A;}
	.st422{fill:#0F8F56;}
	.st423{fill:#269262;}
	.st424{fill:#06905C;}
	.st425{fill:#1B8F5D;}
	.st426{fill:#168C61;}
	.st427{fill:#00964C;}
	.st428{fill:#038F52;}
	.st429{fill:#139057;}
	.st430{fill:#0C8F54;}
	.st431{fill:#0C9148;}
	.st432{fill:#198D6D;}
	.st433{fill:#158D52;}
	.st434{fill:#1F8E67;}
	.st435{fill:#24935D;}
	.st436{fill:#2A8F64;}
	.st437{fill:#009155;}
	.st438{fill:#0C9056;}
	.st439{fill:#009A49;}
	.st440{fill:#159158;}
	.st441{fill:#009256;}
	.st442{fill:#1E935C;}
	.st443{fill:#299268;}
	.st444{fill:#18915B;}
	.st445{fill:#178D61;}
	.st446{fill:#019256;}
	.st447{fill:#099356;}
	.st448{fill:#179174;}
	.st449{fill:#009254;}
	.st450{fill:#099157;}
	.st451{fill:#159058;}
	.st452{fill:#329873;}
	.st453{fill:#029352;}
	.st454{fill:#049554;}
	.st455{fill:#089150;}
	.st456{fill:#039153;}
	.st457{fill:#00904A;}
	.st458{fill:#068E5F;}
	.st459{fill:#248E66;}
	.st460{fill:#218E5D;}
	.st461{fill:#1E9063;}
	.st462{fill:#01914C;}
	.st463{fill:#2BA5DE;}
	.st464{fill:#17A8DF;}
	.st465{fill:#16A8DE;}
	.st466{fill:#2BA3DB;}
	.st467{fill:#439ED7;}
	.st468{fill:#14A9DE;}
	.st469{fill:#47A4DB;}
	.st470{fill:#3F9BD5;}
	.st471{fill:#379382;}
	.st472{fill:#2D8F6F;}
	.st473{fill:#62AAD9;}
	.st474{fill:#4C9FD7;}
	.st475{fill:#478DCB;}
	.st476{fill:#4F9CD5;}
	.st477{fill:#4A9DD6;}
	.st478{fill:#65A8D8;}
	.st479{fill:#69A5D9;}
	.st480{fill:#339DD7;}
	.st481{fill:#4598D3;}
	.st482{fill:#AFDCF6;}
	.st483{fill:#3E9ED8;}
	.st484{fill:#509AD3;}
	.st485{fill:#72B6E4;}
	.st486{fill:#85ADDC;}
	.st487{fill:#70B6E1;}
	.st488{fill:#B0DBF5;}
	.st489{fill:#50A2D9;}
	.st490{fill:#4F9ACC;}
	.st491{fill:#3FA0CC;}
	.st492{fill:#409782;}
	.st493{fill:#178C69;}
	.st494{fill:#6A84C2;}
	.st495{fill:#279571;}
	.st496{fill:#319475;}
	.st497{fill:#168C6C;}
	.st498{fill:#58AAA0;}
	.st499{fill:#2C9074;}
	.st500{fill:#42967E;}
	.st501{fill:#48978A;}
	.st502{fill:#68ADAD;}
	.st503{fill:#298B6E;}
	.st504{fill:#9CCBCF;}
	.st505{fill:#2A916E;}
	.st506{fill:#1E8F6C;}
	.st507{fill:#399A77;}
	.st508{fill:#31916F;}
	.st509{fill:#2B8E71;}
	.st510{fill:#208B71;}
	.st511{fill:#169172;}
	.st512{fill:#3E9778;}
	.st513{fill:#23888F;}
	.st514{fill:#238C83;}
	.st515{fill:#4985C5;}
	.st516{fill:none;stroke:url(#SVGID_1_);stroke-width:2;stroke-miterlimit:10;}
	.st517{fill:url(#SVGID_2_);}
	.st518{fill:url(#SVGID_3_);}
	.st519{fill:#A7A9AC;}
	.st520{fill:#939598;}
	.st521{fill:none;stroke:#BE1E2D;stroke-width:0.25;stroke-miterlimit:10;}
	.st522{fill:#808285;}
	.st523{display:none;}
	.st524{fill:none;stroke:#00A651;stroke-width:1.0228;stroke-miterlimit:10;}
	.st525{fill:#00A651;stroke:#000000;stroke-width:4.510897e-02;stroke-miterlimit:10;}
	.st526{fill:#6D6E71;}
	.st527{fill:none;stroke:#FFF200;stroke-width:1.0419;stroke-miterlimit:10;}
	.st528{stroke:#000000;stroke-miterlimit:10;}
	.st529{stroke:#000000;stroke-width:0.9045;stroke-miterlimit:10;}
	.st530{stroke:#000000;stroke-width:0.9012;stroke-miterlimit:10;}
	.st531{stroke:#000000;stroke-width:1.4299;stroke-miterlimit:10;}
	.st532{fill:#FFFFFF;}
	.st533{fill:#B63626;}
	.st534{fill:#F7F4F4;}
	.st535{fill:none;stroke:#000000;stroke-width:3;stroke-miterlimit:10;}
	.st536{fill:#2AB4AD;}
	.st537{fill:#FFFFFF;stroke:#000000;stroke-width:2.4562;stroke-miterlimit:10;}
	.st538{fill:#1458A3;}
	.st539{fill:#1E1C1C;}
	.st540{fill:#CE5850;}
	.st541{fill:#568ECB;}
	.st542{fill:#B7BFC4;}
	.st543{clip-path:url(#SVGID_5_);}
	.st544{clip-path:url(#SVGID_7_);}
	.st545{clip-path:url(#SVGID_9_);}
	.st546{clip-path:url(#SVGID_11_);}
	.st547{clip-path:url(#SVGID_13_);}
	.st548{clip-path:url(#SVGID_15_);}
</style>
<path class="st533" d="M94.4,29.9h41.7v2.4l-26.8,36.2h26.8v8.7H93.4v-2.4l26.8-36.2H94.4V29.9z M189.3,16.1h10.3v9.1h-10.3V16.1z
	 M199.1,29.9v47.3h-9.3V29.9H199.1z M205.2,29.9h9V15.4h9.3v14.6h16.6v8.7h-16.6v29.8h16.6v8.7h-16.6c-1.3,0-2.5-0.2-3.6-0.7
	c-1.1-0.5-2.1-1.1-3-1.9c-0.9-0.8-1.5-1.7-2-2.8c-0.5-1.1-0.7-2.2-0.7-3.4V38.7h-9V29.9z M164.7,56l-18.8,3.6c0.7,1.6,1.6,3,2.8,4.3
	c1.2,1.3,2.5,2.3,4,3.1c1.5,0.8,3.1,1.3,4.9,1.6c1.7,0.3,3.5,0.2,5.3-0.1c2.2-0.4,4.1-1.2,5.9-2.5c1.7-1.2,3.2-2.8,4.3-4.6l1.8-0.3
	l9.5-1.8c-0.2,1-0.5,2-0.8,2.9c-0.4,0.9-0.8,1.9-1.3,2.8c-1.7,3.3-4.1,6.1-7.1,8.4c-3,2.3-6.5,3.9-10.5,4.6c-3.4,0.7-6.8,0.6-10-0.1
	c-3.2-0.7-6.2-2-8.9-3.8c-2.7-1.8-4.9-4.1-6.8-6.8c-1.9-2.7-3.1-5.8-3.8-9.2c-0.7-3.4-0.6-6.7,0.1-9.9c0.7-3.2,2-6.2,3.8-8.8
	c1.8-2.7,4.1-4.9,6.8-6.7c2.7-1.8,5.8-3.1,9.3-3.7c3.9-0.7,7.7-0.6,11.4,0.5c3.7,1.1,7,2.8,9.8,5.3c2.5,2.1,4.6,4.7,6.2,7.9
	c0.9,1.9,1.6,3.9,2.1,6.2c0.2,1.1,0.3,2.2,0.3,3.2l-9.7,1.9L164.7,56z M157.2,38.6c-3.1,0.6-5.6,1.9-7.7,3.9c-2.1,2-3.5,4.4-4.3,7.2
	l21.8-4.2l5.5-1.1c-0.4-0.4-0.8-0.9-1.2-1.3s-0.8-0.8-1.2-1.2c-1.8-1.5-3.8-2.6-6-3.2C161.9,38.3,159.6,38.2,157.2,38.6z M82.4,47.6
	c0-0.9,0-1.7-0.1-2.6H31.4l48-10.6l0,0h0.1c-0.7-1.4-1.4-2.7-2.3-4H31.4l34.4-10.6l-0.1,0h0.1c-5.3-3.1-11.6-4.9-18.4-4.9
	c-6.7,0-13,1.8-18.4,4.9H52L17.8,30.3l0,0h-0.1c-0.8,1.3-1.6,2.6-2.3,4h45.7L12.9,45h-0.2c0,0,0,0,0,0l0,0l0,0
	c-0.1,0.8-0.1,1.7-0.1,2.5c0,0.5,0,1,0,1.4H64L15.2,59.6h-0.2c0,0,0,0,0,0l0,0l0.1,0.1c0.6,1.4,1.2,2.7,2,3.9h45.7L27.3,74.2l0,0h0
	c5.7,3.8,12.7,6,20.2,6c7.5,0,14.5-2.2,20.2-6H42.1l35.7-10.6l0,0h0.1c0.8-1.3,1.5-2.6,2-4H33.7L82.3,49l0,0h0.1
	C82.3,48.5,82.4,48,82.4,47.6z"/>
</svg>
