<?xml version="1.0" encoding="utf-8"?>
<!-- Generator: Adobe Illustrator 19.2.0, SVG Export Plug-In . SVG Version: 6.00 Build 0)  -->
<svg version="1.1" id="Layer_1" xmlns="http://www.w3.org/2000/svg" xmlns:xlink="http://www.w3.org/1999/xlink" x="0px" y="0px"
	 viewBox="0 0 664.023 352.507" style="enable-background:new 0 0 664.023 352.507;" xml:space="preserve">
<style type="text/css">
	.st0{fill:#3C9143;}
	.st1{enable-background:new    ;}
	.st2{fill:#FFFFFF;}
</style>
<rect y="171.728" class="st0" width="664.023" height="181.263"/>
<path class="st0" d="M200.566,35.338c-8.354,3.228-9.263,10.049-10.517,12.804c-2.021,2.651-4.482,3.867-7.093,6.368
	c-2.611,2.501-5.001,6.657-5.001,6.657s4.248-2.145,10.837-4.063c1.648-0.48,12.625,2.061,22.179-3.612
	c3.715,7.004,0.663,14.825-3.4,22.026c11.91-7.548,7.65-23.515,8.159-25.003c3.007,2.902,3.368,17.731-3.722,23.472
	C196.629,86.44,178.963,87.8,165.814,98.063c-15.544,12.133-14.486,41.764,7.765,43.465c-7.84-4.456-14.353-25.98-0.586-39.423
	c13.977-13.648,22.263-10.732,29.54-13.023c-6.958,2.458-14.724,3.245-20.812,10.292c-4.459,5.161-10.018,15.854,0.75,25.583
	c-3.355-8.956,2.667-21.333,11.167-25.833c-4.399,8.167-1.583,13.333,4.833,15.667c-6.623-6.102-0.407-8.578,14.333-27
	c5.658-7.071,10.117-16.271,10.339-27.806c0.286-14.857-11.928-23.821-18.572-25.189c0.297-11.929-9.686-22.035-9.686-22.035
	s1.516,2.257,2.26,7.54c-2.086-5.507-9.18-9.695-12.218-10.301C191.138,16.516,201.634,26.841,200.566,35.338z"/>
<path class="st0" d="M175.008,131.352c5.753,4.965,16.532,5.073,25.502,0.892c10.523-4.905,17.221-14.493,22.286-24.554
	c2.668-5.298,4.886-10.779,6.927-16.344c0.753-2.052,1.959-4.337,2.27-6.511c0.323-2.257-3.162-1.502-4.666-1.543
	c-1.296-0.035-3.676,0.129-4.241-1.436c-0.434-1.202,0.66-2.471,1.487-3.198c3.514-3.088,8.644-2.262,12.943-2.249
	c1.419,0.004,2.839,0.007,4.258,0.009c1.256,0.001,3.233-0.375,4.383,0.221c1.412,0.732,1.036,3.635,1.118,4.988
	c0.339,5.608,0.648,11.217,1.018,16.823c0.346,5.251,0.498,10.546,1.005,15.784c0.239,2.472,1.395,1.369,2.279,0.104
	c6.125-8.77,12.251-17.541,18.376-26.311c2.304-3.299,4.538-6.663,6.919-9.907c1.094-1.49,2.44-1.692,4.237-1.7
	c2.811-0.012,5.623,0,8.434,0c0.742,0,1.484,0,2.226,0c-3.671,12.03-6.993,24.168-10.401,36.275c-0.826,2.933-1.634,5.871-2.4,8.819
	c-0.348,1.337-1.959,4.862-0.241,5.738c0.975,0.497,6.077-0.129,4.448,2.564c-1.071,1.771-4.424,2.432-6.265,2.832
	c-2.466,0.535-5.603,1.203-8.105,0.834c-2.813-0.415-3.031-3.073-2.574-5.36c1.249-6.237,3.238-12.4,4.928-18.529
	c1.758-6.374,3.555-12.737,5.392-19.088c0.29-1.001,2.597-7.813,1.85-7.956c-0.952-0.181-2.858,3.576-3.354,4.28
	c-7.166,10.173-14.243,20.406-21.371,30.605c-2.918,4.176-5.793,8.398-8.778,12.526c-0.878,1.214-3.097,3.543-4.383,1.484
	c-0.873-1.397-0.633-4.109-0.767-5.625c-1.051-11.945-2.071-23.89-3.088-35.838c-0.097-1.144-0.203-2.288-0.293-3.433
	c-0.029-0.365,0.051-1.908-0.275-2.111c-0.95-0.593-2.434,5.336-2.651,6.017c-1.792,5.617-3.817,11.173-6.144,16.591
	c-4.73,11.011-10.884,22.392-20.913,29.453c-9.242,6.508-23.518,9.368-32.556,0.995c-1.94-1.797-3.485-3.997-4.541-6.415
	c-1.207-2.763-2.211-5.298-1-12.019C169.74,124.751,172.357,129.063,175.008,131.352z"/>
<g class="st1">
	<path class="st0" d="M293.859,135.043c-0.223-6.554-0.695-12.054-1.417-16.498c-0.723-4.443-1.445-8.068-2.167-10.874
		c-0.723-2.804-1.347-4.929-1.875-6.374c-0.529-1.444-0.723-2.471-0.583-3.083c0.138-0.61,0.736-0.93,1.792-0.958
		c1.055-0.027,2.804-0.042,5.25-0.042c0.833,0,1.569,0.154,2.208,0.458c0.639,0.306,1.18,0.833,1.625,1.583
		c0.444,0.75,0.819,1.764,1.125,3.042c0.305,1.278,0.513,2.889,0.625,4.833c0.167,2.389,0.291,4.749,0.375,7.082
		c0.083,2.333,0.138,4.514,0.166,6.541c0.027,2.028,0.027,3.819,0,5.374c-0.028,1.556-0.07,2.723-0.125,3.5l1,0.083
		c0.222-0.444,0.652-1.318,1.292-2.625c0.638-1.304,1.318-2.762,2.041-4.374c0.722-1.61,1.388-3.221,2-4.833
		c0.61-1.61,1.027-2.916,1.25-3.916c0.11-0.61,0.25-1.388,0.416-2.333c0.167-0.943,0.25-2.027,0.25-3.249
		c0-1.111-0.25-2.305-0.75-3.583c-0.5-1.277-0.749-2.471-0.749-3.583c0-0.944,0.36-1.846,1.083-2.708
		c0.721-0.86,1.86-1.292,3.416-1.292c1.943,0,3.263,0.583,3.958,1.75c0.693,1.167,1.041,2.722,1.041,4.666
		c0,0.778-0.166,1.792-0.5,3.041c-0.333,1.25-0.791,2.639-1.375,4.167c-0.583,1.528-1.236,3.111-1.958,4.749
		c-0.722,1.64-1.472,3.181-2.249,4.624c-1.112,2.112-2.487,4.514-4.125,7.208c-1.639,2.694-3.389,5.416-5.249,8.165
		c-1.861,2.75-3.778,5.402-5.749,7.957c-1.973,2.555-3.847,4.721-5.625,6.5c-0.556,0.554-1.264,1.263-2.125,2.124
		c-0.862,0.86-1.833,1.68-2.917,2.458c-1.083,0.777-2.264,1.458-3.541,2.042c-1.277,0.583-2.61,0.875-4,0.875
		c-1.944,0-3.375-0.432-4.291-1.292c-0.917-0.862-1.375-1.903-1.375-3.125c0-1.499,0.445-2.722,1.333-3.666
		c0.889-0.945,1.833-1.416,2.833-1.416c0.722,0,1.292,0.138,1.708,0.416c0.417,0.277,0.82,0.639,1.208,1.084
		c0.389,0.388,0.82,0.708,1.292,0.958s0.93,0.375,1.375,0.375c0.444,0,0.917-0.07,1.417-0.209c0.5-0.139,1.138-0.458,1.916-0.958
		c0.888-0.556,1.763-1.223,2.625-1.999c0.86-0.779,1.625-1.557,2.291-2.333c0.667-0.779,1.25-1.515,1.75-2.208
		c0.5-0.695,0.86-1.209,1.083-1.542c0.611-0.833,0.971-1.778,1.083-2.833C294.053,137.737,294.026,136.487,293.859,135.043z"/>
</g>
<g class="st1">
	<path class="st0" d="M351.351,96.798c0.61,0,0.833,0.333,0.666,1c-0.333,0.889-0.791,2.167-1.375,3.833
		c-0.583,1.667-1.181,3.389-1.791,5.166c-0.612,1.778-1.181,3.445-1.708,5c-0.528,1.556-0.875,2.666-1.042,3.333
		c-0.111,0.333-0.333,1.098-0.666,2.291c-0.334,1.195-0.695,2.458-1.083,3.791c-0.39,1.333-0.737,2.57-1.042,3.708
		c-0.306,1.14-0.458,1.875-0.458,2.208c0,0.667,0.333,1,1,1c0.333,0,0.708,0.208,1.124,0.625c0.417,0.417,0.527,0.916,0.334,1.5
		c-0.195,0.583-0.89,1.195-2.083,1.833c-1.195,0.639-3.237,1.152-6.124,1.541c-1.279,0.167-2.167-0.07-2.667-0.708
		s-0.75-1.292-0.75-1.958c0-0.277,0.042-0.61,0.125-1c0.084-0.388,0.236-0.971,0.459-1.75c0.221-0.777,0.541-1.804,0.958-3.083
		c0.416-1.276,0.985-2.943,1.708-4.999l-0.75-0.416c-0.833,1.278-1.791,2.707-2.875,4.291c-1.083,1.583-2.319,3.097-3.707,4.541
		c-1.39,1.444-2.917,2.653-4.583,3.624c-1.667,0.972-3.472,1.458-5.416,1.458c-0.556,0-1.167-0.181-1.833-0.541
		c-0.667-0.361-1.292-0.847-1.875-1.459c-0.583-0.61-1.07-1.304-1.458-2.083c-0.389-0.776-0.583-1.583-0.583-2.416
		c0-1.721,0.277-3.666,0.833-5.832c0.555-2.167,1.319-4.36,2.292-6.583c0.971-2.221,2.152-4.387,3.541-6.499
		c1.388-2.11,2.902-3.971,4.541-5.583c1.638-1.61,3.387-2.916,5.25-3.916c1.86-1,3.791-1.5,5.791-1.5
		c1.888,0,3.304,0.32,4.249,0.958c0.944,0.639,1.694,1.292,2.25,1.958l1.333-2.417c0.388-0.61,0.888-0.917,1.5-0.917H351.351z
		 M323.771,124.378c0,0.944,0.167,1.597,0.5,1.958s0.833,0.541,1.5,0.541c0.554,0,1.402-0.583,2.541-1.75
		c1.138-1.166,2.305-2.541,3.5-4.124c1.193-1.583,2.318-3.18,3.374-4.791c1.055-1.61,1.777-2.833,2.167-3.666
		c0.499-1.11,0.943-2.36,1.333-3.75c0.388-1.388,0.583-2.804,0.583-4.25c0-0.944-0.403-1.805-1.208-2.583
		c-0.806-0.777-1.625-1.167-2.458-1.167c-2.056,0-4.138,1.889-6.249,5.666c-2.112,3.722-3.57,7.124-4.375,10.207
		C324.173,119.753,323.771,122.324,323.771,124.378z"/>
	<path class="st0" d="M350.266,132.793c-0.723,0-0.973-0.305-0.75-0.917l5.749-15.997c0.5-1.333,0.972-2.638,1.417-3.916
		c0.443-1.277,0.833-2.458,1.166-3.542c0.333-1.083,0.61-2,0.833-2.75c0.222-0.75,0.334-1.263,0.334-1.542
		c0-0.888-0.362-1.333-1.084-1.333c-0.166,0-0.32-0.292-0.458-0.875c-0.14-0.583-0.028-1.221,0.333-1.917
		c0.361-0.694,1.139-1.333,2.333-1.917c1.194-0.583,3.069-0.875,5.625-0.875c1.276,0,2.151,0.375,2.624,1.125
		c0.472,0.75,0.708,1.458,0.708,2.125c0,0.612-0.389,1.917-1.166,3.917c-0.778,2-1.723,4.305-2.833,6.916l0.75,0.583
		c0.61-0.888,1.485-2.166,2.625-3.833c1.138-1.667,2.485-3.291,4.041-4.875c1.554-1.583,3.263-2.971,5.124-4.166
		c1.86-1.194,3.818-1.792,5.874-1.792c0.888,0,1.667,0.181,2.333,0.542c0.667,0.362,1.222,0.82,1.667,1.375
		c0.443,0.556,0.776,1.167,0.999,1.833c0.222,0.667,0.334,1.279,0.334,1.833c0,0.445-0.084,1.029-0.25,1.75
		c-0.167,0.723-0.432,1.681-0.792,2.875c-0.361,1.195-0.861,2.681-1.5,4.458c-0.639,1.778-1.403,3.945-2.291,6.499
		c-1,2.833-1.695,4.833-2.083,6c-0.39,1.166-0.583,1.999-0.583,2.499c0,0.945,0.36,1.417,1.083,1.417
		c0.167,0,0.43,0.181,0.791,0.541c0.361,0.362,0.417,0.806,0.167,1.333c-0.25,0.529-1,1.098-2.25,1.708
		c-1.249,0.612-3.402,1.194-6.457,1.75c-1.278,0.222-2.153-0.041-2.625-0.791c-0.473-0.75-0.708-1.542-0.708-2.375
		c0-0.777,0.402-2.36,1.208-4.749c0.805-2.388,1.847-5.416,3.125-9.082c0.333-0.944,0.693-1.972,1.083-3.083
		c0.388-1.11,0.75-2.194,1.083-3.25c0.333-1.054,0.61-1.985,0.833-2.791c0.222-0.805,0.334-1.402,0.334-1.792
		c0-1.221-0.557-1.833-1.667-1.833c-0.5,0-1.208,0.375-2.124,1.125c-0.917,0.75-1.931,1.708-3.042,2.875s-2.222,2.472-3.333,3.916
		c-1.111,1.445-2.083,2.833-2.916,4.166c-0.945,1.445-1.791,2.791-2.541,4.041s-1.265,2.236-1.542,2.958l-3.249,9.332
		c-0.112,0.167-0.237,0.292-0.375,0.375c-0.14,0.083-0.431,0.125-0.875,0.125H350.266z"/>
	<path class="st0" d="M389.344,132.793c-0.778,0-1.028-0.36-0.75-1.083l5.416-15.748c0.443-1.277,0.888-2.568,1.333-3.874
		c0.444-1.305,0.86-2.5,1.25-3.583c0.388-1.083,0.693-2.013,0.916-2.791c0.222-0.777,0.334-1.333,0.334-1.667
		c0-0.277-0.057-0.542-0.167-0.792c-0.112-0.25-0.39-0.375-0.833-0.375c-0.5,0-0.958-0.292-1.375-0.875
		c-0.417-0.583-0.515-1.235-0.292-1.958c0.222-0.721,0.93-1.375,2.125-1.958c1.194-0.583,3.125-0.875,5.791-0.875
		c1.777,0,3,0.292,3.666,0.875c0.667,0.583,1,1.375,1,2.375c0,0.612-0.237,1.583-0.708,2.917c-0.473,1.333-1.015,2.722-1.625,4.166
		c-0.612,1.445-1.195,2.792-1.75,4.042c-0.556,1.249-0.916,2.097-1.083,2.541l0.833,0.583c0.833-1.443,1.86-3.166,3.083-5.166
		c1.222-2,2.583-3.917,4.083-5.75s3.138-3.388,4.916-4.666c1.777-1.277,3.666-1.917,5.666-1.917c1.388,0,2.61,0.431,3.666,1.292
		c1.055,0.862,1.583,1.792,1.583,2.792c0,0.612-0.181,1.528-0.542,2.75c-0.361,1.223-0.764,2.5-1.208,3.833
		c-0.445,1.333-0.916,2.597-1.416,3.791c-0.5,1.195-0.862,2.125-1.083,2.791l0.749,0.583c1.111-1.666,2.319-3.541,3.625-5.624
		c1.305-2.083,2.721-4.027,4.249-5.833c1.527-1.805,3.167-3.319,4.916-4.542c1.75-1.221,3.652-1.833,5.708-1.833
		c0.888,0,1.652,0.167,2.291,0.5c0.638,0.333,1.167,0.75,1.583,1.25c0.417,0.5,0.722,1.014,0.917,1.542
		c0.194,0.528,0.292,0.987,0.292,1.375c0,0.667-0.125,1.556-0.375,2.667c-0.25,1.112-0.584,2.333-1,3.666
		c-0.417,1.333-0.89,2.75-1.417,4.25c-0.528,1.499-1.041,2.999-1.541,4.499c-0.833,2.389-1.57,4.431-2.208,6.124
		c-0.64,1.695-0.958,2.848-0.958,3.458c0.11,0.778,0.443,1.166,0.999,1.166c0.5,0,0.819,0.292,0.959,0.875
		c0.138,0.584-0.042,1.223-0.542,1.917c-0.5,0.695-1.361,1.361-2.583,1.999c-1.223,0.639-2.945,1.014-5.166,1.125
		c-1.389,0.111-2.361-0.195-2.916-0.916c-0.556-0.722-0.862-1.417-0.917-2.083c-0.056-1.5,1.444-6.276,4.5-14.332
		c0.666-1.721,1.208-3.166,1.624-4.332c0.417-1.167,0.75-2.167,1-3s0.43-1.5,0.542-2c0.11-0.5,0.167-0.944,0.167-1.333
		c0-1.054-0.5-1.583-1.5-1.583c-0.334,0-0.917,0.404-1.75,1.208c-0.833,0.806-1.82,1.904-2.958,3.292
		c-1.139,1.389-2.375,2.987-3.708,4.791c-1.333,1.806-2.666,3.708-3.999,5.708c-0.278,0.445-0.695,1.181-1.25,2.208
		c-0.556,1.028-1.083,2.264-1.583,3.708l-2.583,7.332c-0.112,0.333-0.5,0.5-1.167,0.5h-7.082c-0.778,0-1.056-0.36-0.833-1.083
		l4.999-13.832c1.055-2.887,1.958-5.47,2.708-7.749c0.75-2.277,1.125-3.75,1.125-4.416c0-0.444-0.083-0.833-0.25-1.167
		s-0.556-0.5-1.167-0.5c-0.333,0-0.931,0.389-1.791,1.167c-0.861,0.779-1.833,1.806-2.916,3.083
		c-1.083,1.278-2.265,2.75-3.541,4.416c-1.278,1.667-2.5,3.417-3.666,5.25c-0.557,0.778-1.125,1.75-1.709,2.916
		c-0.583,1.167-1.181,2.5-1.791,3.999l-2.75,7.333c-0.111,0.389-0.5,0.583-1.166,0.583H389.344z"/>
	<path class="st0" d="M486.747,96.798c0.61,0,0.833,0.333,0.666,1c-0.333,0.889-0.791,2.167-1.375,3.833
		c-0.583,1.667-1.181,3.389-1.791,5.166c-0.612,1.778-1.181,3.445-1.708,5c-0.528,1.556-0.875,2.666-1.042,3.333
		c-0.111,0.333-0.333,1.098-0.666,2.291c-0.334,1.195-0.695,2.458-1.083,3.791c-0.39,1.333-0.737,2.57-1.042,3.708
		c-0.306,1.14-0.458,1.875-0.458,2.208c0,0.667,0.333,1,1,1c0.333,0,0.708,0.208,1.124,0.625c0.417,0.417,0.527,0.916,0.334,1.5
		c-0.195,0.583-0.89,1.195-2.083,1.833c-1.195,0.639-3.237,1.152-6.124,1.541c-1.279,0.167-2.167-0.07-2.667-0.708
		s-0.75-1.292-0.75-1.958c0-0.277,0.042-0.61,0.125-1c0.084-0.388,0.236-0.971,0.459-1.75c0.221-0.777,0.541-1.804,0.958-3.083
		c0.416-1.276,0.985-2.943,1.708-4.999l-0.75-0.416c-0.833,1.278-1.791,2.707-2.875,4.291c-1.083,1.583-2.319,3.097-3.707,4.541
		c-1.39,1.444-2.917,2.653-4.583,3.624c-1.667,0.972-3.473,1.458-5.416,1.458c-0.556,0-1.166-0.181-1.833-0.541
		c-0.667-0.361-1.292-0.847-1.875-1.459c-0.583-0.61-1.07-1.304-1.458-2.083c-0.39-0.776-0.583-1.583-0.583-2.416
		c0-1.721,0.277-3.666,0.833-5.832c0.555-2.167,1.319-4.36,2.291-6.583c0.972-2.221,2.152-4.387,3.542-6.499
		c1.388-2.11,2.901-3.971,4.541-5.583c1.638-1.61,3.387-2.916,5.249-3.916c1.86-1,3.791-1.5,5.791-1.5
		c1.888,0,3.304,0.32,4.249,0.958c0.944,0.639,1.694,1.292,2.25,1.958l1.333-2.417c0.388-0.61,0.888-0.917,1.5-0.917H486.747z
		 M459.167,124.378c0,0.944,0.167,1.597,0.5,1.958s0.833,0.541,1.5,0.541c0.555,0,1.402-0.583,2.541-1.75
		c1.138-1.166,2.305-2.541,3.5-4.124c1.193-1.583,2.318-3.18,3.374-4.791c1.055-1.61,1.777-2.833,2.167-3.666
		c0.499-1.11,0.943-2.36,1.333-3.75c0.388-1.388,0.583-2.804,0.583-4.25c0-0.944-0.403-1.805-1.208-2.583
		c-0.806-0.777-1.625-1.167-2.458-1.167c-2.056,0-4.139,1.889-6.249,5.666c-2.112,3.722-3.57,7.124-4.375,10.207
		C459.569,119.753,459.167,122.324,459.167,124.378z"/>
	<path class="st0" d="M488.161,132.793c-0.722,0-0.972-0.25-0.749-0.75l3.999-13.498c0.333-1.167,0.735-2.5,1.208-3.999
		c0.472-1.5,0.917-2.958,1.333-4.375c0.417-1.417,0.763-2.693,1.042-3.833c0.277-1.138,0.416-1.902,0.416-2.292
		c0-0.444-0.125-0.819-0.375-1.125c-0.25-0.305-0.597-0.458-1.041-0.458c-0.112,0-0.39-0.083-0.833-0.25
		c-0.445-0.167-0.625-0.444-0.542-0.833c0.083-0.388,0.625-0.929,1.625-1.625c1-0.694,2.916-1.542,5.749-2.542
		c0.777-0.277,1.444-0.333,2-0.167c0.555,0.167,1,0.445,1.333,0.833c0.333,0.39,0.583,0.833,0.75,1.333
		c0.166,0.5,0.25,0.945,0.25,1.333c0,0.779-0.348,2.125-1.042,4.041c-0.695,1.917-1.541,4.236-2.541,6.958l0.917,0.5
		c0.499-1.167,1.193-2.583,2.083-4.25c0.888-1.667,1.888-3.291,2.999-4.875c1.11-1.583,2.36-2.929,3.75-4.041
		c1.388-1.11,2.833-1.667,4.332-1.667c1.222,0,2.319,0.417,3.292,1.25c0.971,0.833,1.458,1.917,1.458,3.25
		c0,0.723-0.125,1.417-0.375,2.083s-0.57,1.25-0.958,1.75c-0.39,0.5-0.792,0.889-1.209,1.167c-0.416,0.278-0.82,0.417-1.208,0.417
		c-1.166,0-2.083-0.221-2.749-0.667c-0.334-0.222-0.667-0.444-1-0.667c-0.334-0.222-0.779-0.333-1.333-0.333
		c-0.667,0-1.417,0.362-2.25,1.083c-0.833,0.723-1.667,1.625-2.5,2.708c-0.833,1.083-1.625,2.264-2.374,3.542
		c-0.75,1.278-1.348,2.444-1.792,3.499c-0.445,1-0.889,2.112-1.333,3.333c-0.445,1.223-0.917,2.611-1.416,4.166l-2.667,8.416
		c-0.166,0.389-0.528,0.583-1.083,0.583H488.161z"/>
</g>
<g class="st1">
	<path class="st0" d="M315.414,79.402c0.587,0.717,0.881,1.7,0.881,2.95v8.425h-1.348v-8.425c0-0.967-0.156-1.708-0.468-2.226
		c-0.312-0.516-0.898-0.774-1.76-0.774c-1.283,0-2.769,0.75-4.455,2.25c0.018,0.167,0.027,0.417,0.027,0.75v8.425h-1.348v-8.425
		c0-0.967-0.156-1.708-0.468-2.226c-0.312-0.516-0.898-0.774-1.76-0.774c-0.696,0-1.443,0.221-2.241,0.662
		c-0.797,0.442-1.608,1.038-2.434,1.788v8.975h-1.348V78.652h1.045l0.275,1.9c0.568-0.601,1.302-1.121,2.2-1.562
		c0.897-0.441,1.695-0.663,2.393-0.663c1.796,0,2.942,0.733,3.438,2.2c0.567-0.6,1.297-1.116,2.186-1.55
		c0.89-0.434,1.682-0.65,2.379-0.65C313.893,78.327,314.827,78.686,315.414,79.402z"/>
	<path class="st0" d="M322.564,93.228l0.853-2.45l-5.032-11.825l1.265-0.45l4.4,10.875l4.234-10.725h1.375l-6.022,14.925
		c-0.274,0.684-0.733,1.259-1.375,1.726c-0.642,0.466-1.402,0.783-2.282,0.949l-0.138-0.949c0.733-0.217,1.315-0.484,1.746-0.801
		S322.345,93.761,322.564,93.228z"/>
	<path class="st0" d="M331.089,90.152l0.495-1.025c0.659,0.301,1.269,0.534,1.828,0.7c0.56,0.167,1.15,0.25,1.774,0.25
		c1.1,0,1.961-0.204,2.585-0.612c0.623-0.408,0.935-0.963,0.935-1.662c0-1-1.174-1.917-3.52-2.75
		c-2.585-0.917-3.878-2.042-3.878-3.375c0-0.983,0.403-1.788,1.21-2.413s1.934-0.938,3.383-0.938c0.586,0,1.251,0.097,1.993,0.288
		c0.743,0.191,1.334,0.429,1.774,0.712l-0.551,0.875c-0.642-0.283-1.191-0.495-1.649-0.638c-0.459-0.141-1.045-0.212-1.76-0.212
		c-0.917,0-1.664,0.221-2.241,0.662c-0.578,0.442-0.866,0.963-0.866,1.562c0,0.517,0.293,0.976,0.88,1.375
		c0.586,0.4,1.411,0.792,2.475,1.175c1.246,0.45,2.231,0.963,2.956,1.538s1.087,1.254,1.087,2.037c0,2.267-1.623,3.4-4.868,3.4
		c-0.623,0-1.334-0.088-2.131-0.263C332.202,90.665,331.565,90.436,331.089,90.152z"/>
	<path class="st0" d="M344.977,79.027h2.42l0.577,0.925h-2.997v7.75c0,0.667,0.155,1.229,0.467,1.688
		c0.312,0.459,0.779,0.688,1.402,0.688c0.367,0,0.743-0.075,1.128-0.225l0.33,0.95c-0.055,0-0.303,0.058-0.742,0.175
		c-0.367,0.083-0.725,0.125-1.073,0.125c-0.88,0-1.576-0.279-2.09-0.838c-0.514-0.558-0.77-1.354-0.77-2.388v-7.925h-1.98v-0.925
		h1.98v-3.275l1.348-0.55V79.027z"/>
	<path class="st0" d="M361.229,84.728h-9.597c0.018,1.566,0.416,2.85,1.196,3.85c0.778,1,1.947,1.5,3.506,1.5
		c0.88,0,1.613-0.075,2.2-0.225c0.586-0.15,1.164-0.358,1.732-0.625l0.55,0.925c-0.514,0.283-1.196,0.513-2.049,0.688
		s-1.591,0.263-2.214,0.263c-2.108,0-3.689-0.583-4.743-1.75c-1.055-1.167-1.582-2.733-1.582-4.7c0-1.9,0.5-3.429,1.499-4.588
		c0.999-1.158,2.443-1.737,4.331-1.737c1.009,0,1.907,0.275,2.695,0.825s1.397,1.312,1.829,2.287
		C361.014,82.415,361.229,83.511,361.229,84.728z M351.687,83.803h8.112c-0.146-1.316-0.532-2.388-1.155-3.213
		s-1.549-1.237-2.777-1.237c-1.247,0-2.223,0.421-2.929,1.263S351.814,82.52,351.687,83.803z"/>
	<path class="st0" d="M365.601,81.853v8.925h-1.348V78.652h0.771l0.495,1.925c0.623-0.466,1.352-0.903,2.186-1.312
		c0.834-0.408,1.563-0.612,2.187-0.612l0.468,0.95c-0.789,0-1.637,0.233-2.544,0.7S366.169,81.286,365.601,81.853z"/>
	<path class="st0" d="M373.218,75.777c-0.312,0-0.563-0.092-0.756-0.275c-0.192-0.183-0.289-0.408-0.289-0.675
		s0.097-0.491,0.289-0.675s0.444-0.275,0.756-0.275c0.293,0,0.545,0.092,0.756,0.275s0.316,0.408,0.316,0.675
		s-0.101,0.492-0.302,0.675C373.786,75.686,373.529,75.777,373.218,75.777z M373.905,78.652v12.125h-1.348V78.652H373.905z"/>
	<path class="st0" d="M388.384,88.015c-0.486,0.959-1.196,1.713-2.131,2.263c-0.936,0.55-2.035,0.825-3.301,0.825
		c-1.925-0.017-3.409-0.612-4.454-1.788c-1.046-1.175-1.568-2.729-1.568-4.662c0-1.2,0.243-2.279,0.729-3.237
		c0.485-0.958,1.196-1.713,2.131-2.263s2.044-0.825,3.327-0.825c1.926,0.017,3.405,0.612,4.441,1.788
		c1.036,1.175,1.554,2.729,1.554,4.662C389.112,85.978,388.869,87.057,388.384,88.015z M385.469,89.365
		c0.724-0.476,1.279-1.117,1.664-1.926c0.385-0.808,0.577-1.688,0.577-2.637c0-1.017-0.179-1.938-0.536-2.763
		s-0.885-1.479-1.581-1.963c-0.697-0.483-1.531-0.725-2.503-0.725c-0.953,0-1.792,0.237-2.516,0.712
		c-0.725,0.476-1.279,1.117-1.664,1.926s-0.577,1.688-0.577,2.637c0,1.018,0.179,1.938,0.536,2.763s0.884,1.479,1.581,1.963
		c0.696,0.483,1.53,0.725,2.502,0.725C383.905,90.077,384.744,89.84,385.469,89.365z"/>
	<path class="st0" d="M400.69,87.627v-8.975h1.348v12.125h-1.045l-0.275-1.9c-0.587,0.617-1.32,1.143-2.2,1.575
		c-0.88,0.434-1.724,0.65-2.529,0.65c-1.357,0-2.356-0.362-2.998-1.088c-0.642-0.725-0.962-1.704-0.962-2.938v-8.425h1.347v8.425
		c0,0.934,0.184,1.667,0.551,2.2c0.366,0.533,1.018,0.8,1.952,0.8C397.326,90.077,398.931,89.261,400.69,87.627z"/>
	<path class="st0" d="M405.118,90.152l0.495-1.025c0.659,0.301,1.269,0.534,1.828,0.7c0.56,0.167,1.15,0.25,1.774,0.25
		c1.1,0,1.961-0.204,2.585-0.612c0.623-0.408,0.935-0.963,0.935-1.662c0-1-1.174-1.917-3.52-2.75
		c-2.585-0.917-3.878-2.042-3.878-3.375c0-0.983,0.403-1.788,1.21-2.413s1.934-0.938,3.383-0.938c0.586,0,1.251,0.097,1.993,0.288
		c0.743,0.191,1.334,0.429,1.774,0.712l-0.551,0.875c-0.642-0.283-1.191-0.495-1.649-0.638c-0.459-0.141-1.045-0.212-1.76-0.212
		c-0.917,0-1.664,0.221-2.241,0.662c-0.578,0.442-0.866,0.963-0.866,1.562c0,0.517,0.293,0.976,0.88,1.375
		c0.586,0.4,1.411,0.792,2.475,1.175c1.246,0.45,2.231,0.963,2.956,1.538s1.087,1.254,1.087,2.037c0,2.267-1.623,3.4-4.868,3.4
		c-0.623,0-1.334-0.088-2.131-0.263C406.231,90.665,405.595,90.436,405.118,90.152z"/>
</g>
<g>
	<path class="st2" d="M200.566,218.338c-8.354,3.228-9.263,10.049-10.517,12.804c-2.021,2.651-4.482,3.867-7.093,6.368
		c-2.611,2.501-5.001,6.657-5.001,6.657s4.248-2.145,10.837-4.063c1.648-0.48,12.625,2.061,22.179-3.612
		c3.715,7.004,0.663,14.825-3.4,22.026c11.91-7.548,7.65-23.515,8.159-25.003c3.007,2.902,3.368,17.731-3.722,23.472
		c-15.379,12.453-33.045,13.813-46.194,24.076c-15.544,12.133-14.486,41.764,7.765,43.465c-7.84-4.456-14.353-25.98-0.586-39.423
		c13.977-13.648,22.263-10.732,29.54-13.023c-6.958,2.458-14.724,3.245-20.812,10.292c-4.459,5.161-10.018,15.854,0.75,25.583
		c-3.355-8.956,2.667-21.333,11.167-25.833c-4.399,8.167-1.583,13.333,4.833,15.667c-6.623-6.102-0.407-8.578,14.333-27
		c5.658-7.071,10.117-16.271,10.339-27.806c0.286-14.857-11.928-23.821-18.572-25.189c0.297-11.929-9.686-22.035-9.686-22.035
		s1.516,2.257,2.26,7.54c-2.086-5.507-9.18-9.695-12.218-10.301C191.138,199.516,201.634,209.841,200.566,218.338z"/>
	<path class="st2" d="M175.008,314.352c5.753,4.965,16.532,5.073,25.502,0.892c10.523-4.905,17.221-14.493,22.286-24.554
		c2.668-5.298,4.886-10.779,6.927-16.344c0.753-2.052,1.959-4.337,2.27-6.511c0.323-2.257-3.162-1.502-4.666-1.543
		c-1.296-0.035-3.676,0.129-4.241-1.436c-0.434-1.202,0.66-2.471,1.487-3.198c3.514-3.088,8.644-2.262,12.943-2.249
		c1.419,0.004,2.839,0.007,4.258,0.009c1.256,0.001,3.233-0.375,4.383,0.221c1.412,0.732,1.036,3.635,1.118,4.988
		c0.339,5.608,0.648,11.217,1.018,16.823c0.346,5.251,0.498,10.546,1.005,15.784c0.239,2.472,1.395,1.369,2.279,0.104
		c6.125-8.77,12.251-17.541,18.376-26.311c2.304-3.299,4.538-6.663,6.919-9.907c1.094-1.49,2.44-1.692,4.237-1.7
		c2.811-0.012,5.623,0,8.434,0c0.742,0,1.484,0,2.226,0c-3.671,12.03-6.993,24.168-10.401,36.275
		c-0.826,2.933-1.634,5.871-2.4,8.819c-0.348,1.337-1.959,4.862-0.241,5.738c0.975,0.497,6.077-0.129,4.448,2.564
		c-1.071,1.771-4.424,2.432-6.265,2.832c-2.466,0.535-5.603,1.203-8.105,0.834c-2.813-0.415-3.031-3.073-2.574-5.36
		c1.249-6.237,3.238-12.4,4.928-18.529c1.758-6.374,3.555-12.737,5.392-19.088c0.29-1.001,2.597-7.813,1.85-7.956
		c-0.952-0.181-2.858,3.576-3.354,4.28c-7.166,10.173-14.243,20.406-21.371,30.605c-2.918,4.176-5.793,8.398-8.778,12.526
		c-0.878,1.214-3.097,3.543-4.383,1.484c-0.873-1.397-0.633-4.109-0.767-5.625c-1.051-11.945-2.071-23.89-3.088-35.838
		c-0.097-1.144-0.203-2.288-0.293-3.433c-0.029-0.365,0.051-1.908-0.275-2.111c-0.95-0.593-2.434,5.336-2.651,6.017
		c-1.792,5.617-3.817,11.173-6.144,16.591c-4.73,11.011-10.884,22.392-20.913,29.453c-9.242,6.508-23.518,9.368-32.556,0.995
		c-1.94-1.797-3.485-3.997-4.541-6.415c-1.207-2.763-2.211-5.298-1-12.019C169.74,307.751,172.357,312.063,175.008,314.352z"/>
	<g>
		<path class="st2" d="M293.859,318.043c-0.223-6.554-0.695-12.053-1.416-16.498c-0.723-4.443-1.445-8.068-2.166-10.874
			c-0.723-2.804-1.348-4.929-1.875-6.374c-0.529-1.444-0.723-2.471-0.584-3.083c0.139-0.61,0.736-0.93,1.791-0.958
			c1.055-0.027,2.805-0.042,5.25-0.042c0.834,0,1.568,0.154,2.207,0.458c0.639,0.306,1.18,0.833,1.625,1.583s0.82,1.764,1.125,3.042
			c0.305,1.278,0.514,2.889,0.625,4.833c0.168,2.389,0.291,4.75,0.375,7.083s0.139,4.514,0.166,6.541
			c0.027,2.028,0.027,3.82,0,5.375c-0.027,1.556-0.07,2.722-0.125,3.5l1,0.083c0.223-0.444,0.652-1.319,1.293-2.625
			c0.637-1.305,1.318-2.763,2.041-4.375c0.721-1.61,1.387-3.221,2-4.833c0.609-1.61,1.027-2.917,1.25-3.916
			c0.109-0.611,0.25-1.388,0.416-2.333c0.166-0.944,0.25-2.027,0.25-3.25c0-1.111-0.25-2.305-0.75-3.583
			c-0.5-1.277-0.75-2.471-0.75-3.583c0-0.944,0.361-1.846,1.084-2.708c0.721-0.86,1.859-1.292,3.416-1.292
			c1.943,0,3.262,0.583,3.957,1.75c0.693,1.167,1.041,2.722,1.041,4.666c0,0.778-0.166,1.792-0.5,3.041
			c-0.332,1.25-0.791,2.639-1.375,4.167c-0.582,1.528-1.236,3.111-1.957,4.749c-0.723,1.639-1.473,3.181-2.25,4.625
			c-1.111,2.112-2.486,4.514-4.125,7.208c-1.639,2.695-3.389,5.416-5.248,8.165c-1.861,2.75-3.779,5.402-5.75,7.957
			c-1.973,2.555-3.848,4.721-5.623,6.5c-0.557,0.554-1.266,1.263-2.125,2.124c-0.863,0.86-1.834,1.68-2.916,2.458
			c-1.084,0.777-2.266,1.458-3.541,2.042c-1.277,0.583-2.611,0.875-4,0.875c-1.943,0-3.375-0.432-4.291-1.292
			c-0.918-0.862-1.375-1.903-1.375-3.125c0-1.499,0.445-2.722,1.332-3.666c0.891-0.945,1.834-1.416,2.834-1.416
			c0.723,0,1.291,0.138,1.707,0.416c0.418,0.277,0.82,0.639,1.209,1.084c0.389,0.388,0.82,0.708,1.291,0.958
			c0.473,0.25,0.93,0.375,1.375,0.375c0.443,0,0.916-0.07,1.416-0.209s1.139-0.458,1.918-0.958c0.887-0.556,1.762-1.223,2.623-1.999
			c0.861-0.779,1.625-1.557,2.293-2.333c0.666-0.779,1.248-1.515,1.748-2.208c0.5-0.695,0.861-1.209,1.084-1.542
			c0.611-0.833,0.971-1.778,1.084-2.833C294.053,320.737,294.025,319.487,293.859,318.043z"/>
		<path class="st2" d="M351.352,279.798c0.609,0,0.832,0.333,0.666,1c-0.334,0.889-0.791,2.167-1.375,3.833
			c-0.584,1.667-1.182,3.389-1.791,5.166c-0.613,1.778-1.182,3.445-1.709,5c-0.527,1.556-0.875,2.666-1.041,3.333
			c-0.111,0.333-0.334,1.097-0.666,2.291c-0.334,1.195-0.695,2.458-1.084,3.792c-0.389,1.333-0.736,2.57-1.041,3.708
			c-0.307,1.139-0.459,1.875-0.459,2.208c0,0.667,0.334,1,1,1c0.334,0,0.709,0.208,1.125,0.625s0.527,0.917,0.334,1.5
			c-0.195,0.583-0.891,1.195-2.084,1.833c-1.195,0.639-3.236,1.152-6.123,1.541c-1.279,0.167-2.168-0.07-2.668-0.708
			s-0.75-1.292-0.75-1.958c0-0.277,0.043-0.611,0.125-1c0.084-0.388,0.236-0.971,0.459-1.75c0.221-0.777,0.541-1.805,0.959-3.083
			c0.416-1.277,0.984-2.944,1.707-5l-0.75-0.417c-0.832,1.278-1.791,2.708-2.875,4.291c-1.082,1.583-2.318,3.097-3.707,4.541
			c-1.389,1.445-2.916,2.653-4.582,3.625c-1.668,0.972-3.473,1.458-5.416,1.458c-0.557,0-1.166-0.181-1.834-0.541
			c-0.666-0.361-1.291-0.847-1.875-1.458c-0.582-0.611-1.07-1.305-1.457-2.083c-0.391-0.777-0.584-1.583-0.584-2.417
			c0-1.721,0.277-3.666,0.834-5.833c0.555-2.166,1.318-4.36,2.291-6.583c0.971-2.221,2.152-4.387,3.541-6.499
			c1.389-2.11,2.902-3.971,4.541-5.583c1.639-1.61,3.387-2.916,5.25-3.916c1.859-1,3.791-1.5,5.791-1.5
			c1.887,0,3.303,0.32,4.248,0.958c0.945,0.639,1.695,1.292,2.25,1.958l1.334-2.417c0.387-0.61,0.887-0.917,1.5-0.917h5.916V279.798
			z M323.771,307.378c0,0.945,0.166,1.598,0.5,1.958c0.332,0.362,0.832,0.542,1.5,0.542c0.555,0,1.402-0.583,2.541-1.75
			c1.137-1.167,2.305-2.542,3.5-4.125c1.193-1.583,2.318-3.179,3.373-4.791c1.055-1.61,1.777-2.833,2.168-3.666
			c0.498-1.111,0.943-2.36,1.332-3.75c0.389-1.388,0.584-2.804,0.584-4.25c0-0.944-0.404-1.805-1.209-2.583
			c-0.805-0.777-1.625-1.167-2.457-1.167c-2.057,0-4.139,1.889-6.25,5.666c-2.111,3.722-3.57,7.124-4.375,10.207
			C324.174,302.753,323.771,305.323,323.771,307.378z"/>
		<path class="st2" d="M349.684,315.793c-0.723,0-0.973-0.305-0.75-0.917l5.75-15.998c0.5-1.333,0.971-2.637,1.416-3.916
			c0.443-1.277,0.834-2.458,1.166-3.541c0.334-1.083,0.611-2,0.834-2.75c0.221-0.75,0.334-1.263,0.334-1.542
			c0-0.888-0.363-1.333-1.084-1.333c-0.166,0-0.32-0.292-0.459-0.875s-0.027-1.221,0.334-1.917c0.361-0.694,1.139-1.333,2.332-1.917
			c1.195-0.583,3.07-0.875,5.625-0.875c1.277,0,2.152,0.375,2.625,1.125c0.471,0.75,0.707,1.458,0.707,2.125
			c0,0.612-0.389,1.917-1.166,3.917c-0.777,2-1.723,4.305-2.832,6.916l0.75,0.583c0.609-0.888,1.484-2.167,2.625-3.833
			c1.137-1.667,2.484-3.291,4.041-4.875c1.553-1.583,3.262-2.971,5.123-4.166c1.861-1.194,3.818-1.792,5.875-1.792
			c0.887,0,1.666,0.181,2.332,0.542c0.668,0.362,1.223,0.82,1.668,1.375c0.443,0.556,0.775,1.167,0.998,1.833
			s0.334,1.279,0.334,1.833c0,0.445-0.084,1.029-0.25,1.75c-0.166,0.723-0.432,1.681-0.791,2.875
			c-0.361,1.195-0.861,2.681-1.5,4.458c-0.639,1.778-1.404,3.944-2.291,6.499c-1,2.833-1.695,4.833-2.084,5.999s-0.582,2-0.582,2.5
			c0,0.945,0.359,1.417,1.082,1.417c0.168,0,0.43,0.181,0.791,0.542c0.361,0.362,0.418,0.806,0.168,1.333
			c-0.25,0.528-1,1.097-2.25,1.708c-1.25,0.612-3.402,1.194-6.457,1.75c-1.279,0.222-2.154-0.041-2.625-0.791
			c-0.473-0.75-0.709-1.542-0.709-2.375c0-0.777,0.402-2.36,1.209-4.75c0.805-2.388,1.846-5.416,3.125-9.082
			c0.332-0.944,0.693-1.971,1.082-3.083c0.389-1.11,0.75-2.193,1.084-3.25c0.332-1.054,0.609-1.985,0.832-2.791
			c0.223-0.805,0.334-1.402,0.334-1.792c0-1.221-0.557-1.833-1.666-1.833c-0.5,0-1.209,0.375-2.125,1.125s-1.93,1.708-3.041,2.875
			s-2.223,2.472-3.334,3.916c-1.111,1.445-2.082,2.833-2.916,4.166c-0.945,1.445-1.791,2.792-2.541,4.041
			c-0.75,1.25-1.264,2.237-1.541,2.958l-3.25,9.332c-0.111,0.167-0.236,0.292-0.375,0.375s-0.43,0.125-0.875,0.125L349.684,315.793
			L349.684,315.793z"/>
		<path class="st2" d="M388.178,315.793c-0.777,0-1.027-0.361-0.75-1.083l5.416-15.748c0.443-1.277,0.889-2.569,1.334-3.875
			c0.443-1.304,0.859-2.5,1.25-3.583c0.387-1.083,0.693-2.013,0.916-2.791c0.221-0.777,0.334-1.333,0.334-1.667
			c0-0.277-0.057-0.542-0.168-0.792s-0.389-0.375-0.832-0.375c-0.5,0-0.959-0.292-1.375-0.875c-0.418-0.583-0.516-1.235-0.293-1.958
			c0.223-0.721,0.93-1.375,2.125-1.958s3.125-0.875,5.791-0.875c1.777,0,3,0.292,3.666,0.875c0.668,0.583,1,1.375,1,2.375
			c0,0.612-0.236,1.583-0.707,2.917c-0.473,1.333-1.016,2.722-1.625,4.166c-0.613,1.445-1.195,2.792-1.75,4.041
			c-0.557,1.25-0.916,2.098-1.084,2.542l0.834,0.583c0.832-1.444,1.859-3.166,3.082-5.166s2.584-3.917,4.084-5.75
			s3.137-3.388,4.916-4.666c1.777-1.277,3.666-1.917,5.666-1.917c1.387,0,2.609,0.431,3.666,1.292
			c1.055,0.862,1.582,1.792,1.582,2.792c0,0.612-0.18,1.528-0.541,2.75c-0.361,1.223-0.764,2.5-1.209,3.833
			s-0.916,2.597-1.416,3.791c-0.5,1.195-0.861,2.125-1.082,2.791l0.748,0.583c1.111-1.667,2.32-3.541,3.625-5.624
			s2.721-4.027,4.25-5.833c1.527-1.805,3.166-3.319,4.916-4.542c1.75-1.221,3.652-1.833,5.707-1.833c0.889,0,1.652,0.167,2.291,0.5
			c0.639,0.333,1.168,0.75,1.584,1.25s0.721,1.014,0.916,1.542c0.195,0.528,0.291,0.987,0.291,1.375
			c0,0.667-0.123,1.556-0.373,2.667c-0.25,1.112-0.584,2.333-1,3.666c-0.418,1.333-0.891,2.75-1.418,4.25s-1.041,3-1.541,4.5
			c-0.832,2.389-1.57,4.43-2.207,6.124c-0.641,1.695-0.959,2.847-0.959,3.458c0.111,0.778,0.443,1.167,1,1.167
			c0.5,0,0.818,0.292,0.959,0.875c0.137,0.583-0.043,1.222-0.543,1.916c-0.5,0.695-1.361,1.362-2.582,2
			c-1.223,0.639-2.945,1.014-5.166,1.125c-1.389,0.111-2.361-0.195-2.916-0.916c-0.557-0.722-0.863-1.417-0.918-2.083
			c-0.055-1.5,1.445-6.276,4.5-14.331c0.666-1.721,1.209-3.167,1.625-4.333s0.75-2.167,1-3s0.43-1.5,0.541-2
			s0.168-0.944,0.168-1.333c0-1.054-0.5-1.583-1.5-1.583c-0.334,0-0.918,0.404-1.75,1.208c-0.834,0.806-1.82,1.904-2.959,3.292
			c-1.139,1.389-2.375,2.986-3.707,4.791c-1.334,1.806-2.666,3.708-4,5.708c-0.277,0.445-0.695,1.181-1.25,2.208
			c-0.555,1.028-1.082,2.264-1.582,3.708l-2.584,7.332c-0.111,0.333-0.5,0.5-1.166,0.5h-7.082c-0.779,0-1.057-0.361-0.834-1.083
			l5-13.832c1.055-2.888,1.957-5.471,2.707-7.749c0.75-2.277,1.125-3.75,1.125-4.416c0-0.444-0.082-0.833-0.25-1.167
			c-0.166-0.333-0.555-0.5-1.166-0.5c-0.334,0-0.932,0.389-1.791,1.167c-0.861,0.779-1.834,1.806-2.916,3.083
			c-1.084,1.278-2.266,2.75-3.541,4.416c-1.279,1.667-2.5,3.416-3.666,5.25c-0.557,0.778-1.125,1.75-1.709,2.916s-1.182,2.5-1.791,4
			l-2.75,7.332c-0.111,0.389-0.5,0.583-1.166,0.583h-7V315.793z"/>
		<path class="st2" d="M484.998,279.798c0.609,0,0.832,0.333,0.666,1c-0.334,0.889-0.791,2.167-1.375,3.833
			c-0.584,1.667-1.182,3.389-1.791,5.166c-0.613,1.778-1.182,3.445-1.709,5c-0.527,1.556-0.875,2.666-1.041,3.333
			c-0.111,0.333-0.334,1.097-0.666,2.291c-0.334,1.195-0.695,2.458-1.084,3.792c-0.389,1.333-0.736,2.57-1.041,3.708
			c-0.307,1.139-0.459,1.875-0.459,2.208c0,0.667,0.334,1,1,1c0.334,0,0.709,0.208,1.125,0.625s0.527,0.917,0.334,1.5
			c-0.195,0.583-0.891,1.195-2.084,1.833c-1.195,0.639-3.236,1.152-6.123,1.541c-1.279,0.167-2.168-0.07-2.668-0.708
			s-0.75-1.292-0.75-1.958c0-0.277,0.043-0.611,0.125-1c0.084-0.388,0.236-0.971,0.459-1.75c0.221-0.777,0.541-1.805,0.959-3.083
			c0.416-1.277,0.984-2.944,1.707-5l-0.75-0.417c-0.832,1.278-1.791,2.708-2.875,4.291c-1.082,1.583-2.318,3.097-3.707,4.541
			c-1.389,1.445-2.916,2.653-4.582,3.625c-1.668,0.972-3.473,1.458-5.416,1.458c-0.557,0-1.166-0.181-1.834-0.541
			c-0.666-0.361-1.291-0.847-1.875-1.458c-0.582-0.611-1.07-1.305-1.457-2.083c-0.391-0.777-0.584-1.583-0.584-2.417
			c0-1.721,0.277-3.666,0.834-5.833c0.555-2.166,1.318-4.36,2.291-6.583c0.971-2.221,2.152-4.387,3.541-6.499
			c1.389-2.11,2.902-3.971,4.541-5.583c1.639-1.61,3.387-2.916,5.25-3.916c1.859-1,3.791-1.5,5.791-1.5
			c1.887,0,3.303,0.32,4.248,0.958c0.945,0.639,1.695,1.292,2.25,1.958l1.334-2.417c0.387-0.61,0.887-0.917,1.5-0.917h5.916V279.798
			z M457.418,307.378c0,0.945,0.166,1.598,0.5,1.958c0.332,0.362,0.832,0.542,1.5,0.542c0.555,0,1.402-0.583,2.541-1.75
			c1.137-1.167,2.305-2.542,3.5-4.125c1.193-1.583,2.318-3.179,3.373-4.791c1.055-1.61,1.777-2.833,2.168-3.666
			c0.498-1.111,0.943-2.36,1.332-3.75c0.389-1.388,0.584-2.804,0.584-4.25c0-0.944-0.404-1.805-1.209-2.583
			c-0.805-0.777-1.625-1.167-2.457-1.167c-2.057,0-4.139,1.889-6.25,5.666c-2.111,3.722-3.57,7.124-4.375,10.207
			C457.82,302.753,457.418,305.323,457.418,307.378z"/>
		<path class="st2" d="M485.828,315.793c-0.721,0-0.971-0.25-0.748-0.75l3.998-13.498c0.334-1.167,0.736-2.5,1.209-4
			c0.471-1.5,0.916-2.958,1.332-4.375c0.418-1.417,0.764-2.693,1.043-3.833c0.277-1.138,0.416-1.902,0.416-2.292
			c0-0.444-0.125-0.819-0.375-1.125c-0.25-0.305-0.598-0.458-1.041-0.458c-0.113,0-0.391-0.083-0.834-0.25
			c-0.445-0.167-0.625-0.444-0.541-0.833c0.082-0.388,0.625-0.93,1.625-1.625c1-0.694,2.916-1.542,5.748-2.542
			c0.777-0.277,1.445-0.333,2-0.167s1,0.445,1.334,0.833c0.332,0.39,0.582,0.833,0.75,1.333c0.166,0.5,0.25,0.945,0.25,1.333
			c0,0.779-0.348,2.125-1.043,4.041s-1.541,4.236-2.541,6.958l0.918,0.5c0.498-1.167,1.193-2.583,2.082-4.25s1.889-3.291,3-4.875
			c1.109-1.583,2.359-2.929,3.75-4.041c1.387-1.11,2.832-1.667,4.332-1.667c1.221,0,2.318,0.417,3.291,1.25
			c0.971,0.833,1.459,1.917,1.459,3.25c0,0.723-0.125,1.417-0.375,2.083s-0.57,1.25-0.959,1.75s-0.791,0.889-1.209,1.167
			c-0.416,0.278-0.82,0.417-1.207,0.417c-1.166,0-2.084-0.221-2.75-0.667c-0.334-0.222-0.666-0.444-1-0.667
			c-0.334-0.222-0.779-0.333-1.332-0.333c-0.668,0-1.418,0.362-2.25,1.083c-0.834,0.723-1.668,1.625-2.5,2.708
			c-0.834,1.083-1.625,2.264-2.375,3.542c-0.75,1.278-1.348,2.445-1.791,3.5c-0.445,1-0.889,2.111-1.334,3.333
			c-0.445,1.223-0.916,2.612-1.416,4.167l-2.666,8.415c-0.166,0.389-0.529,0.583-1.084,0.583h-7.166V315.793z"/>
	</g>
	<g>
		<path class="st2" d="M315.414,262.403c0.587,0.717,0.881,1.7,0.881,2.95v8.425h-1.348v-8.425c0-0.967-0.156-1.708-0.468-2.225
			s-0.898-0.775-1.76-0.775c-1.283,0-2.769,0.75-4.455,2.25c0.018,0.167,0.027,0.417,0.027,0.75v8.425h-1.348v-8.425
			c0-0.967-0.156-1.708-0.468-2.225s-0.898-0.775-1.76-0.775c-0.696,0-1.443,0.221-2.241,0.662
			c-0.797,0.442-1.608,1.038-2.434,1.788v8.975h-1.348v-12.125h1.045l0.275,1.9c0.568-0.6,1.302-1.121,2.2-1.562
			c0.897-0.441,1.695-0.663,2.393-0.663c1.796,0,2.942,0.734,3.438,2.2c0.567-0.6,1.297-1.116,2.186-1.55
			c0.89-0.434,1.682-0.65,2.379-0.65C313.893,261.327,314.827,261.686,315.414,262.403z"/>
		<path class="st2" d="M322.564,276.228l0.853-2.45l-5.032-11.825l1.265-0.45l4.4,10.875l4.234-10.725h1.375l-6.022,14.925
			c-0.274,0.684-0.733,1.258-1.375,1.725c-0.642,0.466-1.402,0.783-2.282,0.95l-0.138-0.95c0.733-0.217,1.315-0.483,1.746-0.8
			C322.019,277.186,322.345,276.761,322.564,276.228z"/>
		<path class="st2" d="M331.089,273.153l0.495-1.025c0.659,0.3,1.269,0.534,1.828,0.7c0.56,0.167,1.15,0.25,1.774,0.25
			c1.1,0,1.961-0.204,2.585-0.612c0.623-0.408,0.935-0.962,0.935-1.663c0-1-1.174-1.917-3.52-2.75
			c-2.585-0.917-3.878-2.042-3.878-3.375c0-0.983,0.403-1.788,1.21-2.413s1.934-0.938,3.383-0.938c0.586,0,1.251,0.096,1.993,0.288
			c0.743,0.192,1.334,0.429,1.774,0.712l-0.551,0.875c-0.642-0.283-1.191-0.496-1.649-0.637c-0.459-0.142-1.045-0.212-1.76-0.212
			c-0.917,0-1.664,0.221-2.241,0.662c-0.578,0.442-0.866,0.963-0.866,1.562c0,0.517,0.293,0.975,0.88,1.375
			c0.586,0.4,1.411,0.792,2.475,1.175c1.246,0.45,2.231,0.962,2.956,1.538c0.725,0.575,1.087,1.254,1.087,2.037
			c0,2.267-1.623,3.4-4.868,3.4c-0.623,0-1.334-0.088-2.131-0.263C332.202,273.665,331.565,273.436,331.089,273.153z"/>
		<path class="st2" d="M344.977,262.028h2.42l0.577,0.925h-2.997v7.75c0,0.667,0.155,1.229,0.467,1.688
			c0.312,0.459,0.779,0.688,1.402,0.688c0.367,0,0.743-0.075,1.128-0.225l0.33,0.95c-0.055,0-0.303,0.058-0.742,0.175
			c-0.367,0.083-0.725,0.125-1.073,0.125c-0.88,0-1.576-0.279-2.09-0.838c-0.514-0.558-0.77-1.354-0.77-2.387v-7.925h-1.98v-0.925
			h1.98v-3.275l1.348-0.55V262.028z"/>
		<path class="st2" d="M361.229,267.728h-9.597c0.018,1.566,0.416,2.85,1.196,3.85c0.778,1,1.947,1.5,3.506,1.5
			c0.88,0,1.613-0.075,2.2-0.225c0.586-0.15,1.164-0.358,1.732-0.625l0.55,0.925c-0.514,0.284-1.196,0.513-2.049,0.688
			s-1.591,0.263-2.214,0.263c-2.108,0-3.689-0.583-4.743-1.75c-1.055-1.167-1.582-2.733-1.582-4.7c0-1.9,0.5-3.429,1.499-4.587
			c0.999-1.158,2.443-1.738,4.331-1.738c1.009,0,1.907,0.275,2.695,0.825s1.397,1.312,1.829,2.288
			C361.014,265.415,361.229,266.511,361.229,267.728z M351.687,266.802h8.112c-0.146-1.316-0.532-2.387-1.155-3.212
			s-1.549-1.237-2.777-1.237c-1.247,0-2.223,0.421-2.929,1.262C352.231,264.457,351.814,265.519,351.687,266.802z"/>
		<path class="st2" d="M365.601,264.853v8.925h-1.348v-12.125h0.771l0.495,1.925c0.623-0.466,1.352-0.904,2.186-1.312
			c0.834-0.408,1.563-0.612,2.187-0.612l0.468,0.95c-0.789,0-1.637,0.233-2.544,0.7
			C366.907,263.769,366.169,264.286,365.601,264.853z"/>
		<path class="st2" d="M373.218,258.778c-0.312,0-0.563-0.091-0.756-0.275c-0.192-0.183-0.289-0.408-0.289-0.675
			c0-0.266,0.097-0.491,0.289-0.675c0.192-0.183,0.444-0.275,0.756-0.275c0.293,0,0.545,0.092,0.756,0.275
			c0.211,0.184,0.316,0.409,0.316,0.675c0,0.267-0.101,0.492-0.302,0.675C373.786,258.686,373.529,258.778,373.218,258.778z
			 M373.905,261.653v12.125h-1.348v-12.125H373.905z"/>
		<path class="st2" d="M388.384,271.015c-0.486,0.959-1.196,1.713-2.131,2.263c-0.936,0.55-2.035,0.825-3.301,0.825
			c-1.925-0.017-3.409-0.613-4.454-1.788c-1.046-1.175-1.568-2.729-1.568-4.663c0-1.2,0.243-2.279,0.729-3.237
			c0.485-0.958,1.196-1.713,2.131-2.263s2.044-0.825,3.327-0.825c1.926,0.017,3.405,0.613,4.441,1.788s1.554,2.729,1.554,4.663
			C389.112,268.978,388.869,270.057,388.384,271.015z M385.469,272.365c0.724-0.475,1.279-1.116,1.664-1.925
			c0.385-0.808,0.577-1.688,0.577-2.638c0-1.016-0.179-1.938-0.536-2.762c-0.357-0.825-0.885-1.479-1.581-1.963
			c-0.697-0.483-1.531-0.725-2.503-0.725c-0.953,0-1.792,0.237-2.516,0.712c-0.725,0.475-1.279,1.117-1.664,1.925
			c-0.385,0.809-0.577,1.688-0.577,2.638c0,1.017,0.179,1.938,0.536,2.762c0.357,0.825,0.884,1.479,1.581,1.963
			c0.696,0.483,1.53,0.725,2.502,0.725C383.905,273.077,384.744,272.84,385.469,272.365z"/>
		<path class="st2" d="M400.69,270.628v-8.975h1.348v12.125h-1.045l-0.275-1.9c-0.587,0.617-1.32,1.142-2.2,1.575
			c-0.88,0.434-1.724,0.65-2.529,0.65c-1.357,0-2.356-0.363-2.998-1.088s-0.962-1.704-0.962-2.938v-8.425h1.347v8.425
			c0,0.934,0.184,1.667,0.551,2.2c0.366,0.534,1.018,0.8,1.952,0.8C397.326,273.077,398.931,272.261,400.69,270.628z"/>
		<path class="st2" d="M405.118,273.153l0.495-1.025c0.659,0.3,1.269,0.534,1.828,0.7c0.56,0.167,1.15,0.25,1.774,0.25
			c1.1,0,1.961-0.204,2.585-0.612c0.623-0.408,0.935-0.962,0.935-1.663c0-1-1.174-1.917-3.52-2.75
			c-2.585-0.917-3.878-2.042-3.878-3.375c0-0.983,0.403-1.788,1.21-2.413s1.934-0.938,3.383-0.938c0.586,0,1.251,0.096,1.993,0.288
			c0.743,0.192,1.334,0.429,1.774,0.712l-0.551,0.875c-0.642-0.283-1.191-0.496-1.649-0.637c-0.459-0.142-1.045-0.212-1.76-0.212
			c-0.917,0-1.664,0.221-2.241,0.662c-0.578,0.442-0.866,0.963-0.866,1.562c0,0.517,0.293,0.975,0.88,1.375
			c0.586,0.4,1.411,0.792,2.475,1.175c1.246,0.45,2.231,0.962,2.956,1.538c0.725,0.575,1.087,1.254,1.087,2.037
			c0,2.267-1.623,3.4-4.868,3.4c-0.623,0-1.334-0.088-2.131-0.263C406.231,273.665,405.595,273.436,405.118,273.153z"/>
	</g>
</g>
</svg>
