<?xml version="1.0" encoding="utf-8"?>
<!-- Generator: Adobe Illustrator 19.2.0, SVG Export Plug-In . SVG Version: 6.00 Build 0)  -->
<svg version="1.1" id="Layer_1" xmlns="http://www.w3.org/2000/svg" xmlns:xlink="http://www.w3.org/1999/xlink" x="0px" y="0px"
	 viewBox="0 0 932.691 761.767" style="enable-background:new 0 0 932.691 761.767;" xml:space="preserve">
<style type="text/css">
	.st0{fill:#3C9143;}
	.st1{fill:none;stroke:#000000;stroke-linecap:square;stroke-linejoin:bevel;stroke-miterlimit:10;}
	.st2{fill:none;stroke:#000000;stroke-width:0.7596;stroke-linecap:square;stroke-linejoin:bevel;stroke-miterlimit:10;}
	.st3{fill:#FFFFFF;stroke:#000000;stroke-linecap:square;stroke-linejoin:bevel;stroke-miterlimit:10;}
	.st4{fill:none;stroke:#000000;stroke-width:5.5;stroke-linecap:round;stroke-linejoin:round;stroke-miterlimit:10;}
	.st5{fill:none;stroke:#3C9143;stroke-width:10;stroke-linecap:round;stroke-linejoin:round;stroke-miterlimit:10;}
	.st6{fill:none;stroke:#3C9143;stroke-width:7.0226;stroke-linecap:round;stroke-linejoin:round;stroke-miterlimit:10;}
	.st7{fill:none;stroke:#3C9143;stroke-width:8;stroke-linecap:round;stroke-linejoin:round;stroke-miterlimit:10;}
	.st8{fill:#B9504D;}
	.st9{fill:#186133;}
	.st10{fill:#505150;}
	.st11{fill:#3D8940;}
	.st12{fill:#EF4136;}
	.st13{fill:#921930;}
	.st14{fill:#FFFFFF;}
	.st15{fill:#FECC07;}
	.st16{fill:none;}
	.st17{fill:#E92939;}
	.st18{fill:none;stroke:#3C9143;stroke-width:3;stroke-linecap:round;stroke-linejoin:round;stroke-miterlimit:10;}
	.st19{fill:none;stroke:#000000;stroke-width:3;stroke-linecap:round;stroke-linejoin:round;stroke-miterlimit:10;}
	.st20{fill:none;stroke:#3D8940;stroke-width:3;stroke-linecap:round;stroke-linejoin:round;stroke-miterlimit:10;}
</style>
<path d="M141.673,34.954c0,0-9.703,10.698-16.918,16.171s-22.64,16.773-28.839,23.759c-4.673,5.267-6.842,11.05-7.153,13.642
	c-0.968,2.705-3.67,6.075-5.162,8.811c-1.493,2.737-4.043,10.574-4.043,10.574s5.598-8.397,10.511-11.693
	c1.307-0.877,7.956,0.535,11.439-2.7s4.359-8.061,4.359-8.061s4.872,6.406,4.748,14.803c-0.1,6.727-0.518,16.171-2.757,21.645
	c5.784-6.158,8.397-27.367,5.847-40.615c1.617,1.804,5.287,7.775,5.05,17.003c-0.252,9.824-7.414,24.234-14.629,36.673
	s-13.932,28.175-10.2,39.62s14.679,22.641,18.41,26.621c3.732,3.981,1.368-6.096-2.923-14.741
	c-5.587-11.256-7.712-20.401-2.985-32.84c4.727-12.44,13.621-29.419,15.363-36.634s2.795-17.527,0.631-27.196
	c-2.799-12.502-9.152-16.156-9.525-21.318s12.605-14.782,23.013-17.56C136.904,49.421,141.673,34.954,141.673,34.954z"/>
<path d="M242.399,64.876c-7.029,3.778-7.754,12.524-8.107,15.461c-1.098,3.066-4.159,6.885-5.851,9.986
	c-1.692,3.102-4.582,11.984-4.582,11.984s6.344-9.516,11.913-13.252c1.481-0.994,9.017,0.606,12.965-3.06
	c3.948-3.666,4.94-9.136,4.94-9.136s5.522,7.261,5.381,16.777c-0.113,7.624-0.587,18.328-3.125,24.531
	c6.556-6.979,9.516-31.016,6.626-46.031c1.833,2.044,5.992,8.811,5.724,19.271c-0.285,11.134-8.402,27.465-16.58,41.564
	s-15.79,31.933-11.561,44.903c4.23,12.971,16.636,25.66,20.866,30.171c4.23,4.511,1.551-6.909-3.313-16.707
	c-6.333-12.757-8.741-23.121-3.384-37.22c5.357-14.098,15.438-33.343,17.412-41.52c1.974-8.177,3.168-19.865,0.715-30.823
	c-3.172-14.169-8.868-18.945-16.385-22.522c-4.02-1.913-9.934-2.062-15.839-7.865c-6.86-6.743-6.999-11.467-6.999-11.467
	s-1.577,1.997,0.678,6.697c-3.572-4.511-6.647-5.86-9.655-5.526c6.483,3.529,15.506,16.781,23.401,21.011
	C246.041,62.855,244.642,63.67,242.399,64.876z"/>
<path d="M431.558,64.246c-12.242,3.156-14.635,12.569-16.845,16.227c-3.268,3.385-6.918,4.686-10.989,7.765
	c-4.071,3.078-8.104,8.513-8.104,8.513s6.308-2.31,15.861-3.92c2.54-0.428,19.313,5.663,34.401-2.789
	c-0.45,5.657-3.283,18.042-14.676,28.324c-16.701,15.072-28.839,14.259-48.956,26.492c-23.783,14.461-31.232,46.68-14.996,63.938
	c16.453,17.488,58.657,20.367,73.322,8.962c26.598-20.687,14.023-27.386,13.442-43.178c-0.756-20.561-59.316,10.407-43.883-4.972
	c15.434-15.379,23.935-21.536,31.394-31.13c7.459-9.594,14.766-21.934,18.049-37.82c4.245-20.542-13.224-33.509-22.315-36.516
	c2.372-16.677-9.966-32.482-9.966-32.482s1.755,3.413,1.932,10.942c-2.021-8.063-11.281-15.098-15.441-16.446
	C421.426,36.311,434.448,52.508,431.558,64.246z"/>
<path d="M139.087,280.989c-7.18,3.924-7.188,10.21-7.994,12.856c-1.513,2.643-3.597,4.039-5.663,6.617
	c-2.066,2.578-3.733,6.629-3.733,6.629s3.591-2.451,9.33-4.977c1.435-0.632,11.682,0.356,19.657-5.926
	c4.203,5.899,2.374,13.349-0.444,20.358c9.885-8.262,4.115-22.215,4.398-23.624c3.071,2.268,5.173,15.657-0.562,21.706
	c-12.44,13.12-22.45,13.904-33.131,24.773c-12.628,12.85-15.363,42.947,1.19,40.547c-11.546-5.533-10.447-20.524,0.332-34.412
	c7.672-9.885,15.344-14.304,26.943-17.151c-2.276,2.482-7.285,4.815-10.161,8.373c-6.151,7.607-6.324,16.49,1.365,18.792
	c7.759,2.324,11.33-5.409,5.791-7.285c-4.293-1.453-7,3.827-8.336,2.803c-4.426-3.393,8.506-13.597,17.925-24.756
	c5.337-6.322,7.672-15.226,6.493-25.701c-1.518-13.491-13.655-20.149-19.837-20.593c-1.159-10.841-11.41-18.8-11.41-18.8
	s1.075,1.882,3.361,6.271c-3.571-4.382-9.888-7.395-12.712-7.58C128.295,265.069,139.038,273.165,139.087,280.989z"/>
<path d="M224.665,326.365c-0.914,2.994-1.917,6.394-3.007,10.201c-1.092,3.807-2.196,7.689-3.312,11.648
	c-1.117,3.959-2.208,7.829-3.273,11.61c-1.066,3.781-1.98,7.194-2.741,10.239c-0.507,1.879-0.228,2.816,0.838,2.816
	c1.725,0,2.892,0.256,3.502,0.762c0.609,0.507,0.596,1.091-0.038,1.75c-0.635,0.66-1.917,1.295-3.844,1.904
	c-1.929,0.609-4.595,1.015-7.994,1.219c-1.218,0.1-2.12-0.14-2.702-0.724c-0.584-0.583-0.902-1.103-0.952-1.559
	c-0.103-0.711-0.038-1.585,0.19-2.626c0.228-1.041,0.52-2.22,0.876-3.541c1.674-6.292,3.374-12.523,5.1-18.69
	c1.725-6.165,3.476-12.268,5.252-18.307c0.202-0.66,0.215-1.029,0.038-1.105c-0.178-0.076-0.393,0.014-0.647,0.266
	c-0.051,0.052-0.508,0.698-1.37,1.942c-0.864,1.245-1.993,2.842-3.388,4.796c-1.397,1.954-2.969,4.187-4.72,6.7
	c-1.751,2.512-3.54,5.088-5.367,7.727c-1.827,2.64-3.629,5.24-5.405,7.803c-1.777,2.564-3.388,4.862-4.834,6.89
	c-1.446,2.031-2.64,3.731-3.578,5.1c-0.94,1.371-1.484,2.159-1.637,2.36c-0.864,1.219-1.751,1.827-2.664,1.827
	c-0.813,0-1.294-0.583-1.446-1.75c-0.051-0.202-0.165-1.333-0.342-3.389c-0.179-2.056-0.407-4.58-0.686-7.574
	c-0.279-2.994-0.571-6.217-0.876-9.668c-0.304-3.451-0.571-6.674-0.799-9.668c-0.228-2.994-0.432-5.507-0.609-7.536
	c-0.178-2.03-0.266-3.147-0.266-3.351c0-0.557-0.127-0.837-0.38-0.837c-0.255,0-0.483,0.28-0.686,0.837
	c-0.355,1.067-0.813,2.488-1.37,4.264c-0.559,1.777-1.231,3.781-2.018,6.015c-0.788,2.234-1.687,4.604-2.702,7.118
	c-1.016,2.512-2.132,5.036-3.35,7.574c-1.218,2.538-2.55,5.012-3.996,7.422c-1.446,2.41-2.982,4.606-4.606,6.585
	c-1.574,1.929-3.274,3.717-5.1,5.367c-1.827,1.648-3.807,3.071-5.938,4.263c-2.132,1.191-4.429,2.132-6.89,2.816
	c-2.462,0.685-5.138,1.027-8.032,1.027c-2.082,0-4.175-0.392-6.28-1.179c-2.107-0.788-4.01-1.968-5.71-3.541
	c-1.701-1.573-3.084-3.527-4.149-5.861c-2.487-5.451-2.227-12.658,1.022-17.734c2.721-4.251,8.828-8.125,13.914-5.619
	c2,0.986,3.447,3.261,2.997,5.445c-0.3,1.454-1.431,2.706-2.847,3.15s-3.06,0.064-4.137-0.957c-0.908-0.861-1.492-2.168-2.681-2.557
	c-0.933-0.305-1.956,0.073-2.781,0.605c-4.2,2.707-4.914,9.227-2.937,13.48c0.685,1.473,1.674,2.792,2.969,3.959
	s2.867,2.104,4.72,2.816c1.853,0.711,3.97,1.065,6.356,1.065c4.466,0,8.628-0.951,12.485-2.854
	c3.856-1.904,7.536-4.758,11.038-8.563c1.98-2.132,3.856-4.732,5.634-7.804c1.776-3.069,3.388-6.177,4.834-9.326
	c1.446-3.145,2.702-6.165,3.768-9.058c1.066-2.894,1.929-5.254,2.588-7.08c0.406-1.167,0.52-1.891,0.343-2.17
	c-0.179-0.278-0.698-0.42-1.561-0.42c-1.168,0-2.462-0.024-3.882-0.076c-5.8-0.212-1.636-6.323,4.606-6.279
	c3.679,0.026,7.853,0.038,12.523,0.038c0.863,0,1.434,0.164,1.713,0.494c0.278,0.33,0.418,0.775,0.418,1.333
	c0,0.304,0.05,1.281,0.152,2.931c0.101,1.649,0.215,3.629,0.343,5.937c0.126,2.31,0.278,4.796,0.456,7.46
	c0.177,2.666,0.342,5.19,0.495,7.576c0.152,2.386,0.277,4.442,0.38,6.165c0.101,1.727,0.177,2.816,0.228,3.275
	c0.05,0.558,0.228,0.863,0.533,0.913c0.305,0.052,0.609-0.152,0.914-0.609l23.98-34.335c0.305-0.405,0.647-0.697,1.028-0.875
	c0.381-0.178,1.028-0.266,1.942-0.266H224.665z"/>
<path d="M227.383,379.426c-0.203-5.987-0.635-11.011-1.294-15.073c-0.66-4.059-1.32-7.372-1.98-9.934s-1.231-4.504-1.712-5.825
	c-0.483-1.319-0.66-2.258-0.533-2.816c0.125-0.558,0.672-0.849,1.636-0.875c0.964-0.026,2.562-0.038,4.796-0.038
	c0.762,0,1.433,0.14,2.018,0.418c0.583,0.278,1.077,0.761,1.484,1.445c0.405,0.686,0.748,1.613,1.028,2.78
	c0.278,1.167,0.469,2.638,0.571,4.414c0.152,2.184,0.267,4.34,0.343,6.471c0.076,2.132,0.125,4.123,0.152,5.977
	c0.025,1.853,0.025,3.489,0,4.91c-0.027,1.421-0.065,2.486-0.114,3.197l0.913,0.076c0.202-0.406,0.596-1.205,1.18-2.398
	c0.584-1.191,1.205-2.524,1.866-3.997c0.659-1.471,1.268-2.943,1.827-4.414c0.558-1.473,0.939-2.666,1.142-3.579
	c0.101-0.558,0.229-1.267,0.381-2.132c0.152-0.863,0.228-1.852,0.228-2.969c0-1.015-0.228-2.106-0.686-3.275
	c-0.456-1.165-0.685-2.256-0.685-3.273c0-0.863,0.329-1.686,0.99-2.474c0.659-0.787,1.7-1.179,3.121-1.179
	c1.776,0,2.982,0.533,3.616,1.598c0.635,1.067,0.952,2.488,0.952,4.263c0,0.711-0.152,1.637-0.456,2.778
	c-0.305,1.143-0.724,2.412-1.256,3.807c-0.533,1.397-1.131,2.842-1.789,4.34c-0.66,1.497-1.345,2.905-2.056,4.224
	c-1.016,1.929-2.272,4.125-3.768,6.585c-1.497,2.462-3.096,4.948-4.796,7.46s-3.452,4.936-5.252,7.27
	c-1.802,2.334-3.515,4.314-5.139,5.939c-0.507,0.507-1.155,1.153-1.941,1.942c-0.788,0.785-1.675,1.534-2.664,2.246
	c-0.99,0.709-2.069,1.331-3.236,1.864c-1.167,0.534-2.385,0.801-3.654,0.801c-1.776,0-3.084-0.394-3.92-1.181
	c-0.838-0.787-1.257-1.739-1.257-2.854c0-1.371,0.407-2.488,1.218-3.349c0.813-0.864,1.675-1.295,2.589-1.295
	c0.66,0,1.18,0.126,1.56,0.38c0.38,0.254,0.749,0.583,1.104,0.991c0.355,0.354,0.749,0.647,1.18,0.875
	c0.43,0.228,0.849,0.342,1.256,0.342c0.405,0,0.838-0.064,1.294-0.19c0.456-0.128,1.04-0.418,1.751-0.875
	c0.811-0.508,1.61-1.117,2.398-1.827c0.786-0.711,1.484-1.421,2.093-2.132c0.609-0.711,1.142-1.383,1.599-2.018
	c0.456-0.635,0.786-1.103,0.989-1.407c0.558-0.762,0.888-1.625,0.99-2.588C227.561,381.888,227.535,380.745,227.383,379.426z"/>
<g>
	<path d="M280.529,347.195c0.558,0,0.761,0.304,0.609,0.913c-0.305,0.812-0.723,1.979-1.256,3.502
		c-0.533,1.522-1.079,3.097-1.637,4.72c-0.559,1.625-1.079,3.147-1.561,4.567c-0.483,1.422-0.799,2.437-0.951,3.046
		c-0.103,0.304-0.305,1.002-0.609,2.093c-0.304,1.093-0.635,2.246-0.99,3.464c-0.355,1.219-0.673,2.349-0.951,3.388
		c-0.28,1.041-0.419,1.713-0.419,2.018c0,0.609,0.305,0.914,0.914,0.914c0.305,0,0.647,0.189,1.028,0.57
		c0.38,0.381,0.481,0.838,0.304,1.37c-0.178,0.533-0.812,1.093-1.903,1.675c-1.092,0.584-2.957,1.053-5.596,1.409
		c-1.168,0.151-1.979-0.064-2.436-0.647c-0.457-0.583-0.685-1.18-0.685-1.789c0-0.253,0.038-0.558,0.114-0.913
		c0.076-0.354,0.215-0.888,0.418-1.6c0.203-0.71,0.495-1.648,0.875-2.816c0.381-1.167,0.901-2.689,1.561-4.567l-0.686-0.381
		c-0.761,1.168-1.637,2.475-2.626,3.921c-0.989,1.446-2.12,2.83-3.387,4.148c-1.27,1.32-2.665,2.425-4.188,3.312
		c-1.522,0.888-3.172,1.333-4.948,1.333c-0.508,0-1.065-0.166-1.675-0.495c-0.609-0.33-1.18-0.773-1.713-1.332
		c-0.533-0.559-0.978-1.192-1.332-1.903c-0.355-0.71-0.533-1.446-0.533-2.208c0-1.572,0.253-3.35,0.761-5.329
		c0.507-1.979,1.205-3.983,2.093-6.014c0.888-2.029,1.966-4.009,3.235-5.938c1.268-1.928,2.651-3.628,4.149-5.101
		c1.497-1.471,3.095-2.664,4.796-3.577c1.7-0.914,3.464-1.371,5.291-1.371c1.725,0,3.019,0.293,3.883,0.876
		c0.862,0.584,1.547,1.18,2.055,1.789l1.218-2.208c0.354-0.558,0.811-0.837,1.37-0.837H280.529z M255.331,372.394
		c0,0.863,0.152,1.459,0.457,1.789c0.305,0.33,0.761,0.494,1.371,0.494c0.506,0,1.281-0.532,2.322-1.599
		c1.04-1.065,2.105-2.321,3.197-3.769c1.091-1.446,2.119-2.904,3.083-4.377c0.964-1.472,1.624-2.588,1.979-3.35
		c0.457-1.015,0.862-2.156,1.218-3.426c0.354-1.268,0.533-2.562,0.533-3.883c0-0.862-0.369-1.648-1.104-2.359
		c-0.736-0.71-1.484-1.066-2.246-1.066c-1.878,0-3.781,1.727-5.709,5.177c-1.93,3.401-3.262,6.509-3.997,9.326
		C255.699,368.168,255.331,370.517,255.331,372.394z"/>
	<path d="M281.366,380.082c-0.66,0-0.889-0.278-0.685-0.838l5.253-14.616c0.457-1.218,0.887-2.41,1.294-3.578
		c0.406-1.167,0.761-2.245,1.066-3.235c0.304-0.989,0.558-1.827,0.761-2.512c0.202-0.686,0.305-1.154,0.305-1.408
		c0-0.812-0.331-1.219-0.99-1.219c-0.152,0-0.293-0.267-0.419-0.799c-0.127-0.533-0.026-1.116,0.305-1.751
		c0.33-0.634,1.04-1.218,2.131-1.751c1.091-0.533,2.804-0.8,5.139-0.8c1.167,0,1.966,0.343,2.398,1.028
		c0.431,0.685,0.647,1.332,0.647,1.941c0,0.559-0.356,1.751-1.066,3.577c-0.711,1.827-1.574,3.935-2.588,6.319l0.685,0.532
		c0.558-0.811,1.357-1.979,2.398-3.502c1.04-1.522,2.271-3.007,3.692-4.453c1.42-1.446,2.981-2.714,4.682-3.807
		c1.7-1.091,3.489-1.637,5.367-1.637c0.811,0,1.522,0.166,2.131,0.495c0.609,0.331,1.116,0.749,1.523,1.256
		c0.405,0.508,0.71,1.066,0.913,1.675c0.203,0.609,0.305,1.168,0.305,1.675c0,0.407-0.076,0.94-0.229,1.599
		c-0.152,0.66-0.394,1.536-0.723,2.627c-0.331,1.092-0.787,2.449-1.37,4.072c-0.584,1.625-1.282,3.604-2.094,5.938
		c-0.914,2.588-1.548,4.415-1.903,5.481c-0.356,1.065-0.533,1.826-0.533,2.283c0,0.864,0.33,1.294,0.99,1.294
		c0.152,0,0.393,0.166,0.723,0.495c0.33,0.331,0.381,0.736,0.152,1.218c-0.229,0.483-0.914,1.003-2.055,1.561
		c-1.142,0.56-3.109,1.091-5.9,1.6c-1.168,0.202-1.968-0.038-2.398-0.724c-0.432-0.686-0.647-1.408-0.647-2.17
		c0-0.71,0.368-2.156,1.104-4.339c0.735-2.182,1.687-4.948,2.854-8.298c0.305-0.862,0.634-1.801,0.99-2.817
		c0.354-1.015,0.685-2.004,0.99-2.969c0.305-0.963,0.558-1.813,0.761-2.55c0.202-0.735,0.305-1.281,0.305-1.637
		c0-1.116-0.508-1.675-1.522-1.675c-0.457,0-1.104,0.343-1.941,1.027c-0.837,0.686-1.764,1.561-2.779,2.627
		c-1.016,1.065-2.03,2.259-3.045,3.577c-1.016,1.32-1.903,2.589-2.665,3.807c-0.864,1.32-1.637,2.551-2.322,3.692
		s-1.155,2.044-1.409,2.702l-2.969,8.526c-0.102,0.152-0.216,0.267-0.343,0.343c-0.127,0.076-0.394,0.114-0.799,0.114H281.366z"/>
	<path d="M318.896,380.082c-0.711,0-0.939-0.329-0.685-0.989l4.948-14.389c0.406-1.167,0.812-2.347,1.218-3.54
		c0.406-1.191,0.786-2.283,1.142-3.273c0.354-0.989,0.634-1.839,0.837-2.55c0.203-0.71,0.305-1.219,0.305-1.522
		c0-0.254-0.051-0.495-0.152-0.724c-0.102-0.229-0.355-0.343-0.761-0.343c-0.457,0-0.875-0.267-1.256-0.799
		c-0.381-0.533-0.47-1.129-0.267-1.789c0.202-0.659,0.849-1.256,1.941-1.789c1.091-0.533,2.854-0.8,5.291-0.8
		c1.624,0,2.741,0.267,3.35,0.8c0.609,0.533,0.914,1.256,0.914,2.17c0,0.559-0.216,1.446-0.647,2.664
		c-0.432,1.218-0.927,2.487-1.484,3.807c-0.559,1.32-1.092,2.55-1.599,3.692c-0.508,1.142-0.837,1.916-0.99,2.321l0.761,0.533
		c0.761-1.319,1.7-2.893,2.817-4.72c1.116-1.827,2.36-3.578,3.73-5.253c1.371-1.675,2.867-3.096,4.492-4.264
		c1.624-1.167,3.35-1.751,5.177-1.751c1.268,0,2.385,0.395,3.35,1.181c0.963,0.787,1.446,1.637,1.446,2.55
		c0,0.56-0.166,1.396-0.495,2.513c-0.331,1.116-0.698,2.283-1.104,3.502c-0.407,1.218-0.837,2.373-1.294,3.463
		c-0.457,1.093-0.787,1.941-0.989,2.551l0.685,0.533c1.015-1.522,2.119-3.235,3.312-5.139c1.192-1.903,2.486-3.68,3.882-5.329
		c1.396-1.648,2.893-3.032,4.492-4.149c1.599-1.115,3.336-1.675,5.215-1.675c0.811,0,1.509,0.152,2.093,0.457
		c0.583,0.305,1.066,0.686,1.447,1.142c0.38,0.457,0.659,0.927,0.837,1.409c0.177,0.482,0.267,0.901,0.267,1.256
		c0,0.608-0.114,1.421-0.342,2.436c-0.229,1.017-0.533,2.132-0.914,3.35c-0.381,1.219-0.812,2.513-1.294,3.883
		c-0.483,1.37-0.952,2.74-1.408,4.111c-0.761,2.183-1.435,4.048-2.018,5.595c-0.584,1.549-0.875,2.602-0.875,3.159
		c0.101,0.712,0.406,1.066,0.914,1.066c0.457,0,0.749,0.267,0.875,0.799c0.126,0.533-0.038,1.117-0.495,1.751
		c-0.457,0.636-1.244,1.244-2.36,1.827c-1.117,0.583-2.691,0.926-4.72,1.028c-1.269,0.101-2.158-0.179-2.665-0.838
		c-0.508-0.659-0.787-1.294-0.837-1.903c-0.051-1.37,1.319-5.734,4.111-13.094c0.609-1.572,1.104-2.893,1.484-3.959
		c0.38-1.065,0.685-1.979,0.914-2.74c0.228-0.762,0.393-1.37,0.495-1.827c0.101-0.457,0.152-0.862,0.152-1.218
		c0-0.964-0.457-1.446-1.37-1.446c-0.305,0-0.837,0.368-1.599,1.104c-0.761,0.736-1.663,1.739-2.702,3.007
		c-1.041,1.27-2.17,2.729-3.388,4.378c-1.218,1.649-2.436,3.388-3.654,5.214c-0.254,0.407-0.635,1.079-1.142,2.018
		c-0.508,0.94-0.989,2.068-1.446,3.388l-2.36,6.699c-0.103,0.305-0.457,0.457-1.066,0.457h-6.471c-0.711,0-0.965-0.329-0.761-0.989
		l4.567-12.638c0.964-2.639,1.789-4.998,2.474-7.08c0.686-2.08,1.028-3.426,1.028-4.034c0-0.406-0.076-0.762-0.229-1.066
		c-0.152-0.304-0.508-0.456-1.065-0.456c-0.305,0-0.851,0.355-1.637,1.065c-0.788,0.711-1.675,1.649-2.665,2.816
		c-0.99,1.168-2.069,2.513-3.235,4.035c-1.168,1.522-2.284,3.121-3.35,4.796c-0.508,0.711-1.028,1.599-1.561,2.664
		c-0.533,1.066-1.079,2.284-1.637,3.654l-2.512,6.699c-0.102,0.356-0.457,0.533-1.065,0.533H318.896z"/>
	<path d="M409.716,347.195c0.558,0,0.761,0.304,0.609,0.913c-0.305,0.812-0.723,1.979-1.256,3.502
		c-0.533,1.522-1.079,3.097-1.637,4.72c-0.559,1.625-1.079,3.147-1.561,4.567c-0.483,1.422-0.799,2.437-0.951,3.046
		c-0.103,0.304-0.305,1.002-0.609,2.093c-0.304,1.093-0.635,2.246-0.99,3.464c-0.355,1.219-0.673,2.349-0.951,3.388
		c-0.28,1.041-0.419,1.713-0.419,2.018c0,0.609,0.305,0.914,0.914,0.914c0.305,0,0.647,0.189,1.028,0.57
		c0.38,0.381,0.481,0.838,0.304,1.37c-0.178,0.533-0.812,1.093-1.903,1.675c-1.092,0.584-2.957,1.053-5.596,1.409
		c-1.168,0.151-1.979-0.064-2.436-0.647c-0.457-0.583-0.685-1.18-0.685-1.789c0-0.253,0.038-0.558,0.114-0.913
		c0.076-0.354,0.215-0.888,0.418-1.6c0.203-0.71,0.495-1.648,0.875-2.816c0.381-1.167,0.901-2.689,1.561-4.567l-0.686-0.381
		c-0.761,1.168-1.637,2.475-2.626,3.921c-0.989,1.446-2.12,2.83-3.387,4.148c-1.27,1.32-2.665,2.425-4.188,3.312
		c-1.522,0.888-3.172,1.333-4.948,1.333c-0.508,0-1.065-0.166-1.675-0.495c-0.609-0.33-1.18-0.773-1.713-1.332
		c-0.533-0.559-0.978-1.192-1.332-1.903c-0.355-0.71-0.533-1.446-0.533-2.208c0-1.572,0.253-3.35,0.761-5.329
		c0.507-1.979,1.205-3.983,2.093-6.014c0.888-2.029,1.966-4.009,3.235-5.938c1.268-1.928,2.651-3.628,4.149-5.101
		c1.497-1.471,3.095-2.664,4.796-3.577c1.7-0.914,3.464-1.371,5.291-1.371c1.725,0,3.019,0.293,3.883,0.876
		c0.862,0.584,1.547,1.18,2.055,1.789l1.218-2.208c0.354-0.558,0.811-0.837,1.37-0.837H409.716z M384.517,372.394
		c0,0.863,0.152,1.459,0.457,1.789c0.305,0.33,0.761,0.494,1.371,0.494c0.506,0,1.281-0.532,2.322-1.599
		c1.04-1.065,2.105-2.321,3.197-3.769c1.091-1.446,2.119-2.904,3.083-4.377c0.964-1.472,1.624-2.588,1.979-3.35
		c0.457-1.015,0.862-2.156,1.218-3.426c0.354-1.268,0.533-2.562,0.533-3.883c0-0.862-0.369-1.648-1.104-2.359
		c-0.736-0.71-1.484-1.066-2.246-1.066c-1.878,0-3.781,1.727-5.709,5.177c-1.93,3.401-3.262,6.509-3.997,9.326
		C384.885,368.168,384.517,370.517,384.517,372.394z"/>
	<path d="M412.836,380.082c-0.66,0-0.888-0.229-0.685-0.686l3.654-12.332c0.304-1.066,0.672-2.284,1.104-3.654
		c0.43-1.37,0.837-2.702,1.218-3.997c0.381-1.294,0.697-2.461,0.952-3.502c0.253-1.039,0.38-1.737,0.38-2.093
		c0-0.406-0.114-0.749-0.342-1.028c-0.229-0.278-0.546-0.419-0.952-0.419c-0.102,0-0.355-0.075-0.761-0.228
		c-0.407-0.152-0.571-0.406-0.495-0.762c0.076-0.354,0.571-0.85,1.484-1.484c0.914-0.634,2.665-1.408,5.253-2.322
		c0.71-0.253,1.319-0.304,1.827-0.152c0.507,0.152,0.914,0.407,1.218,0.762c0.305,0.355,0.533,0.762,0.685,1.218
		c0.152,0.457,0.229,0.864,0.229,1.219c0,0.711-0.318,1.94-0.952,3.691c-0.635,1.751-1.408,3.871-2.322,6.357l0.837,0.456
		c0.457-1.065,1.091-2.359,1.903-3.882c0.812-1.522,1.725-3.008,2.741-4.454c1.015-1.446,2.157-2.676,3.426-3.692
		c1.268-1.015,2.588-1.522,3.958-1.522c1.116,0,2.119,0.381,3.007,1.143c0.887,0.761,1.332,1.751,1.332,2.969
		c0,0.66-0.114,1.294-0.342,1.903c-0.229,0.608-0.521,1.142-0.875,1.599c-0.356,0.457-0.723,0.812-1.104,1.065
		c-0.381,0.255-0.75,0.381-1.104,0.381c-1.065,0-1.903-0.202-2.512-0.609c-0.304-0.202-0.609-0.405-0.914-0.608
		c-0.304-0.202-0.711-0.305-1.218-0.305c-0.609,0-1.294,0.33-2.056,0.989c-0.761,0.66-1.522,1.484-2.284,2.475
		c-0.761,0.989-1.484,2.068-2.169,3.235c-0.686,1.168-1.231,2.233-1.637,3.197c-0.407,0.913-0.812,1.93-1.218,3.045
		c-0.407,1.117-0.837,2.387-1.294,3.807l-2.437,7.688c-0.152,0.356-0.483,0.533-0.989,0.533H412.836z"/>
</g>
<path d="M138.219,614.463c-8.354,3.228-9.263,10.049-10.517,12.804c-2.021,2.651-4.482,3.867-7.093,6.368
	c-2.611,2.501-5.001,6.657-5.001,6.657s4.248-2.145,10.837-4.063c1.648-0.48,12.625,2.061,22.179-3.612
	c3.715,7.004,0.663,14.825-3.4,22.026c11.91-7.548,7.65-23.515,8.159-25.003c3.007,2.901,3.368,17.731-3.722,23.472
	c-15.379,12.453-33.045,13.813-46.194,24.076c-15.544,12.133-14.486,41.764,7.765,43.465c-7.84-4.456-14.353-25.98-0.586-39.423
	c13.977-13.648,22.263-10.732,29.54-13.023c-6.958,2.458-14.724,3.245-20.812,10.292c-4.459,5.161-10.018,15.854,0.75,25.583
	c-3.355-8.956,2.667-21.333,11.167-25.833c-4.399,8.167-1.583,13.333,4.833,15.667c-6.623-6.102-0.407-8.578,14.333-27
	c5.658-7.071,10.117-16.271,10.339-27.806c0.286-14.857-11.928-23.821-18.572-25.189c0.297-11.929-9.686-22.035-9.686-22.035
	s1.516,2.257,2.26,7.54c-2.086-5.507-9.18-9.695-12.218-10.301C128.79,595.641,139.286,605.966,138.219,614.463z"/>
<path d="M112.661,710.477c5.753,4.965,16.532,5.073,25.502,0.892c10.523-4.905,17.221-14.493,22.286-24.554
	c2.668-5.298,4.886-10.779,6.927-16.344c0.753-2.052,1.959-4.337,2.27-6.511c0.323-2.257-3.162-1.502-4.666-1.543
	c-1.296-0.035-3.676,0.129-4.241-1.436c-0.434-1.202,0.66-2.471,1.487-3.198c3.514-3.088,8.644-2.262,12.943-2.249
	c1.419,0.004,2.839,0.007,4.258,0.009c1.256,0.001,3.233-0.375,4.383,0.221c1.412,0.732,1.036,3.635,1.118,4.988
	c0.339,5.608,0.648,11.217,1.018,16.823c0.346,5.251,0.498,10.546,1.005,15.784c0.239,2.472,1.395,1.369,2.279,0.104
	c6.125-8.77,12.251-17.541,18.376-26.311c2.304-3.299,4.538-6.663,6.919-9.907c1.094-1.49,2.44-1.692,4.237-1.7
	c2.811-0.012,5.623,0,8.434,0c0.742,0,1.484,0,2.226,0c-3.671,12.03-6.993,24.168-10.401,36.275c-0.826,2.933-1.634,5.871-2.4,8.819
	c-0.348,1.337-1.959,4.862-0.241,5.738c0.975,0.497,6.077-0.129,4.448,2.564c-1.071,1.771-4.424,2.432-6.265,2.832
	c-2.466,0.535-5.603,1.203-8.105,0.834c-2.813-0.416-3.031-3.073-2.574-5.36c1.249-6.237,3.238-12.4,4.928-18.529
	c1.758-6.374,3.555-12.737,5.392-19.088c0.29-1.001,2.597-7.813,1.85-7.956c-0.952-0.181-2.858,3.576-3.354,4.28
	c-7.166,10.173-14.243,20.406-21.371,30.605c-2.918,4.176-5.793,8.398-8.778,12.526c-0.878,1.214-3.097,3.543-4.383,1.484
	c-0.873-1.397-0.633-4.109-0.767-5.625c-1.051-11.945-2.071-23.89-3.088-35.838c-0.097-1.144-0.203-2.288-0.293-3.433
	c-0.029-0.365,0.051-1.908-0.275-2.111c-0.95-0.593-2.434,5.336-2.651,6.017c-1.792,5.617-3.817,11.173-6.144,16.591
	c-4.73,11.011-10.884,22.392-20.913,29.453c-9.242,6.508-23.518,9.368-32.556,0.995c-1.94-1.797-3.485-3.997-4.541-6.415
	c-1.207-2.763-2.211-5.298-1-12.019C107.392,703.876,110.009,708.188,112.661,710.477z"/>
<g>
	<path d="M231.512,714.168c-0.223-6.554-0.694-12.053-1.416-16.498c-0.723-4.443-1.445-8.067-2.166-10.873
		c-0.723-2.805-1.348-4.93-1.875-6.374c-0.528-1.444-0.723-2.472-0.583-3.083c0.138-0.61,0.735-0.93,1.791-0.958
		c1.055-0.027,2.805-0.042,5.249-0.042c0.834,0,1.569,0.153,2.208,0.458c0.639,0.306,1.18,0.833,1.625,1.583
		c0.444,0.75,0.819,1.765,1.125,3.042c0.305,1.278,0.513,2.889,0.625,4.832c0.167,2.39,0.291,4.75,0.375,7.083
		c0.083,2.333,0.138,4.514,0.166,6.54c0.027,2.028,0.027,3.82,0,5.375c-0.028,1.556-0.07,2.722-0.125,3.499l1,0.083
		c0.222-0.443,0.652-1.318,1.292-2.624c0.638-1.305,1.318-2.763,2.041-4.375c0.722-1.61,1.388-3.221,2-4.832
		c0.61-1.61,1.027-2.917,1.25-3.916c0.11-0.611,0.25-1.389,0.416-2.333c0.167-0.944,0.25-2.027,0.25-3.25
		c0-1.11-0.25-2.305-0.75-3.583c-0.5-1.277-0.749-2.471-0.749-3.583c0-0.943,0.36-1.846,1.083-2.708
		c0.721-0.86,1.86-1.291,3.416-1.291c1.943,0,3.263,0.583,3.958,1.75c0.693,1.166,1.041,2.722,1.041,4.666
		c0,0.778-0.166,1.791-0.5,3.041c-0.333,1.25-0.791,2.639-1.375,4.166c-0.583,1.528-1.236,3.111-1.958,4.749
		c-0.723,1.64-1.472,3.181-2.249,4.625c-1.112,2.111-2.487,4.514-4.125,7.207c-1.639,2.695-3.389,5.416-5.249,8.165
		c-1.861,2.75-3.778,5.402-5.749,7.957c-1.973,2.555-3.848,4.721-5.624,6.5c-0.557,0.554-1.265,1.263-2.125,2.124
		c-0.862,0.86-1.833,1.68-2.916,2.458c-1.084,0.777-2.265,1.458-3.541,2.042c-1.277,0.583-2.61,0.875-4,0.875
		c-1.943,0-3.374-0.432-4.291-1.292c-0.917-0.862-1.375-1.903-1.375-3.125c0-1.499,0.445-2.722,1.333-3.666
		c0.89-0.945,1.833-1.416,2.833-1.416c0.723,0,1.292,0.138,1.708,0.416c0.417,0.277,0.82,0.639,1.209,1.084
		c0.389,0.388,0.819,0.708,1.291,0.958s0.93,0.375,1.375,0.375c0.443,0,0.916-0.07,1.416-0.209s1.138-0.458,1.917-0.958
		c0.888-0.556,1.763-1.223,2.624-1.999c0.861-0.779,1.625-1.557,2.292-2.333c0.666-0.779,1.249-1.515,1.749-2.208
		c0.5-0.695,0.861-1.209,1.084-1.542c0.61-0.833,0.971-1.778,1.083-2.833C231.706,716.861,231.679,715.611,231.512,714.168z"/>
	<path d="M289.004,675.923c0.61,0,0.833,0.334,0.666,1c-0.333,0.89-0.791,2.167-1.375,3.833c-0.583,1.666-1.181,3.389-1.791,5.166
		c-0.612,1.778-1.181,3.444-1.708,4.999c-0.528,1.556-0.875,2.666-1.042,3.333c-0.111,0.333-0.333,1.098-0.666,2.291
		c-0.334,1.195-0.695,2.458-1.083,3.792c-0.39,1.333-0.737,2.569-1.042,3.707c-0.306,1.14-0.458,1.875-0.458,2.208
		c0,0.667,0.333,1,1,1c0.333,0,0.708,0.209,1.124,0.625c0.417,0.417,0.527,0.917,0.334,1.5c-0.195,0.583-0.89,1.195-2.083,1.833
		c-1.195,0.639-3.237,1.152-6.124,1.541c-1.279,0.167-2.167-0.07-2.667-0.708s-0.75-1.291-0.75-1.958c0-0.277,0.042-0.61,0.125-1
		c0.084-0.388,0.236-0.971,0.459-1.749c0.221-0.777,0.541-1.805,0.958-3.083c0.416-1.277,0.985-2.944,1.708-5l-0.75-0.416
		c-0.833,1.278-1.791,2.708-2.875,4.291c-1.083,1.583-2.319,3.097-3.707,4.541c-1.39,1.445-2.917,2.653-4.583,3.624
		c-1.667,0.972-3.473,1.458-5.416,1.458c-0.556,0-1.166-0.181-1.833-0.541c-0.667-0.361-1.292-0.847-1.875-1.458
		s-1.07-1.305-1.458-2.083c-0.39-0.777-0.583-1.583-0.583-2.417c0-1.721,0.277-3.666,0.833-5.832
		c0.555-2.166,1.319-4.36,2.291-6.583c0.972-2.221,2.152-4.387,3.542-6.499c1.388-2.11,2.901-3.971,4.541-5.582
		c1.638-1.61,3.387-2.916,5.249-3.916c1.86-1,3.791-1.5,5.791-1.5c1.888,0,3.304,0.32,4.249,0.958
		c0.944,0.64,1.694,1.292,2.25,1.958l1.333-2.416c0.388-0.61,0.888-0.917,1.5-0.917H289.004z M261.424,703.503
		c0,0.945,0.167,1.598,0.5,1.958c0.333,0.361,0.833,0.541,1.5,0.541c0.555,0,1.402-0.583,2.541-1.749
		c1.138-1.167,2.305-2.542,3.5-4.125c1.193-1.583,2.318-3.179,3.374-4.791c1.055-1.61,1.777-2.833,2.167-3.666
		c0.499-1.11,0.943-2.36,1.333-3.749c0.388-1.389,0.583-2.805,0.583-4.25c0-0.943-0.403-1.805-1.208-2.583
		c-0.806-0.777-1.625-1.166-2.458-1.166c-2.056,0-4.139,1.889-6.249,5.666c-2.112,3.722-3.57,7.124-4.375,10.207
		C261.826,698.878,261.424,701.448,261.424,703.503z"/>
	<path d="M287.337,711.918c-0.723,0-0.973-0.305-0.75-0.916l5.749-15.998c0.5-1.333,0.972-2.638,1.417-3.916
		c0.443-1.277,0.833-2.458,1.166-3.541c0.333-1.084,0.61-2,0.833-2.75c0.222-0.75,0.334-1.263,0.334-1.541
		c0-0.889-0.362-1.334-1.084-1.334c-0.166,0-0.32-0.291-0.458-0.874c-0.14-0.584-0.028-1.222,0.333-1.917
		c0.361-0.693,1.139-1.333,2.333-1.916s3.069-0.875,5.625-0.875c1.276,0,2.151,0.375,2.624,1.125
		c0.472,0.75,0.708,1.458,0.708,2.124c0,0.612-0.389,1.917-1.166,3.917c-0.778,1.999-1.723,4.305-2.833,6.915l0.75,0.584
		c0.61-0.889,1.485-2.167,2.625-3.833c1.138-1.667,2.485-3.291,4.041-4.875c1.554-1.583,3.263-2.971,5.124-4.166
		c1.86-1.193,3.818-1.791,5.874-1.791c0.888,0,1.667,0.181,2.333,0.542c0.667,0.361,1.222,0.819,1.667,1.374
		c0.443,0.557,0.776,1.167,0.999,1.833c0.222,0.667,0.334,1.279,0.334,1.833c0,0.445-0.084,1.029-0.25,1.75
		c-0.167,0.723-0.432,1.681-0.792,2.875c-0.361,1.195-0.861,2.681-1.5,4.458c-0.639,1.778-1.403,3.944-2.291,6.499
		c-1,2.833-1.695,4.832-2.083,5.999c-0.39,1.166-0.583,1.999-0.583,2.499c0,0.945,0.36,1.417,1.083,1.417
		c0.167,0,0.43,0.181,0.791,0.541c0.361,0.362,0.417,0.807,0.167,1.334c-0.25,0.528-1,1.097-2.25,1.708
		c-1.249,0.611-3.402,1.193-6.457,1.749c-1.278,0.222-2.153-0.041-2.625-0.791c-0.473-0.75-0.708-1.542-0.708-2.375
		c0-0.777,0.402-2.36,1.208-4.749c0.805-2.388,1.847-5.416,3.125-9.082c0.333-0.944,0.693-1.972,1.083-3.083
		c0.388-1.11,0.75-2.193,1.083-3.25c0.333-1.054,0.61-1.985,0.833-2.791c0.222-0.805,0.334-1.402,0.334-1.791
		c0-1.222-0.557-1.833-1.667-1.833c-0.5,0-1.208,0.375-2.124,1.124c-0.917,0.75-1.931,1.709-3.042,2.875
		c-1.111,1.167-2.222,2.473-3.333,3.916c-1.111,1.445-2.083,2.833-2.916,4.166c-0.945,1.445-1.791,2.792-2.541,4.041
		c-0.75,1.25-1.265,2.237-1.542,2.958l-3.249,9.332c-0.112,0.167-0.237,0.292-0.375,0.375c-0.14,0.083-0.431,0.125-0.875,0.125
		H287.337z"/>
	<path d="M325.831,711.918c-0.778,0-1.028-0.36-0.75-1.083l5.416-15.748c0.443-1.277,0.888-2.568,1.333-3.874
		c0.444-1.305,0.86-2.5,1.25-3.583c0.388-1.083,0.693-2.013,0.916-2.791c0.222-0.777,0.334-1.333,0.334-1.667
		c0-0.277-0.057-0.541-0.167-0.791c-0.112-0.25-0.39-0.375-0.833-0.375c-0.5,0-0.958-0.292-1.375-0.875s-0.515-1.235-0.292-1.958
		c0.222-0.722,0.93-1.375,2.125-1.958c1.194-0.583,3.125-0.875,5.791-0.875c1.777,0,3,0.292,3.666,0.875
		c0.667,0.583,1,1.375,1,2.374c0,0.612-0.237,1.584-0.708,2.917c-0.473,1.333-1.015,2.722-1.625,4.166
		c-0.612,1.445-1.195,2.791-1.75,4.041c-0.556,1.25-0.916,2.098-1.083,2.541l0.833,0.583c0.833-1.443,1.86-3.166,3.083-5.165
		c1.222-2,2.583-3.917,4.083-5.75s3.138-3.388,4.916-4.666c1.777-1.277,3.666-1.916,5.666-1.916c1.388,0,2.61,0.431,3.666,1.291
		c1.055,0.862,1.583,1.792,1.583,2.792c0,0.611-0.181,1.528-0.542,2.749c-0.361,1.223-0.764,2.5-1.208,3.833
		c-0.445,1.333-0.916,2.598-1.416,3.791c-0.5,1.195-0.862,2.125-1.083,2.791l0.749,0.584c1.111-1.667,2.319-3.541,3.625-5.624
		c1.305-2.084,2.721-4.027,4.249-5.833c1.527-1.805,3.167-3.318,4.916-4.541c1.75-1.222,3.652-1.833,5.708-1.833
		c0.888,0,1.652,0.167,2.291,0.5c0.638,0.333,1.167,0.75,1.583,1.25c0.417,0.5,0.722,1.014,0.917,1.541
		c0.194,0.528,0.291,0.987,0.291,1.375c0,0.667-0.124,1.556-0.374,2.666c-0.25,1.112-0.584,2.333-1,3.666
		c-0.417,1.334-0.89,2.75-1.417,4.25c-0.528,1.5-1.041,2.999-1.541,4.499c-0.833,2.389-1.57,4.431-2.208,6.124
		c-0.64,1.695-0.958,2.848-0.958,3.458c0.11,0.778,0.443,1.167,0.999,1.167c0.5,0,0.819,0.291,0.959,0.875
		c0.138,0.583-0.042,1.222-0.542,1.916c-0.5,0.695-1.361,1.361-2.583,1.999c-1.223,0.639-2.945,1.014-5.166,1.125
		c-1.389,0.111-2.361-0.195-2.916-0.916c-0.556-0.722-0.862-1.417-0.917-2.083c-0.056-1.5,1.444-6.276,4.5-14.331
		c0.666-1.722,1.208-3.167,1.624-4.333c0.417-1.167,0.75-2.167,1-3s0.43-1.5,0.542-1.999c0.11-0.5,0.167-0.944,0.167-1.334
		c0-1.054-0.5-1.583-1.5-1.583c-0.334,0-0.917,0.404-1.75,1.208c-0.833,0.807-1.82,1.904-2.958,3.292
		c-1.139,1.389-2.375,2.986-3.708,4.791c-1.333,1.806-2.666,3.707-3.999,5.707c-0.278,0.445-0.695,1.181-1.25,2.208
		c-0.556,1.028-1.083,2.265-1.583,3.708l-2.583,7.332c-0.112,0.333-0.5,0.5-1.167,0.5h-7.082c-0.778,0-1.056-0.36-0.833-1.083
		l4.999-13.831c1.055-2.888,1.958-5.471,2.708-7.749c0.75-2.277,1.125-3.75,1.125-4.416c0-0.444-0.083-0.833-0.25-1.167
		c-0.167-0.333-0.556-0.5-1.167-0.5c-0.333,0-0.931,0.39-1.791,1.167c-0.861,0.778-1.833,1.806-2.916,3.083
		c-1.083,1.278-2.265,2.749-3.541,4.416c-1.278,1.666-2.5,3.416-3.666,5.249c-0.557,0.778-1.125,1.75-1.709,2.916
		c-0.583,1.167-1.181,2.5-1.791,4l-2.75,7.332c-0.111,0.389-0.5,0.583-1.166,0.583H325.831z"/>
	<path d="M422.65,675.923c0.61,0,0.833,0.334,0.666,1c-0.333,0.89-0.791,2.167-1.375,3.833c-0.583,1.666-1.181,3.389-1.791,5.166
		c-0.612,1.778-1.181,3.444-1.708,4.999c-0.528,1.556-0.875,2.666-1.042,3.333c-0.111,0.333-0.333,1.098-0.666,2.291
		c-0.334,1.195-0.695,2.458-1.083,3.792c-0.39,1.333-0.737,2.569-1.042,3.707c-0.306,1.14-0.458,1.875-0.458,2.208
		c0,0.667,0.333,1,1,1c0.333,0,0.708,0.209,1.124,0.625c0.417,0.417,0.527,0.917,0.334,1.5c-0.195,0.583-0.89,1.195-2.083,1.833
		c-1.195,0.639-3.237,1.152-6.124,1.541c-1.279,0.167-2.167-0.07-2.667-0.708s-0.75-1.291-0.75-1.958c0-0.277,0.042-0.61,0.125-1
		c0.084-0.388,0.236-0.971,0.459-1.749c0.221-0.777,0.541-1.805,0.958-3.083c0.416-1.277,0.985-2.944,1.708-5l-0.75-0.416
		c-0.833,1.278-1.791,2.708-2.875,4.291c-1.083,1.583-2.319,3.097-3.707,4.541c-1.39,1.445-2.917,2.653-4.583,3.624
		c-1.667,0.972-3.473,1.458-5.416,1.458c-0.556,0-1.166-0.181-1.833-0.541c-0.667-0.361-1.292-0.847-1.875-1.458
		s-1.07-1.305-1.458-2.083c-0.39-0.777-0.583-1.583-0.583-2.417c0-1.721,0.277-3.666,0.833-5.832
		c0.555-2.166,1.319-4.36,2.291-6.583c0.972-2.221,2.152-4.387,3.542-6.499c1.388-2.11,2.901-3.971,4.541-5.582
		c1.638-1.61,3.387-2.916,5.249-3.916c1.86-1,3.791-1.5,5.791-1.5c1.888,0,3.304,0.32,4.249,0.958
		c0.944,0.64,1.694,1.292,2.25,1.958l1.333-2.416c0.388-0.61,0.888-0.917,1.5-0.917H422.65z M395.07,703.503
		c0,0.945,0.167,1.598,0.5,1.958c0.333,0.361,0.833,0.541,1.5,0.541c0.555,0,1.402-0.583,2.541-1.749
		c1.138-1.167,2.305-2.542,3.5-4.125c1.193-1.583,2.318-3.179,3.374-4.791c1.055-1.61,1.777-2.833,2.167-3.666
		c0.499-1.11,0.943-2.36,1.333-3.749c0.388-1.389,0.583-2.805,0.583-4.25c0-0.943-0.403-1.805-1.208-2.583
		c-0.806-0.777-1.625-1.166-2.458-1.166c-2.056,0-4.139,1.889-6.249,5.666c-2.112,3.722-3.57,7.124-4.375,10.207
		C395.473,698.878,395.07,701.448,395.07,703.503z"/>
	<path d="M423.481,711.918c-0.722,0-0.972-0.25-0.749-0.75l3.999-13.498c0.333-1.166,0.735-2.499,1.208-3.999
		c0.472-1.5,0.917-2.958,1.333-4.375c0.417-1.416,0.763-2.693,1.042-3.832c0.277-1.139,0.416-1.902,0.416-2.292
		c0-0.443-0.125-0.818-0.375-1.125c-0.25-0.305-0.597-0.458-1.041-0.458c-0.112,0-0.39-0.083-0.833-0.25
		c-0.445-0.166-0.625-0.443-0.542-0.833c0.083-0.388,0.625-0.93,1.625-1.625c1-0.693,2.916-1.541,5.749-2.541
		c0.777-0.277,1.444-0.333,2-0.167c0.555,0.167,1,0.445,1.333,0.833c0.333,0.39,0.583,0.834,0.75,1.334
		c0.166,0.5,0.25,0.945,0.25,1.333c0,0.778-0.348,2.124-1.042,4.041c-0.695,1.916-1.541,4.236-2.541,6.957l0.917,0.5
		c0.499-1.166,1.193-2.583,2.083-4.249c0.888-1.667,1.888-3.291,2.999-4.875c1.11-1.583,2.36-2.929,3.75-4.041
		c1.388-1.11,2.833-1.666,4.332-1.666c1.222,0,2.319,0.417,3.292,1.25c0.971,0.833,1.458,1.916,1.458,3.249
		c0,0.723-0.125,1.417-0.375,2.083c-0.25,0.667-0.57,1.25-0.958,1.75c-0.39,0.5-0.792,0.89-1.209,1.167
		c-0.416,0.278-0.82,0.416-1.208,0.416c-1.166,0-2.083-0.221-2.749-0.666c-0.334-0.222-0.667-0.444-1-0.667
		c-0.334-0.222-0.779-0.333-1.333-0.333c-0.667,0-1.417,0.361-2.25,1.083c-0.833,0.723-1.667,1.625-2.5,2.708
		s-1.625,2.264-2.374,3.541c-0.75,1.278-1.348,2.445-1.792,3.5c-0.445,0.999-0.889,2.111-1.333,3.332
		c-0.445,1.223-0.917,2.612-1.416,4.167l-2.667,8.415c-0.166,0.389-0.528,0.583-1.083,0.583H423.481z"/>
</g>
<g>
	<path d="M253.066,658.527c0.587,0.717,0.881,1.7,0.881,2.95v8.425h-1.348v-8.425c0-0.967-0.156-1.708-0.468-2.225
		s-0.898-0.775-1.76-0.775c-1.283,0-2.769,0.75-4.455,2.25c0.018,0.167,0.027,0.417,0.027,0.75v8.425h-1.348v-8.425
		c0-0.967-0.156-1.708-0.468-2.225s-0.898-0.775-1.76-0.775c-0.696,0-1.443,0.221-2.241,0.662c-0.797,0.442-1.608,1.038-2.434,1.788
		v8.975h-1.348v-12.125h1.045l0.275,1.9c0.568-0.601,1.302-1.121,2.2-1.562c0.897-0.441,1.695-0.663,2.393-0.663
		c1.796,0,2.942,0.734,3.438,2.2c0.567-0.6,1.297-1.116,2.186-1.55c0.89-0.434,1.682-0.65,2.379-0.65
		C251.545,657.452,252.479,657.812,253.066,658.527z"/>
	<path d="M260.217,672.353l0.853-2.45l-5.032-11.825l1.265-0.449l4.4,10.875l4.234-10.726h1.375l-6.022,14.925
		c-0.274,0.684-0.733,1.259-1.375,1.726c-0.642,0.466-1.402,0.783-2.282,0.95l-0.138-0.95c0.733-0.217,1.315-0.483,1.746-0.8
		C259.671,673.311,259.997,672.886,260.217,672.353z"/>
	<path d="M268.741,669.277l0.495-1.024c0.659,0.3,1.269,0.533,1.828,0.699c0.56,0.167,1.15,0.25,1.774,0.25
		c1.1,0,1.961-0.203,2.585-0.612c0.623-0.408,0.935-0.962,0.935-1.662c0-1-1.174-1.917-3.52-2.75
		c-2.585-0.917-3.878-2.042-3.878-3.375c0-0.983,0.403-1.788,1.21-2.413s1.934-0.938,3.383-0.938c0.586,0,1.251,0.097,1.993,0.288
		c0.743,0.191,1.334,0.429,1.774,0.712l-0.551,0.875c-0.642-0.283-1.191-0.495-1.649-0.637c-0.459-0.142-1.045-0.213-1.76-0.213
		c-0.917,0-1.664,0.221-2.241,0.662c-0.578,0.442-0.866,0.963-0.866,1.562c0,0.518,0.293,0.976,0.88,1.375
		c0.586,0.4,1.411,0.792,2.475,1.176c1.246,0.449,2.231,0.962,2.956,1.537s1.087,1.254,1.087,2.037c0,2.268-1.623,3.4-4.868,3.4
		c-0.623,0-1.334-0.088-2.131-0.263C269.854,669.79,269.218,669.562,268.741,669.277z"/>
	<path d="M282.629,658.152h2.42l0.577,0.925h-2.997v7.75c0,0.667,0.155,1.229,0.467,1.688c0.312,0.459,0.779,0.688,1.402,0.688
		c0.367,0,0.743-0.074,1.128-0.225l0.33,0.95c-0.055,0-0.303,0.058-0.742,0.175c-0.367,0.083-0.725,0.125-1.073,0.125
		c-0.88,0-1.576-0.279-2.09-0.838c-0.514-0.558-0.77-1.354-0.77-2.387v-7.926h-1.98v-0.925h1.98v-3.274l1.348-0.551V658.152z"/>
	<path d="M298.881,663.853h-9.597c0.018,1.566,0.416,2.85,1.196,3.85c0.778,1,1.947,1.5,3.506,1.5c0.88,0,1.613-0.074,2.2-0.225
		c0.586-0.15,1.164-0.358,1.732-0.625l0.55,0.925c-0.514,0.284-1.196,0.513-2.049,0.688s-1.591,0.263-2.214,0.263
		c-2.108,0-3.689-0.583-4.743-1.75c-1.055-1.166-1.582-2.733-1.582-4.7c0-1.899,0.5-3.429,1.499-4.587s2.443-1.738,4.331-1.738
		c1.009,0,1.907,0.275,2.695,0.825s1.397,1.312,1.829,2.288C298.666,661.54,298.881,662.636,298.881,663.853z M289.339,662.928
		h8.112c-0.146-1.316-0.532-2.388-1.155-3.213s-1.549-1.237-2.777-1.237c-1.247,0-2.223,0.421-2.929,1.263
		S289.467,661.645,289.339,662.928z"/>
	<path d="M303.253,660.978v8.925h-1.348v-12.125h0.771l0.495,1.925c0.623-0.466,1.352-0.903,2.186-1.312
		c0.834-0.408,1.563-0.612,2.187-0.612l0.468,0.95c-0.789,0-1.637,0.233-2.544,0.7S303.821,660.411,303.253,660.978z"/>
	<path d="M310.87,654.902c-0.312,0-0.563-0.091-0.756-0.274s-0.289-0.408-0.289-0.676c0-0.266,0.097-0.491,0.289-0.675
		c0.192-0.183,0.444-0.274,0.756-0.274c0.293,0,0.545,0.092,0.756,0.274c0.211,0.184,0.316,0.409,0.316,0.675
		c0,0.268-0.101,0.492-0.302,0.676C311.438,654.812,311.181,654.902,310.87,654.902z M311.557,657.777v12.125h-1.348v-12.125
		H311.557z"/>
	<path d="M326.036,667.14c-0.486,0.959-1.196,1.713-2.131,2.263c-0.936,0.55-2.035,0.825-3.301,0.825
		c-1.925-0.017-3.409-0.612-4.454-1.787c-1.046-1.176-1.568-2.729-1.568-4.663c0-1.2,0.243-2.278,0.729-3.237
		c0.485-0.958,1.196-1.713,2.131-2.263s2.044-0.825,3.327-0.825c1.926,0.018,3.405,0.613,4.441,1.788s1.554,2.729,1.554,4.662
		C326.764,665.103,326.521,666.182,326.036,667.14z M323.121,668.49c0.724-0.476,1.279-1.116,1.664-1.925s0.577-1.688,0.577-2.638
		c0-1.017-0.179-1.938-0.536-2.763s-0.885-1.479-1.581-1.963c-0.697-0.482-1.531-0.725-2.503-0.725
		c-0.953,0-1.792,0.237-2.516,0.713c-0.725,0.475-1.279,1.116-1.664,1.925s-0.577,1.688-0.577,2.638
		c0,1.017,0.179,1.938,0.536,2.762c0.357,0.825,0.884,1.479,1.581,1.963c0.696,0.483,1.53,0.725,2.502,0.725
		C321.557,669.202,322.396,668.965,323.121,668.49z"/>
	<path d="M338.343,666.753v-8.976h1.348v12.125h-1.045l-0.275-1.899c-0.587,0.616-1.32,1.142-2.2,1.574
		c-0.88,0.434-1.724,0.65-2.529,0.65c-1.357,0-2.356-0.362-2.998-1.088c-0.642-0.725-0.962-1.703-0.962-2.938v-8.425h1.347v8.425
		c0,0.934,0.184,1.667,0.551,2.2c0.366,0.534,1.018,0.8,1.952,0.8C334.978,669.202,336.583,668.386,338.343,666.753z"/>
	<path d="M342.77,669.277l0.495-1.024c0.659,0.3,1.269,0.533,1.828,0.699c0.56,0.167,1.15,0.25,1.774,0.25
		c1.1,0,1.961-0.203,2.585-0.612c0.623-0.408,0.935-0.962,0.935-1.662c0-1-1.174-1.917-3.52-2.75
		c-2.585-0.917-3.878-2.042-3.878-3.375c0-0.983,0.403-1.788,1.21-2.413s1.934-0.938,3.383-0.938c0.586,0,1.251,0.097,1.993,0.288
		c0.743,0.191,1.334,0.429,1.774,0.712l-0.551,0.875c-0.642-0.283-1.191-0.495-1.649-0.637c-0.459-0.142-1.045-0.213-1.76-0.213
		c-0.917,0-1.664,0.221-2.241,0.662c-0.578,0.442-0.866,0.963-0.866,1.562c0,0.518,0.293,0.976,0.88,1.375
		c0.586,0.4,1.411,0.792,2.475,1.176c1.246,0.449,2.231,0.962,2.956,1.537s1.087,1.254,1.087,2.037c0,2.268-1.623,3.4-4.868,3.4
		c-0.623,0-1.334-0.088-2.131-0.263C343.884,669.79,343.247,669.562,342.77,669.277z"/>
</g>
<g>
	<path d="M250.699,327.338c0.587,0.717,0.881,1.7,0.881,2.95v8.425h-1.348v-8.425c0-0.967-0.156-1.709-0.468-2.226
		s-0.898-0.774-1.76-0.774c-1.283,0-2.769,0.75-4.455,2.25c0.018,0.166,0.027,0.416,0.027,0.75v8.425h-1.348v-8.425
		c0-0.967-0.156-1.709-0.468-2.226s-0.898-0.774-1.76-0.774c-0.696,0-1.443,0.221-2.241,0.662c-0.797,0.441-1.608,1.037-2.434,1.787
		v8.976h-1.348v-12.125h1.045l0.275,1.899c0.568-0.6,1.302-1.12,2.2-1.562c0.897-0.441,1.695-0.662,2.393-0.662
		c1.796,0,2.942,0.733,3.438,2.2c0.567-0.601,1.297-1.116,2.186-1.55c0.89-0.434,1.682-0.65,2.379-0.65
		C249.178,326.263,250.112,326.621,250.699,327.338z"/>
	<path d="M257.849,341.163l0.853-2.45l-5.032-11.825l1.265-0.45l4.4,10.875l4.234-10.725h1.375l-6.022,14.925
		c-0.274,0.684-0.733,1.258-1.375,1.725s-1.402,0.783-2.282,0.95l-0.138-0.95c0.733-0.217,1.315-0.483,1.746-0.8
		S257.63,341.696,257.849,341.163z"/>
	<path d="M266.374,338.088l0.495-1.025c0.659,0.3,1.269,0.534,1.828,0.7c0.56,0.167,1.15,0.25,1.774,0.25
		c1.1,0,1.961-0.204,2.585-0.612c0.623-0.408,0.935-0.963,0.935-1.663c0-1-1.174-1.916-3.52-2.75
		c-2.585-0.916-3.878-2.041-3.878-3.375c0-0.982,0.403-1.787,1.21-2.412s1.934-0.938,3.383-0.938c0.586,0,1.251,0.096,1.993,0.287
		c0.743,0.192,1.334,0.43,1.774,0.713l-0.551,0.875c-0.642-0.283-1.191-0.496-1.649-0.638c-0.459-0.142-1.045-0.212-1.76-0.212
		c-0.917,0-1.664,0.221-2.241,0.662c-0.578,0.441-0.866,0.963-0.866,1.562c0,0.517,0.293,0.975,0.88,1.375
		c0.586,0.4,1.411,0.792,2.475,1.175c1.246,0.45,2.231,0.963,2.956,1.538c0.725,0.574,1.087,1.254,1.087,2.037
		c0,2.267-1.623,3.4-4.868,3.4c-0.623,0-1.334-0.088-2.131-0.263C267.487,338.601,266.85,338.371,266.374,338.088z"/>
	<path d="M280.262,326.963h2.42l0.577,0.925h-2.997v7.75c0,0.667,0.155,1.229,0.467,1.688c0.312,0.459,0.779,0.688,1.402,0.688
		c0.367,0,0.743-0.075,1.128-0.225l0.33,0.949c-0.055,0-0.303,0.059-0.742,0.176c-0.367,0.083-0.725,0.125-1.073,0.125
		c-0.88,0-1.576-0.279-2.09-0.838s-0.77-1.354-0.77-2.388v-7.925h-1.98v-0.925h1.98v-3.275l1.348-0.55V326.963z"/>
	<path d="M296.514,332.663h-9.597c0.018,1.566,0.416,2.85,1.196,3.85c0.778,1,1.947,1.5,3.506,1.5c0.88,0,1.613-0.075,2.2-0.225
		c0.586-0.15,1.164-0.358,1.732-0.625l0.55,0.925c-0.514,0.283-1.196,0.513-2.049,0.688s-1.591,0.263-2.214,0.263
		c-2.108,0-3.689-0.584-4.743-1.75c-1.055-1.167-1.582-2.733-1.582-4.7c0-1.9,0.5-3.429,1.499-4.588
		c0.999-1.158,2.443-1.737,4.331-1.737c1.009,0,1.907,0.275,2.695,0.825s1.397,1.312,1.829,2.287
		C296.299,330.351,296.514,331.446,296.514,332.663z M286.972,331.737h8.112c-0.146-1.316-0.532-2.387-1.155-3.212
		s-1.549-1.237-2.777-1.237c-1.247,0-2.223,0.421-2.929,1.262C287.516,329.392,287.099,330.454,286.972,331.737z"/>
	<path d="M300.886,329.788v8.925h-1.348v-12.125h0.771l0.495,1.925c0.623-0.467,1.352-0.904,2.186-1.312s1.563-0.612,2.187-0.612
		l0.468,0.95c-0.789,0-1.637,0.233-2.544,0.699C302.192,328.704,301.454,329.222,300.886,329.788z"/>
	<path d="M308.503,323.713c-0.312,0-0.563-0.092-0.756-0.275c-0.192-0.183-0.289-0.408-0.289-0.675s0.097-0.491,0.289-0.675
		s0.444-0.275,0.756-0.275c0.293,0,0.545,0.092,0.756,0.275s0.316,0.408,0.316,0.675s-0.101,0.492-0.302,0.675
		C309.071,323.621,308.814,323.713,308.503,323.713z M309.19,326.588v12.125h-1.348v-12.125H309.19z"/>
	<path d="M323.669,335.95c-0.486,0.959-1.196,1.713-2.131,2.263c-0.936,0.55-2.035,0.825-3.301,0.825
		c-1.925-0.018-3.409-0.613-4.454-1.788c-1.046-1.175-1.568-2.729-1.568-4.662c0-1.2,0.243-2.279,0.729-3.237
		c0.485-0.959,1.196-1.713,2.131-2.263s2.044-0.825,3.327-0.825c1.926,0.017,3.405,0.612,4.441,1.787
		c1.036,1.176,1.554,2.729,1.554,4.663C324.397,333.913,324.154,334.992,323.669,335.95z M320.754,337.3
		c0.724-0.475,1.279-1.116,1.664-1.925c0.385-0.808,0.577-1.688,0.577-2.638c0-1.016-0.179-1.938-0.536-2.762
		c-0.357-0.825-0.885-1.479-1.581-1.963c-0.697-0.483-1.531-0.725-2.503-0.725c-0.953,0-1.792,0.237-2.516,0.712
		c-0.725,0.476-1.279,1.117-1.664,1.925c-0.385,0.809-0.577,1.688-0.577,2.638c0,1.017,0.179,1.938,0.536,2.763
		s0.884,1.479,1.581,1.963c0.696,0.483,1.53,0.725,2.502,0.725C319.19,338.013,320.029,337.775,320.754,337.3z"/>
	<path d="M335.975,335.563v-8.975h1.348v12.125h-1.045l-0.275-1.9c-0.587,0.617-1.32,1.142-2.2,1.575s-1.724,0.65-2.529,0.65
		c-1.357,0-2.356-0.363-2.998-1.088s-0.962-1.704-0.962-2.938v-8.425h1.347v8.425c0,0.934,0.184,1.667,0.551,2.2
		c0.366,0.533,1.018,0.8,1.952,0.8C332.611,338.013,334.216,337.196,335.975,335.563z"/>
	<path d="M340.403,338.088l0.495-1.025c0.659,0.3,1.269,0.534,1.828,0.7c0.56,0.167,1.15,0.25,1.774,0.25
		c1.1,0,1.961-0.204,2.585-0.612c0.623-0.408,0.935-0.963,0.935-1.663c0-1-1.174-1.916-3.52-2.75
		c-2.585-0.916-3.878-2.041-3.878-3.375c0-0.982,0.403-1.787,1.21-2.412s1.934-0.938,3.383-0.938c0.586,0,1.251,0.096,1.993,0.287
		c0.743,0.192,1.334,0.43,1.774,0.713l-0.551,0.875c-0.642-0.283-1.191-0.496-1.649-0.638c-0.459-0.142-1.045-0.212-1.76-0.212
		c-0.917,0-1.664,0.221-2.241,0.662c-0.578,0.441-0.866,0.963-0.866,1.562c0,0.517,0.293,0.975,0.88,1.375
		c0.586,0.4,1.411,0.792,2.475,1.175c1.246,0.45,2.231,0.963,2.956,1.538c0.725,0.574,1.087,1.254,1.087,2.037
		c0,2.267-1.623,3.4-4.868,3.4c-0.623,0-1.334-0.088-2.131-0.263C341.516,338.601,340.88,338.371,340.403,338.088z"/>
</g>
<g>
	<path d="M201.064,481.022c0.587,0.717,0.881,1.701,0.881,2.951v8.424h-1.348v-8.424c0-0.967-0.156-1.709-0.468-2.226
		s-0.898-0.774-1.76-0.774c-1.283,0-2.769,0.75-4.455,2.25c0.018,0.166,0.027,0.416,0.027,0.75v8.424h-1.348v-8.424
		c0-0.967-0.156-1.709-0.468-2.226s-0.898-0.774-1.76-0.774c-0.696,0-1.443,0.221-2.241,0.662c-0.797,0.441-1.608,1.037-2.434,1.787
		v8.975h-1.348v-12.125h1.045l0.275,1.9c0.568-0.6,1.302-1.121,2.2-1.562c0.897-0.441,1.695-0.662,2.393-0.662
		c1.796,0,2.942,0.733,3.438,2.199c0.567-0.6,1.297-1.115,2.186-1.549c0.89-0.434,1.682-0.65,2.379-0.65
		C199.542,479.948,200.477,480.307,201.064,481.022z"/>
	<path d="M208.214,494.849l0.853-2.451l-5.032-11.824l1.265-0.45l4.4,10.875l4.234-10.726h1.375l-6.022,14.926
		c-0.274,0.684-0.733,1.258-1.375,1.725s-1.402,0.783-2.282,0.95l-0.138-0.95c0.733-0.217,1.315-0.483,1.746-0.8
		C207.668,495.806,207.994,495.382,208.214,494.849z"/>
	<path d="M216.74,491.772l0.495-1.024c0.659,0.3,1.269,0.534,1.828,0.7s1.15,0.25,1.774,0.25c1.1,0,1.961-0.204,2.585-0.613
		c0.623-0.408,0.935-0.962,0.935-1.662c0-1-1.174-1.916-3.52-2.75c-2.585-0.916-3.878-2.041-3.878-3.375
		c0-0.982,0.403-1.787,1.21-2.412s1.934-0.938,3.383-0.938c0.586,0,1.251,0.096,1.993,0.287c0.743,0.191,1.334,0.43,1.774,0.713
		l-0.551,0.875c-0.642-0.283-1.191-0.496-1.649-0.638c-0.459-0.142-1.045-0.212-1.76-0.212c-0.917,0-1.664,0.221-2.241,0.662
		c-0.578,0.441-0.866,0.963-0.866,1.562c0,0.517,0.293,0.975,0.88,1.375c0.586,0.4,1.411,0.791,2.475,1.175
		c1.246,0.45,2.231,0.962,2.956,1.538c0.725,0.574,1.087,1.254,1.087,2.037c0,2.267-1.623,3.4-4.868,3.4
		c-0.623,0-1.334-0.088-2.131-0.264C217.853,492.286,217.216,492.057,216.74,491.772z"/>
	<path d="M230.627,480.647h2.42l0.577,0.926h-2.997v7.75c0,0.666,0.155,1.229,0.467,1.688s0.779,0.688,1.402,0.688
		c0.367,0,0.743-0.075,1.128-0.225l0.33,0.949c-0.055,0-0.303,0.059-0.742,0.176c-0.367,0.082-0.725,0.125-1.073,0.125
		c-0.88,0-1.576-0.279-2.09-0.838s-0.77-1.354-0.77-2.388v-7.925h-1.98v-0.926h1.98v-3.274l1.348-0.55V480.647z"/>
	<path d="M246.878,486.349h-9.597c0.018,1.566,0.416,2.85,1.196,3.85c0.778,1,1.947,1.5,3.506,1.5c0.88,0,1.613-0.075,2.2-0.225
		c0.586-0.15,1.164-0.359,1.732-0.625l0.55,0.924c-0.514,0.284-1.196,0.514-2.049,0.688c-0.853,0.176-1.591,0.264-2.214,0.264
		c-2.108,0-3.689-0.584-4.743-1.75c-1.055-1.167-1.582-2.734-1.582-4.701c0-1.899,0.5-3.428,1.499-4.587
		c0.999-1.158,2.443-1.737,4.331-1.737c1.009,0,1.907,0.275,2.695,0.824c0.788,0.551,1.397,1.312,1.829,2.288
		C246.663,484.036,246.878,485.132,246.878,486.349z M237.336,485.423h8.112c-0.146-1.316-0.532-2.387-1.155-3.213
		c-0.623-0.824-1.549-1.236-2.777-1.236c-1.247,0-2.223,0.42-2.929,1.262S237.464,484.14,237.336,485.423z"/>
	<path d="M251.251,483.474v8.924h-1.348v-12.125h0.771l0.495,1.926c0.623-0.467,1.352-0.904,2.186-1.312s1.563-0.613,2.187-0.613
		l0.468,0.951c-0.789,0-1.637,0.232-2.544,0.699S251.82,482.907,251.251,483.474z"/>
	<path d="M258.868,477.397c-0.312,0-0.563-0.091-0.756-0.274c-0.192-0.183-0.289-0.408-0.289-0.675s0.097-0.492,0.289-0.676
		c0.192-0.183,0.444-0.274,0.756-0.274c0.293,0,0.545,0.092,0.756,0.274c0.211,0.184,0.316,0.409,0.316,0.676
		s-0.101,0.492-0.302,0.675C259.437,477.307,259.18,477.397,258.868,477.397z M259.556,480.272v12.125h-1.348v-12.125H259.556z"/>
	<path d="M274.035,489.636c-0.486,0.959-1.196,1.713-2.131,2.262c-0.936,0.551-2.035,0.826-3.301,0.826
		c-1.925-0.018-3.409-0.613-4.454-1.788c-1.046-1.175-1.568-2.729-1.568-4.663c0-1.199,0.243-2.278,0.729-3.236
		c0.485-0.959,1.196-1.713,2.131-2.264c0.935-0.549,2.044-0.824,3.327-0.824c1.926,0.017,3.405,0.612,4.441,1.787
		c1.036,1.176,1.554,2.729,1.554,4.662C274.763,487.599,274.52,488.677,274.035,489.636z M271.119,490.985
		c0.724-0.475,1.279-1.116,1.664-1.925c0.385-0.808,0.577-1.688,0.577-2.638c0-1.016-0.179-1.938-0.536-2.762
		c-0.357-0.826-0.885-1.479-1.581-1.963c-0.697-0.483-1.531-0.725-2.503-0.725c-0.953,0-1.792,0.236-2.516,0.712
		c-0.725,0.476-1.279,1.116-1.664,1.925s-0.577,1.688-0.577,2.638c0,1.017,0.179,1.938,0.536,2.763
		c0.357,0.824,0.884,1.479,1.581,1.963c0.696,0.482,1.53,0.725,2.502,0.725C269.556,491.698,270.395,491.46,271.119,490.985z"/>
	<path d="M286.341,489.248v-8.976h1.348v12.125h-1.045l-0.275-1.899c-0.587,0.616-1.32,1.142-2.2,1.575s-1.724,0.65-2.529,0.65
		c-1.357,0-2.356-0.363-2.998-1.088s-0.962-1.704-0.962-2.938v-8.426h1.347v8.426c0,0.934,0.184,1.666,0.551,2.199
		c0.366,0.534,1.018,0.801,1.952,0.801C282.977,491.698,284.581,490.882,286.341,489.248z"/>
	<path d="M290.769,491.772l0.495-1.024c0.659,0.3,1.269,0.534,1.828,0.7s1.15,0.25,1.774,0.25c1.1,0,1.961-0.204,2.585-0.613
		c0.623-0.408,0.935-0.962,0.935-1.662c0-1-1.174-1.916-3.52-2.75c-2.585-0.916-3.878-2.041-3.878-3.375
		c0-0.982,0.403-1.787,1.21-2.412s1.934-0.938,3.383-0.938c0.586,0,1.251,0.096,1.993,0.287c0.743,0.191,1.334,0.43,1.774,0.713
		l-0.551,0.875c-0.642-0.283-1.191-0.496-1.649-0.638c-0.459-0.142-1.045-0.212-1.76-0.212c-0.917,0-1.664,0.221-2.241,0.662
		c-0.578,0.441-0.866,0.963-0.866,1.562c0,0.517,0.293,0.975,0.88,1.375c0.586,0.4,1.411,0.791,2.475,1.175
		c1.246,0.45,2.231,0.962,2.956,1.538c0.725,0.574,1.087,1.254,1.087,2.037c0,2.267-1.623,3.4-4.868,3.4
		c-0.623,0-1.334-0.088-2.131-0.264C291.882,492.286,291.245,492.057,290.769,491.772z"/>
</g>
<path d="M57.083,534.382c5.886,5.081,16.915,5.19,26.093,0.912c10.767-5.019,17.62-14.829,22.803-25.123
	c2.73-5.421,4.999-11.029,7.088-16.723c0.77-2.1,2.005-4.438,2.323-6.662c0.33-2.309-3.236-1.537-4.775-1.578
	c-1.326-0.036-3.761,0.132-4.339-1.469c-0.444-1.23,0.675-2.529,1.521-3.272c3.595-3.159,8.845-2.315,13.243-2.301
	c1.452,0.004,2.905,0.007,4.357,0.009c1.286,0.001,3.308-0.383,4.485,0.226c1.445,0.749,1.06,3.719,1.144,5.104
	c0.347,5.738,0.664,11.477,1.042,17.213c0.354,5.373,0.51,10.79,1.028,16.15c0.244,2.529,1.428,1.401,2.332,0.107
	c6.268-8.974,12.535-17.948,18.803-26.921c2.358-3.376,4.644-6.817,7.08-10.137c1.119-1.525,2.497-1.732,4.335-1.739
	c2.876-0.012,5.753,0,8.63,0c0.759,0,1.518,0,2.278,0c-3.756,12.309-7.155,24.729-10.642,37.116
	c-0.845,3.001-1.672,6.007-2.456,9.024c-0.356,1.368-2.004,4.975-0.247,5.871c0.998,0.508,6.218-0.132,4.551,2.623
	c-1.096,1.812-4.526,2.488-6.41,2.897c-2.523,0.548-5.732,1.231-8.293,0.853c-2.878-0.425-3.102-3.144-2.633-5.484
	c1.278-6.381,3.313-12.687,5.043-18.958c1.799-6.521,3.637-13.032,5.517-19.531c0.296-1.025,2.657-7.995,1.893-8.14
	c-0.974-0.186-2.924,3.659-3.431,4.379c-7.332,10.409-14.573,20.879-21.866,31.315c-2.986,4.273-5.927,8.593-8.982,12.816
	c-0.898,1.242-3.169,3.625-4.485,1.519c-0.893-1.429-0.648-4.204-0.785-5.755c-1.075-12.222-2.119-24.444-3.16-36.669
	c-0.1-1.171-0.207-2.341-0.3-3.512c-0.03-0.373,0.052-1.952-0.281-2.16c-0.972-0.606-2.49,5.46-2.713,6.156
	c-1.834,5.748-3.905,11.432-6.287,16.976c-4.84,11.267-11.137,22.911-21.398,30.136c-9.457,6.659-24.063,9.586-33.311,1.018
	c-1.985-1.839-3.566-4.09-4.646-6.564c-1.235-2.827-2.262-5.421-1.023-12.298C51.693,527.629,54.37,532.04,57.083,534.382z"/>
<g>
	<path d="M178.69,538.157c-0.228-6.706-0.711-12.332-1.449-16.88c-0.739-4.547-1.479-8.255-2.217-11.126
		c-0.739-2.869-1.379-5.043-1.918-6.521c-0.541-1.478-0.739-2.528-0.597-3.154c0.141-0.625,0.752-0.951,1.833-0.98
		c1.079-0.028,2.869-0.043,5.371-0.043c0.853,0,1.604,0.157,2.259,0.469c0.652,0.313,1.207,0.853,1.662,1.62
		c0.455,0.767,0.838,1.805,1.151,3.111c0.312,1.309,0.524,2.956,0.64,4.945c0.17,2.444,0.298,4.859,0.384,7.246
		c0.085,2.388,0.141,4.618,0.17,6.692c0.028,2.075,0.028,3.908,0,5.499c-0.029,1.592-0.072,2.785-0.128,3.581l1.023,0.085
		c0.227-0.454,0.667-1.35,1.321-2.686c0.652-1.335,1.35-2.827,2.089-4.476c0.737-1.648,1.42-3.296,2.046-4.945
		c0.625-1.647,1.051-2.983,1.278-4.007c0.113-0.625,0.256-1.42,0.427-2.387c0.171-0.966,0.256-2.074,0.256-3.325
		c0-1.136-0.256-2.357-0.768-3.666c-0.512-1.307-0.768-2.528-0.768-3.666c0-0.966,0.369-1.889,1.108-2.771
		c0.738-0.881,1.904-1.321,3.496-1.321c1.988,0,3.338,0.597,4.049,1.79c0.71,1.193,1.066,2.785,1.066,4.774
		c0,0.797-0.171,1.833-0.512,3.111c-0.341,1.279-0.81,2.7-1.407,4.263c-0.597,1.564-1.265,3.185-2.003,4.86
		c-0.739,1.677-1.507,3.254-2.302,4.731c-1.138,2.16-2.545,4.618-4.221,7.374c-1.677,2.758-3.467,5.542-5.37,8.355
		c-1.905,2.812-3.866,5.526-5.883,8.142c-2.019,2.613-3.937,4.83-5.755,6.649c-0.568,0.567-1.293,1.292-2.174,2.174
		c-0.882,0.881-1.876,1.719-2.984,2.516c-1.107,0.795-2.316,1.491-3.623,2.088c-1.307,0.598-2.671,0.896-4.092,0.896
		c-1.989,0-3.453-0.44-4.391-1.321c-0.938-0.882-1.407-1.947-1.407-3.197c0-1.534,0.456-2.785,1.364-3.751
		c0.91-0.967,1.876-1.449,2.898-1.449c0.739,0,1.322,0.141,1.748,0.426c0.427,0.284,0.839,0.653,1.236,1.108
		c0.398,0.397,0.839,0.725,1.321,0.98s0.951,0.384,1.406,0.384s0.938-0.072,1.45-0.213c0.511-0.143,1.164-0.469,1.96-0.98
		c0.909-0.569,1.804-1.251,2.686-2.046c0.881-0.797,1.663-1.592,2.345-2.388c0.683-0.796,1.279-1.549,1.79-2.259
		c0.512-0.712,0.881-1.236,1.108-1.577c0.625-0.853,0.994-1.82,1.108-2.898C178.889,540.913,178.861,539.635,178.69,538.157z"/>
	<path d="M237.514,499.025c0.625,0,0.853,0.342,0.683,1.023c-0.341,0.91-0.81,2.217-1.407,3.922
		c-0.597,1.705-1.208,3.467-1.833,5.285c-0.626,1.82-1.208,3.525-1.747,5.115c-0.541,1.592-0.896,2.729-1.065,3.41
		c-0.115,0.342-0.342,1.123-0.683,2.345c-0.341,1.223-0.711,2.516-1.108,3.879c-0.398,1.364-0.754,2.63-1.065,3.794
		c-0.313,1.166-0.469,1.918-0.469,2.26c0,0.682,0.341,1.022,1.022,1.022c0.342,0,0.726,0.213,1.151,0.64
		c0.427,0.426,0.539,0.938,0.341,1.534c-0.199,0.597-0.909,1.224-2.131,1.876c-1.223,0.654-3.312,1.179-6.267,1.577
		c-1.308,0.171-2.217-0.072-2.728-0.725c-0.512-0.652-0.768-1.321-0.768-2.004c0-0.283,0.043-0.624,0.128-1.022
		c0.085-0.397,0.241-0.994,0.469-1.79c0.227-0.796,0.554-1.847,0.98-3.155c0.426-1.307,1.009-3.012,1.748-5.115l-0.768-0.426
		c-0.853,1.308-1.833,2.771-2.941,4.391s-2.374,3.169-3.794,4.646c-1.421,1.479-2.983,2.715-4.688,3.708
		c-1.705,0.994-3.553,1.492-5.542,1.492c-0.568,0-1.193-0.186-1.875-0.554c-0.683-0.369-1.322-0.866-1.919-1.492
		c-0.597-0.625-1.095-1.335-1.491-2.132c-0.398-0.795-0.598-1.619-0.598-2.472c0-1.762,0.284-3.752,0.853-5.968
		c0.568-2.217,1.35-4.462,2.345-6.735c0.994-2.272,2.202-4.489,3.623-6.649c1.421-2.16,2.97-4.063,4.646-5.713
		c1.676-1.647,3.467-2.983,5.371-4.007c1.903-1.022,3.879-1.534,5.926-1.534c1.931,0,3.381,0.328,4.348,0.98
		c0.966,0.654,1.733,1.321,2.302,2.003l1.364-2.472c0.396-0.625,0.908-0.938,1.534-0.938H237.514z M209.296,527.245
		c0,0.967,0.171,1.634,0.512,2.003c0.341,0.37,0.853,0.555,1.534,0.555c0.567,0,1.435-0.597,2.601-1.791
		c1.164-1.193,2.357-2.6,3.581-4.22c1.221-1.62,2.372-3.253,3.452-4.902c1.079-1.647,1.818-2.898,2.217-3.751
		c0.512-1.136,0.966-2.415,1.364-3.836c0.396-1.42,0.597-2.87,0.597-4.349c0-0.966-0.413-1.846-1.236-2.643
		c-0.824-0.795-1.662-1.193-2.515-1.193c-2.104,0-4.235,1.933-6.395,5.797c-2.16,3.809-3.652,7.289-4.476,10.443
		C209.708,522.514,209.296,525.143,209.296,527.245z"/>
	<path d="M235.808,535.856c-0.739,0-0.995-0.312-0.767-0.938l5.882-16.369c0.512-1.364,0.994-2.698,1.449-4.007
		c0.455-1.307,0.853-2.515,1.194-3.623c0.341-1.108,0.624-2.046,0.853-2.813c0.226-0.768,0.341-1.292,0.341-1.577
		c0-0.908-0.37-1.364-1.108-1.364c-0.171,0-0.328-0.299-0.469-0.896c-0.143-0.597-0.029-1.249,0.341-1.961
		c0.369-0.71,1.164-1.363,2.387-1.96c1.222-0.598,3.14-0.896,5.755-0.896c1.307,0,2.202,0.384,2.686,1.15
		c0.482,0.768,0.725,1.492,0.725,2.175c0,0.626-0.398,1.961-1.193,4.007c-0.797,2.046-1.763,4.405-2.898,7.076l0.767,0.597
		c0.625-0.909,1.521-2.217,2.686-3.922c1.165-1.705,2.543-3.367,4.135-4.987c1.591-1.62,3.339-3.04,5.243-4.263
		c1.904-1.222,3.907-1.833,6.011-1.833c0.908,0,1.705,0.186,2.387,0.554c0.683,0.371,1.25,0.84,1.705,1.407
		c0.454,0.568,0.796,1.193,1.023,1.875c0.227,0.683,0.341,1.309,0.341,1.876c0,0.456-0.085,1.053-0.256,1.79
		c-0.17,0.739-0.44,1.72-0.81,2.941c-0.37,1.223-0.882,2.743-1.535,4.562c-0.653,1.819-1.436,4.036-2.344,6.649
		c-1.023,2.898-1.734,4.945-2.132,6.139c-0.398,1.193-0.597,2.046-0.597,2.558c0,0.967,0.369,1.449,1.108,1.449
		c0.171,0,0.439,0.185,0.81,0.554c0.369,0.37,0.427,0.825,0.171,1.364c-0.256,0.541-1.023,1.123-2.302,1.748
		c-1.279,0.626-3.482,1.222-6.607,1.79c-1.308,0.227-2.203-0.043-2.686-0.81c-0.483-0.768-0.725-1.577-0.725-2.43
		c0-0.796,0.412-2.415,1.236-4.859c0.823-2.443,1.889-5.542,3.197-9.293c0.341-0.966,0.71-2.017,1.108-3.154
		c0.396-1.137,0.767-2.245,1.108-3.325c0.341-1.079,0.624-2.031,0.853-2.856c0.226-0.823,0.341-1.435,0.341-1.832
		c0-1.25-0.569-1.876-1.705-1.876c-0.512,0-1.236,0.384-2.174,1.15c-0.938,0.768-1.976,1.748-3.112,2.941
		c-1.138,1.194-2.273,2.53-3.41,4.007c-1.138,1.479-2.131,2.899-2.983,4.263c-0.968,1.479-1.833,2.856-2.601,4.135
		c-0.768,1.279-1.293,2.289-1.577,3.027l-3.325,9.548c-0.114,0.171-0.242,0.299-0.384,0.384c-0.143,0.085-0.44,0.128-0.895,0.128
		H235.808z"/>
	<path d="M275.195,535.856c-0.797,0-1.053-0.369-0.768-1.108l5.542-16.113c0.454-1.307,0.908-2.628,1.364-3.964
		c0.454-1.335,0.88-2.558,1.278-3.666c0.397-1.108,0.71-2.06,0.938-2.855c0.227-0.796,0.342-1.364,0.342-1.705
		c0-0.284-0.058-0.555-0.171-0.811c-0.114-0.256-0.398-0.384-0.853-0.384c-0.512,0-0.98-0.298-1.406-0.895
		c-0.427-0.597-0.526-1.265-0.299-2.004c0.227-0.738,0.951-1.406,2.174-2.003c1.222-0.598,3.197-0.896,5.925-0.896
		c1.818,0,3.069,0.298,3.752,0.896c0.682,0.597,1.022,1.406,1.022,2.43c0,0.626-0.242,1.619-0.725,2.983
		c-0.483,1.364-1.037,2.785-1.662,4.263c-0.626,1.479-1.223,2.856-1.79,4.135c-0.569,1.279-0.938,2.146-1.108,2.601l0.853,0.597
		c0.853-1.478,1.903-3.239,3.154-5.286c1.249-2.046,2.643-4.007,4.177-5.882c1.535-1.876,3.211-3.467,5.03-4.774
		c1.818-1.307,3.751-1.961,5.798-1.961c1.42,0,2.67,0.44,3.751,1.321c1.079,0.882,1.619,1.833,1.619,2.856
		c0,0.626-0.185,1.563-0.554,2.813c-0.37,1.25-0.782,2.558-1.236,3.921c-0.455,1.364-0.938,2.658-1.449,3.879
		c-0.512,1.224-0.882,2.175-1.108,2.856l0.768,0.597c1.136-1.705,2.372-3.623,3.708-5.755c1.335-2.131,2.784-4.12,4.349-5.968
		c1.562-1.846,3.239-3.396,5.029-4.646c1.791-1.25,3.737-1.876,5.84-1.876c0.909,0,1.69,0.171,2.345,0.512
		c0.653,0.341,1.193,0.767,1.62,1.278c0.426,0.512,0.738,1.038,0.938,1.577c0.198,0.541,0.299,1.01,0.299,1.407
		c0,0.682-0.128,1.592-0.384,2.728c-0.256,1.138-0.597,2.388-1.023,3.752c-0.426,1.363-0.909,2.813-1.449,4.348
		c-0.541,1.534-1.065,3.069-1.577,4.604c-0.853,2.444-1.606,4.533-2.259,6.267c-0.654,1.734-0.98,2.913-0.98,3.538
		c0.113,0.796,0.454,1.193,1.022,1.193c0.512,0,0.838,0.298,0.98,0.895c0.142,0.597-0.042,1.251-0.554,1.961
		c-0.512,0.712-1.394,1.394-2.643,2.046c-1.251,0.653-3.014,1.037-5.286,1.151c-1.422,0.113-2.416-0.2-2.984-0.938
		c-0.568-0.738-0.882-1.449-0.938-2.132c-0.058-1.534,1.478-6.422,4.604-14.663c0.683-1.762,1.236-3.24,1.663-4.434
		c0.426-1.193,0.767-2.217,1.022-3.069c0.256-0.853,0.439-1.534,0.555-2.046c0.113-0.512,0.17-0.966,0.17-1.364
		c0-1.079-0.511-1.619-1.534-1.619c-0.341,0-0.938,0.412-1.79,1.235c-0.853,0.825-1.862,1.948-3.027,3.368
		c-1.165,1.421-2.43,3.056-3.793,4.901c-1.364,1.848-2.729,3.794-4.093,5.841c-0.285,0.455-0.711,1.208-1.278,2.259
		c-0.569,1.053-1.108,2.316-1.62,3.794l-2.643,7.502c-0.115,0.341-0.512,0.512-1.193,0.512H295.4c-0.797,0-1.08-0.369-0.853-1.108
		l5.115-14.152c1.079-2.954,2.004-5.597,2.771-7.929c0.768-2.329,1.151-3.836,1.151-4.518c0-0.455-0.085-0.853-0.256-1.194
		c-0.171-0.341-0.568-0.511-1.193-0.511c-0.341,0-0.953,0.397-1.833,1.193c-0.882,0.796-1.876,1.848-2.984,3.154
		c-1.108,1.308-2.316,2.814-3.623,4.519c-1.308,1.705-2.558,3.495-3.751,5.371c-0.569,0.796-1.151,1.79-1.748,2.983
		s-1.208,2.558-1.833,4.093l-2.813,7.502c-0.114,0.398-0.511,0.597-1.193,0.597H275.195z"/>
	<path d="M374.259,499.025c0.625,0,0.853,0.342,0.683,1.023c-0.341,0.91-0.81,2.217-1.407,3.922
		c-0.597,1.705-1.208,3.467-1.833,5.285c-0.626,1.82-1.208,3.525-1.747,5.115c-0.541,1.592-0.896,2.729-1.065,3.41
		c-0.115,0.342-0.342,1.123-0.683,2.345c-0.341,1.223-0.711,2.516-1.108,3.879c-0.398,1.364-0.754,2.63-1.065,3.794
		c-0.313,1.166-0.469,1.918-0.469,2.26c0,0.682,0.341,1.022,1.022,1.022c0.342,0,0.726,0.213,1.151,0.64
		c0.427,0.426,0.539,0.938,0.341,1.534c-0.199,0.597-0.909,1.224-2.131,1.876c-1.223,0.654-3.312,1.179-6.267,1.577
		c-1.308,0.171-2.217-0.072-2.728-0.725c-0.512-0.652-0.768-1.321-0.768-2.004c0-0.283,0.043-0.624,0.128-1.022
		c0.085-0.397,0.241-0.994,0.469-1.79c0.227-0.796,0.554-1.847,0.98-3.155c0.426-1.307,1.009-3.012,1.748-5.115l-0.768-0.426
		c-0.853,1.308-1.833,2.771-2.941,4.391s-2.374,3.169-3.794,4.646c-1.421,1.479-2.983,2.715-4.688,3.708
		c-1.705,0.994-3.553,1.492-5.542,1.492c-0.568,0-1.193-0.186-1.875-0.554c-0.683-0.369-1.322-0.866-1.919-1.492
		c-0.597-0.625-1.095-1.335-1.491-2.132c-0.398-0.795-0.598-1.619-0.598-2.472c0-1.762,0.284-3.752,0.853-5.968
		c0.568-2.217,1.35-4.462,2.345-6.735c0.994-2.272,2.202-4.489,3.623-6.649c1.421-2.16,2.97-4.063,4.646-5.713
		c1.676-1.647,3.467-2.983,5.371-4.007c1.903-1.022,3.879-1.534,5.926-1.534c1.931,0,3.381,0.328,4.348,0.98
		c0.966,0.654,1.733,1.321,2.302,2.003l1.364-2.472c0.396-0.625,0.908-0.938,1.534-0.938H374.259z M346.04,527.245
		c0,0.967,0.171,1.634,0.512,2.003c0.341,0.37,0.853,0.555,1.534,0.555c0.567,0,1.435-0.597,2.601-1.791
		c1.164-1.193,2.357-2.6,3.581-4.22c1.221-1.62,2.372-3.253,3.452-4.902c1.079-1.647,1.818-2.898,2.217-3.751
		c0.512-1.136,0.966-2.415,1.364-3.836c0.396-1.42,0.597-2.87,0.597-4.349c0-0.966-0.413-1.846-1.236-2.643
		c-0.824-0.795-1.662-1.193-2.515-1.193c-2.104,0-4.235,1.933-6.395,5.797c-2.16,3.809-3.652,7.289-4.476,10.443
		C346.452,522.514,346.04,525.143,346.04,527.245z"/>
	<path d="M375.11,535.856c-0.739,0-0.995-0.256-0.767-0.768l4.092-13.811c0.341-1.193,0.753-2.558,1.236-4.093
		c0.482-1.534,0.938-3.026,1.364-4.476c0.426-1.449,0.78-2.756,1.065-3.922c0.283-1.164,0.426-1.946,0.426-2.344
		c0-0.455-0.128-0.838-0.383-1.151c-0.256-0.312-0.612-0.469-1.066-0.469c-0.114,0-0.398-0.085-0.853-0.256
		c-0.455-0.171-0.639-0.454-0.554-0.853c0.085-0.397,0.64-0.951,1.662-1.662c1.023-0.71,2.984-1.577,5.883-2.601
		c0.795-0.284,1.478-0.341,2.046-0.171c0.567,0.171,1.023,0.456,1.364,0.853c0.341,0.398,0.597,0.853,0.768,1.364
		c0.17,0.512,0.255,0.967,0.255,1.364c0,0.797-0.355,2.174-1.065,4.135c-0.711,1.961-1.577,4.335-2.6,7.119l0.938,0.511
		c0.512-1.193,1.222-2.643,2.131-4.348s1.932-3.367,3.069-4.987c1.137-1.62,2.415-2.997,3.837-4.135
		c1.42-1.137,2.898-1.705,4.433-1.705c1.25,0,2.373,0.426,3.368,1.278c0.993,0.853,1.491,1.961,1.491,3.325
		c0,0.739-0.128,1.449-0.383,2.132c-0.256,0.682-0.584,1.278-0.98,1.79c-0.398,0.512-0.811,0.91-1.236,1.193
		c-0.427,0.285-0.84,0.427-1.236,0.427c-1.193,0-2.132-0.227-2.813-0.683c-0.341-0.227-0.682-0.454-1.023-0.682
		c-0.341-0.227-0.796-0.341-1.363-0.341c-0.683,0-1.45,0.37-2.303,1.108c-0.853,0.739-1.705,1.662-2.558,2.771
		c-0.853,1.108-1.662,2.316-2.43,3.623c-0.767,1.309-1.378,2.502-1.833,3.581c-0.455,1.022-0.909,2.16-1.363,3.41
		c-0.456,1.25-0.938,2.672-1.449,4.263l-2.729,8.61c-0.171,0.398-0.541,0.597-1.108,0.597H375.11z"/>
</g>
<path d="M82.367,436.691c-8.548,3.303-9.478,10.281-10.761,13.101c-2.068,2.712-4.586,3.956-7.258,6.515s-5.117,6.812-5.117,6.812
	s4.346-2.194,11.089-4.158c1.686-0.491,12.918,2.108,22.693-3.696c3.801,7.166,0.678,15.169-3.479,22.537
	c12.186-7.723,7.828-24.06,8.348-25.583c3.076,2.969,3.447,18.142-3.808,24.016c-15.736,12.741-33.811,14.133-47.265,24.634
	c-15.905,12.414-14.822,42.732,7.945,44.472c-8.022-4.56-15.1-27.019-0.6-40.337c7.706-7.078,15.719-10.485,25.715-14.265
	c-0.867,2.912-2.169,6.01,2.148,10.409c-1.895-4.923,2.571-11.65,6.314-12.892c-5.87,6.309,1.72,17.852,14.834,11.24
	c-13.218,0.661-14.189-4.957-9.327-10.127c6.347-6.75,11.402-15.659,11.629-27.462c0.293-15.201-12.204-24.373-19.003-25.773
	c0.303-12.206-9.91-22.546-9.91-22.546s1.551,2.31,2.312,7.715c-2.134-5.635-9.393-9.919-12.501-10.54
	C72.72,417.433,83.46,427.997,82.367,436.691z"/>
<path d="M552.386,155.385c-15.925-13.448-1.531-41.342,19.14-31.389c-7.534-9.857-10.976-22.437-3.611-31.324
	c4.596-5.546,17.924-10.783,26.728-1.979c-4.009-12.946-4.752-22.478,3.062-30.241c4.766-4.734,12.866-10.718,26.646-0.766
	c-1.181-15.263,5.974-24.251,16.587-28.513c12.88-5.173,24.506,0.945,31.263,13.201c1.428-13.469,15.312-21.96,28.709-21.939
	c8.053,0.013,20.479,7.113,22.202,21.173c6.798-12.24,21.108-17.45,33.618-11.602c14.996,7.009,14.559,21.128,10.403,34.187
	c11.344-9.538,35.48-10.739,43.416,4.402c4.433,8.459,0.606,22.04-8.581,33.111c14.523-5.69,36.454-5.201,41.288,10.01
	c11.538,36.307-64.307,64.41-131.627,64.396c-88.709-0.018-48.104-79.638-62.156-85.603c-12.605-5.351,2.823,47.945-38.136,65.553
	C593.968,165.532,569.612,169.932,552.386,155.385z"/>
<path class="st14" d="M643.459,77.112c-7.46-0.418-10.496,4.454-12.396,6.118c-2.447,1.32-4.736,1.399-7.581,2.402
	c-2.845,1.004-6.09,3.341-6.09,3.341s3.966-0.17,9.635,0.637c1.507,0.215,9.861,6.652,19.873,4.599
	c-1.268,3.105,2.993,17.599,5.809,8.434c3.318-10.8-1.438-21.242-6.019-24.566c4.326-8.966,0.212-20.079,0.212-20.079
	s0.376,2.237-0.874,6.508c0.308-4.903-3.646-10.525-5.747-12.03C642.763,59.563,647.192,71.02,643.459,77.112z"/>
<g>
	<path class="st14" d="M712.893,110.527c-0.442,1.45-0.928,3.097-1.456,4.939s-1.062,3.723-1.604,5.64
		c-0.54,1.917-1.068,3.791-1.585,5.621c-0.516,1.831-0.958,3.483-1.327,4.958c-0.245,0.91-0.11,1.364,0.406,1.364
		c0.835,0,1.4,0.123,1.695,0.368c0.295,0.246,0.289,0.529-0.019,0.849s-0.928,0.626-1.861,0.921c-0.935,0.295-2.225,0.491-3.87,0.59
		c-0.59,0.049-1.026-0.067-1.309-0.35c-0.283-0.282-0.437-0.535-0.461-0.756c-0.05-0.344-0.019-0.768,0.092-1.271
		s0.252-1.075,0.424-1.715c0.812-3.047,1.634-6.063,2.47-9.049c0.835-2.986,1.684-5.941,2.544-8.866
		c0.098-0.318,0.104-0.497,0.019-0.534c-0.087-0.037-0.191,0.007-0.313,0.129c-0.025,0.025-0.246,0.338-0.664,0.94
		s-0.965,1.376-1.64,2.322c-0.677,0.946-1.438,2.027-2.286,3.244c-0.848,1.216-1.714,2.464-2.599,3.741
		c-0.885,1.278-1.757,2.537-2.617,3.778c-0.86,1.241-1.641,2.354-2.341,3.336c-0.7,0.983-1.277,1.807-1.732,2.47
		s-0.719,1.045-0.792,1.143c-0.419,0.59-0.849,0.885-1.291,0.885c-0.393,0-0.626-0.282-0.7-0.848
		c-0.024-0.098-0.08-0.646-0.166-1.641s-0.196-2.218-0.331-3.668c-0.136-1.449-0.276-3.01-0.424-4.681s-0.276-3.231-0.388-4.682
		c-0.11-1.45-0.209-2.666-0.295-3.649c-0.086-0.982-0.129-1.523-0.129-1.622c0-0.271-0.062-0.405-0.185-0.405
		s-0.233,0.135-0.331,0.405c-0.173,0.516-0.394,1.204-0.664,2.064s-0.596,1.831-0.977,2.912s-0.817,2.229-1.309,3.446
		c-0.492,1.217-1.032,2.439-1.622,3.668s-1.234,2.427-1.936,3.594c-0.7,1.168-1.443,2.23-2.229,3.188
		c-0.762,0.935-1.585,1.801-2.47,2.599c-0.885,0.799-1.844,1.487-2.875,2.064c-1.032,0.577-2.145,1.032-3.336,1.364
		c-1.192,0.331-2.488,0.497-3.89,0.497c-1.008,0-2.021-0.19-3.041-0.571s-1.941-0.952-2.765-1.714s-1.493-1.708-2.009-2.838
		c-0.516-1.131-0.774-2.457-0.774-3.981c0-1.204,0.191-2.279,0.571-3.226c0.381-0.945,0.879-1.751,1.493-2.414
		c0.614-0.664,1.314-1.167,2.102-1.512c0.786-0.344,1.585-0.516,2.396-0.516c0.86,0,1.561,0.245,2.102,0.737
		c0.54,0.491,0.811,1.143,0.811,1.953c0,0.492-0.172,0.928-0.516,1.309c-0.345,0.382-0.873,0.571-1.585,0.571
		c-0.566,0-0.978-0.153-1.235-0.461c-0.258-0.307-0.485-0.583-0.682-0.829c-0.271-0.344-0.59-0.516-0.959-0.516
		c-0.344,0-0.694,0.098-1.05,0.295c-0.356,0.196-0.677,0.497-0.959,0.902c-0.282,0.406-0.516,0.903-0.7,1.493
		c-0.185,0.59-0.276,1.266-0.276,2.027c0,0.713,0.166,1.426,0.497,2.138c0.332,0.714,0.812,1.353,1.438,1.917
		c0.626,0.565,1.388,1.02,2.285,1.364c0.896,0.344,1.923,0.516,3.078,0.516c2.162,0,4.177-0.46,6.045-1.382
		c1.867-0.922,3.649-2.304,5.345-4.147c0.959-1.032,1.868-2.291,2.729-3.778c0.859-1.486,1.64-2.991,2.341-4.516
		c0.7-1.523,1.309-2.985,1.824-4.386c0.516-1.401,0.934-2.544,1.253-3.429c0.197-0.564,0.252-0.915,0.166-1.051
		c-0.086-0.135-0.338-0.202-0.756-0.202c-0.565,0-1.191-0.013-1.88-0.037c-0.688-0.024-1.4-0.024-2.138,0s-1.487,0.074-2.248,0.147
		c-0.763,0.073-1.512,0.197-2.249,0.368c-1.008,0.271-1.837,0.597-2.488,0.978s-0.977,0.817-0.977,1.309
		c0,0.221,0.067,0.479,0.202,0.773s0.535,0.492,1.198,0.59c0.737,0.124,1.271,0.356,1.604,0.701
		c0.332,0.344,0.498,0.688,0.498,1.031c0,0.812-0.24,1.389-0.719,1.733c-0.479,0.344-0.94,0.516-1.383,0.516
		c-0.516,0-0.958-0.147-1.327-0.442c-0.368-0.295-0.676-0.663-0.921-1.105c-0.246-0.442-0.424-0.922-0.535-1.438
		c-0.11-0.517-0.166-1.008-0.166-1.475c0-0.959,0.233-1.85,0.701-2.673c0.466-0.823,1.13-1.529,1.99-2.119
		c0.786-0.541,1.708-0.946,2.765-1.217s2.279-0.461,3.668-0.571c1.388-0.11,2.973-0.159,4.755-0.147
		c1.781,0.013,3.803,0.019,6.063,0.019c0.418,0,0.694,0.08,0.83,0.239c0.135,0.16,0.202,0.375,0.202,0.646
		c0,0.147,0.024,0.621,0.074,1.419c0.049,0.799,0.104,1.757,0.166,2.875c0.061,1.119,0.135,2.322,0.221,3.612
		s0.166,2.514,0.239,3.668c0.074,1.155,0.135,2.15,0.185,2.986c0.049,0.835,0.086,1.363,0.11,1.585
		c0.024,0.271,0.111,0.418,0.259,0.442c0.147,0.024,0.295-0.074,0.442-0.295l11.611-16.625c0.147-0.196,0.313-0.338,0.497-0.424
		c0.185-0.086,0.498-0.129,0.94-0.129H712.893z"/>
	<path class="st14" d="M726.796,121.659c0,1.878-0.183,3.692-0.547,5.442c-0.364,1.751-0.867,3.394-1.509,4.928
		c-0.642,1.535-1.404,2.937-2.287,4.204s-1.843,2.354-2.879,3.257c-1.037,0.903-2.133,1.606-3.288,2.109
		c-1.154,0.503-2.322,0.755-3.503,0.755c-0.903,0-1.602-0.152-2.094-0.455c-0.493-0.303-0.739-0.711-0.739-1.224
		c0-0.195,0.03-0.385,0.093-0.57c0.062-0.185,0.144-0.349,0.246-0.492s0.226-0.26,0.369-0.347c0.145-0.087,0.298-0.131,0.462-0.131
		c0.195,0,0.357,0.098,0.485,0.293c0.129,0.194,0.265,0.407,0.408,0.639s0.318,0.444,0.523,0.639
		c0.205,0.195,0.487,0.293,0.847,0.293c0.462,0,0.944-0.08,1.447-0.238c0.503-0.16,1.009-0.388,1.517-0.686
		c0.509-0.298,1.017-0.66,1.524-1.086c0.509-0.426,1.009-0.9,1.502-1.424c-0.288-1.037-0.619-2.169-0.993-3.396
		c-0.375-1.227-0.771-2.461-1.186-3.703c-0.416-1.242-0.842-2.44-1.278-3.596c-0.437-1.155-0.862-2.179-1.278-3.072
		c-0.415-0.893-0.815-1.608-1.201-2.147c-0.385-0.539-0.726-0.809-1.023-0.809c-0.195,0-0.347,0.03-0.454,0.092
		c-0.108,0.062-0.233,0.149-0.378,0.262l-0.308-0.385c0.205-0.174,0.421-0.354,0.646-0.539c0.227-0.185,0.493-0.354,0.801-0.508
		s0.667-0.279,1.078-0.377c0.41-0.098,0.903-0.146,1.479-0.146c0.626,0,1.208,0.142,1.747,0.424s1.029,0.803,1.471,1.562
		c0.318,0.564,0.649,1.242,0.993,2.032c0.344,0.791,0.69,1.674,1.039,2.648c0.35,0.976,0.701,2.03,1.056,3.165
		c0.354,1.134,0.71,2.322,1.069,3.564c0.637-1.334,1.15-2.749,1.54-4.242c0.391-1.494,0.585-3.031,0.585-4.612
		c0-0.563-0.036-1.047-0.107-1.447c-0.072-0.4-0.154-0.741-0.246-1.023c-0.093-0.282-0.175-0.523-0.247-0.724
		c-0.071-0.2-0.107-0.378-0.107-0.531c0-0.154,0.062-0.285,0.185-0.393c0.123-0.108,0.272-0.193,0.447-0.255
		c0.174-0.062,0.351-0.104,0.531-0.131c0.179-0.025,0.331-0.038,0.454-0.038c0.276,0,0.49,0.057,0.639,0.169
		c0.148,0.113,0.259,0.275,0.331,0.485c0.071,0.211,0.113,0.465,0.123,0.763C726.791,120.956,726.796,121.289,726.796,121.659z"/>
	<path class="st14" d="M733.833,120.504c-0.349,0-0.672,0.041-0.97,0.123s-0.555,0.185-0.77,0.308
		c-0.216,0.124-0.386,0.26-0.509,0.408c-0.123,0.149-0.185,0.29-0.185,0.424c0,0.154,0.079,0.265,0.239,0.331
		c0.158,0.066,0.336,0.144,0.53,0.23c0.195,0.088,0.372,0.211,0.531,0.37s0.239,0.403,0.239,0.731c0,0.216-0.044,0.413-0.131,0.593
		c-0.088,0.18-0.206,0.339-0.354,0.478s-0.323,0.246-0.523,0.323s-0.408,0.115-0.624,0.115c-0.574,0-1.039-0.194-1.393-0.585
		c-0.354-0.39-0.531-0.908-0.531-1.556c0-0.626,0.164-1.162,0.492-1.608c0.328-0.447,0.757-0.813,1.286-1.102
		c0.528-0.287,1.126-0.5,1.794-0.639c0.667-0.139,1.334-0.208,2.001-0.208c0.801,0,1.565,0.087,2.295,0.262
		c0.729,0.175,1.373,0.452,1.933,0.831c0.56,0.381,1.006,0.862,1.34,1.448c0.333,0.585,0.5,1.293,0.5,2.125v8.699
		c0,0.093,0.005,0.195,0.016,0.309c0.01,0.113,0.035,0.216,0.077,0.308c0.04,0.093,0.103,0.17,0.185,0.231s0.2,0.092,0.354,0.092
		c0.186,0,0.357-0.069,0.517-0.208c0.159-0.138,0.3-0.279,0.423-0.423l0.386,0.323c-0.154,0.216-0.339,0.452-0.555,0.708
		c-0.216,0.257-0.478,0.498-0.785,0.724c-0.309,0.227-0.668,0.416-1.078,0.57c-0.411,0.153-0.878,0.23-1.401,0.23
		c-0.646,0-1.222-0.192-1.725-0.577s-0.831-0.978-0.985-1.778c-0.329,0.441-0.67,0.811-1.024,1.108
		c-0.354,0.298-0.716,0.539-1.085,0.724c-0.37,0.185-0.742,0.318-1.116,0.4c-0.375,0.082-0.753,0.123-1.132,0.123
		c-0.493,0-0.971-0.077-1.433-0.23c-0.462-0.154-0.875-0.397-1.239-0.731s-0.657-0.768-0.878-1.302
		c-0.221-0.533-0.331-1.186-0.331-1.955c0-0.935,0.185-1.699,0.555-2.295c0.369-0.595,0.854-1.095,1.455-1.501
		c0.601-0.405,1.283-0.752,2.048-1.039s1.548-0.591,2.349-0.909c0.595-0.235,1.028-0.587,1.301-1.055
		c0.271-0.467,0.408-0.946,0.408-1.439c0-0.76-0.224-1.368-0.67-1.824C735.212,120.732,734.603,120.504,733.833,120.504z
		 M736.282,127.248c0-0.256-0.083-0.451-0.247-0.585c-0.164-0.133-0.375-0.2-0.631-0.2c-0.359,0-0.701,0.082-1.024,0.246
		c-0.323,0.165-0.608,0.406-0.854,0.724c-0.246,0.318-0.441,0.712-0.585,1.179s-0.216,1.009-0.216,1.624
		c0,0.596,0.044,1.089,0.131,1.479c0.087,0.391,0.205,0.7,0.354,0.932c0.148,0.23,0.32,0.393,0.516,0.485
		c0.195,0.092,0.4,0.138,0.616,0.138c0.267,0,0.518-0.068,0.754-0.207s0.441-0.316,0.616-0.531c0.175-0.216,0.313-0.457,0.416-0.724
		c0.103-0.268,0.154-0.534,0.154-0.801V127.248z"/>
	<path class="st14" d="M754.112,127.557c0-1.294-0.059-2.328-0.177-3.104c-0.118-0.774-0.274-1.365-0.47-1.771
		s-0.41-0.672-0.646-0.801c-0.236-0.128-0.478-0.192-0.724-0.192c-0.298,0-0.562,0.08-0.793,0.238
		c-0.231,0.16-0.432,0.342-0.601,0.547c-0.17,0.206-0.313,0.411-0.432,0.616s-0.218,0.359-0.3,0.462v10.286
		c0,0.134-0.021,0.295-0.062,0.485c-0.041,0.189-0.142,0.369-0.301,0.538c-0.159,0.17-0.395,0.313-0.708,0.432
		s-0.742,0.177-1.286,0.177s-0.973-0.063-1.285-0.192c-0.313-0.128-0.552-0.279-0.716-0.454c-0.165-0.175-0.268-0.354-0.309-0.539
		s-0.062-0.333-0.062-0.446v-11.888c0-0.298-0.069-0.557-0.208-0.777s-0.372-0.331-0.7-0.331c-0.175,0-0.323,0.03-0.446,0.092
		c-0.124,0.062-0.257,0.149-0.4,0.262l-0.323-0.385c0.235-0.194,0.5-0.387,0.793-0.577c0.292-0.189,0.607-0.356,0.946-0.5
		c0.339-0.145,0.703-0.263,1.094-0.354c0.39-0.093,0.801-0.139,1.231-0.139c0.667,0,1.186,0.11,1.556,0.331
		c0.369,0.221,0.642,0.485,0.815,0.793c0.175,0.308,0.28,0.629,0.316,0.963c0.035,0.333,0.054,0.613,0.054,0.839
		c0.38-0.544,0.811-1.032,1.293-1.463c0.195-0.185,0.413-0.364,0.655-0.539c0.24-0.175,0.497-0.331,0.77-0.47
		c0.271-0.139,0.56-0.249,0.862-0.331s0.613-0.123,0.932-0.123c0.698,0,1.316,0.134,1.855,0.4s0.993,0.714,1.362,1.34
		c0.37,0.626,0.652,1.455,0.848,2.486c0.194,1.032,0.292,2.312,0.292,3.842c0,1.489-0.134,2.782-0.4,3.881s-0.615,2.032-1.047,2.803
		c-0.431,0.77-0.919,1.398-1.463,1.886s-1.093,0.87-1.647,1.147s-1.086,0.47-1.594,0.577c-0.508,0.108-0.947,0.167-1.316,0.177
		l-0.17-0.631c0.309-0.072,0.593-0.185,0.854-0.339c0.263-0.154,0.501-0.38,0.717-0.678c0.215-0.298,0.405-0.675,0.569-1.132
		c0.164-0.456,0.306-1.028,0.424-1.717c0.117-0.688,0.205-1.501,0.262-2.44C754.084,129.904,754.112,128.809,754.112,127.557z"/>
	<path class="st14" d="M775.178,133.869c0,0.134-0.021,0.293-0.062,0.478s-0.142,0.359-0.301,0.523
		c-0.159,0.165-0.397,0.306-0.716,0.424s-0.749,0.177-1.294,0.177c-0.544,0-0.973-0.063-1.285-0.192
		c-0.313-0.128-0.55-0.279-0.708-0.454c-0.16-0.175-0.26-0.354-0.301-0.539s-0.062-0.333-0.062-0.446v-10.887
		c0-0.144-0.021-0.29-0.062-0.438c-0.041-0.149-0.103-0.285-0.185-0.408c-0.083-0.123-0.186-0.224-0.309-0.301
		s-0.267-0.115-0.431-0.115c-0.277,0-0.55,0.08-0.816,0.238c-0.267,0.16-0.516,0.342-0.747,0.547
		c-0.23,0.206-0.431,0.411-0.601,0.616c-0.169,0.205-0.29,0.359-0.361,0.462v10.316c0,0.134-0.021,0.293-0.062,0.478
		s-0.142,0.359-0.301,0.523c-0.159,0.165-0.395,0.306-0.708,0.424s-0.742,0.177-1.286,0.177s-0.973-0.063-1.285-0.192
		c-0.313-0.128-0.552-0.279-0.716-0.454c-0.165-0.175-0.268-0.354-0.309-0.539s-0.062-0.333-0.062-0.446v-11.888
		c0-0.298-0.069-0.557-0.208-0.777s-0.372-0.331-0.7-0.331c-0.175,0-0.323,0.03-0.446,0.092c-0.124,0.062-0.257,0.149-0.4,0.262
		l-0.323-0.385c0.235-0.194,0.5-0.387,0.793-0.577c0.292-0.189,0.607-0.356,0.946-0.5c0.339-0.145,0.703-0.263,1.094-0.354
		c0.39-0.093,0.801-0.139,1.231-0.139c0.667,0,1.186,0.11,1.556,0.331c0.369,0.221,0.642,0.485,0.815,0.793
		c0.175,0.308,0.28,0.629,0.316,0.963c0.035,0.333,0.054,0.613,0.054,0.839c0.482-0.544,1.001-1.032,1.555-1.463
		c0.227-0.185,0.476-0.364,0.747-0.539c0.272-0.175,0.552-0.331,0.84-0.47c0.287-0.139,0.585-0.249,0.893-0.331
		s0.616-0.123,0.924-0.123c0.596,0,1.104,0.107,1.524,0.323s0.76,0.475,1.017,0.777c0.256,0.304,0.443,0.622,0.562,0.955
		c0.118,0.334,0.178,0.624,0.178,0.87c0.492-0.544,1.011-1.032,1.555-1.463c0.226-0.185,0.473-0.364,0.739-0.539
		s0.547-0.331,0.839-0.47c0.293-0.139,0.591-0.249,0.894-0.331s0.608-0.123,0.916-0.123c0.596,0,1.104,0.11,1.524,0.331
		s0.76,0.511,1.017,0.87s0.443,0.765,0.562,1.217c0.118,0.451,0.178,0.903,0.178,1.354v9.531c0,0.093,0.005,0.192,0.016,0.301
		c0.01,0.107,0.035,0.21,0.076,0.308s0.105,0.178,0.192,0.239c0.088,0.062,0.203,0.092,0.347,0.092c0.195,0,0.37-0.069,0.523-0.208
		c0.154-0.139,0.298-0.279,0.432-0.423l0.369,0.323c-0.144,0.216-0.333,0.454-0.569,0.716s-0.516,0.511-0.839,0.747
		c-0.324,0.236-0.698,0.434-1.125,0.593c-0.426,0.159-0.905,0.238-1.439,0.238c-0.452,0-0.845-0.059-1.178-0.177
		c-0.334-0.118-0.616-0.277-0.847-0.478c-0.231-0.2-0.403-0.437-0.517-0.708c-0.112-0.272-0.169-0.562-0.169-0.87v-10.286
		c0-0.144-0.021-0.29-0.062-0.438c-0.041-0.149-0.101-0.285-0.177-0.408c-0.077-0.123-0.178-0.224-0.301-0.301
		s-0.267-0.115-0.431-0.115c-0.277,0-0.553,0.08-0.824,0.238c-0.272,0.16-0.523,0.342-0.755,0.547
		c-0.23,0.206-0.429,0.411-0.593,0.616s-0.282,0.359-0.354,0.462V133.869z"/>
	<path class="st14" d="M791.93,120.504c-0.349,0-0.672,0.041-0.97,0.123s-0.555,0.185-0.77,0.308
		c-0.216,0.124-0.386,0.26-0.509,0.408c-0.123,0.149-0.185,0.29-0.185,0.424c0,0.154,0.079,0.265,0.239,0.331
		c0.158,0.066,0.336,0.144,0.53,0.23c0.195,0.088,0.372,0.211,0.531,0.37s0.239,0.403,0.239,0.731c0,0.216-0.044,0.413-0.131,0.593
		c-0.088,0.18-0.206,0.339-0.354,0.478s-0.323,0.246-0.523,0.323s-0.408,0.115-0.624,0.115c-0.574,0-1.039-0.194-1.393-0.585
		c-0.354-0.39-0.531-0.908-0.531-1.556c0-0.626,0.164-1.162,0.492-1.608c0.328-0.447,0.757-0.813,1.286-1.102
		c0.528-0.287,1.126-0.5,1.794-0.639c0.667-0.139,1.334-0.208,2.001-0.208c0.801,0,1.565,0.087,2.295,0.262
		c0.729,0.175,1.373,0.452,1.933,0.831c0.56,0.381,1.006,0.862,1.34,1.448c0.333,0.585,0.5,1.293,0.5,2.125v8.699
		c0,0.093,0.005,0.195,0.016,0.309c0.01,0.113,0.035,0.216,0.077,0.308c0.04,0.093,0.103,0.17,0.185,0.231s0.2,0.092,0.354,0.092
		c0.186,0,0.357-0.069,0.517-0.208c0.159-0.138,0.3-0.279,0.423-0.423l0.386,0.323c-0.154,0.216-0.339,0.452-0.555,0.708
		c-0.216,0.257-0.478,0.498-0.785,0.724c-0.309,0.227-0.668,0.416-1.078,0.57c-0.411,0.153-0.878,0.23-1.401,0.23
		c-0.646,0-1.222-0.192-1.725-0.577s-0.831-0.978-0.985-1.778c-0.329,0.441-0.67,0.811-1.024,1.108
		c-0.354,0.298-0.716,0.539-1.085,0.724c-0.37,0.185-0.742,0.318-1.116,0.4c-0.375,0.082-0.753,0.123-1.132,0.123
		c-0.493,0-0.971-0.077-1.433-0.23c-0.462-0.154-0.875-0.397-1.239-0.731s-0.657-0.768-0.878-1.302
		c-0.221-0.533-0.331-1.186-0.331-1.955c0-0.935,0.185-1.699,0.555-2.295c0.369-0.595,0.854-1.095,1.455-1.501
		c0.601-0.405,1.283-0.752,2.048-1.039s1.548-0.591,2.349-0.909c0.595-0.235,1.028-0.587,1.301-1.055
		c0.271-0.467,0.408-0.946,0.408-1.439c0-0.76-0.224-1.368-0.67-1.824C793.309,120.732,792.701,120.504,791.93,120.504z
		 M794.38,127.248c0-0.256-0.083-0.451-0.247-0.585c-0.164-0.133-0.375-0.2-0.631-0.2c-0.359,0-0.701,0.082-1.024,0.246
		c-0.323,0.165-0.608,0.406-0.854,0.724c-0.246,0.318-0.441,0.712-0.585,1.179s-0.216,1.009-0.216,1.624
		c0,0.596,0.044,1.089,0.131,1.479c0.087,0.391,0.205,0.7,0.354,0.932c0.148,0.23,0.32,0.393,0.516,0.485
		c0.195,0.092,0.4,0.138,0.616,0.138c0.267,0,0.518-0.068,0.754-0.207s0.441-0.316,0.616-0.531c0.175-0.216,0.313-0.457,0.416-0.724
		c0.103-0.268,0.154-0.534,0.154-0.801V127.248z"/>
	<path class="st14" d="M808.068,122.49c0.39-0.596,0.806-1.134,1.247-1.617c0.185-0.205,0.385-0.405,0.601-0.601
		c0.216-0.194,0.438-0.369,0.67-0.523c0.23-0.153,0.47-0.277,0.716-0.369c0.246-0.093,0.493-0.139,0.739-0.139
		c0.523,0,0.934,0.156,1.231,0.47s0.447,0.752,0.447,1.316c0,0.35-0.028,0.686-0.085,1.009s-0.167,0.716-0.331,1.178h-0.432
		c-0.062-0.318-0.205-0.582-0.431-0.793c-0.226-0.21-0.555-0.315-0.985-0.315c-0.318,0-0.632,0.059-0.939,0.177
		s-0.608,0.265-0.9,0.439c-0.293,0.174-0.57,0.364-0.832,0.569s-0.5,0.4-0.716,0.585v9.993c0,0.134-0.021,0.293-0.062,0.478
		s-0.142,0.359-0.301,0.523c-0.159,0.165-0.395,0.306-0.708,0.424s-0.742,0.177-1.286,0.177s-0.973-0.063-1.285-0.192
		c-0.313-0.128-0.552-0.279-0.716-0.454c-0.165-0.175-0.268-0.354-0.309-0.539s-0.062-0.333-0.062-0.446v-11.888
		c0-0.298-0.069-0.557-0.208-0.777s-0.372-0.331-0.7-0.331c-0.175,0-0.323,0.03-0.446,0.092c-0.124,0.062-0.257,0.149-0.4,0.262
		l-0.323-0.385c0.235-0.194,0.5-0.387,0.793-0.577c0.292-0.189,0.607-0.356,0.946-0.5c0.339-0.145,0.703-0.263,1.094-0.354
		c0.39-0.093,0.801-0.139,1.231-0.139c0.441,0,0.818,0.06,1.132,0.177c0.313,0.118,0.57,0.272,0.771,0.462
		c0.2,0.19,0.356,0.403,0.469,0.64c0.113,0.236,0.198,0.475,0.255,0.716c0.056,0.241,0.09,0.473,0.1,0.692
		C808.063,122.149,808.068,122.336,808.068,122.49z"/>
</g>
<g>
	<path d="M520.522,418.389h1.421l8.149,12.006l8.149-12.006h1.421v20.3h-1.508v-17.632l-8.033,11.687h-0.116l-8.033-11.687v17.632
		h-1.45V418.389z"/>
	<path d="M552.306,430.655l-8.7-12.267h1.885l7.598,10.903l7.627-10.903h1.798l-8.7,12.238v8.062h-1.508V430.655z"/>
	<path d="M573.331,438.979c-1.624,0-3.089-0.271-4.394-0.812c-1.305-0.541-2.566-1.353-3.785-2.436l0.986-1.131
		c0.561,0.521,1.117,0.972,1.667,1.349c0.551,0.377,1.117,0.687,1.697,0.928c0.58,0.242,1.189,0.426,1.827,0.551
		c0.638,0.126,1.334,0.188,2.088,0.188s1.45-0.102,2.088-0.305c0.638-0.202,1.179-0.482,1.624-0.841
		c0.444-0.357,0.792-0.783,1.044-1.275c0.251-0.493,0.377-1.03,0.377-1.609v-0.059c0-0.541-0.083-1.024-0.247-1.45
		c-0.164-0.425-0.464-0.812-0.899-1.16c-0.435-0.348-1.02-0.661-1.754-0.942c-0.735-0.279-1.682-0.536-2.842-0.769
		c-1.218-0.251-2.262-0.546-3.132-0.884c-0.87-0.338-1.581-0.734-2.131-1.189c-0.551-0.454-0.953-0.98-1.204-1.58
		c-0.251-0.6-0.377-1.286-0.377-2.06v-0.058c0-0.754,0.164-1.455,0.493-2.103c0.329-0.647,0.783-1.213,1.363-1.696
		s1.266-0.86,2.059-1.131c0.792-0.271,1.663-0.406,2.61-0.406c1.469,0,2.741,0.203,3.813,0.608c1.073,0.406,2.122,1.025,3.146,1.856
		l-0.957,1.189c-0.967-0.831-1.938-1.422-2.914-1.77c-0.977-0.348-2.026-0.521-3.146-0.521c-0.754,0-1.436,0.101-2.045,0.304
		c-0.609,0.203-1.131,0.479-1.566,0.827c-0.435,0.348-0.769,0.754-1,1.218s-0.348,0.957-0.348,1.479v0.059
		c0,0.541,0.082,1.029,0.247,1.464c0.164,0.436,0.464,0.832,0.899,1.189c0.435,0.358,1.039,0.682,1.812,0.972
		s1.759,0.561,2.958,0.812c2.359,0.483,4.06,1.165,5.104,2.045c1.044,0.88,1.566,2.063,1.566,3.553v0.058
		c0,0.812-0.169,1.562-0.508,2.247c-0.338,0.687-0.802,1.271-1.392,1.755s-1.295,0.86-2.117,1.131
		C575.22,438.843,574.317,438.979,573.331,438.979z"/>
	<path d="M590.644,419.752h-7.076v-1.363h15.66v1.363h-7.076v18.937h-1.508V419.752z"/>
	<path d="M603.81,418.389h14.442v1.363h-12.934v8.032h11.629v1.363h-11.629v8.178h13.079v1.363H603.81V418.389z"/>
	<path d="M623.24,418.389h8.526c1.256,0,2.368,0.179,3.335,0.536c0.967,0.358,1.759,0.846,2.378,1.465
		c0.483,0.483,0.86,1.049,1.131,1.696c0.271,0.648,0.406,1.339,0.406,2.073v0.059c0,0.851-0.15,1.609-0.45,2.276
		s-0.715,1.242-1.247,1.726c-0.532,0.483-1.16,0.875-1.885,1.174c-0.725,0.301-1.513,0.508-2.363,0.624l6.699,8.671h-1.914
		l-6.467-8.41h-0.058h-6.583v8.41h-1.508V418.389z M631.592,428.915c0.851,0,1.638-0.106,2.363-0.319s1.349-0.519,1.871-0.916
		c0.522-0.398,0.933-0.883,1.232-1.455c0.299-0.572,0.45-1.227,0.45-1.964v-0.059c0-1.376-0.508-2.462-1.522-3.258
		c-1.015-0.795-2.451-1.192-4.307-1.192h-6.931v9.163H631.592z"/>
	<path d="M644.41,418.389h1.508v20.3h-1.508V418.389z"/>
	<path d="M661.432,439.036c-1.547,0-2.943-0.285-4.19-0.855c-1.247-0.569-2.315-1.334-3.205-2.291s-1.576-2.063-2.059-3.32
		s-0.725-2.581-0.725-3.973v-0.059c0-1.392,0.246-2.721,0.739-3.987c0.493-1.266,1.184-2.383,2.074-3.35
		c0.889-0.966,1.962-1.734,3.219-2.306c1.256-0.569,2.658-0.855,4.205-0.855c1.527,0,2.919,0.286,4.176,0.855
		c1.257,0.571,2.33,1.334,3.219,2.291c0.889,0.957,1.576,2.064,2.059,3.321c0.483,1.257,0.725,2.581,0.725,3.973
		c0.019,0.02,0.019,0.039,0,0.058c0,1.393-0.247,2.722-0.74,3.988c-0.493,1.266-1.185,2.383-2.073,3.349
		c-0.89,0.968-1.968,1.736-3.234,2.306C664.357,438.751,662.96,439.036,661.432,439.036z M661.491,437.674
		c1.256,0,2.412-0.237,3.465-0.711s1.962-1.121,2.726-1.943c0.764-0.821,1.358-1.783,1.784-2.885
		c0.425-1.103,0.638-2.281,0.638-3.538v-0.059c0-1.256-0.217-2.44-0.652-3.552c-0.435-1.112-1.035-2.078-1.798-2.9
		c-0.764-0.821-1.678-1.474-2.741-1.957c-1.063-0.483-2.223-0.726-3.48-0.726s-2.412,0.237-3.465,0.711
		c-1.054,0.474-1.962,1.121-2.726,1.942c-0.764,0.822-1.358,1.784-1.784,2.886c-0.425,1.103-0.638,2.281-0.638,3.538v0.058
		c0,1.258,0.217,2.441,0.652,3.553c0.435,1.112,1.034,2.079,1.798,2.9s1.677,1.475,2.741,1.957
		C659.074,437.432,660.234,437.674,661.491,437.674z"/>
	<path d="M684.806,439.008c-1.218,0-2.334-0.188-3.35-0.565s-1.895-0.938-2.639-1.683c-0.745-0.744-1.32-1.657-1.726-2.74
		c-0.406-1.083-0.609-2.339-0.609-3.771v-11.86h1.508v11.716c0,2.417,0.604,4.277,1.812,5.582c1.208,1.306,2.895,1.958,5.061,1.958
		c1.024,0,1.952-0.154,2.784-0.464c0.831-0.31,1.542-0.773,2.132-1.393c0.589-0.618,1.044-1.392,1.363-2.319
		c0.319-0.929,0.479-2.001,0.479-3.22v-11.86h1.508v11.687c0,1.45-0.203,2.731-0.609,3.843c-0.406,1.112-0.977,2.045-1.711,2.799
		c-0.735,0.754-1.609,1.324-2.625,1.711S686.043,439.008,684.806,439.008z"/>
	<path d="M705.716,438.979c-1.624,0-3.089-0.271-4.394-0.812c-1.305-0.541-2.566-1.353-3.785-2.436l0.986-1.131
		c0.561,0.521,1.117,0.972,1.667,1.349c0.551,0.377,1.117,0.687,1.697,0.928c0.58,0.242,1.189,0.426,1.827,0.551
		c0.638,0.126,1.334,0.188,2.088,0.188s1.45-0.102,2.088-0.305c0.638-0.202,1.179-0.482,1.624-0.841
		c0.444-0.357,0.792-0.783,1.044-1.275c0.251-0.493,0.377-1.03,0.377-1.609v-0.059c0-0.541-0.083-1.024-0.247-1.45
		c-0.164-0.425-0.464-0.812-0.899-1.16c-0.435-0.348-1.02-0.661-1.754-0.942c-0.735-0.279-1.682-0.536-2.842-0.769
		c-1.218-0.251-2.262-0.546-3.132-0.884c-0.87-0.338-1.581-0.734-2.131-1.189c-0.551-0.454-0.953-0.98-1.204-1.58
		c-0.251-0.6-0.377-1.286-0.377-2.06v-0.058c0-0.754,0.164-1.455,0.493-2.103c0.329-0.647,0.783-1.213,1.363-1.696
		s1.266-0.86,2.059-1.131c0.792-0.271,1.663-0.406,2.61-0.406c1.469,0,2.741,0.203,3.813,0.608c1.073,0.406,2.122,1.025,3.146,1.856
		l-0.957,1.189c-0.967-0.831-1.938-1.422-2.914-1.77c-0.977-0.348-2.026-0.521-3.146-0.521c-0.754,0-1.436,0.101-2.045,0.304
		c-0.609,0.203-1.131,0.479-1.566,0.827c-0.435,0.348-0.769,0.754-1,1.218s-0.348,0.957-0.348,1.479v0.059
		c0,0.541,0.082,1.029,0.247,1.464c0.164,0.436,0.464,0.832,0.899,1.189c0.435,0.358,1.039,0.682,1.812,0.972
		s1.759,0.561,2.958,0.812c2.359,0.483,4.06,1.165,5.104,2.045c1.044,0.88,1.566,2.063,1.566,3.553v0.058
		c0,0.812-0.169,1.562-0.508,2.247c-0.338,0.687-0.802,1.271-1.392,1.755s-1.295,0.86-2.117,1.131
		C707.605,438.843,706.701,438.979,705.716,438.979z"/>
	<path d="M726.102,418.389h1.421l8.149,12.006l8.149-12.006h1.421v20.3h-1.508v-17.632l-8.033,11.687h-0.116l-8.033-11.687v17.632
		h-1.45V418.389z"/>
	<path d="M757.886,430.655l-8.7-12.267h1.885l7.598,10.903l7.627-10.903h1.798l-8.7,12.238v8.062h-1.508V430.655z"/>
	<path d="M779.752,418.243h1.45l9.454,20.445h-1.653l-2.581-5.684h-11.977l-2.581,5.684h-1.566L779.752,418.243z M785.784,431.642
		l-5.336-11.745l-5.365,11.745H785.784z"/>
	<path d="M794.948,418.389h1.421l14.007,17.661v-17.661h1.45v20.3h-1.131l-14.297-18.038v18.038h-1.45V418.389z"/>
	<path d="M817.857,418.389h1.421l8.149,12.006l8.149-12.006h1.421v20.3h-1.508v-17.632l-8.033,11.687h-0.116l-8.033-11.687v17.632
		h-1.45V418.389z"/>
	<path d="M850.743,418.243h1.45l9.454,20.445h-1.653l-2.581-5.684h-11.977l-2.581,5.684h-1.566L850.743,418.243z M856.775,431.642
		l-5.336-11.745l-5.365,11.745H856.775z"/>
	<path d="M865.939,418.389h8.526c1.257,0,2.368,0.179,3.335,0.536c0.967,0.358,1.76,0.846,2.378,1.465
		c0.483,0.483,0.86,1.049,1.132,1.696c0.271,0.648,0.405,1.339,0.405,2.073v0.059c0,0.851-0.149,1.609-0.449,2.276
		s-0.716,1.242-1.247,1.726c-0.532,0.483-1.16,0.875-1.885,1.174c-0.726,0.301-1.513,0.508-2.363,0.624l6.698,8.671h-1.914
		l-6.467-8.41h-0.058h-6.583v8.41h-1.508V418.389z M874.291,428.915c0.851,0,1.639-0.106,2.363-0.319
		c0.726-0.213,1.349-0.519,1.871-0.916c0.521-0.398,0.933-0.883,1.232-1.455c0.299-0.572,0.449-1.227,0.449-1.964v-0.059
		c0-1.376-0.508-2.462-1.522-3.258c-1.015-0.795-2.45-1.192-4.307-1.192h-6.931v9.163H874.291z"/>
</g>
<g>
	<path d="M809.721,397.553c38.046-23.757,35.68-79.163-9.795-59.944c26.955-21.819,10.14-60.287-21.313-50.149
		c-3.739,6.595,13.791-42.627-34.478-31.97c-3.404-29.143-37.222-30.716-47.642-15.985c-18.492-21.94-49.28-8.776-50.22,14.418
		c-47.379-12.366-33.417,39.03-35.974,31.657c-28.695-7.233-41.775,15.781-26.642,50.149c-32.859-10.33-53.581,22.559-21.919,47.394
		c27.114,21.268,56.954,22.801,78.124,22.389c102.947-2.004,34.513-111.711,61.129-111.773c10.629-0.025,2.365,43.854,40.051,92.813
		C755.654,405.536,792.796,408.121,809.721,397.553z"/>
	<path class="st14" d="M709.525,274.387c9.241,1.315,11.766,8.026,13.687,10.529c2.674,2.216,5.459,2.873,8.698,4.799
		c3.239,1.926,6.642,5.584,6.642,5.584s-4.817-1.179-11.958-1.579c-1.899-0.106-13.708,5.734-25.47,0.767
		c0.667,3.463-5.875,19.513-6.904,13.275c-0.198-1.204-0.437-2.001-0.956-4.861c-2.985-16.446,5.642-25.174,12.067-28.124
		c-3.104-12.043,4.656-24.648,4.656-24.648s-1.008,2.648-0.523,8.186c0.824-6.082,7.043-12,9.985-13.33
		C714.675,253.061,706.444,266.01,709.525,274.387z"/>
</g>
<g>
	<path d="M510.683,696.849h3.799l6.177,9.599l6.177-9.599h3.799v20.3h-3.538v-14.558l-6.409,9.569h-0.116l-6.351-9.512v14.5h-3.538
		V696.849z"/>
	<path d="M541.829,709.145l-8.062-12.296h4.205l5.684,8.99l5.742-8.99h4.089l-8.062,12.209v8.091h-3.596V709.145z"/>
	<path d="M563.753,717.439c-1.566,0-3.064-0.266-4.495-0.798c-1.431-0.531-2.755-1.349-3.973-2.45l2.146-2.552
		c0.986,0.851,1.981,1.503,2.987,1.957c1.005,0.455,2.146,0.682,3.422,0.682c1.102,0,1.977-0.231,2.625-0.696
		c0.647-0.464,0.971-1.082,0.971-1.855v-0.059c0-0.366-0.062-0.69-0.188-0.971s-0.359-0.546-0.698-0.798
		c-0.339-0.251-0.805-0.483-1.396-0.696c-0.591-0.212-1.361-0.425-2.312-0.638c-1.085-0.251-2.05-0.536-2.893-0.855
		c-0.843-0.319-1.551-0.705-2.123-1.16c-0.572-0.454-1.008-1.01-1.309-1.667c-0.3-0.657-0.45-1.45-0.45-2.378v-0.059
		c0-0.87,0.172-1.667,0.518-2.393c0.345-0.725,0.819-1.344,1.423-1.855c0.604-0.513,1.331-0.914,2.18-1.204
		c0.849-0.29,1.776-0.435,2.781-0.435c1.489,0,2.828,0.218,4.017,0.652s2.306,1.068,3.35,1.899l-1.914,2.697
		c-0.928-0.677-1.847-1.193-2.755-1.552c-0.909-0.357-1.827-0.536-2.755-0.536c-1.044,0-1.856,0.231-2.436,0.695
		c-0.58,0.465-0.87,1.035-0.87,1.711v0.059c0,0.387,0.067,0.729,0.203,1.029s0.383,0.57,0.742,0.812
		c0.358,0.241,0.853,0.469,1.482,0.681c0.63,0.213,1.43,0.436,2.399,0.667c1.065,0.271,2.011,0.571,2.834,0.899
		c0.824,0.329,1.507,0.73,2.05,1.203c0.542,0.475,0.955,1.025,1.235,1.653c0.281,0.629,0.422,1.358,0.422,2.189v0.058
		c0,0.948-0.177,1.799-0.532,2.553s-0.849,1.392-1.481,1.914c-0.632,0.521-1.393,0.918-2.28,1.188
		C565.792,717.303,564.816,717.439,563.753,717.439z"/>
	<path d="M580.167,700.154h-6.438v-3.306h16.472v3.306h-6.438v16.994h-3.596V700.154z"/>
	<path d="M593.971,696.849h15.022v3.219h-11.484v5.22h10.179v3.22h-10.179v5.423h11.629v3.219h-15.167V696.849z"/>
	<path d="M613.401,696.849h9.048c1.276,0,2.407,0.179,3.393,0.536c0.986,0.358,1.808,0.855,2.465,1.494
		c0.541,0.561,0.957,1.208,1.247,1.942c0.29,0.735,0.435,1.547,0.435,2.437v0.058c0,0.831-0.121,1.58-0.363,2.247
		s-0.575,1.258-1,1.77c-0.425,0.513-0.933,0.947-1.522,1.305c-0.59,0.358-1.243,0.634-1.958,0.827l5.481,7.685h-4.205l-5.003-7.076
		h-0.058h-4.422v7.076h-3.538V696.849z M622.176,706.911c1.28,0,2.298-0.305,3.054-0.917c0.756-0.611,1.135-1.441,1.135-2.49v-0.058
		c0-1.106-0.369-1.947-1.106-2.52c-0.737-0.573-1.774-0.859-3.112-0.859h-5.207v6.844H622.176z"/>
	<path d="M634.571,696.849h3.538v20.3h-3.538V696.849z"/>
	<path d="M653.246,717.496c-1.566,0-2.997-0.275-4.292-0.826c-1.295-0.551-2.407-1.3-3.335-2.247
		c-0.928-0.947-1.653-2.055-2.175-3.321c-0.522-1.266-0.783-2.614-0.783-4.045v-0.059c0-1.43,0.261-2.778,0.783-4.045
		s1.256-2.378,2.204-3.335c0.947-0.957,2.068-1.716,3.364-2.276c1.295-0.561,2.726-0.842,4.292-0.842s2.997,0.276,4.292,0.827
		c1.295,0.551,2.407,1.3,3.335,2.247c0.928,0.947,1.653,2.055,2.175,3.32c0.522,1.267,0.783,2.615,0.783,4.046v0.058
		c0,1.432-0.261,2.78-0.783,4.046c-0.522,1.267-1.257,2.378-2.204,3.335c-0.948,0.957-2.069,1.716-3.364,2.276
		C656.243,717.216,654.812,717.496,653.246,717.496z M653.305,714.22c1.001,0,1.92-0.188,2.758-0.565s1.554-0.89,2.151-1.537
		s1.063-1.407,1.4-2.276c0.337-0.87,0.506-1.799,0.506-2.784v-0.059c0-0.985-0.168-1.918-0.506-2.798
		c-0.337-0.88-0.809-1.644-1.415-2.291c-0.606-0.647-1.333-1.165-2.18-1.552c-0.848-0.387-1.771-0.58-2.772-0.58
		c-1.001,0-1.92,0.188-2.758,0.565s-1.555,0.89-2.151,1.537c-0.597,0.648-1.063,1.406-1.4,2.276
		c-0.337,0.87-0.505,1.798-0.505,2.784v0.058c0,0.986,0.168,1.919,0.505,2.799c0.337,0.88,0.809,1.644,1.415,2.291
		c0.606,0.648,1.333,1.165,2.18,1.552S652.303,714.22,653.305,714.22z"/>
	<path d="M676.534,717.468c-1.315,0-2.504-0.188-3.567-0.565c-1.063-0.377-1.972-0.943-2.726-1.697s-1.334-1.687-1.74-2.798
		c-0.406-1.111-0.609-2.402-0.609-3.872v-11.687h3.538v11.542c0,1.895,0.457,3.335,1.371,4.321c0.914,0.985,2.177,1.479,3.792,1.479
		c1.594,0,2.848-0.474,3.762-1.421c0.914-0.947,1.371-2.358,1.371-4.234v-11.687h3.538v11.513c0,1.508-0.208,2.833-0.624,3.973
		c-0.416,1.142-1,2.094-1.754,2.857c-0.754,0.764-1.667,1.334-2.741,1.711C679.071,717.279,677.867,717.468,676.534,717.468z"/>
	<path d="M697.297,717.439c-1.566,0-3.064-0.266-4.495-0.798c-1.431-0.531-2.755-1.349-3.973-2.45l2.146-2.552
		c0.986,0.851,1.981,1.503,2.987,1.957c1.005,0.455,2.146,0.682,3.422,0.682c1.102,0,1.977-0.231,2.625-0.696
		c0.647-0.464,0.971-1.082,0.971-1.855v-0.059c0-0.366-0.062-0.69-0.188-0.971s-0.359-0.546-0.698-0.798
		c-0.339-0.251-0.805-0.483-1.396-0.696c-0.591-0.212-1.361-0.425-2.312-0.638c-1.085-0.251-2.05-0.536-2.893-0.855
		c-0.843-0.319-1.551-0.705-2.123-1.16c-0.572-0.454-1.008-1.01-1.309-1.667c-0.3-0.657-0.45-1.45-0.45-2.378v-0.059
		c0-0.87,0.172-1.667,0.518-2.393c0.345-0.725,0.819-1.344,1.423-1.855c0.604-0.513,1.331-0.914,2.18-1.204
		c0.849-0.29,1.776-0.435,2.781-0.435c1.489,0,2.828,0.218,4.017,0.652s2.306,1.068,3.35,1.899l-1.914,2.697
		c-0.928-0.677-1.847-1.193-2.755-1.552c-0.909-0.357-1.827-0.536-2.755-0.536c-1.044,0-1.856,0.231-2.436,0.695
		c-0.58,0.465-0.87,1.035-0.87,1.711v0.059c0,0.387,0.067,0.729,0.203,1.029s0.383,0.57,0.742,0.812
		c0.358,0.241,0.853,0.469,1.482,0.681c0.63,0.213,1.43,0.436,2.399,0.667c1.065,0.271,2.011,0.571,2.834,0.899
		c0.824,0.329,1.507,0.73,2.05,1.203c0.542,0.475,0.955,1.025,1.235,1.653c0.281,0.629,0.422,1.358,0.422,2.189v0.058
		c0,0.948-0.177,1.799-0.532,2.553s-0.849,1.392-1.481,1.914c-0.632,0.521-1.393,0.918-2.28,1.188
		C699.336,717.303,698.36,717.439,697.297,717.439z"/>
	<path d="M717.423,696.849h3.799l6.177,9.599l6.177-9.599h3.799v20.3h-3.538v-14.558l-6.409,9.569h-0.116l-6.351-9.512v14.5h-3.538
		V696.849z"/>
	<path d="M748.569,709.145l-8.062-12.296h4.205l5.684,8.99l5.742-8.99h4.089l-8.062,12.209v8.091h-3.596V709.145z"/>
	<path d="M770.55,696.703h3.306l8.932,20.445h-3.77l-2.059-4.901h-9.599l-2.088,4.901h-3.654L770.55,696.703z M775.654,709.087
		l-3.509-8.12l-3.48,8.12H775.654z"/>
	<path d="M786.268,696.849h3.299l10.853,14.036v-14.036h3.538v20.3h-2.981l-11.171-14.442v14.442h-3.538V696.849z"/>
	<path d="M809.178,696.849h3.799l6.177,9.599l6.177-9.599h3.799v20.3h-3.538v-14.558l-6.409,9.569h-0.116l-6.351-9.512v14.5h-3.538
		V696.849z"/>
	<path d="M841.541,696.703h3.306l8.932,20.445h-3.77l-2.059-4.901h-9.599l-2.088,4.901h-3.654L841.541,696.703z M846.645,709.087
		l-3.509-8.12l-3.48,8.12H846.645z"/>
	<path d="M857.259,696.849h9.048c1.276,0,2.407,0.179,3.393,0.536c0.986,0.358,1.808,0.855,2.466,1.494
		c0.541,0.561,0.957,1.208,1.247,1.942c0.29,0.735,0.435,1.547,0.435,2.437v0.058c0,0.831-0.121,1.58-0.362,2.247
		c-0.242,0.667-0.575,1.258-1.001,1.77c-0.425,0.513-0.933,0.947-1.522,1.305c-0.59,0.358-1.243,0.634-1.958,0.827l5.481,7.685
		h-4.205l-5.003-7.076h-0.058h-4.422v7.076h-3.538V696.849z M866.034,706.911c1.28,0,2.298-0.305,3.054-0.917
		c0.756-0.611,1.135-1.441,1.135-2.49v-0.058c0-1.106-0.369-1.947-1.106-2.52c-0.737-0.573-1.774-0.859-3.112-0.859h-5.207v6.844
		H866.034z"/>
</g>
<path class="st19" d="M791.073,616.069c26.955-21.819,10.14-60.287-21.313-50.149c-3.739,6.595,13.791-42.627-34.478-31.97
	c-3.404-29.143-37.222-30.716-47.642-15.985c-18.493-21.94-49.28-8.776-50.22,14.418c-47.379-12.366-33.417,39.029-35.974,31.657
	c-28.695-7.233-41.775,15.781-26.642,50.149c-32.859-10.33-53.581,22.559-21.919,47.395c27.114,21.269,56.954,22.801,78.124,22.389
	c79.138-1.541,57.001-66.725,54.62-96.823c-0.107-0.225-0.195-0.53-0.261-0.928c-0.198-1.204-0.437-2.001-0.956-4.861
	c-2.985-16.446,5.642-25.174,12.067-28.124c-3.104-12.043,4.656-24.648,4.656-24.648s-1.008,2.648-0.522,8.186
	c0.824-6.082,7.042-12,9.985-13.33c-4.775,8.076-13.005,21.025-9.925,29.402c9.241,1.315,11.766,8.026,13.687,10.529
	c2.675,2.217,5.459,2.873,8.698,4.799c3.239,1.926,6.642,5.584,6.642,5.584s-4.817-1.179-11.958-1.579
	c-1.74-0.097-11.802,4.793-22.524,1.791c6.236,8.645,3.736,47.865,36.971,91.042c14.612,18.983,51.754,21.569,68.679,11.001
	C838.914,652.257,836.548,596.85,791.073,616.069z"/>
</svg>
