<?xml version="1.0" encoding="utf-8"?>
<!-- Generator: Adobe Illustrator 19.2.0, SVG Export Plug-In . SVG Version: 6.00 Build 0)  -->
<svg version="1.1" id="Layer_1" xmlns="http://www.w3.org/2000/svg" xmlns:xlink="http://www.w3.org/1999/xlink" x="0px" y="0px"
	 viewBox="0 0 100 100.5" style="enable-background:new 0 0 100 100.5;" xml:space="preserve">
<style type="text/css">
	.st0{fill:#736D72;}
</style>
<title>Artboard 17</title>
<path class="st0" d="M87.8,35.5l-3.3,3.3l3.3,3.3c1.7,1.7,1.7,4.4,0,6.1s-4.4,1.7-6.1,0l-3.3-3.3l-3.3,3.3c-1.7,1.7-4.4,1.7-6.1,0
	s-1.7-4.4,0-6.1l0,0l3.3-3.3L69,35.5c-1.7-1.7-1.7-4.4,0-6.1s4.4-1.7,6.1,0l3.3,3.3l3.3-3.3c1.7-1.7,4.4-1.7,6.1,0
	S89.5,33.8,87.8,35.5L87.8,35.5z M81.5,89.4c-5.9-0.1-11.1-4.1-12.6-9.8c-16.5-2.9-28.2-17.7-27.4-34.5L39.3,45L37,44.9
	c-1.5-0.1-2.6-1.3-2.5-2.8c0-0.6,0.2-1.1,0.6-1.5l9.5-11.8c0.9-1.1,2.6-1.3,3.7-0.4c0.2,0.2,0.4,0.4,0.6,0.6L57,41.8
	c0.8,1.2,0.4,2.9-0.8,3.7c-0.5,0.3-1,0.4-1.6,0.4l-2.3-0.1l-2.2-0.1C49.5,57.7,57.7,68.4,69.6,71c2.1-4.8,6.8-7.9,12.1-7.9h0.1
	c7.3,0,13.1,6,13.1,13.2s-6,13.1-13.2,13.1l0,0L81.5,89.4z M81.6,80.8L81.6,80.8c2.6,0,4.6-2,4.6-4.6c0-2.5-2-4.6-4.6-4.6l0,0l0,0
	c-2.5,0-4.6,2-4.6,4.6C77.1,78.8,79.1,80.8,81.6,80.8L81.6,80.8z M25.1,96.7c1.7,1.7,4.4,1.7,6.1,0c0,0,0,0,0,0l3.3-3.3l3.3,3.3
	c1.7,1.7,4.4,1.7,6.1,0s1.7-4.4,0-6.1l-3.3-3.3l3.3-3.3c1.5-1.8,1.2-4.5-0.7-6c-1.6-1.3-3.8-1.3-5.4,0l-3.3,3.3L31.2,78
	c-1.8-1.5-4.5-1.2-6,0.6c-1.3,1.6-1.3,3.8,0,5.4l3.3,3.3l-3.3,3.3C23.4,92.3,23.4,95,25.1,96.7C25.1,96.7,25.1,96.7,25.1,96.7z
	 M29.4,20.2c1.7,1.7,4.4,1.7,6.1,0c0,0,0,0,0,0L46.3,9.3c1.7-1.7,1.7-4.4,0-6.1s-4.4-1.7-6.1,0l0,0l-7.8,7.8l-3.7-3.7
	c-1.7-1.7-4.4-1.7-6.1,0s-1.7,4.4,0,6.1L29.4,20.2z M6.5,60.9c1.7,1.7,4.4,1.7,6.1,0c0,0,0,0,0,0l3.3-3.3l3.3,3.3
	c1.7,1.7,4.4,1.7,6.1,0s1.7-4.4,0-6.1l-3.3-3.3l3.3-3.3c1.7-1.7,1.7-4.4,0-6.1s-4.4-1.7-6.1,0l-3.3,3.3l-3.3-3.3
	c-1.7-1.7-4.4-1.7-6.1,0s-1.7,4.4,0,6.1l0,0l3.3,3.3l-3.3,3.3C4.8,56.5,4.8,59.2,6.5,60.9C6.5,60.9,6.5,60.9,6.5,60.9z"/>
</svg>
