<?xml version="1.0" encoding="utf-8"?>
<!-- Generator: Adobe Illustrator 19.2.0, SVG Export Plug-In . SVG Version: 6.00 Build 0)  -->
<svg version="1.1"
	 id="Layer_1" xmlns:cc="http://creativecommons.org/ns#" xmlns:dc="http://purl.org/dc/elements/1.1/" xmlns:rdf="http://www.w3.org/1999/02/22-rdf-syntax-ns#" xmlns:svg="http://www.w3.org/2000/svg"
	 xmlns="http://www.w3.org/2000/svg" xmlns:xlink="http://www.w3.org/1999/xlink" x="0px" y="0px" viewBox="0 0 100 101.2"
	 style="enable-background:new 0 0 100 101.2;" xml:space="preserve">
<style type="text/css">
	.st0{fill:#736D72;}
</style>
<g transform="translate(0,-952.36216)">
	<path class="st0" d="M85,954.9c-1.4,0-2.5,1.1-2.5,2.5v2.9c0,0.2-0.2,0.5-0.4,0.5l-38.8,14.4c-0.4,0.1-0.8-0.1-0.8-0.5v-1.7
		c0-1.7-1.4-3.1-3.1-3.1H20.6c-1.7,0-3.1,1.4-3.1,3.1v18.8c0,1.7,1.4,3.1,3.1,3.1h1.7c0.4,0,0.7,0.4,0.5,0.8l-14.4,38.8
		c-0.1,0.2-0.3,0.4-0.5,0.4H5.6c-1.7,0-3.1,1.4-3.1,3.1v8.8c0,1.7,1.4,3.1,3.1,3.1h8.8c1.7,0,3.1-1.4,3.1-3.1v-8.8
		c0-1.7-1.4-3.1-3.1-3.1h0c-0.4,0-0.7-0.4-0.5-0.8l14.4-38.8c0.1-0.2,0.3-0.4,0.5-0.4h10.6c1.7,0,3.1-1.4,3.1-3.1v-10.6
		c0-0.2,0.2-0.5,0.4-0.5l38.8-14.4c0.4-0.1,0.8,0.1,0.8,0.5v0c0,1.7,1.4,3.1,3.1,3.1h8.8c1.7,0,3.1-1.4,3.1-3.1v-8.8
		c0-1.7-1.4-3.1-3.1-3.1L85,954.9L85,954.9z M88.1,959.9h3.8c0.3,0,0.6,0.3,0.6,0.6v3.8c0,0.3-0.3,0.6-0.6,0.6h-3.8
		c-0.3,0-0.6-0.3-0.6-0.6v-3.8C87.5,960.1,87.8,959.9,88.1,959.9z M23.1,974.9h13.8c0.3,0,0.6,0.3,0.6,0.6v13.8
		c0,0.3-0.3,0.6-0.6,0.6H23.1c-0.3,0-0.6-0.3-0.6-0.6v-13.8C22.5,975.1,22.8,974.9,23.1,974.9z M45.3,995.2c-1.4,0-2.5,1.1-2.5,2.5
		c0,0.3,0.1,0.7,0.2,1l21.2,49.5c0.5,1.3,2,1.9,3.3,1.3c0.7-0.3,1.2-0.8,1.4-1.5l4.4-21.2c0.1-0.6,0.6-1,1.1-1.1l21.2-4.4
		c1.3-0.4,2-1.9,1.6-3.2c-0.2-0.7-0.7-1.2-1.4-1.5l-49.5-21.2C46,995.2,45.7,995.2,45.3,995.2z M51.4,1003l34.6,14.8
		c0.5,0.2,0.4,1-0.1,1.1l-15.1,2.6c-0.7,0.2-1.3,0.8-1.6,1.6l-2.6,15.1c-0.1,0.6-0.9,0.7-1.1,0.1l-14.8-34.6
		C50.4,1003.3,50.9,1002.8,51.4,1003z M8.1,1039.9h3.8c0.3,0,0.6,0.3,0.6,0.6v3.8c0,0.3-0.3,0.6-0.6,0.6H8.1c-0.3,0-0.6-0.3-0.6-0.6
		v-3.8C7.5,1040.1,7.8,1039.9,8.1,1039.9z"/>
</g>
</svg>
