<?xml version="1.0" encoding="utf-8"?>
<!-- Generator: Adobe Illustrator 19.2.0, SVG Export Plug-In . SVG Version: 6.00 Build 0)  -->
<svg version="1.1" id="Layer_1" xmlns="http://www.w3.org/2000/svg" xmlns:xlink="http://www.w3.org/1999/xlink" x="0px" y="0px"
	 viewBox="0 0 58.5 58.8" style="enable-background:new 0 0 58.5 58.8;" xml:space="preserve">
<style type="text/css">
	.st0{fill:#04827E;}
</style>
<path class="st0" d="M37.1,33.2c1.1,0.8,1.3,2.4,0.5,3.5l0,0c-0.8,1.1-2.4,1.3-3.5,0.5l-7.4-5.6c-1.1-0.8-1.3-2.4-0.5-3.5l0,0
	c0.8-1.1,2.4-1.3,3.5-0.5L37.1,33.2z"/>
<path class="st0" d="M30.1,31.1c-5.6,7.4-16.1,8.8-23.5,3.2s-8.8-16.1-3.2-23.5S19.5,2,26.9,7.6C34.2,13.2,35.7,23.7,30.1,31.1z
	 M7.4,13.9C3.5,19,4.5,26.4,9.7,30.3s12.5,2.9,16.5-2.3c3.9-5.2,2.9-12.5-2.3-16.5C18.7,7.7,11.3,8.7,7.4,13.9z"/>
<path class="st0" d="M56.8,48.5l-2.3,3c-1.6,2.1-4.8,2.6-6.9,0.9L33.9,42.2c-2.2-1.6-2.6-4.7-1-6.8l2.3-3c1.6-2.1,4.8-2.6,6.9-0.9
	l13.7,10.2C58,43.3,58.5,46.3,56.8,48.5z M36.5,38.1c-0.1,0.2-0.1,0.5,0.1,0.6l13.7,10.2c0.2,0.1,0.5,0.1,0.6-0.1l2.3-3
	c0.2-0.2,0.1-0.5-0.1-0.6L39.4,35c-0.2-0.1-0.5-0.1-0.6,0.1L36.5,38.1z"/>
</svg>
