<?xml version="1.0" encoding="utf-8"?>
<!-- Generator: Adobe Illustrator 19.2.0, SVG Export Plug-In . SVG Version: 6.00 Build 0)  -->
<svg version="1.1" id="Layer_1" xmlns="http://www.w3.org/2000/svg" xmlns:xlink="http://www.w3.org/1999/xlink" x="0px" y="0px"
	 viewBox="0 0 50.167 57.167" style="enable-background:new 0 0 50.167 57.167;" xml:space="preserve">
<style type="text/css">
	.st0{fill:#04827E;}
	.st1{fill:#007275;}
	.st2{fill:#733D97;}
	.st3{fill:#999999;}
	.st4{fill:#E6E6E6;}
	.st5{fill:#FFFFFF;stroke:#CCCCCC;stroke-width:0.25;stroke-miterlimit:10;}
	.st6{fill:#FFFFFF;}
	.st7{fill:#CCCCCC;stroke:#808080;stroke-width:0.25;stroke-miterlimit:10;}
	.st8{fill:#FFFFFF;stroke:#808080;stroke-width:0.25;stroke-miterlimit:10;}
	.st9{fill:#CCCCCC;}
	.st10{fill:#FFFFFF;stroke:#CCCCCC;stroke-miterlimit:10;}
	.st11{fill:none;}
	.st12{fill:#3FA9F5;stroke:#666666;stroke-width:0.25;stroke-miterlimit:10;}
	.st13{stroke:#000000;stroke-width:0.3;stroke-miterlimit:10;}
	.st14{fill:none;stroke:#000000;stroke-width:0.5;stroke-miterlimit:10;}
	.st15{stroke:#FFFFFF;stroke-width:0.1;stroke-miterlimit:10;}
	.st16{fill:#3FA9F5;}
	.st17{fill:#1189B1;}
	.st18{fill:#FFFFFF;stroke:#000000;stroke-width:1.6244;stroke-miterlimit:10;}
	.st19{fill:none;stroke:#000000;stroke-width:1.6244;stroke-miterlimit:10;}
	.st20{fill:#FFFFFF;stroke:#000000;stroke-width:1.8621;stroke-miterlimit:10;}
	.st21{fill:none;stroke:#0000FF;stroke-width:1.3443;stroke-miterlimit:10;}
	.st22{fill:none;stroke:#006882;stroke-width:5;stroke-miterlimit:10;}
	.st23{fill:none;stroke:#C8C8C8;stroke-width:2.5;stroke-miterlimit:10;}
	.st24{fill:none;stroke:#949295;stroke-width:2.5;stroke-miterlimit:10;}
	.st25{fill:none;stroke:#0C6060;stroke-width:3;stroke-miterlimit:10;}
	.st26{fill:none;stroke:#0C6060;stroke-width:2;stroke-miterlimit:10;}
	.st27{fill:none;stroke:#007275;stroke-width:3;stroke-miterlimit:10;}
	.st28{fill:none;stroke:#007275;stroke-width:2;stroke-miterlimit:10;}
	.st29{fill:#FFFFFF;stroke:#000000;stroke-width:0.25;stroke-miterlimit:10;}
	.st30{fill:none;stroke:#007275;stroke-miterlimit:10;}
	.st31{display:none;}
	.st32{display:inline;fill:#FFFFFF;}
	.st33{display:inline;fill:#007275;}
	.st34{fill:#FFFFFF;stroke:#04827E;stroke-width:0.5;stroke-miterlimit:10;}
	.st35{fill:#FFFFFF;stroke:#04827E;stroke-width:1.2064;stroke-miterlimit:10;}
	.st36{fill:#C54874;}
	.st37{fill:none;stroke:#04827E;stroke-width:0.4575;stroke-linecap:round;stroke-miterlimit:10;}
	.st38{fill:none;stroke:#04827E;stroke-width:0.5048;stroke-linecap:round;stroke-miterlimit:10;}
	.st39{fill:none;stroke:#04827E;stroke-width:0.5;stroke-linecap:round;stroke-miterlimit:10;}
	.st40{fill:#8F5683;}
</style>
<g>
	<g>
		<path class="st40" d="M6.766,13.891C3.631,18.39,2.751,24.168,2.229,29.511c-0.577,5.903-0.05,11.765,3.008,16.978
			c2.616,4.461,6.895,8.113,12,9.319c4.954,1.17,10.097-0.283,14.337-2.913c10.311-6.397,16.423-19.236,15.61-31.232
			C46.411,10.264,38.436-0.527,26.045,0.627C19.441,1.243,14.183,5.481,11.488,11.45c-1.794,3.973-3.06,9.83-1.216,14.03
			c0.472,1.076,2.945-1.161,2.526-2.113c-1.339-3.049-0.816-7.128,0.096-10.209c1.682-5.68,5.768-9.312,11.722-9.861
			c10.575-0.976,18.005,7.642,19.678,17.379c1.829,10.649-2.463,23.031-11.449,29.358c-8.051,5.668-18.071,3.912-23.932-3.952
			c-3.511-4.712-4.709-10.613-4.279-16.392c0.377-5.067,0.844-11.167,3.828-15.448C9.771,12.362,7.65,12.623,6.766,13.891
			L6.766,13.891z"/>
	</g>
</g>
<g>
	<path class="st40" d="M34.085,7.248C27.2,2.169,23.873,13.441,22.903,18.3c-1.287,6.443-1.382,13.054-2.671,19.498
		c-0.845,4.223-1.924,10.428-7.131,6.762c-0.961-0.677-3.18,2.066-2.316,2.675c5.49,3.866,9.257-1.251,10.896-6.406
		c1.795-5.644,2.144-11.684,2.805-17.531c0.38-3.359,0.844-6.745,1.826-9.985c0.911-3.004,1.897-6.017,5.457-3.391
		C32.707,10.614,34.948,7.884,34.085,7.248L34.085,7.248z"/>
</g>
<g>
	<g>
		<path class="st40" d="M20.515,17.634c3.2-2.232,9.066-3.798,12.538-1.467c4.744,3.186-2.952,6.792-5.419,7.618
			c-0.968,0.324-2.711,2.837-0.894,2.228c3.583-1.2,13.73-6.272,9.627-11.565c-1.483-1.913-4.577-2.191-6.796-2.131
			c-3.864,0.104-7.114,1.798-9.845,4.449C18.217,18.232,19.456,18.372,20.515,17.634z"/>
	</g>
</g>
<g>
	<g>
		<path class="st40" d="M18.961,29.037c3.729-2.242,6.909-2.764,9.592-2.831c2.47-0.062,6.788,0.08,9.705,1.869
			c2.463,1.51,3.718,4.045,2.162,6.72c-1.643,2.826-4.857,4.534-7.882,5.459c-5.467,1.671-12.688,1.696-17.657-1.494
			c-2.482-1.594-2.203-3.458,0.337-5.139c2.194-1.452,8.761-2.068,9.651-2.192c0.818-0.114,1.665-0.848,0.686-1.208
			c-0.667-0.246-4.728,0-6.295,0.256c-2.912,0.477-10.098,2.497-9.037,7.567c0.611,2.921,3.693,4.342,6.282,5.124
			c3.588,1.084,7.432,1.193,11.113,0.551c6.227-1.087,12.897-4.464,15.464-10.622c1.309-3.139,0.469-6.21-2.42-8.097
			c-2.85-1.861-6.525-2.054-9.818-1.769c-3.683,0.319-5.681,0.722-8.915,2.486C16.9,28.459,17.541,29.89,18.961,29.037z"/>
	</g>
</g>
</svg>
