<?xml version="1.0" encoding="utf-8"?>
<!-- Generator: Adobe Illustrator 19.2.0, SVG Export Plug-In . SVG Version: 6.00 Build 0)  -->
<svg version="1.1" id="Layer_1" xmlns="http://www.w3.org/2000/svg" xmlns:xlink="http://www.w3.org/1999/xlink" x="0px" y="0px"
	 viewBox="0 0 50.167 57.167" style="enable-background:new 0 0 50.167 57.167;" xml:space="preserve">
<style type="text/css">
	.st0{fill:#04827E;}
	.st1{fill:#007275;}
	.st2{fill:#733D97;}
	.st3{fill:#999999;}
	.st4{fill:#E6E6E6;}
	.st5{fill:#FFFFFF;stroke:#CCCCCC;stroke-width:0.25;stroke-miterlimit:10;}
	.st6{fill:#FFFFFF;}
	.st7{fill:#CCCCCC;stroke:#808080;stroke-width:0.25;stroke-miterlimit:10;}
	.st8{fill:#FFFFFF;stroke:#808080;stroke-width:0.25;stroke-miterlimit:10;}
	.st9{fill:#CCCCCC;}
	.st10{fill:#FFFFFF;stroke:#CCCCCC;stroke-miterlimit:10;}
	.st11{fill:#3FA9F5;stroke:#666666;stroke-width:0.25;stroke-miterlimit:10;}
	.st12{stroke:#000000;stroke-width:0.3;stroke-miterlimit:10;}
	.st13{fill:none;stroke:#000000;stroke-width:0.5;stroke-miterlimit:10;}
	.st14{stroke:#FFFFFF;stroke-width:0.1;stroke-miterlimit:10;}
	.st15{fill:#3FA9F5;}
	.st16{fill:#1189B1;}
	.st17{fill:#FFFFFF;stroke:#000000;stroke-width:1.6244;stroke-miterlimit:10;}
	.st18{fill:none;stroke:#000000;stroke-width:1.6244;stroke-miterlimit:10;}
	.st19{fill:#FFFFFF;stroke:#000000;stroke-width:1.8621;stroke-miterlimit:10;}
	.st20{fill:none;stroke:#0000FF;stroke-width:1.3443;stroke-miterlimit:10;}
	.st21{fill:none;stroke:#006882;stroke-width:5;stroke-miterlimit:10;}
	.st22{fill:none;stroke:#C8C8C8;stroke-width:2.5;stroke-miterlimit:10;}
	.st23{fill:none;stroke:#949295;stroke-width:2.5;stroke-miterlimit:10;}
	.st24{fill:none;stroke:#0C6060;stroke-width:3;stroke-miterlimit:10;}
	.st25{fill:none;stroke:#0C6060;stroke-width:2;stroke-miterlimit:10;}
	.st26{fill:none;stroke:#007275;stroke-width:3;stroke-miterlimit:10;}
	.st27{fill:none;stroke:#007275;stroke-width:2;stroke-miterlimit:10;}
	.st28{fill:#FFFFFF;stroke:#000000;stroke-width:0.25;stroke-miterlimit:10;}
	.st29{fill:none;stroke:#007275;stroke-miterlimit:10;}
	.st30{display:none;}
	.st31{display:inline;fill:#FFFFFF;}
	.st32{display:inline;fill:#007275;}
	.st33{fill:#FFFFFF;stroke:#04827E;stroke-width:0.5;stroke-miterlimit:10;}
	.st34{fill:#FFFFFF;stroke:#04827E;stroke-width:1.2064;stroke-miterlimit:10;}
	.st35{fill:#C54874;}
	.st36{fill:none;stroke:#04827E;stroke-width:0.4575;stroke-linecap:round;stroke-miterlimit:10;}
	.st37{fill:none;stroke:#04827E;stroke-width:0.5048;stroke-linecap:round;stroke-miterlimit:10;}
	.st38{fill:none;stroke:#04827E;stroke-width:0.5;stroke-linecap:round;stroke-miterlimit:10;}
</style>
<path class="st0" d="M33.63,1.68C28.263,0,22.546,0.448,17.103,2.992c-5.173,2.417-7.375,6.243-8.31,9.027
	c-0.366,1.088-0.571,2.146-0.673,3.145c-1.378,2.137-2.514,4.52-3.333,7.106C0.624,35.559,7.059,48.757,17.676,52.756
	c11.089,4.145,23.833-4.363,27.996-17.67c4.181-13.289-1.6-26.942-12.889-30.469c-4.981-1.563-10.217-0.891-14.871,1.491
	c-6.835,4.181-7.781,11.58-4.599,16.252c0.345,0.509-0.127,0.818-0.618,0.454c-2.518-1.849-3.577-3.848-3.691-7.373
	c0.089-0.998,0.29-2.062,0.651-3.134c0.879-2.615,2.952-6.212,7.833-8.492c5.235-2.445,10.725-2.882,15.87-1.268
	c12.159,3.814,18.385,18.596,13.883,32.949c-2.526,8.051-8.126,14.837-14.977,18.154c-5.127,2.483-10.389,2.818-15.215,0.971
	C6.872,50.727,1.722,42.356,1.741,29.742c0.007-4.055,1.071-10.025,4.046-13.506c0.162-0.191,0.14-0.478-0.051-0.641
	c-0.188-0.163-0.476-0.14-0.641,0.05C1.963,19.309,0.84,25.328,0.832,29.74C0.811,42.771,6.158,51.427,16.725,55.471
	c2.118,0.81,4.355,1.213,6.633,1.213c3.093,0,6.26-0.742,9.301-2.214c7.073-3.424,12.848-10.414,15.447-18.7
	C52.759,20.937,46.265,5.645,33.63,1.68z"/>
<g>
	<path class="st6" d="M33.931,5.971c-7.299-4.991-10.317,6.774-11.14,11.828c-1.091,6.702-0.944,13.533-2.036,20.236
		c-0.716,4.393-1.601,10.842-7.115,7.248c-1.018-0.663-3.208,2.252-2.293,2.848c5.813,3.789,9.514-1.635,11.017-7.019
		c1.645-5.895,1.781-12.147,2.248-18.209c0.268-3.483,0.622-6.997,1.516-10.38c0.829-3.136,1.736-6.284,5.51-3.704
		C32.632,9.498,34.846,6.596,33.931,5.971L33.931,5.971z"/>
</g>
<path class="st6" d="M26.65,26.46c-0.394,0.014-0.682-0.201-0.756-0.563c-0.176-0.884,1.035-2.64,1.859-2.948
	c2.1-0.789,6.504-3.116,6.717-5.285c0.076-0.765-0.419-1.483-1.467-2.134c-1.145-0.71-2.586-1.039-4.286-0.978
	c-2.738,0.098-5.956,1.251-8.2,2.938c-0.451,0.34-0.959,0.551-1.356,0.566l0,0c-0.477,0.017-0.65-0.253-0.703-0.37
	c-0.176-0.391,0.057-0.9,0.731-1.604c2.999-3.126,6.444-4.832,10.243-5.07l0.559-0.028c3.275-0.117,5.576,0.591,6.842,2.107
	c1.073,1.286,1.415,2.702,1.018,4.208c-1.106,4.185-7.775,7.957-10.648,9.035C26.993,26.413,26.812,26.454,26.65,26.46z"/>
<path class="st0" d="M37.112,12.857c-1.34-1.606-3.741-2.359-7.137-2.237c-0.193,0.007-0.382,0.017-0.565,0.028
	c-3.893,0.245-7.42,1.988-10.482,5.182c-0.497,0.519-1.122,1.291-0.802,2.004c0.172,0.384,0.564,0.602,1.048,0.585
	c0.47-0.017,1.054-0.256,1.563-0.639c2.188-1.645,5.326-2.77,7.994-2.866c1.626-0.058,2.999,0.253,4.08,0.924
	c1.389,0.862,1.32,1.56,1.297,1.79c-0.184,1.869-4.314,4.166-6.484,4.98c-0.975,0.366-2.298,2.302-2.086,3.361
	c0.108,0.54,0.55,0.875,1.125,0.854c0.201-0.007,0.419-0.056,0.667-0.149c3.049-1.144,9.718-4.919,10.87-9.282
	C38.631,15.765,38.265,14.239,37.112,12.857z M27.075,25.994c-0.177,0.066-0.321,0.099-0.437,0.103
	c-1.104,0.04,0.349-2.472,1.243-2.808c2.518-0.945,10.332-4.954,5.315-8.068c-1.285-0.798-2.854-1.091-4.49-1.033
	c-3.04,0.109-6.31,1.436-8.405,3.012c-0.408,0.307-0.849,0.482-1.152,0.493c-0.489,0.018-0.623-0.391,0.305-1.359
	c2.722-2.839,6.016-4.709,10.003-4.96c0.177-0.011,0.359-0.02,0.546-0.027c2.229-0.08,5.073,0.203,6.552,1.976
	C40.988,18.638,30.731,24.622,27.075,25.994z"/>
<path class="st6" d="M23.979,44.814c-2.416,0.087-4.76-0.164-6.964-0.745c-4.048-1.065-6.316-2.806-6.938-5.323
	c-0.341-1.379-0.137-2.672,0.606-3.845c2.077-3.272,7.634-4.53,8.728-4.749c1.189-0.239,3.668-0.507,5.201-0.562
	c1.008-0.036,1.324,0.025,1.475,0.075c0.662,0.217,0.733,0.614,0.717,0.832c-0.04,0.565-0.761,1.026-1.433,1.145l-0.528,0.083
	c-1.811,0.278-7.318,1.124-9.209,2.476c-1.259,0.9-1.907,1.81-1.872,2.631c0.032,0.736,0.6,1.436,1.689,2.081
	c2.752,1.632,6.319,2.418,10.318,2.274c2.605-0.093,5.257-0.584,7.668-1.416c2.608-0.899,6.065-2.628,7.736-5.757
	c1.53-2.86-0.205-5.167-2.339-6.372c-2.06-1.163-5.172-1.705-9.002-1.567c-0.316,0.011-0.614,0.026-0.89,0.043
	c-2.216,0.135-5.624,0.616-9.625,3.221c-0.326,0.212-0.64,0.329-0.906,0.339l0,0c-0.337,0.012-0.597-0.157-0.68-0.441
	c-0.251-0.852,1.301-2.368,4.148-4.056c3.314-1.965,5.443-2.477,9.255-2.945c0.796-0.098,1.612-0.169,2.437-0.198
	c3.28-0.118,5.896,0.442,8,1.712c3.13,1.887,4.261,5.225,2.952,8.712c-2.149,5.725-8.072,10.125-15.843,11.77
	C27.114,44.561,25.533,44.759,23.979,44.814z"/>
<path class="st0" d="M33.584,22.4c2.703-0.097,5.485,0.264,7.8,1.66c3.053,1.841,4.035,4.982,2.799,8.273
	c-2.424,6.455-9.188,10.19-15.578,11.543c-1.524,0.323-3.078,0.52-4.638,0.576c-2.308,0.083-4.625-0.144-6.861-0.733
	c-2.702-0.711-5.938-2.066-6.677-5.06c-1.284-5.197,6.063-7.55,9.053-8.15c1.14-0.229,3.572-0.498,5.142-0.555
	c0.646-0.023,1.146-0.01,1.35,0.057c1.024,0.336,0.177,1.125-0.664,1.273c-0.914,0.161-7.674,1.04-9.887,2.622
	c-2.561,1.831-2.781,3.766-0.158,5.32c3.032,1.797,6.799,2.458,10.518,2.325c2.72-0.098,5.414-0.62,7.774-1.435
	c3.09-1.067,6.346-2.95,7.938-5.93c1.507-2.82,0.118-5.392-2.482-6.86c-2.742-1.549-6.583-1.708-9.191-1.614
	c-0.321,0.011-0.623,0.027-0.902,0.044c-2.769,0.169-6.034,0.826-9.802,3.279c-0.28,0.182-0.532,0.274-0.719,0.28
	c-0.774,0.028-0.438-1.389,3.665-3.821c3.275-1.941,5.323-2.432,9.115-2.898C31.964,22.5,32.77,22.429,33.584,22.4 M33.558,21.673
	c-0.778,0.028-1.608,0.096-2.468,0.201c-3.867,0.475-6.027,0.996-9.398,2.994c-2.185,1.295-4.707,3.122-4.312,4.471
	c0.119,0.404,0.468,0.669,0.909,0.7c-2.067,0.536-6.161,1.906-7.914,4.668c-0.799,1.259-1.019,2.647-0.653,4.126
	c0.657,2.658,3.011,4.486,7.198,5.588c2.24,0.59,4.619,0.844,7.072,0.756c1.575-0.056,3.177-0.255,4.762-0.591
	c7.893-1.671,13.915-6.157,16.108-11.999c1.375-3.661,0.185-7.167-3.104-9.151C39.592,22.13,36.91,21.553,33.558,21.673
	L33.558,21.673z M19.198,29.825c0.105-0.052,0.21-0.112,0.316-0.181c3.884-2.529,7.09-3.019,9.45-3.163
	c0.273-0.017,0.569-0.032,0.883-0.043c3.761-0.135,6.807,0.391,8.808,1.521c1.984,1.121,3.604,3.255,2.198,5.884
	c-1.702,3.184-5.451,4.866-7.534,5.585c-2.378,0.821-4.993,1.304-7.563,1.396c-3.929,0.141-7.428-0.628-10.121-2.224
	c-0.671-0.398-1.478-1.03-1.51-1.783c-0.029-0.682,0.582-1.506,1.72-2.32c1.207-0.863,4.251-1.674,9.048-2.411
	c0.249-0.038,0.434-0.067,0.542-0.086c0.798-0.141,1.677-0.706,1.732-1.477c0.015-0.203-0.012-0.89-0.967-1.203
	c-0.204-0.067-0.553-0.13-1.603-0.093c-1.574,0.056-4.031,0.322-5.259,0.568C19.298,29.804,19.251,29.813,19.198,29.825
	L19.198,29.825z"/>
</svg>
