<?xml version="1.0" encoding="utf-8"?>
<!-- Generator: Adobe Illustrator 19.2.0, SVG Export Plug-In . SVG Version: 6.00 Build 0)  -->
<svg version="1.1" id="Layer_1" xmlns:sketch="http://www.bohemiancoding.com/sketch/ns"
	 xmlns="http://www.w3.org/2000/svg" xmlns:xlink="http://www.w3.org/1999/xlink" x="0px" y="0px" viewBox="0 0 50 50"
	 style="enable-background:new 0 0 50 50;" xml:space="preserve">
<style type="text/css">
	.st0{fill:#FAFAFA;}
	.st1{display:none;fill:#1B9590;}
</style>
<image style="display:none;overflow:visible;enable-background:new    ;" width="128" height="128" xlink:href="64A8D0670501FD97.png"  transform="matrix(0.4121 0 0 0.4121 -1.375 -1.375)">
</image>
<path class="st0" d="M25,0.2C11.3,0.2,0.2,11.3,0.2,25S11.3,49.8,25,49.8S49.8,38.7,49.8,25S38.7,0.2,25,0.2z M25,47.8
	C12.4,47.8,2.2,37.6,2.2,25S12.4,2.2,25,2.2S47.8,12.4,47.8,25S37.6,47.8,25,47.8z"/>
<path class="st1" d="M25,0.2C11.3,0.2,0.2,11.3,0.2,25S11.3,49.8,25,49.8S49.8,38.7,49.8,25S38.7,0.2,25,0.2z M25,47.8
	C12.4,47.8,2.2,37.6,2.2,25S12.4,2.2,25,2.2S47.8,12.4,47.8,25S37.6,47.8,25,47.8z"/>
<path class="st1" d="M27.3,40V25.8h4.1l0.5-4.9h-4.6l0-2.5c0-1.3,0.1-2,2-2h2.5v-4.9h-4.1c-4.9,0-6.6,2.4-6.6,6.4v2.9h-3v4.9h3V40
	H27.3z"/>
<path class="st0" d="M39.9,16.7c-1.1,0.5-2.3,0.8-3.5,1c1.3-0.8,2.2-2,2.7-3.4c-1.2,0.7-2.5,1.2-3.9,1.5c-1.1-1.2-2.7-1.9-4.5-1.9
	c-3.4,0-6.1,2.7-6.1,6.1c0,0.5,0.1,0.9,0.2,1.4c-5.1-0.3-9.6-2.7-12.6-6.4c-0.5,0.9-0.8,2-0.8,3.1c0,2.1,1.1,4,2.7,5.1
	c-1,0-2-0.3-2.8-0.8c0,0,0,0.1,0,0.1c0,3,2.1,5.4,4.9,6c-0.5,0.1-1.1,0.2-1.6,0.2c-0.4,0-0.8,0-1.2-0.1c0.8,2.4,3,4.2,5.7,4.3
	c-2.1,1.6-4.7,2.6-7.6,2.6c-0.5,0-1,0-1.5-0.1c2.7,1.7,5.9,2.8,9.4,2.8c11.3,0,17.4-9.3,17.4-17.4c0-0.3,0-0.5,0-0.8
	C38.1,19,39.1,18,39.9,16.7z"/>
</svg>
