<?xml version="1.0" encoding="utf-8"?>
<!-- Generator: Adobe Illustrator 19.2.0, SVG Export Plug-In . SVG Version: 6.00 Build 0)  -->
<svg version="1.1" id="Layer_1" xmlns="http://www.w3.org/2000/svg" xmlns:xlink="http://www.w3.org/1999/xlink" x="0px" y="0px"
	 viewBox="0 0 139.8 49.5" style="enable-background:new 0 0 139.8 49.5;" xml:space="preserve">
<style type="text/css">
	.st0{fill:#89267B;}
	.st1{fill:url(#SVGID_1_);}
	.st2{fill:url(#SVGID_2_);}
	.st3{fill:url(#SVGID_3_);}
	.st4{fill:url(#SVGID_4_);}
	.st5{fill:#A82277;}
	.st6{fill:url(#SVGID_5_);}
	.st7{fill:url(#SVGID_6_);}
	.st8{fill:url(#SVGID_7_);}
	.st9{fill:url(#SVGID_8_);}
	.st10{fill:#F5A622;}
	.st11{fill:#9052A1;}
	.st12{fill:#7A1F5E;}
	.st13{fill:#6C2B86;}
	.st14{fill:#72C05D;}
	.st15{fill:#F3B421;}
	.st16{fill:#405AA8;}
	.st17{fill:#5D9641;}
</style>
<g>
	<linearGradient id="SVGID_1_" gradientUnits="userSpaceOnUse" x1="2.4795" y1="25.1407" x2="22.2338" y2="25.1407">
		<stop  offset="0" style="stop-color:#A82277"/>
		<stop  offset="0.3237" style="stop-color:#A42174"/>
		<stop  offset="0.608" style="stop-color:#98216E"/>
		<stop  offset="0.8766" style="stop-color:#852064"/>
		<stop  offset="1" style="stop-color:#7A1F5E"/>
	</linearGradient>
	<path class="st1" d="M2.5,2.3v13.5c0,0,4.5-0.2,8.3,3.5s8.2,11.6,9.2,16.3S22,48,22,48s1.3-17-2.9-28.8S8.9,2.5,2.5,2.3z"/>
	<linearGradient id="SVGID_2_" gradientUnits="userSpaceOnUse" x1="50.1835" y1="25.1407" x2="69.9378" y2="25.1407">
		<stop  offset="0" style="stop-color:#7A1F5E"/>
		<stop  offset="0.1234" style="stop-color:#852064"/>
		<stop  offset="0.392" style="stop-color:#98216E"/>
		<stop  offset="0.6763" style="stop-color:#A42174"/>
		<stop  offset="1" style="stop-color:#A82277"/>
	</linearGradient>
	<path class="st2" d="M69.9,2.3v13.5c0,0-4.5-0.2-8.3,3.5c-3.7,3.7-8.2,11.6-9.2,16.3S50.4,48,50.4,48s-1.3-17,2.9-28.8
		S63.5,2.5,69.9,2.3z"/>
	<path class="st5" d="M22,48c0,0-2.3-46.1,14.2-46.1C51.8,1.9,50.4,48,50.4,48h-7.1c0,0-0.9-20.2-2.1-29.5c-1-7.5-3.7-13.2-4.6-15.1
		c-0.1-0.3-0.5-0.3-0.6,0c-0.9,1.9-3.5,7.6-4.5,15.1C30.2,27.8,29,48,29,48H22z"/>
</g>
<g>
	<path class="st5" d="M74.7,2.3v13.5H73V2.3H74.7z"/>
	<path class="st5" d="M78.5,15.8V2.3h1.9l4.3,6.8c1,1.6,1.8,3,2.4,4.4l0,0C87,11.6,87,10,87,7.9V2.3h1.6v13.5h-1.8l-4.3-6.8
		c-0.9-1.5-1.8-3-2.5-4.5l-0.1,0c0.1,1.7,0.1,3.3,0.1,5.6v5.8H78.5z"/>
	<path class="st5" d="M92.3,2.4c1.1-0.2,2.3-0.3,3.7-0.3c2.5,0,4.3,0.6,5.5,1.7c1.2,1.1,1.9,2.7,1.9,4.8c0,2.2-0.7,4-1.9,5.2
		c-1.3,1.3-3.3,1.9-6,1.9c-1.2,0-2.3-0.1-3.2-0.2V2.4z M94.1,14.4c0.4,0.1,1.1,0.1,1.8,0.1c3.7,0,5.7-2.1,5.7-5.7
		c0-3.2-1.8-5.2-5.5-5.2c-0.9,0-1.6,0.1-2,0.2V14.4z"/>
	<path class="st5" d="M117.9,8.9c0,4.6-2.8,7.1-6.3,7.1c-3.6,0-6.1-2.8-6.1-6.8c0-4.3,2.7-7.1,6.3-7.1C115.5,2,117.9,4.9,117.9,8.9z
		 M107.4,9.1c0,2.9,1.6,5.5,4.3,5.5c2.8,0,4.3-2.5,4.3-5.6c0-2.7-1.4-5.5-4.3-5.5C108.9,3.5,107.4,6.1,107.4,9.1z"/>
	<path class="st5" d="M123,15.8l-3.4-13.5h1.8l1.6,6.8c0.4,1.7,0.8,3.4,1,4.7h0c0.2-1.3,0.6-2.9,1.1-4.7l1.8-6.8h1.8l1.6,6.8
		c0.4,1.6,0.7,3.2,0.9,4.6h0c0.3-1.5,0.7-3,1.1-4.7l1.8-6.8h1.8l-3.8,13.5h-1.8l-1.7-7c-0.4-1.7-0.7-3-0.9-4.4h0
		c-0.2,1.3-0.5,2.7-1,4.4l-1.9,7H123z"/>
</g>
<g>
	<path class="st5" d="M66,42c0,3.4,1.6,4.8,5.2,4.8c2.9,0,6.2-1.6,7.8-3.5l0.7,0.6c-2.4,2.7-6,4.2-10.3,4.2c-5.9,0-9.4-3-9.4-7.8
		c0-7.7,5.7-11.8,13.2-11.8c5.5,0,8.5,1.7,8.5,4.8c0,5.3-7.3,7.9-15.7,8C66,41.6,66,41.8,66,42z M76.3,32.9c0-2.2-1.1-3.3-3.3-3.3
		c-3.4,0-6.4,5.2-6.9,10.9C72.3,40.4,76.3,38.2,76.3,32.9z"/>
	<path class="st5" d="M108,29c-0.2,2.1-1.8,8.7-2.2,10.3l-0.9,3.4c-0.1,0.3-0.1,0.6-0.1,0.9c0,1.4,0.8,2.1,1.8,2.1
		c1,0,2.1-0.7,2.8-1.8l1.3-2.6l0.3,0.2l-1.7,3.4c-1.1,2.2-2.9,3.3-4.6,3.3c-2.4,0-4.6-2.1-4.6-5.9c-1.4,3-3.7,5.9-8.7,5.9
		c-5.2,0-8.7-3-8.7-7.6c0-7.1,5-11.9,12.5-11.9c3.1,0,5,0.9,6,2.7c0.9-2.1,2.4-2.3,2.9-2.3H108z M96.8,29.6c-4.8,0-8,5.1-8,12.7
		c0,2.9,1.5,4.5,4.4,4.5c3.7,0,5.7-3.8,6.9-6.8c0.2-0.4,0.3-1.4,0.3-1.7l0.4-5.1c0-0.2,0.1-0.5,0.1-0.8c0-0.2,0-0.4-0.1-0.5
		C99.8,30.3,98.2,29.6,96.8,29.6z"/>
	<path class="st5" d="M121.6,32.7c0,0.3,0,0.5,0,0.9c1.8-3.5,5.6-6.4,8.6-6.4c2.4,0,4,1.3,4,3.3c0,1.9-1.9,3.2-3.3,3.2
		c-0.2,0-0.4,0-0.6-0.1c-0.2-2.5-1.3-3.9-2.9-3.9c-2.5,0-5.7,4.5-7,9.6l-2.1,8.2c0,0.1-0.4,0.2-0.4,0.2l-2.5,0
		c-1.3,0-2.5-0.1-2.5-0.5c0,0,0-0.1,0-0.2l2.4-14.1c0.1-0.6,0.1-1.1,0.1-1.5c0-0.9-0.2-1.3-0.6-1.3c-0.5,0-1.2,0.7-1.8,1.9l-1.1,2.2
		l-0.4-0.2l1.1-2.2c1.3-2.5,3.2-3.1,5.4-3.1C120.8,28.8,121.6,30.5,121.6,32.7z"/>
</g>
</svg>
